<?xml version="1.0" encoding="UTF-8"?>
<!DOCTYPE svg PUBLIC "-//W3C//DTD SVG 1.1//EN" "http://www.w3.org/Graphics/SVG/1.1/DTD/svg11.dtd">
<!-- Creator: CorelDRAW -->
<svg xmlns="http://www.w3.org/2000/svg" xml:space="preserve" width="8.5in" height="11in" style="shape-rendering:geometricPrecision; text-rendering:geometricPrecision; image-rendering:optimizeQuality; fill-rule:evenodd; clip-rule:evenodd"
viewBox="0 0 8.5 11"
 xmlns:xlink="http://www.w3.org/1999/xlink">
 <defs>
  <style type="text/css">
   <![CDATA[
    .fil26 {fill:#141412}
    .fil16 {fill:#150908}
    .fil13 {fill:#171B19}
    .fil7 {fill:#262927}
    .fil31 {fill:#292619}
    .fil20 {fill:#2E1109}
    .fil22 {fill:#34332C}
    .fil1 {fill:#454E51}
    .fil27 {fill:#4B4C44}
    .fil8 {fill:#5A6365}
    .fil24 {fill:#646564}
    .fil9 {fill:#6A7374}
    .fil34 {fill:#763532}
    .fil21 {fill:#78191C}
    .fil11 {fill:#828B8C}
    .fil35 {fill:#888987}
    .fil17 {fill:#8F9897}
    .fil15 {fill:#92ADE4}
    .fil32 {fill:#980A15}
    .fil19 {fill:#A51824}
    .fil28 {fill:#A5A49B}
    .fil23 {fill:#AF2B33}
    .fil10 {fill:#B9CBD2}
    .fil4 {fill:#BBA47B}
    .fil25 {fill:#CA5969}
    .fil33 {fill:#CD2C35}
    .fil12 {fill:#CFA931}
    .fil5 {fill:#D2C6B3}
    .fil6 {fill:#D4EBF5}
    .fil18 {fill:#D91034}
    .fil3 {fill:#E6E7E3}
    .fil2 {fill:#FCB917}
    .fil14 {fill:#FDC609}
    .fil0 {fill:#FEFEFE}
    .fil30 {fill:#34332C;fill-rule:nonzero}
    .fil29 {fill:#AF2B33;fill-rule:nonzero}
   ]]>
  </style>
 </defs>
 <g id="Layer_x0020_1">
  <metadata id="CorelCorpID_0Corel-Layer"/>
  <g id="_62034464">
   <g>
    <path id="_75348688" class="fil0" d="M2.14492 7.57026l1.88593 0c-0.0420551,-0.062063 -0.652157,-0.136028 -0.927429,-0.794311l0.039937 -0.0488189 0 -0.0221811c-0.379575,-0.253831 -0.355004,-0.546031 -0.355004,-0.976248l0 -0.310626c0,-0.67278 0.0715315,-1.12934 -0.0146614,-1.8269 -0.0734961,-0.594862 -0.162835,-1.16396 -0.162835,-1.76747l0 -0.244063c0,-0.844815 0.597291,-0.776563 1.33124,-0.776563l0.316173 0c0.540835,0 1.2875,-0.0795394 1.34789,0.576874 0.80665,0.392937 0.900579,0.851217 0.82439,1.7119 -0.0659606,0.745201 -0.336268,1.53868 -0.336268,2.25966l0 0.443752c0,0.752752 0.207575,1.54993 -0.687811,1.775l1.17594 0 0 -7.14437 -4.43749 0 0 7.14437z"/>
    <path id="_35122808" class="fil1" d="M3.9421 6.15026c0,-0.106925 0.0694449,-0.1775 0.177504,-0.1775 0.107169,0 0.155311,0.0481378 0.155311,0.155315 0,0.106681 -0.0381417,0.1775 -0.155311,0.1775 -0.100807,0 -0.177504,-0.0481024 -0.177504,-0.155315zm0.865311 -0.1775c0.257575,0 0.218157,0.332492 0,0.332488 -0.237512,0 -0.223878,-0.332488 0,-0.332488zm-0.0645315 -3.13722l0.086315 -0.0160394 0.177902 0.00263386 0.0940512 0.0128425c0.0109646,0.0389331 0.0245236,0.0545118 0.0168858,0.0980984l-0.0128425 0.0940433 -0.0974764 0.0204173 -0.178114 -0.00352362 -0.0851299 -0.0132402 -0.00159055 -0.195232zm-0.80078 -0.0134055l0.0761063 0.00895276 0.0152756 0.0793937 -0.00263386 0.0225945 -0.00894488 0.0760984 -0.0794016 0.0152835 -0.200091 -0.00263386 -0.0847913 -0.0132205 -0.00168504 -0.173047 0.0860748 -0.0160551 0.200091 0.00263386zm-0.460642 0.0128425c0.0109685,0.0389331 0.0245315,0.0545118 0.0168937,0.0980984l-0.0128425 0.0940433 -0.0974764 0.0204173 -0.155929 -0.00352362 -0.103945 -0.0174173 -0.00593701 -0.190768 0.0872913 -0.0163268 0.177902 0.00263386 0.0940433 0.0128425zm0.730299 0.000669291l0.0849409 -0.0161457 0.177902 0.00263386 0.0761024 0.00895276 -0.0230433 0.145453 -0.313803 -0.0344409 -0.00209843 -0.106453zm-0.469346 -1.36695l-0.665622 0c-0.0403268,0.0616024 -0.0443701,0.054685 -0.0443701,0.133126l0 0.843126 0.00894094 0.0761024 0.0354291 -0.0317283c0,-0.246091 -0.137346,-0.976252 0.199689,-0.976252l0.022189 0 1.59749 0 0.044378 0c0.336016,0 0.199685,0.733909 0.199685,0.976252 -0.239717,0.221276 -0.894126,0.133126 -1.22031,0.133126 -0.20961,0 -0.46085,-0.0131575 -0.665622,0.0125827 -0.13078,0.0164488 0.291807,0.0318937 0.310476,0.0318819 0.397228,-0.000377953 0.969839,-0.0336181 1.34698,0.00830315 0.0416535,0.00462992 -0.0790197,0.0101457 -0.0817362,0.010252 -0.111335,0.00448425 -0.221846,0.00359449 -0.333224,0.00353937 -0.224039,-9.84252e-005 -0.443866,0.0101969 -0.668024,0.0101969l-0.0557677 0c-0.187268,0 -0.44139,0.0154134 -0.586906,0.139043 -0.059937,0.0509213 -0.199362,0.261913 -0.104701,0.299319 0.0606575,0.0239685 0.172543,-0.0723031 0.227205,-0.0297323 0.0343898,0.0267835 -0.147988,0.0864055 -0.190461,0.151197 -0.114228,0.174268 1.00468,-0.112713 1.1124,0.317476l0.131559 0.130283 -0.0152992 0.0163976 -0.180354 -0.122028c-0.00645276,0.122453 0.0994331,0.16263 -0.0150512,0.384323 -0.0651142,0.126083 -0.10748,0.291161 -0.167504,0.387181 -0.0326417,0.0522205 -0.307874,0.727429 -0.308327,0.756122l0.0668504 0.000846457c0.0855748,-0.342102 0.363374,-0.193839 0.500157,-0.444571 0.0756535,-0.138673 0.216484,-0.232748 0.19163,-0.402555 -0.0222087,-0.151713 0.290512,-0.00806299 0.00823228,0.437646 -0.172106,0.271764 -0.307882,0.308984 -0.589079,0.40948l-0.00443701 0.039937c-0.426961,0.0359409 -0.359429,-0.0659055 -0.661189,-0.150874l-0.022189 0.0369764c0.130268,0.33072 -0.076815,0.18048 -0.0147835,0.387047 0.0465039,-0.010378 0.232587,-0.142185 0.207075,0.130661l-0.0315709 0.0192205 -0.108406 -0.140957 0.0600157 0.359283 0.0979252 -0.112705 0.0316102 -0.000472441 0.0465709 0.252815c0.316921,0.275287 -0.0201063,0.469402 -0.199685,0.266256 -0.0314843,-0.0540197 -0.0399449,-0.0479567 -0.0498268,-0.112335 -0.00184646,-0.0120512 -0.0187205,-0.121224 -0.0276969,-0.121921 -0.000114173,-1.1811e-005 -0.0590315,0.23465 -0.0674843,0.208807 -0.0642087,-0.196335 -0.0713465,-1.05361 -0.0597638,-1.29154 0.00743701,-0.152728 -0.0141417,-0.259 0.0281339,-0.414764 0.0240866,-0.0887283 0.108831,-0.0698228 0.112453,0.0162008 0.0141063,0.334382 0.150488,0.0769724 0.21389,-0.0364724 0.137874,-0.246693 -0.0845591,-0.0850866 -0.178764,-0.197937 -0.179315,-0.214795 0.00874409,-0.551488 0.242008,-0.655063 0.0780787,-0.0346614 0.396445,-0.111291 0.445106,-0.00686614 0.0309567,0.0664213 -0.116555,0.34524 -0.149094,0.436157 -0.123362,0.344646 -0.171323,0.737587 -0.442394,0.999783 0.147508,-0.0462323 0.23022,0.0676693 0.302169,-0.0749173 0.0485433,-0.096189 0.0963858,-0.266752 0.135606,-0.374795 0.0951969,-0.262236 0.18572,-0.471224 0.295362,-0.725366 0.146398,-0.339343 -0.0935866,-0.443307 -0.400933,-0.400142 -0.381252,0.0535394 -0.403791,0.151673 -0.66502,0.377102 -0.0162402,0.166173 -0.100492,0.270594 -0.100492,0.471157l0 0.0391496c0,0.215067 0.100882,0.399421 0.100512,0.709984 -0.000334646,0.28024 0.0128031,0.534335 0.0299291,0.813193 0.046378,0.755091 0.173925,0.739953 0.946299,0.739953l0.377185 0c0.24087,0 0.617031,-0.00293307 0.776559,-0.199689 0.0546811,-0.743622 0.0439449,-1.49583 0.0442598,-2.24105 0.00030315,-0.710535 0.177618,-1.37457 0.177618,-2.08551l0 -0.443744c0,-0.49898 -0.0228071,0.304441 -0.0265039,0.395051 -0.00641339,0.157291 -0.0844331,0.827008 -0.0844331,0.270571l0.0028937 -0.688039 -0.0250827 -0.310398 -0.0868898 0.112177 -0.0981811 -0.0529961 -0.477063 0.0263543c-0.207969,0.128693 -0.518575,0.0697756 -0.80224,0.0697756z"/>
    <path id="_72040568" class="fil2" d="M5.11804 6.41651c-0.159528,0.196756 -0.535689,0.199689 -0.776559,0.199689l-0.377185 0c-0.772374,0 -0.899921,0.0151378 -0.946299,-0.739953 -0.017126,-0.278858 -0.0302638,-0.532953 -0.0299291,-0.813193 0.000370079,-0.310563 -0.100512,-0.494917 -0.100512,-0.709984l0 -0.0391496c0,-0.200563 0.084252,-0.304984 0.100492,-0.471157l-0.187594 -1.59626 0.0100945 -0.799988 0.0665591 -0.421563 1.1747 -0.145091 0.178732 0.0119646 1.13156 0.133126 0.0502323 0.509795 -0.0058622 0.444264c0,0.718409 -0.193409,1.44269 -0.220264,2.1538 -0.0240197,0.636043 0.074622,1.71005 -0.0681732,2.2837zm-1.97468 0.288437l0.198976 0.0275669 0.0450827 0.0389921 0.399374 0 0.377185 0c0.529988,0 1.22031,0.0493976 1.22031,-0.643433l0 -0.976252 -0.0236024 -0.576811 0.00142126 -0.488189c0,-0.50937 0.120945,-0.779232 0.17824,-1.24175 0.0555433,-0.448343 0.0658189,-0.902618 0.0658189,-1.35419l0 -0.110937c-0.0603898,-0.656413 -0.807051,-0.576874 -1.34789,-0.576874l-0.316173 0c-0.733953,0 -1.33124,-0.068252 -1.33124,0.776563l0 0.244063c0,0.603512 0.0893386,1.17261 0.162835,1.76747 0.0861929,0.697563 0.0146614,1.15412 0.0146614,1.8269l0 0.310626c0,0.430217 -0.0245709,0.722417 0.355004,0.976248z"/>
    <path id="_72040680" class="fil3" d="M5.60616 1.49088l0.022189 0.110941c0.424307,0.240346 0.465933,0.676717 0.465933,1.13156 0,0.92528 -0.343937,1.87754 -0.310622,2.84l0.0233819 0.709957 -0.00119291 0.199732c0,0.799276 -0.515571,0.798748 -1.17594,0.798748l-0.1775 0c-0.482236,0 -1.00339,-0.167031 -1.30906,-0.554693l-0.039937 0.0488189c0.275272,0.658283 0.885374,0.732248 0.927429,0.794311l1.37562 0c0.895386,-0.225067 0.687811,-1.02225 0.687811,-1.775l0 -0.443752c0,-0.72098 0.270307,-1.51446 0.336268,-2.25966 0.076189,-0.860681 -0.0177402,-1.31896 -0.82439,-1.7119l0 0.110937z"/>
    <path id="_75837456" class="fil4" d="M3.38742 6.7715c0.322035,0.27776 0.597264,0.355 1.02063,0.355l0.665622 0c0.711378,0 0.532496,-0.559961 0.532496,-1.13156 0,-0.562717 0.00561024,-1.00602 0.0745591,-1.56731 0.113945,-0.927563 0.444661,-1.96889 -0.0523701,-2.82581l-0.022189 -0.110941c0,0.451567 -0.0102756,0.905843 -0.0658189,1.35419 -0.0572953,0.46252 -0.17824,0.732382 -0.17824,1.24175l-0.00142126 0.488189 0.0236024 0.576811 0 0.976252c0,0.692831 -0.690319,0.643433 -1.22031,0.643433l-0.377185 0 -0.399374 0z"/>
    <path id="_75837552" class="fil5" d="M3.38742 6.7715l-0.0450827 -0.0389921 -0.198976 -0.0275669 0 0.0221811c0.305661,0.387661 0.826819,0.554693 1.30906,0.554693l0.1775 0c0.660366,0 1.17594,0.000527559 1.17594,-0.798748l0.00119291 -0.199732 -0.0233819 -0.709957c-0.033315,-0.962457 0.310622,-1.91472 0.310622,-2.84 0,-0.454846 -0.041626,-0.891217 -0.465933,-1.13156 0.497031,0.856913 0.166315,1.89824 0.0523701,2.82581 -0.0689488,0.561291 -0.0745591,1.0046 -0.0745591,1.56731 0,0.571598 0.178882,1.13156 -0.532496,1.13156l-0.665622 0c-0.423362,0 -0.698591,-0.0772402 -1.02063,-0.355z"/>
    <path id="_72040960" class="fil6" d="M4.05304 1.75714l0.029622 -0.0367283 0.081122 -0.00946063 0.0667559 0.00181102 0.0940512 0.0128425 0.0168858 0.453094 0.088748 0 0.0168937 -0.453094 0.0940472 -0.0128425 0.0671811 -0.00352362 0.0974724 0.0204173 0.0128425 0.0940433 0 0.310626c0,0.0784409 -0.00404331,0.0715236 -0.0443701,0.133122l-0.00208268 0.20663 -0.316173 -0.000885827 -0.0730512 -0.00201969 -0.215386 0.00201969 -0.0730315 -0.00153543 -0.217831 -0.000484252 -0.0907953 0c-0.591217,0 -0.486469,-0.237618 -0.371689,-0.179 0.0650827,0.0332362 0.16152,0.108748 0.241677,0.101303 0.00432677,-0.000405512 0.204484,-0.0732205 0.186484,-0.126028l-0.0759055 -0.0390748 -0.0128425 -0.0940472 0 -0.288437c0,-0.0787677 0.00331496,-0.0908622 0.0530236,-0.148516l0.0801024 -0.00679921 0.0445748 -0.00181102 0.0811181 0.00946063 0.0296181 0.0367283 0.0843504 0.470484 0.0265866 -0.448295zm-0.710567 0.0200315l0.0195866 0.138449c0.120547,0.0490236 0.202858,0.000779528 0.202858,0.174327l0 0.022189c0,0.0701732 0.000704724,0.0666496 -0.0285236,0.126787 -0.0464646,0.0225866 -0.047622,0.0285236 -0.104598,0.0285236 -0.0701772,0 -0.0666496,0.000708661 -0.126787,-0.0285236 -0.0292323,-0.0601378 -0.0285276,-0.0566142 -0.0285276,-0.126787l0 -0.244063c0,-0.0664528 0.000204724,-0.0712992 0.0253583,-0.129953 0.0409291,-0.0202717 0.0340945,-0.0253583 0.0855787,-0.0253583 0.0594409,0 0.0465551,-0.00701969 0.0934016,0.0277913l-0.138346 0.0366181zm-0.265681 0.712154c0.0546811,0.0434764 0.0596811,0.044374 0.133126,0.044374l1.775 0c0.0791142,0 0.0904134,-0.00332677 0.155307,-0.044374 0,-0.242343 0.136331,-0.976252 -0.199685,-0.976252l-0.044378 0 -1.59749 0 -0.022189 0c-0.337035,0 -0.199689,0.730161 -0.199689,0.976252z"/>
    <path id="_74238400" class="fil7" d="M2.98804 3.84276c0.261228,-0.225429 0.283768,-0.323563 0.66502,-0.377102 0.307346,-0.0431654 0.547331,0.0607992 0.400933,0.400142 -0.109642,0.254142 -0.200165,0.46313 -0.295362,0.725366 -0.0392205,0.108043 -0.087063,0.278606 -0.135606,0.374795 -0.0719488,0.142587 -0.154661,0.028685 -0.302169,0.0749173l-0.27076 -0.194571 0.13763 0.17239c0.30176,0.0849685 0.234228,0.186815 0.661189,0.150874l0.00443701 -0.039937 -0.110941 0 -0.0668504 -0.000846457c0.000452756,-0.0286929 0.275685,-0.703902 0.308327,-0.756122 0.0600236,-0.0960197 0.10239,-0.261098 0.167504,-0.387181 0.114484,-0.221693 0.00859843,-0.26187 0.0150512,-0.384323l0.180354 0.122028 0.0152992 -0.0163976 -0.131559 -0.130283c-0.700732,-0.411685 -1.00471,0.104118 -1.16399,0.0938661 -0.0759055,-0.0952441 -0.168882,-0.930602 -0.098685,-1.02957 0.0465079,-0.0655787 -0.00201181,-1.00915 -0.00201181,-1.17211l0.00581102 -0.164555 0.238252 -0.0129449 0.465402 -0.0705669 1.02116 0.00400787 0.510307 0.088748 0.0250827 0.310398 -0.0028937 0.688039c0,0.556437 0.0780197,-0.11328 0.0844331,-0.270571 0.00369685,-0.0906102 0.0265039,-0.894031 0.0265039,-0.395051l0 0.443744c0,0.710945 -0.177315,1.37498 -0.177618,2.08551 -0.000314961,0.74522 0.0104213,1.49743 -0.0442598,2.24105 0.142795,-0.573657 0.0441535,-1.64766 0.0681732,-2.2837 0.0268543,-0.711102 0.220264,-1.43539 0.220264,-2.1538l0.0058622 -0.444264 -0.0502323 -0.509795 -0.0473898 0.163059 -1.03898 -0.104831 -0.372457 0.00833071 -1.0234 0.0895354 -0.00277559 -0.156094 -0.0665591 0.421563 -0.0100945 0.799988 0.187594 1.59626z"/>
    <path id="_72041688" class="fil8" d="M3.25429 6.21682c-0.0415236,-0.166102 0.0286969,-0.255823 0.199685,-0.266256l-0.0465709 -0.252815 -0.0316102 0.000472441 -0.0979252 0.112705 -0.0600157 -0.359283 0.108406 0.140957 0.0315709 -0.0192205c0.0255118,-0.272846 -0.160571,-0.141039 -0.207075,-0.130661 -0.0620315,-0.206567 0.145051,-0.0563268 0.0147835,-0.387047l0.022189 -0.0369764 -0.13763 -0.17239 0.27076 0.194571c0.271071,-0.262197 0.319031,-0.655138 0.442394,-0.999783 0.0325394,-0.0909173 0.180051,-0.369736 0.149094,-0.436157 -0.0486614,-0.104425 -0.367028,-0.0277953 -0.445106,0.00686614 -0.233264,0.103575 -0.421323,0.440268 -0.242008,0.655063 0.0942047,0.11285 0.316638,-0.0487559 0.178764,0.197937 -0.0634016,0.113445 -0.199783,0.370854 -0.21389,0.0364724 -0.00362205,-0.0860236 -0.0883661,-0.104929 -0.112453,-0.0162008 -0.0422756,0.155764 -0.0206969,0.262035 -0.0281339,0.414764 -0.0115827,0.237929 -0.00444488,1.0952 0.0597638,1.29154 0.00845276,0.0258425 0.0673701,-0.208819 0.0674843,-0.208807 0.00897638,0.00069685 0.0258504,0.10987 0.0276969,0.121921 0.00988189,0.064378 0.0183425,0.058315 0.0498268,0.112335z"/>
    <path id="_72040456" class="fil9" d="M4.23054 3.57651c-0.107724,-0.430189 -1.22663,-0.143209 -1.1124,-0.317476 0.0424724,-0.0647913 0.22485,-0.124413 0.190461,-0.151197 -0.0546614,-0.0425709 -0.166547,0.0537008 -0.227205,0.0297323 -0.0946614,-0.0374055 0.0447638,-0.248398 0.104701,-0.299319 0.145516,-0.12363 0.399638,-0.139043 0.586906,-0.139043l0.0557677 0c0.224157,0 0.443984,-0.0102953 0.668024,-0.0101969 0.111378,5.51181e-005 0.22189,0.000944882 0.333224,-0.00353937 0.00271654,-0.000106299 0.12339,-0.00562205 0.0817362,-0.010252 -0.377142,-0.0419213 -0.949752,-0.0086811 -1.34698,-0.00830315 -0.0186693,1.1811e-005 -0.441256,-0.0154331 -0.310476,-0.0318819 0.204772,-0.0257402 0.456012,-0.0125827 0.665622,-0.0125827 0.326181,0 0.980591,0.0881496 1.22031,-0.133126 -0.0648937,0.0410472 -0.0761929,0.044374 -0.155307,0.044374l-1.775 0c-0.0734449,0 -0.0784449,-0.000897638 -0.133126,-0.044374l-0.0354291 0.0317283 -0.00894094 -0.0761024 0 -0.843126c0,-0.0784409 0.00404331,-0.0715236 0.0443701,-0.133126l-0.110937 0c0,0.162957 0.0485197,1.10653 0.00201181,1.17211 -0.0701969,0.0989646 0.0227795,0.934323 0.098685,1.02957 0.15928,0.010252 0.463256,-0.505551 1.16399,-0.0938661z"/>
    <polygon id="_75838032" class="fil9" points="2.8771,1.02495 2.87988,1.18104 3.90328,1.09151 4.27573,1.08318 5.31471,1.18801 5.3621,1.02495 4.23054,0.891823 4.05181,0.879858 "/>
    <path id="_72041744" class="fil10" d="M3.74241 2.26744c0.018,0.0528071 -0.182157,0.125622 -0.186484,0.126028 -0.0801575,0.00744488 -0.176594,-0.0680669 -0.241677,-0.101303 -0.11478,-0.0586181 -0.219528,0.179 0.371689,0.179l0.0907953 0 0.217831 0.000484252 0.0730315 0.00153543 0.215386 -0.00201969 0.0730512 0.00201969 0.316173 0.000885827 0.00208268 -0.20663 -0.204661 -0.00828346 -0.0394055 -0.0804646 -0.088748 0 -0.0491024 0.0824724 -0.0838228 0.00808661 -0.0445748 -0.00181102 -0.0940433 -0.0128386 -0.0168937 -0.497469 -0.0265866 0.448295 -0.0843504 -0.470484 -0.0118071 0.207114 -0.0284567 0.00273228 -0.0432992 -0.169161 -0.0974016 -0.00944488 -0.0242835 0.0100866 0.00201181 0.405705 0.0222717 0.00984646 0.0949882 0 0.0442008 -0.200484c0.0490276,0.0510669 0.0417756,0.0333504 0.0417756,0.0986024l0 0.022189c0,0.0664528 -0.000208661,0.0712992 -0.0253543,0.129957l-0.174335 0.0253543z"/>
    <path id="_75869736" class="fil11" d="M3.20992 1.2912l0.526693 0.0129449 0.00580315 0.164555c0.283665,0 0.594272,0.0589173 0.80224,-0.0697756l0.477063 -0.0263543 0.0981811 0.0529961 0.0868898 -0.112177 -0.510307 -0.088748 -1.02116 -0.00400787 -0.465402 0.0705669z"/>
    <path id="_72041464" class="fil9" d="M3.74241 5.12963l0.110941 0c0.281197,-0.100496 0.416972,-0.137717 0.589079,-0.40948 0.28228,-0.445709 -0.0304409,-0.589358 -0.00823228,-0.437646 0.0248543,0.169807 -0.115976,0.263882 -0.19163,0.402555 -0.136783,0.250732 -0.414583,0.102469 -0.500157,0.444571z"/>
    <polygon id="_74239264" class="fil12" points="2.96585,1.4687 3.07679,1.4687 3.74241,1.4687 3.73661,1.30414 3.20992,1.2912 2.97167,1.30414 "/>
    <path id="_72041184" class="fil8" d="M3.74241 2.26744l0.174335 -0.0253543c0.0251457,-0.0586575 0.0253543,-0.0635039 0.0253543,-0.129957l0 -0.022189c0,-0.065252 0.00725197,-0.0475354 -0.0417756,-0.0986024l-0.0442008 0.200484 -0.0949882 0 -0.0222717 -0.00984646 -0.00201181 -0.405705 0.0242835 -0.0100866 0.0974016 0.00944488 0.0432992 0.169161 0.0284567 -0.00273228 0.0118071 -0.207114 -0.0296181 -0.0367283 -0.0811181 -0.00946063 -0.0445748 0.00181102 -0.0801024 0.00679921c-0.0497087,0.0576535 -0.0530236,0.069748 -0.0530236,0.148516l0 0.288437 0.0128425 0.0940472 0.0759055 0.0390748z"/>
    <path id="_72041352" class="fil13" d="M3.9421 6.15026c0,0.107213 0.0766969,0.155315 0.177504,0.155315 0.117169,0 0.155311,-0.0708189 0.155311,-0.1775 0,-0.107177 -0.0481417,-0.155315 -0.155311,-0.155315 -0.108059,0 -0.177504,0.0705748 -0.177504,0.1775z"/>
    <path id="_72042080" class="fil1" d="M4.4895 1.77059l0.0956417 -0.0160866c0.030252,-0.00193701 0.0332402,0.00681496 0.0536496,0.0159409l0.0180079 0.417213 -0.0930394 0.0158622c-0.0302598,0.00192913 -0.0332402,-0.0068189 -0.0713583,-0.0158228l-0.00290157 -0.417106zm-0.0592717 0.408106l0.0394055 0.0804646 0.204661 0.00828346c0.0403268,-0.0615984 0.0443701,-0.0546811 0.0443701,-0.133122l0 -0.310626 -0.0128425 -0.0940433 -0.0974724 -0.0204173 -0.0671811 0.00352362 -0.0940472 0.0128425 -0.0168937 0.453094z"/>
    <path id="_75869832" class="fil14" d="M4.74447 3.03077l0.0851299 0.0132402 0.178114 0.00352362 0.0974764 -0.0204173 0.0128425 -0.0940433c0.0076378,-0.0435866 -0.00592126,-0.0591654 -0.0168858,-0.0980984l-0.0940512 -0.0128425 -0.177902 -0.00263386 -0.086315 0.0160394 0.00159055 0.195232z"/>
    <path id="_72041016" class="fil1" d="M4.09081 1.95399l0.0421063 -0.183543c0.0204173,-0.00912598 0.0233976,-0.017878 0.0536575,-0.0159409l0.0771575 0.015622 0.0353071 0.198232 -0.0438819 0.0773661 -0.0157402 0.150091 -0.106122 -0.00830709 -0.0424843 -0.23352zm-0.0377677 -0.19685l0.0168937 0.497469 0.0940433 0.0128386 0.0445748 0.00181102 0.0838228 -0.00808661 0.0491024 -0.0824724 -0.0168858 -0.453094 -0.0940512 -0.0128425 -0.0667559 -0.00181102 -0.081122 0.00946063 -0.029622 0.0367283z"/>
    <path id="_72041856" class="fil1" d="M3.347 2.01442c0.0297677,-0.0090315 0.032752,-0.0177874 0.0630079,-0.0158543l0.0793976 0.0152835 0.00894882 0.0760984 0.0026378 0.0225945 -0.0159528 0.0750315c-0.0204094,0.00912992 -0.0233937,0.017878 -0.0536457,0.0159488l-0.0860827 -0.0160551 0.00168898 -0.173047zm0.133819 -0.273866c-0.0468465,-0.034811 -0.0339606,-0.0277913 -0.0934016,-0.0277913 -0.0514843,0 -0.0446496,0.00508661 -0.0855787,0.0253583 -0.0251535,0.0586535 -0.0253583,0.0635 -0.0253583,0.129953l0 0.244063c0,0.0701732 -0.000704724,0.0666496 0.0285276,0.126787 0.0601378,0.0292323 0.0566102,0.0285236 0.126787,0.0285236 0.0569764,0 0.0581339,-0.00593701 0.104598,-0.0285236 0.0292283,-0.0601378 0.0285236,-0.0566142 0.0285236,-0.126787l0 -0.022189c0,-0.173547 -0.082311,-0.125303 -0.202858,-0.174327l-0.0195866 -0.138449 0.138346 -0.0366181z"/>
    <path id="_75869928" class="fil15" d="M3.12816 3.02659l0.103945 0.0174173 0.155929 0.00352362 0.0974764 -0.0204173 0.0128425 -0.0940433c0.0076378,-0.0435866 -0.0059252,-0.0591654 -0.0168937,-0.0980984l-0.0940433 -0.0128425 -0.177902 -0.00263386 -0.0872913 0.0163268 0.00593701 0.190768z"/>
    <polygon id="_75838128" class="fil11" points="3.65762,3.0086 3.74241,3.02182 3.9425,3.02446 4.02191,3.00917 4.03085,2.93307 4.03348,2.91048 4.01821,2.83109 3.9421,2.82213 3.74201,2.8195 3.65594,2.83556 "/>
    <path id="_73266096" class="fil6" d="M4.4924 2.1877c0.0381181,0.00900394 0.0410984,0.017752 0.0713583,0.0158228l0.0930394 -0.0158622 -0.0180079 -0.417213c-0.0204094,-0.00912598 -0.0233976,-0.017878 -0.0536496,-0.0159409l-0.0956417 0.0160866 0.00290157 0.417106z"/>
    <path id="_75838416" class="fil6" d="M4.13329 2.18751l0.106122 0.00830709 0.0157402 -0.150091 0.0438819 -0.0773661 -0.0353071 -0.198232 -0.0771575 -0.015622c-0.0302598,-0.00193701 -0.0332402,0.00681496 -0.0536575,0.0159409l-0.0421063 0.183543 0.0424843 0.23352z"/>
    <path id="_73265928" class="fil16" d="M4.8219 6.01372l0.0973465 0.106937c-0.0449252,0.108429 -0.0789764,0.136291 -0.182831,0.100594 -0.0264213,-0.0254843 -0.0466654,-0.0510748 -0.039937,-0.093185l0.00597244 -0.0646535 0.119449 -0.0496929zm-0.0144882 -0.0409685c-0.223878,0 -0.237512,0.332488 0,0.332488 0.218157,3.93701e-006 0.257575,-0.332488 0,-0.332488z"/>
    <path id="_75838704" class="fil16" d="M3.29867 6.15026c0.0288228,-0.19865 0.221874,-0.159567 0.221874,-0.022185 0,0.051 -0.00602362,0.0604685 -0.039937,0.093185 -0.102461,0.0352126 -0.122661,0.0124331 -0.181937,-0.071zm-0.044378 0.0665669c0.179579,0.203146 0.516606,0.0090315 0.199685,-0.266256 -0.170988,0.0104331 -0.241209,0.100154 -0.199685,0.266256z"/>
    <polygon id="_73265760" class="fil17" points="4.21386,3.00119 4.54454,3.01874 4.5507,2.83109 4.4746,2.82213 4.2967,2.8195 4.21176,2.83565 "/>
    <path id="_75838992" class="fil6" d="M3.48504 2.18757l0.0159528 -0.0750315 -0.0026378 -0.0225945 -0.00894882 -0.0760984 -0.0793976 -0.0152835c-0.0302559,-0.00193307 -0.0332402,0.00682283 -0.0630079,0.0158543l-0.00168898 0.173047 0.0860827 0.0160551c0.030252,0.00192913 0.0332362,-0.0068189 0.0536457,-0.0159488z"/>
    <path id="_73265592" class="fil18" d="M3.42459 6.05876l0.0619567 0.0530394 -0.0249449 0.0639252 -0.0654567 0.0023189 -0.0112008 0.00414961 -0.043626 -0.0795827 0.0832717 -0.0438504zm-0.125917 0.0914921c0.0592756,0.0834331 0.0794764,0.106213 0.181937,0.071 0.0339134,-0.0327165 0.039937,-0.042185 0.039937,-0.093185 0,-0.137382 -0.193051,-0.176465 -0.221874,0.022185z"/>
    <path id="_73433584" class="fil19" d="M4.80908 6.19095l-0.0640118 -0.010126 0.0262677 -0.0973898 0.0904409 -0.00485039 0.00176772 0.0605118 -0.0135787 0.0358425 -0.0408858 0.0160118zm-0.106626 -0.127535l-0.00597244 0.0646535c-0.00672835,0.0421102 0.0135157,0.0677008 0.039937,0.093185 0.103854,0.0356969 0.14265,0.0158819 0.187575,-0.0925472l-0.0431693 -0.0731772 -0.0584606 -0.0417362 -0.119909 0.049622z"/>
    <polygon id="_73265424" class="fil20" points="3.34131,6.10261 3.38494,6.1822 3.41466,6.19107 3.46159,6.17573 3.48654,6.11181 3.42459,6.05876 "/>
    <polygon id="_73433872" class="fil13" points="4.85649,6.17159 4.868,6.13251 4.86178,6.07859 4.78976,6.06263 4.74024,6.10213 4.74507,6.18083 4.80064,6.19889 "/>
    <rect id="_72027072" class="fil8" x="3.59323" y="2.21642" width="0.0464252" height="0.0633071"/>
    <path id="_74134016" class="fil1" d="M4.11129 6.01935c0.0598543,0 0.10839,0.0484134 0.117425,0.117126 -0.00903543,0.050685 -0.0575709,0.0991024 -0.117425,0.117122 -0.0598504,-0.0180197 -0.108386,-0.066437 -0.117421,-0.117122 0.00903543,-0.0687126 0.0575709,-0.117126 0.117421,-0.117126zm0 0.0229331c0.0469055,0 0.0849449,0.0389528 0.0902008,0.092374 -0.00525591,0.0426575 -0.0432953,0.0816142 -0.0902008,0.092374 -0.0469055,-0.0107598 -0.0849449,-0.0497165 -0.0902008,-0.092374 0.00525591,-0.0534213 0.0432953,-0.092374 0.0902008,-0.092374z"/>
    <path id="_72080680" class="fil7" d="M4.93987 3.21292c0.0589646,0 0.106783,0.0457362 0.113386,0.108457 -0.00660236,0.0500866 -0.0544213,0.0958268 -0.113386,0.108461 -0.0589685,-0.0126339 -0.106787,-0.058374 -0.11339,-0.108461 0.00660236,-0.0627205 0.0544213,-0.108457 0.11339,-0.108457z"/>
   </g>
   <path id="_72026976" class="fil21" d="M3.51117 6.20572c0.0097874,-0.0194764 0.00340157,-0.0166772 0.018374,-0.0679685 0.0149724,-0.0512913 -0.0545394,-0.115898 -0.108102,-0.142606 -0.0535591,-0.0267047 -0.108055,0.0546811 -0.111783,0.100728 -0.00372835,0.0460433 -0.000850394,0.0174134 -0.000488189,0.0259528 0.0254606,-0.0309567 0.060315,-0.0469094 0.097126,-0.0398976 0.0506299,0.00964173 0.0907323,0.0600079 0.104874,0.123791z"/>
   <polygon id="_74146904" class="fil22" points="2.7177,6.58541 3.01671,6.3373 3.29868,6.19785 3.35283,6.38685 2.78903,6.69284 2.76687,6.58627 "/>
   <path id="_74561992" class="fil19" d="M3.36906 6.14267c0.024626,0.0553031 0.0434488,0.109626 0.0891693,0.134291 -0.0158858,-0.0880394 -0.0314843,-0.111528 -0.0891693,-0.134291zm-0.070374 0.055185l0.0171929 -0.0815512c0.0671496,-0.105264 0.156366,-0.0269685 0.194728,0.0515 0.0182441,0.155583 -0.078563,0.15335 -0.157776,0.219043l-0.0541457 -0.188992z"/>
   <path id="_74902072" class="fil23" d="M2.62965 6.64085l0.0880512 -0.0554409 0.0491693 0.000862205 0.0221614 0.106571 -0.158579 0.0835157c-0.00159843,-0.0954843 -0.000173228,-0.0403819 -0.00080315,-0.135508z"/>
   <polygon id="_74617752" class="fil24" points="3.1573,6.19982 3.31587,6.1163 3.29868,6.19785 3.01671,6.3373 "/>
   <path id="_73629680" class="fil25" d="M3.36906 6.14267c0.057685,0.0227638 0.0732835,0.046252 0.0891693,0.134291 -0.0457205,-0.0246654 -0.0645433,-0.0789882 -0.0891693,-0.134291z"/>
   <g>
    <path id="_74241344" class="fil26" d="M4.21627 6.20609l0.0180591 0.0782835c-0.0215236,0.109996 -0.339098,0.316094 -0.443835,0.352157l-0.235736 0.103835 -0.0493543 0.0262402 -0.0655315 -0.0280787 -0.143866 0.098248 -0.0808622 -0.0232874c0.26074,-0.212307 0.569205,-0.389894 0.673583,-0.511638 0.106484,-0.124205 0.139878,-0.192866 0.173126,-0.201343 0.0293386,-0.00747638 0.0666339,-0.00731102 0.154417,0.105583z"/>
    <polygon id="_73401536" class="fil27" points="3.93025,6.56279 3.59631,6.74917 3.53731,6.72505 4.04943,6.39211 4.06511,6.41828 "/>
    <polygon id="_75251960" class="fil22" points="3.09728,6.86541 3.21515,6.81349 3.29601,6.83678 3.43987,6.73853 3.50541,6.76661 3.13781,7.00499 "/>
    <path id="_61467016" class="fil28" d="M4.1315 6.24691l-0.0312795 -0.0394449 -0.00564173 -0.0194252c0.0243701,0.0190827 0.0793819,0.0913583 0.0966614,0.128039 -0.0374213,-0.0293071 -0.0308346,-0.0360079 -0.0597402,-0.0691693z"/>
    <path id="_73268032" class="fil22" d="M4.22877 6.27361c0.0224252,-0.0166378 0.0309882,-0.051622 0.0230906,-0.109201 -0.0078937,-0.0575827 -0.0592717,-0.142602 -0.130681,-0.151575 -0.0714094,-0.00897638 -0.10028,0.0210315 -0.102665,0.0609016 -0.00238583,0.0398701 -0.021063,0.0877126 -0.0205669,0.0903543 0.0214606,-0.011563 0.0357598,-0.0609606 0.0908228,-0.0430512 0.0814646,0.0264882 0.138882,0.142181 0.14,0.152571z"/>
   </g>
   <path id="_74242800" class="fil29" d="M2.26546 7.00979l-1.11488 0.822276c-0.233449,0.210984 -0.418366,0.413528 -0.542087,0.689929 -0.0588701,0.21013 -0.071315,0.456134 -0.0310039,0.674705 0.0603307,0.199807 0.124878,0.357413 0.244291,0.472815 0.202291,0.121732 0.406693,0.175937 0.625866,0.200598 0.224244,0.0381417 0.452709,0.0214213 0.653736,-0.0564961 0.0547559,-0.0181063 0.0715276,-0.0699724 0.107291,-0.104957l-0.124043 0.0028189 -0.0247402 -0.00520866c-0.245591,-0.0528031 -0.438425,-0.147811 -0.641811,-0.304016l-0.0290787 -0.0329843c-0.104134,-0.178051 -0.170283,-0.343441 -0.185787,-0.565807l0.0005 -0.035311c0.00492913,-0.209661 0.0329764,-0.335232 0.190567,-0.52524 0.190024,-0.16463 0.430693,-0.195134 0.688244,-0.168898 0.212634,0.0702874 0.372512,0.178559 0.485961,0.388122 0.103504,0.176146 0.119567,0.356445 0.118228,0.540472l-0.000433071 0.0251772c-0.00852756,0.189528 -0.0465984,0.341075 -0.133201,0.498953 -0.0268228,0.032437 -0.0442087,0.043248 -0.066315,0.064874 0.207087,0.0369213 0.458488,0.0274173 0.697232,-0.0158465 0.158921,-0.0439055 0.250315,-0.165886 0.419787,-0.214008l0.0279961 -0.00585827c0.167488,-0.0337598 0.315984,-0.0337559 0.489803,0.0253346l0.019311 0.00455906 0.481358 0.211122 -0.0442677 0.101559 -0.472157 -0.207087c-0.163346,-0.0523268 -0.311917,-0.0645591 -0.464709,-0.0240354 -0.203256,0.0463465 -0.266933,0.174091 -0.417677,0.212933l-0.0240866 0.00585827c-0.271937,0.0653622 -0.543874,0.0484252 -0.828472,0.0188307 -0.0687559,0.0672598 -0.12063,0.149291 -0.206268,0.201783l-0.0340709 0.0158425c-0.217461,0.057689 -0.428591,0.0921654 -0.684035,0.0591142l-0.0217008 -0.0026063c-0.223787,-0.0323898 -0.441244,-0.0858819 -0.658701,-0.211122l-0.0323346 -0.0273425c-0.123138,-0.133024 -0.206181,-0.299811 -0.261791,-0.506693l-0.00607874 -0.0286457c-0.0239094,-0.233642 -0.0140551,-0.467283 0.0422244,-0.700925 0.00426378,-0.00685039 0.00852756,-0.0137008 0.0127913,-0.0205472 0.125984,-0.266705 0.317594,-0.518929 0.566705,-0.730055l0 0 1.54202 -1.11293 0.00080315 0.135508 -0.364988 0.233433zm0.0590945 2.58551c0.0465433,-0.0455315 0.109969,-0.0805118 0.13963,-0.136591 0.0729724,-0.129398 0.103736,-0.292555 0.111287,-0.445161 0.0093622,-0.184209 -0.0192598,-0.353646 -0.111193,-0.508307 -0.0924055,-0.166965 -0.212244,-0.241079 -0.410165,-0.317299 -0.25461,-0.0318661 -0.434406,-0.0127756 -0.604606,0.156535 -0.100728,0.126681 -0.136043,0.251252 -0.137594,0.443354 0.0182677,0.198012 0.0618583,0.341157 0.175083,0.524402 0.181756,0.159398 0.388835,0.247047 0.608575,0.288272l0.228984 -0.00520472z"/>
   <path id="_74243136" class="fil30" d="M3.13781 7.00499c-0.520386,0.290386 -1.07876,0.534346 -1.56117,0.871161 -0.233449,0.210984 -0.418366,0.413528 -0.542087,0.689929 -0.0588701,0.21013 -0.071315,0.456134 -0.0310039,0.674705 0.0603307,0.199807 0.124878,0.357413 0.244291,0.472815 0.202291,0.121732 0.406693,0.175937 0.625866,0.200598 0.224244,0.0381417 0.452709,0.0214213 0.653736,-0.0564961 0.0547559,-0.0181063 0.0715276,-0.0699724 0.107291,-0.104957l-0.124043 0.0028189 -0.0247402 -0.00520866c-0.245591,-0.0528031 -0.438425,-0.147811 -0.641811,-0.304016l-0.0290787 -0.0329843c-0.104134,-0.178051 -0.170283,-0.343441 -0.185787,-0.565807l0.0005 -0.035311c0.00492913,-0.209661 0.0329764,-0.335232 0.190567,-0.52524 0.190024,-0.16463 0.430693,-0.195134 0.688244,-0.168898 0.212634,0.0702874 0.372512,0.178559 0.485961,0.388122 0.103504,0.176146 0.119567,0.356445 0.118228,0.540472l-0.000433071 0.0251772c-0.00852756,0.189528 -0.0465984,0.341075 -0.133201,0.498953 -0.0268228,0.032437 -0.0442087,0.043248 -0.066315,0.064874 0.207087,0.0369213 0.458488,0.0274173 0.697232,-0.0158465 0.158921,-0.0439055 0.765213,-0.533067 0.934685,-0.581189l0.0279961 -0.00585827c0.167488,-0.0337598 0.315984,-0.0337559 0.489803,0.0253346l0.019311 0.00455906 0.581669 0.253457 -0.0431575 0.103504 -0.573579 -0.251366c-0.163346,-0.0523268 -0.311917,-0.0645591 -0.464709,-0.0240354 -0.203256,0.0463465 -0.781831,0.541272 -0.932575,0.580114l-0.0240866 0.00585827c-0.271937,0.0653622 -0.543874,0.0484252 -0.828472,0.0188307 -0.0687559,0.0672598 -0.12063,0.149291 -0.206268,0.201783l-0.0340709 0.0158425c-0.217461,0.057689 -0.428591,0.0921654 -0.684035,0.0591142l-0.0217008 -0.0026063c-0.223787,-0.0323898 -0.441244,-0.0858819 -0.658701,-0.211122l-0.0323346 -0.0273425c-0.123138,-0.133024 -0.206181,-0.299811 -0.261791,-0.506693l-0.00607874 -0.0286457c-0.0239094,-0.233642 -0.0140551,-0.467283 0.0422244,-0.700925 0.00426378,-0.00685039 0.00852756,-0.0137008 0.0127913,-0.0205472 0.125984,-0.266705 0.317594,-0.518929 0.566705,-0.730055l0 0c0.409693,-0.327705 1.05573,-0.621642 1.58359,-0.932461l0.0405276 0.139587zm-0.387189 2.63439c0.0465433,-0.0455315 0.109969,-0.0805118 0.13963,-0.136591 0.0729724,-0.129398 0.103736,-0.292555 0.111287,-0.445161 0.0093622,-0.184209 -0.0192598,-0.353646 -0.111193,-0.508307 -0.0924055,-0.166965 -0.212244,-0.241079 -0.410165,-0.317299 -0.25461,-0.0318661 -0.434406,-0.0127756 -0.604606,0.156535 -0.100728,0.126681 -0.136043,0.251252 -0.137594,0.443354 0.0182677,0.198012 0.0618583,0.341157 0.175083,0.524402 0.181756,0.159398 0.388835,0.247047 0.608575,0.288272l0.228984 -0.00520472z"/>
   <path id="_61469280" class="fil26" d="M5.45454 9.36067c0.0955157,0.00794882 0.44915,0.1695 0.546665,0.216228 0.100563,0.048185 0.481209,0.162465 0.502315,0.241512l0.0844094 0.020811 -0.00829528 0.0180197 -0.0942126 -0.0236496 0.0180984 0.0420354c0.0728425,0.0194528 0.15274,0.0714173 0.17165,0.152579l0.0381417 -0.0190748 0.0572205 -0.0190748 0.072874 -0.0230591 0.070874 0.00683465c0.0495945,0 0.0750079,0.00276378 0.142335,0.0162244 0.0833937,-0.0276457 -0.044752,-0.0632165 -0.103126,-0.0875945 -0.0814843,-0.0340354 -0.0996339,-0.0646417 -0.185823,-0.0926378l0.0410079 -0.0104882 0 -0.0381457c-0.0286142,-0.00685039 -0.0572165,-0.00418898 -0.0572165,-0.0381417 0,-0.0592323 0.0565,0.027374 0.0190748,-0.0572205l-0.0572205 0.0381457 -0.037189 0.0219331 0.019748 0.0342795 -0.228126 -0.0633386c-0.0289843,-0.0588031 -0.417504,-0.177705 -0.513835,-0.206157 -0.0890551,-0.0263031 -0.159933,-0.099185 -0.236051,-0.126319 -0.0780197,-0.0278189 -0.175425,-0.0660394 -0.244248,-0.099063l-0.0190709 0.0953622z"/>
   <path id="_74242016" class="fil22" d="M5.47361 9.2653c0.0688228,0.0330236 0.166228,0.0712441 0.244248,0.099063 0.0761181,0.0271339 0.146996,0.100016 0.236051,0.126319 0.0963307,0.0284528 0.48485,0.147354 0.513835,0.206157l0.228126 0.0633386 -0.019748 -0.0342795 0.037189 -0.0219331 -0.991764 -0.419591c-0.0768583,-0.0179055 -0.0952953,-0.0572165 -0.17165,-0.0572165l-0.0190669 0c-0.0544882,0 -0.0348819,0.00599606 -0.0572205,0.0381417z"/>
   <path id="_75701600" class="fil31" d="M6.50352 9.87562l-0.0180984 -0.0420354 0.0942126 0.0236496 0.00829528 -0.0180197 -0.0844094 -0.020811c-0.0211063,-0.0790472 -0.401752,-0.193327 -0.502315,-0.241512 -0.0975157,-0.0467283 -0.45115,-0.20828 -0.546665,-0.216228l0.0232362 0.0752047c0.0256457,0.00904331 0.218921,0.086689 0.269657,0.108709 0.0803504,0.0348701 0.0138583,0.0380512 0.122559,0.0681693 0.049748,0.0137874 0.0737402,0.0251063 0.126016,0.0456299 0.176843,0.0694173 0.355602,0.181854 0.507512,0.217244z"/>
   <path id="_62046968" class="fil27" d="M7.05661 9.99005l0.303051 0.101906c-0.0736969,-0.0724291 -0.531917,-0.267421 -0.531917,-0.349846l0 -0.0953543 -0.0572165 0.0190669c0.0374252,0.0845945 -0.0190748,-0.00201181 -0.0190748,0.0572205 0,0.0339528 0.0286024,0.0312913 0.0572165,0.0381417l0 0.0381457 -0.0410079 0.0104882c0.086189,0.0279961 0.104339,0.0586024 0.185823,0.0926378 0.058374,0.024378 0.18652,0.0599488 0.103126,0.0875945z"/>
   <path id="_75701696" class="fil31" d="M5.42792 9.92491l-0.0190748 0.0953622 0.0190748 0.0381457 0.190882 0.0378976 0.133346 0.0765315 0 0.0572244 0.0381417 0.0762874 0.0381496 0.0190669 0.0762874 -0.0953543c-0.0169764,-0.00954331 -0.0381457,-0.0124213 -0.0381457,-0.0381496 0,-0.0622283 0.0098622,-0.0628228 0.0381457,-0.0953622l0.0572165 -0.0190748 0 -0.0953543 -0.0572165 -0.0190748 -0.0733465 0.0604646 -0.365319 -0.136752 -0.0381417 0.0381417z"/>
   <path id="_74241960" class="fil32" d="M4.55059 9.67696c0.0546811,0.0576417 0.733906,0.314335 0.858256,0.343303l0.0190748 -0.0953622 -0.362378 -0.0953661c-0.0351811,-0.0871693 -0.407862,-0.215626 -0.514953,-0.267008l0 0.114433z"/>
   <path id="_74241568" class="fil33" d="M4.55059 9.56253c0.107091,0.0513819 0.479772,0.179839 0.514953,0.267008l0.362378 0.0953661 0.0381417 -0.0381417c-0.066622,-0.0579134 -0.763862,-0.362378 -0.877327,-0.362378 -0.0257283,0 -0.0286102,0.0211693 -0.0381457,0.0381457z"/>
   <path id="_62139712" class="fil34" d="M4.66502 9.7914l0.514953 0.22887 0.0572165 0 0.152579 0.0762874 0.0381457 0 0 -0.0381417 -0.0190748 -0.0381457c-0.12435,-0.0289685 -0.803575,-0.285661 -0.858256,-0.343303l0 0.0572205 0.114437 0.0572126z"/>
   <path id="_75228256" class="fil32" d="M5.90472 10.2301l0.133504 0.0381417 0.171654 0.0381457 0.0381457 -0.0190748 -0.340772 -0.158091 -0.0025315 -0.0326339c-0.0282835,0.0325394 -0.0381457,0.0331339 -0.0381457,0.0953622 0,0.0257283 0.0211693,0.0286063 0.0381457,0.0381496z"/>
   <polygon id="_74548800" class="fil22" points="5.42792,10.0966 5.75215,10.2301 5.75215,10.1728 5.6188,10.0963 5.42792,10.0584 "/>
   <polygon id="_72030672" class="fil33" points="6.24803,10.2873 6.2671,10.2682 5.96194,10.0775 5.90472,10.0966 5.90726,10.1292 "/>
   <path id="_61469320" class="fil35" d="M6.20988 10.3064l0.304256 0.0982638c-0.0285866,-0.0408701 -0.188929,-0.11702 -0.247035,-0.136409l-0.0190748 0.0190709 -0.0381457 0.0190748z"/>
  </g>
 </g>
</svg>
