<svg id="svg2" xmlns="http://www.w3.org/2000/svg" xmlns:xlink="http://www.w3.org/1999/xlink" viewBox="0 0 124.6 124.6"><defs><style>.cls-1,.cls-5,.cls-6,.cls-7{fill:none;}.cls-2{clip-path:url(#clip-path);}.cls-3{fill:#1787fc;}.cls-4{fill:#0fb55e;stroke:#0fb55e;}.cls-4,.cls-7{stroke-linecap:round;stroke-linejoin:round;}.cls-4,.cls-6{stroke-width:2.59px;}.cls-5,.cls-6{stroke:#2c89a0;stroke-miterlimit:1.55;}.cls-5{stroke-width:0.39px;}.cls-7{stroke:#000;stroke-width:2.4px;}</style><clipPath id="clip-path" transform="translate(-28.35 -28.35)"><rect class="cls-1" x="-100.67" y="-49.83" width="382.64" height="286.98"/></clipPath></defs><g id="layer1"><g class="cls-2"><g id="g16"><g id="g4413"><g id="g4407"><path id="path4409" class="cls-3" d="M150.47,90.65A59.83,59.83,0,1,1,90.64,30.82a59.83,59.83,0,0,1,59.83,59.83" transform="translate(-28.35 -28.35)"/><path id="path4411" class="cls-3" d="M151.65,90.65a61,61,0,1,1-61-61,61,61,0,0,1,61,61" transform="translate(-28.35 -28.35)"/></g><g id="g30"><path id="path32" class="cls-4" d="M124.72,124.33s-.36-10.33-.54-15.13,1.61-8-.71-12.47-.53-8-2.67-8.19-8.9-1.42-12.64,0-11.93-4.8-12.11-8.9a23.43,23.43,0,0,0-1.42-7.12s4.63-7.46,5.87-7.2,1.43-4.73,2.32-5.09,10.32-2.85,13-2.85.71,2.85.71,2.85l8.19,3,1.42-3.21,7.12,2.14s-.17-4.27-1.78-4.81-8.36-3.74-8.36-3.74,1.42,2.68.71,3.39-3-3.39-3-3.39l-5.16-2a37.55,37.55,0,0,0-5.52,1.24c-2,.71-2.85,4.1-2.85,4.1s-3.56,1.78-5.88,1.24-1.6-5-1.6-5,4.27-.36,4.63-1.6-3-3.57-3-3.57l2.67-1.24,2.5-4.35,3.91.43,1.25-4.63-.31-4.57S137.48,46,145.7,66.3l-4.25-2.68,1.79,3.91L144,67l2.13,3.92v3.2L145,79s-6.79-11.44-10-14.36c0,0,4.64,10.69,10.15,16.21L147,79v8.62l-1.6,3.74-2,5.87-.35,4.63v5.52l-2.67,2.67-2.67,2v2.32L135,117.93l-3.73,3.92-3.74,2.49h-2.85Z" transform="translate(-28.35 -28.35)"/></g><path id="path36" class="cls-4" d="M73.23,144.6,69.67,140l.53-2.49h2.32l-.5-2.55.68-3.33.53-2.49,2-2.09s4.58-1.83,4-8.24c0,0,3.92-5.34,3-8.19s-6.25-2.67-6.25-2.67l-8.88-3.74s-.72-3.74-3.21-4.09-3.2,1.42-4.27,0-2.55-3.56-5.37-3.74S48,93.86,48,93.86s-.54-2-3.56-1.25c0,0-2-2-1.07-5.87,0,0-.18-2.14-2.85-1.25,0,0-2.14-2.32-2.85-2.32S35.84,76.41,39,73.38c0,0,3-3.56,6.41-1.42a19,19,0,0,0,.36,5c.53,1.6,1.6-2.31,1.6-2.31l.18-5a19,19,0,0,0,4.27-2.85c2-1.78,1.25-4.09,3.92-5.87s3.21,0,3.21,0l.17-3h2.5l6-2.67s-2.85.18-3.92-1.42l7.66-4.1V47.39l-.53-4.81-1.79,2.14-.35-2.14-3.38-.44H64.15L61.3,43.47l-.18,1.78-3.2,1.42-1.6-1.6,1.24-1.6,1.25-1.33,3.32-4.49S40.12,50,33.71,71.84c0,0-.36,6.88-.54,9.38s2,4.8,2,4.8h2l.71,1.78,1.6.54.89.53.53,1.39.72,2.53,1.6.36.89,1.6,1.07.18-.36-1.43h1.43l.53,1.25L45.1,96l-.54,1.25-.17,2.85.17,2.14.18,2-1.6.89.36,2,.17,1.25v2l-.89.35,6.41,8.73,2,.71,1.25.18,2,.71,1.6,3s5.16,11.39,5.88,13,8.19,8.18,11.39,7.65" transform="translate(-28.35 -28.35)"/><g id="g22"><path id="path24" class="cls-5" d="M150.47,90.65A59.83,59.83,0,1,1,90.64,30.82a59.83,59.83,0,0,1,59.83,59.83" transform="translate(-28.35 -28.35)"/><path id="path3655" class="cls-6" d="M151.65,90.65a61,61,0,1,1-61-61,61,61,0,0,1,61,61" transform="translate(-28.35 -28.35)"/></g></g></g></g><ellipse id="path4144" cx="34.1" cy="53.58" rx="6" ry="5.71"/><ellipse id="ellipse4146" cx="91.7" cy="53.58" rx="6" ry="5.71"/><path id="path4167" class="cls-7" d="M104.91,91.68c-1.14,11.77-25.95,12.23-27.43,0" transform="translate(-28.35 -28.35)"/></g></svg>