<svg xmlns="http://www.w3.org/2000/svg" viewBox="0 0 392 364"><defs><style>.cls-1{isolation:isolate;}.cls-2{fill:#435faf;}.cls-3,.cls-4{fill:#fff;}.cls-4{stroke:#4a63ab;stroke-linecap:round;stroke-linejoin:round;stroke-width:2.08px;}.cls-5{mix-blend-mode:multiply;}.cls-6{fill:#66b454;}</style></defs><title>Plan de travail 28</title><g class="cls-1"><g id="_29" data-name="29"><g id="_Groupe_" data-name="&lt;Groupe&gt;"><g id="_Groupe_2" data-name="&lt;Groupe&gt;"><path class="cls-2" d="M262.28,354.44A119.39,119.39,0,1,1,381.67,235.05,119.52,119.52,0,0,1,262.28,354.44Z"/><path class="cls-3" d="M262.28,117A118.05,118.05,0,1,1,144.23,235.05,118.05,118.05,0,0,1,262.28,117m0-2.67a120.72,120.72,0,1,0,85.36,35.36,119.93,119.93,0,0,0-85.36-35.36Z"/></g><g id="_Groupe_3" data-name="&lt;Groupe&gt;"><path id="_Tracé_" data-name="&lt;Tracé&gt;" class="cls-4" d="M168,183.35c0-.88.79-1.7,1.23-2.37.77-1.19,1.62-2.36,2.33-3.59a18.75,18.75,0,0,1,2-3.22c.72-.81,1.58-1.39,2.28-2.23,1.8-2.15,4.23-3.65,6.31-5.52a46,46,0,0,1,6.08-4.56c2.69-1.72,5.64-3.52,7.65-6.05,1.35-1.7,3.88-4,.46-4.83a12.17,12.17,0,0,0-5.49.25c-.61.16-2.16.45-2.34-.32s1.43-2.56,1.86-3.21a16.62,16.62,0,0,1,5.06-5.06,53.9,53.9,0,0,0,4.67-3.09c1.8-1.4,3.7-1.18,5.86-1.46,1.13-.15,2-.76,3.2-.39.52.17.93.58,1.47.73.75.21,1.49-.09,2.21.07a5.83,5.83,0,0,1,1.78,1,10.09,10.09,0,0,1,1.42,1.17A7.27,7.27,0,0,1,217,142a20.42,20.42,0,0,1,1.31,1.84c.28.57.34,1.29.64,1.84.86,1.6,1.87,2,3.56,1.93a34.87,34.87,0,0,1,7.34.46c1.82.36,3.42,1.74,5.48,1.4a9.78,9.78,0,0,0,2.26-.94c.89-.39,1.9-.53,2.79-.92.72-.31,1.45-.53,1.71-1.36.36-1.12-.09-1.94.54-2.87,1-1.46,3.59-.88,5-.35a6.9,6.9,0,0,1,4,3.66c.6,1.08,1.06,1.47,1,2.75,0,.91,0,1.83,0,2.75a6.21,6.21,0,0,1-.33,2.74A9.27,9.27,0,0,1,251,157.4c-.85.8-3.75.49-4.61-.24-1.53-1.3.31-3.87.71-5.39.29-1.1,0-1.29-.81-1.83-.58-.38-1.45-1.17-2.2-.83-1.78.79-1.29,3.38-3.3,3.94a12.64,12.64,0,0,1-2.74.08,7.74,7.74,0,0,0-2.77.8c-.61.3-1.11.87-1.68,1.17a5.84,5.84,0,0,1-2.87.33c-1.69,0-3.57-.3-5,.46-1.23.64-3.08,1.74-3.57,3.19-.59,1.76.29,4,1.17,5.52.3.53.67,1.86,1.12,2.2s2.4.05,3.11.07c1.39,0,1.77-.38,2.75-1.37a14.06,14.06,0,0,0,2.41-2.75c.92-1.61,2.8-2,4.43-2.74,1.3-.56,2.58-2.1,4-1.72,1.68.43,2.43,2.49,4.22,3,.9.26,1.51-.14,2.18.65.54.64.41,1.43.54,2.19.15.94.8,1.8,1,2.74a7,7,0,0,1-.37,3.2c-.6,1.89-2.13,4.36-4.23,4.94-.81.22-1.5.39-2.28.55-1.06.22-2.14.76-3.21.94-.91.15-1.5-.15-2.29.42a1.89,1.89,0,0,0-.85,2.31c.36.8,1.42,1,1.88,1.8a2.75,2.75,0,0,1-.22,3.12,8.79,8.79,0,0,1-2.65,1.94,16.67,16.67,0,0,1-2.75.55,26.59,26.59,0,0,1-3.2.84,19,19,0,0,0-4.69.88,21.2,21.2,0,0,0-3.9,1.82c-1,.68-1.9,1.62-3,2.31a30.59,30.59,0,0,0-3.66,2.63c-1.21,1.07-3,1.61-3.92,2.87s-1.08,2.68-2,4a9.58,9.58,0,0,1-2.19,1.91,18.54,18.54,0,0,0-2.63,2.76c-1.13,1.33-2.88,2.74-2.86,4.59,0,.91,0,1.82,0,2.73a6.92,6.92,0,0,1-.1,1.74,12.89,12.89,0,0,1-.42,1.93c-.67,1.43-3.09,2.72-4.51,3.1-1.58.42-1.38-.35-1.37-1.69,0-1.79.12-3.64,0-5.43-.06-1-.31-1.89-.44-2.84a3.27,3.27,0,0,0-1.5-2.17c-1.86-1.3-4.57-1.54-6.77-1.49-4.18.09-7.61,4.48-9.6,7.77-.64,1.06-1,2.15-1.73,3.21a4.41,4.41,0,0,0-.56,2.75c0,2.12.08,3.78,2.29,4.7,1.35.56,3.09,1.62,4.58,1.16,1-.32,1.58-1.14,2.76-.73a4,4,0,0,1,2.31,2.2c.5,2-1.33,3.14-1.42,5a5.5,5.5,0,0,0,.33,2.75c.55,1.14,1.57,1.47,2.31,2.38a11.2,11.2,0,0,1,2.41,4.48,20.19,20.19,0,0,1-.11,5.86,3.88,3.88,0,0,0-.26,2.4c.29.84,1,1.37,1.18,2.28a8.19,8.19,0,0,1,.11,2.75c-.09.63.17.67-.43.94a4.27,4.27,0,0,1-1.86-.1,5.07,5.07,0,0,1-1.75-1.77,6.09,6.09,0,0,0-.18-.81c-.23-.29-.58-.39-.81-.64-1-1.09-1.2-2.69-1.93-3.92-.29-.48-.86-.73-1.18-1.13s-.72-1.22-1-1.71a22.89,22.89,0,0,1-2.17-4.69,6.69,6.69,0,0,0-.42-1.37,9.1,9.1,0,0,0-1.51-1.84,16.69,16.69,0,0,0-4.58-3.22,8.54,8.54,0,0,1-3.17-3.06c-1.31-2-3.29-4-3.71-6.44a14.18,14.18,0,0,1,0-1.91c0-1.24-.44-2.33-.48-3.57-.07-2,0-4,0-6.06a16.64,16.64,0,0,0-1-6,9.43,9.43,0,0,1-.81-2.72,11.08,11.08,0,0,0-.35-2.63,8.66,8.66,0,0,1-.1-2.31,10.4,10.4,0,0,0-.36-2.74,21.26,21.26,0,0,1-.1-4.57,9.21,9.21,0,0,1,.8-3.3c.37-1.15,1.48-2.29,1.57-3.47C164.11,187.07,167.9,183.38,168,183.35Z"/><path id="_Tracé_2" data-name="&lt;Tracé&gt;" class="cls-4" d="M194.56,255.19c1.17.06,2.44-2.47,3.19-3.2a22.55,22.55,0,0,1,4.48-3.67c2.79-1.66,5.75-1.48,8.93-1.37,1.58.05,2.37.8,3.52,1.84a26,26,0,0,0,4.13,3.23,19.56,19.56,0,0,1,7.32,7.73c.85,1.55,1.46,3.33,2.18,5a14.42,14.42,0,0,0,2.39,3.79,30,30,0,0,1,2.39,3.19c.82,1.21,2.07,1.76,3.1,2.72,1.68,1.57,2.82,3.29,5,4.24a16.47,16.47,0,0,0,3.55,1.27,23.71,23.71,0,0,1,5.62,1.25c1.45.61,2.82,1.35,4.23,2s3,1.34,4.33,2.18,2.73,1.83,4.14,2.65a31,31,0,0,1,3.3,1.91c1.89,1.45,1.88,3.65,1.84,5.83,0,1.84-.8,2.91-1.84,4.38a44.75,44.75,0,0,1-3.29,4.57c-2.35,2.56-4.68,5.23-6.77,8a52,52,0,0,0-3.19,4.24c-.83,1.38-2.51,2.5-3.67,3.65a21.48,21.48,0,0,0-2.29,3.1,10.17,10.17,0,0,0-1.38,2.85c-.76,2-1.72,5.1-3.66,6.31-1.5.94-3.63,1.84-4.14,3.73a13,13,0,0,0,0,2.87,10.35,10.35,0,0,0,.57,3.56c.35,1.1.95,4.24,0,5.17-1.44,1.44-4.64-.79-5.52-2a18.81,18.81,0,0,0-5.14-4.7c-2.21-1.41-3.93-3.3-5.94-4.92a18.12,18.12,0,0,1-3.23-3.18c-.78-1.08-.87-2.54-1.21-3.78-1-3.5-2.84-6.5-3.8-10-.65-2.35-.62-4.71-1.93-6.86a14.09,14.09,0,0,0-2.19-2.75c-1.3-1.27-2.27-2.76-3.56-4-1.74-1.72-3.41-3.41-5.13-5.11-1.07-1.06-2.19-2.1-3.22-3.21-.39-.42-.67-.83-1-1.28A1.81,1.81,0,0,1,196,296a7.39,7.39,0,0,0-.56-1.32c-.9-1.47-1.82-2.87-2.63-4.32-1.18-2.12-1.48-4.77-2.06-7.09s-1.83-4.62-2.21-7a13.19,13.19,0,0,0-.08-1.37,5.93,5.93,0,0,1-.37-1.37c0-.45,0-.92,0-1.37a14,14,0,0,0-.49-1.83,10.74,10.74,0,0,1,.94-6.41c.51-1,.5-2.08,1-3.1s1.74-1.72,1.82-2.76C191.57,258,194.43,255.22,194.56,255.19Z"/><path id="_Tracé_3" data-name="&lt;Tracé&gt;" class="cls-4" d="M349.7,304.7a13.39,13.39,0,0,1,2.26-2.85,14.78,14.78,0,0,0,2.73-4.11c.77-1.43,1.69-2.61,2.4-4,.79-1.56,1.51-3.06,2.2-4.68s1.08-3.66,1.7-5.42c.55-1.57.94-3.07,1.36-4.67.83-3.12,2.38-5.54,3.8-8.35a30.65,30.65,0,0,0,1.71-4.93c.55-1.83,1.78-3.19,2.3-5a12.18,12.18,0,0,0,.56-3.64,9.38,9.38,0,0,1,.92-4.24,14.74,14.74,0,0,0,1.38-3.55,14.56,14.56,0,0,0-.11-4c-.4-2.53-1.5-4.88-1.71-7.42-.24-2.86-.93-5.51-.93-8.37,0-1,0-2.07,0-3.1,0-1.2-.35-1.37-.91-2.38s-.93-2.48-1.8-3.47c-.56-.64-1.3-.87-1.89-1.45s-1.21-1.38-1.72-2c-.32-.38-.37-.89-.65-1.29s-.67-.48-.94-.87c-.55-.78-1-1.64-1.58-2.41a11.73,11.73,0,0,1-1.5-2.67c-.34-.8-1.08-1.77-1-2.72.48-3.88,4.45,1.35,5,2.41s1.23,2,1.81,3.08A5.52,5.52,0,0,0,368,215c1.18.6,1,1.06,1.35,2.2.17.59.61,1.77,1.41,1.29.65-.39.82-2.09,1-2.79.31-1.23.31-2.38.69-3.56a5.61,5.61,0,0,0,.59-2.77c-.15-.64-.78-1.15-1-1.78s.08-.71-.43-1.31c-.22-.25-.65-.32-.83-.64s0-.85-.08-1.29c-.14-1,0-.63-.92-1-.37-.16-1.14-.18-1.41-.32-.7-.37-.16-.26-.42-.94s-.44-1.5-.79-2.29c-.71-1.61-1-3.92-.13-5.49.43-.74,1.09-1.42,1.51-2.19a5.05,5.05,0,0,0,.31-2.49,22.58,22.58,0,0,1,.83-3.54,118.41,118.41,0,0,0-65.48-61.42c0,1.33.24,2.68,1,3.19a9.17,9.17,0,0,0,1.89.54,5.76,5.76,0,0,1,1.35.81,7.29,7.29,0,0,1,1.41.92c.42.47.23.44.52,1,1.21,2.42,2.38,4.8,3.56,7.22a12.85,12.85,0,0,1,1,3.9c.19,1.05.66,2,.84,3.08s-.24,5.46-2.22,4c-.66-.47-1.24-2.3-1.58-3a15.79,15.79,0,0,0-1.69-3.34c-.8-1-1.72-1-2.78-1.46s-1.74-1.31-2.73-1.74c-1.4-.6-4.37-1.1-5.17.46a5.87,5.87,0,0,0-.32,2.85,18,18,0,0,0,.33,5.28,28.47,28.47,0,0,1,1,3.88c.11.72.43,1.37.5,2.1a6,6,0,0,0,.07,1.46c.53,1.72,2.22,3.74,4,4.14,2,.46,3.29-.81,3.7-2.75.31-1.46-2.55-5.48.45-5.55.9,0,1.52.9,2.29,1.4a18.78,18.78,0,0,0,2.28,1.72,5.89,5.89,0,0,1,3.66,3.78c.43,1.16,1.09,4.15.14,5.17-1.22,1.3-3.54.73-4.6-.57-.6-.73-1.31-2.29-1.85-.49a10,10,0,0,0-.09,2.75c0,1.58.33,4.66-2.29,4-1.16-.28-1.84-1.46-2.74-2.1a5.07,5.07,0,0,1-1.95-2.39c-.61-1.27-2.77-3.63-4.48-2.67-2.15,1.21-.06,3.59.59,5a9.5,9.5,0,0,0,2.17,2.75,26.29,26.29,0,0,1,2.65,3.2c.61.82,1,1.8,1.59,2.64a19.37,19.37,0,0,1,1.37,1.82c.34.62.87,1.18.84,1.93,0,1-1.09,1.79-1.85,2.3s-2.24,1.25-2.69,2.29c-.21.49,0,1,0,1.47a10.27,10.27,0,0,1-.48,1.84c-.57,2-1.35,4.17-.94,6.29.34,1.74,2.26,3,3.68,3.66s4.26,2.78,6,1.28,2.25-4.33,2.71-6.31c.23-1,.39-1.84.57-2.85a12.58,12.58,0,0,0,.37-1.74,17.37,17.37,0,0,1,0-1.82,5.67,5.67,0,0,1,1.4-2.65c.58-.55,1.29-.57,1.93-.88a9.21,9.21,0,0,1,2.64-1.07,4.75,4.75,0,0,1,2.73,1.07c1.83,1.07,2.08,3.43,2.3,5.37a22.09,22.09,0,0,1,.46,2.75c0,1.43.28,2.21,1.83,2.3,1.91.11,3.29-1.85,3.67-3.67.26-1.21.38-1.79,1.82-1.84a20.93,20.93,0,0,1,3.18,0c1.17.15,2.07.89,3.23.95.91,0,1.84,0,2.75,0,1.56,0,3.91.27,5,1.46a6.48,6.48,0,0,1,1.36,4.48,9.66,9.66,0,0,1-1.72,5.5c-1,1.43-2.06,2.75-3.88,2.73a16.23,16.23,0,0,0-3.44.1,13.68,13.68,0,0,1-1.84.36c-.75.07-1.21.35-1.93.48a4.52,4.52,0,0,1-2.77-.35c-.87-.56-1.36-1.69-2.26-2.32-1.68-1.19-2.77-2.75-4.6-3.77-1.5-.84-3.15-1.87-5-1.38-.89.23-1.3,1.11-1.68,1.85-.64,1.25-1.38,2.46-2.07,3.64-.58,1-.65,1.65-1.71,2.2a24,24,0,0,1-2.76,1.39c-1.83.65-4.48,1.47-5.86,3a28,28,0,0,0-1.57,2.64c-.75,1-1.95,1.7-2.67,2.72-1.5,2.13-2,4.8-3.28,7a22.41,22.41,0,0,0-2.07,3.91,21.58,21.58,0,0,0-1.06,3.4c-.22,1.23.16,2.23-.31,3.46a7.83,7.83,0,0,0-.58,3.29,18,18,0,0,1-.1,3.3,31.14,31.14,0,0,0-.35,4c-.07,1.22-.47,2.26-.46,3.51a11,11,0,0,0,.8,4.27,34.35,34.35,0,0,0,2.4,4.08,7.52,7.52,0,0,1,.81,1.85c.16.63,0,1.39.53,1.89s.85.23,1.41.48,1.16,1,1.73,1.42c.78.54,1.41.82,1.83,1.71s.42,1.61,1.45,1.87c.57.14,1.14-.2,1.75,0s.91.91,1.47,1.34.67.52,1.34.37a16.15,16.15,0,0,1,1.37-.87,7.08,7.08,0,0,1,1.88-.54,13.89,13.89,0,0,0,2.39-1.3c.73-.36,1.48-.55,2.21-.9a12.52,12.52,0,0,1,3.26-1c3.15-.6,6.37-.07,9.52-.7,1.36-.27,2.63-.46,3.33.8a5.73,5.73,0,0,0,2.15,2.27,18.17,18.17,0,0,1,3.22,2.75c1.12,1.35,1.34,3.46,1.38,5.18,0,1.53.45,2.9.47,4.43a18.65,18.65,0,0,1-1.41,6.55c-.36,1-.53,2-.91,3a4.39,4.39,0,0,0-.45,1.79,18.74,18.74,0,0,1-1.26,4.57c-.72,2.13-.54,4.29-1.12,6.42-.15.55-.57.95-.73,1.47a6.64,6.64,0,0,0-.08,1.38,10.24,10.24,0,0,1-.8,2.73,46.65,46.65,0,0,0-2.07,5.49,23.73,23.73,0,0,0-.8,2.28,5,5,0,0,1-.33,1.38c-.21.49-.79,1-.95,1.48a4.92,4.92,0,0,0,0,2.68c.42.67,2.06.54,2.77.46a12.62,12.62,0,0,0,4.13-1.74,23.21,23.21,0,0,0,4.6-3.68C345.83,308.83,348.29,307,349.7,304.7Z"/><path id="_Tracé_4" data-name="&lt;Tracé&gt;" class="cls-4" d="M259.53,157.27l.37-.08c.19-.92.72-1.75.91-2.66.25-1.12.43-2.41.57-3.55a10.3,10.3,0,0,0-.81-5.63,9.28,9.28,0,0,0-2.33-3.3,3.64,3.64,0,0,1-.92-4c1.09-3,6-4.35,8.61-5.15a26.63,26.63,0,0,1,10.53-.81c1.58.19,2.24,2.13,2.63,3.57.55,2,1.44,4,1.47,6a12,12,0,0,1,0,2.29,10.11,10.11,0,0,1-1.28,2.29c-1,1.93-3.22,3-4.71,4.58a17.4,17.4,0,0,0-1.71,2.29c-.56.84-1.22,1.5-1.84,2.3a13.12,13.12,0,0,1-1.36,1.48,22.28,22.28,0,0,0-1.46,2.18,8.43,8.43,0,0,1-1.73,1.49,4.27,4.27,0,0,1-2.41.33c-.58,0-1.69.23-2.2-.09A18.74,18.74,0,0,1,259.53,157.27Z"/></g><g id="_Groupe_4" data-name="&lt;Groupe&gt;" class="cls-5"><path id="_Tracé_5" data-name="&lt;Tracé&gt;" class="cls-6" d="M174.26,189.59c0-.88.79-1.7,1.23-2.37.77-1.19,1.62-2.36,2.33-3.59a18.75,18.75,0,0,1,2-3.22c.72-.81,1.58-1.39,2.28-2.23,1.8-2.15,4.23-3.65,6.31-5.52a46,46,0,0,1,6.08-4.56c2.69-1.72,5.64-3.52,7.65-6.05,1.35-1.7,3.88-4,.46-4.83a12.17,12.17,0,0,0-5.49.25c-.61.16-2.16.45-2.34-.32s1.43-2.56,1.86-3.21a16.62,16.62,0,0,1,5.06-5.06,53.9,53.9,0,0,0,4.67-3.09c1.8-1.4,3.7-1.18,5.86-1.46,1.13-.15,2-.76,3.2-.39.52.17.93.58,1.47.73.75.21,1.49-.09,2.21.07a5.83,5.83,0,0,1,1.78,1,10.09,10.09,0,0,1,1.42,1.17,7.27,7.27,0,0,1,.87,1.36,20.42,20.42,0,0,1,1.31,1.84c.28.57.34,1.29.64,1.84.86,1.6,1.87,2,3.56,1.93a34.87,34.87,0,0,1,7.34.46c1.82.36,3.42,1.74,5.48,1.4a9.78,9.78,0,0,0,2.26-.94c.89-.39,1.9-.53,2.79-.92.72-.31,1.45-.53,1.71-1.36.36-1.12-.09-1.94.54-2.87,1-1.46,3.59-.88,5-.35a6.9,6.9,0,0,1,4,3.66c.6,1.08,1.06,1.47,1,2.75,0,.91,0,1.83,0,2.75a6.21,6.21,0,0,1-.33,2.74,9.27,9.27,0,0,1-1.36,2.43c-.85.8-3.75.49-4.61-.24-1.53-1.3.31-3.87.71-5.39.29-1.1,0-1.29-.81-1.83-.58-.38-1.45-1.17-2.2-.83-1.78.79-1.29,3.38-3.3,3.94a12.64,12.64,0,0,1-2.74.08,7.74,7.74,0,0,0-2.77.8c-.61.3-1.11.87-1.68,1.17a5.84,5.84,0,0,1-2.87.33c-1.69,0-3.57-.3-5,.46-1.23.64-3.08,1.74-3.57,3.19-.59,1.76.29,4,1.17,5.52.3.53.67,1.86,1.12,2.2s2.4.05,3.11.07c1.39,0,1.77-.38,2.75-1.37A14.06,14.06,0,0,0,238.9,169c.92-1.61,2.8-2,4.43-2.74,1.3-.56,2.58-2.1,4-1.72,1.68.43,2.43,2.49,4.22,3,.9.26,1.51-.14,2.18.65.54.64.41,1.43.54,2.19.15.94.8,1.8,1,2.74a7,7,0,0,1-.37,3.2c-.6,1.89-2.13,4.36-4.23,4.94-.81.22-1.5.39-2.28.55-1.06.22-2.14.76-3.21.94-.91.15-1.5-.15-2.29.42a1.89,1.89,0,0,0-.85,2.31c.36.8,1.42,1,1.88,1.8a2.75,2.75,0,0,1-.22,3.12,8.79,8.79,0,0,1-2.65,1.94,16.67,16.67,0,0,1-2.75.55,26.59,26.59,0,0,1-3.2.84,19,19,0,0,0-4.69.88,21.2,21.2,0,0,0-3.9,1.82c-1,.68-1.9,1.62-3,2.31a30.59,30.59,0,0,0-3.66,2.63c-1.21,1.07-3,1.61-3.92,2.87s-1.08,2.68-2,4a9.58,9.58,0,0,1-2.19,1.91,18.54,18.54,0,0,0-2.63,2.76c-1.13,1.33-2.88,2.74-2.86,4.59,0,.91,0,1.82,0,2.73a6.92,6.92,0,0,1-.1,1.74,12.89,12.89,0,0,1-.42,1.93c-.67,1.43-3.09,2.72-4.51,3.1-1.58.42-1.38-.35-1.37-1.69,0-1.79.12-3.64,0-5.43-.06-1-.31-1.89-.44-2.84a3.27,3.27,0,0,0-1.5-2.17c-1.86-1.3-4.57-1.54-6.77-1.49-4.18.09-7.61,4.48-9.6,7.77-.64,1.06-1,2.15-1.73,3.21a4.41,4.41,0,0,0-.56,2.75c0,2.12.08,3.78,2.29,4.7,1.35.56,3.09,1.62,4.58,1.16,1-.32,1.58-1.14,2.76-.73a4,4,0,0,1,2.31,2.2c.5,2-1.33,3.14-1.42,5a5.5,5.5,0,0,0,.33,2.75c.55,1.14,1.57,1.47,2.31,2.38a11.2,11.2,0,0,1,2.41,4.48,20.19,20.19,0,0,1-.11,5.86,3.88,3.88,0,0,0-.26,2.4c.29.84,1,1.37,1.18,2.28a8.19,8.19,0,0,1,.11,2.75c-.09.63.17.67-.43.94a4.27,4.27,0,0,1-1.86-.1,5.07,5.07,0,0,1-1.75-1.77,6.09,6.09,0,0,0-.18-.81c-.23-.29-.58-.39-.81-.64-1-1.09-1.2-2.69-1.93-3.92-.29-.48-.86-.73-1.18-1.13s-.72-1.22-1-1.71a22.89,22.89,0,0,1-2.17-4.69,6.69,6.69,0,0,0-.42-1.37,9.1,9.1,0,0,0-1.51-1.84,16.69,16.69,0,0,0-4.58-3.22,8.54,8.54,0,0,1-3.17-3.06c-1.31-2-3.29-4-3.71-6.44a14.18,14.18,0,0,1,0-1.91c0-1.24-.44-2.33-.48-3.57-.07-2,0-4,0-6.06a16.64,16.64,0,0,0-1-6,9.43,9.43,0,0,1-.81-2.72,11.08,11.08,0,0,0-.35-2.63,8.66,8.66,0,0,1-.1-2.31,10.4,10.4,0,0,0-.36-2.74,21.26,21.26,0,0,1-.1-4.57,9.21,9.21,0,0,1,.8-3.3c.37-1.15,1.48-2.29,1.57-3.47C170.36,193.31,174.14,189.62,174.26,189.59Z"/><path id="_Tracé_6" data-name="&lt;Tracé&gt;" class="cls-6" d="M200.8,261.43c1.17.06,2.44-2.47,3.19-3.2a22.55,22.55,0,0,1,4.48-3.67c2.79-1.66,5.75-1.48,8.93-1.37,1.58.05,2.37.8,3.52,1.84a26,26,0,0,0,4.13,3.23,19.56,19.56,0,0,1,7.32,7.73c.85,1.55,1.46,3.33,2.18,5a14.42,14.42,0,0,0,2.39,3.79,30,30,0,0,1,2.39,3.19c.82,1.21,2.07,1.76,3.1,2.72,1.68,1.57,2.82,3.29,5,4.24a16.47,16.47,0,0,0,3.55,1.27,23.71,23.71,0,0,1,5.62,1.25c1.45.61,2.82,1.35,4.23,2s3,1.34,4.33,2.18,2.73,1.83,4.14,2.65a31,31,0,0,1,3.3,1.91c1.89,1.45,1.88,3.65,1.84,5.83,0,1.84-.8,2.91-1.84,4.38a44.75,44.75,0,0,1-3.29,4.57c-2.35,2.56-4.68,5.23-6.77,8a52,52,0,0,0-3.19,4.24c-.83,1.38-2.51,2.5-3.67,3.65a21.48,21.48,0,0,0-2.29,3.1,10.17,10.17,0,0,0-1.38,2.85c-.76,2-1.72,5.1-3.66,6.31-1.5.94-3.63,1.84-4.14,3.73a13,13,0,0,0,0,2.87,10.35,10.35,0,0,0,.57,3.56c.35,1.1.95,4.24,0,5.17-1.44,1.44-4.64-.79-5.52-2a18.81,18.81,0,0,0-5.14-4.7c-2.21-1.41-3.93-3.3-5.94-4.92A18.12,18.12,0,0,1,225,339.7c-.78-1.08-.87-2.54-1.21-3.78-1-3.5-2.84-6.5-3.8-10-.65-2.35-.62-4.71-1.93-6.86a14.09,14.09,0,0,0-2.19-2.75c-1.3-1.27-2.27-2.76-3.56-4-1.74-1.72-3.41-3.41-5.13-5.11-1.07-1.06-2.19-2.1-3.22-3.21-.39-.42-.67-.83-1-1.28a1.81,1.81,0,0,1-.69-.51,7.39,7.39,0,0,0-.56-1.32c-.9-1.47-1.82-2.87-2.63-4.32-1.18-2.12-1.48-4.77-2.06-7.09s-1.83-4.62-2.21-7a13.19,13.19,0,0,0-.08-1.37,5.93,5.93,0,0,1-.37-1.37c0-.45,0-.92,0-1.37a14,14,0,0,0-.49-1.83,10.74,10.74,0,0,1,.94-6.41c.51-1,.5-2.08,1-3.1s1.74-1.72,1.82-2.76C197.81,264.23,200.68,261.46,200.8,261.43Z"/><path id="_Tracé_7" data-name="&lt;Tracé&gt;" class="cls-6" d="M355.94,310.95a13.39,13.39,0,0,1,2.26-2.85,14.78,14.78,0,0,0,2.73-4.11c.77-1.43,1.69-2.61,2.4-4,.79-1.56,1.51-3.06,2.2-4.68s1.08-3.66,1.7-5.42c.55-1.57.94-3.07,1.36-4.67.83-3.12,2.38-5.54,3.8-8.35a30.65,30.65,0,0,0,1.71-4.93c.55-1.83,1.78-3.19,2.3-5a12.18,12.18,0,0,0,.56-3.64,9.38,9.38,0,0,1,.92-4.24,14.74,14.74,0,0,0,1.38-3.55,14.56,14.56,0,0,0-.11-4c-.4-2.53-1.5-4.88-1.71-7.42-.24-2.86-.93-5.51-.93-8.37,0-1,0-2.07,0-3.1,0-1.2-.35-1.37-.91-2.38s-.93-2.48-1.8-3.47c-.56-.64-1.3-.87-1.89-1.45s-1.21-1.38-1.72-2c-.32-.38-.37-.89-.65-1.29s-.67-.48-.94-.87c-.55-.78-1-1.64-1.58-2.41a11.73,11.73,0,0,1-1.5-2.67c-.34-.8-1.08-1.77-1-2.72.48-3.88,4.45,1.35,5,2.41s1.23,2,1.81,3.08a5.52,5.52,0,0,0,2.88,2.4c1.18.6,1,1.06,1.35,2.2.17.59.61,1.77,1.41,1.29.65-.39.82-2.09,1-2.79.31-1.23.31-2.38.69-3.56a5.61,5.61,0,0,0,.59-2.77c-.15-.64-.78-1.15-1-1.78s.08-.71-.43-1.31c-.22-.25-.65-.32-.83-.64s0-.85-.08-1.29c-.14-1,0-.63-.92-1-.37-.16-1.14-.18-1.41-.32-.7-.37-.16-.26-.42-.94s-.44-1.5-.79-2.29c-.71-1.61-1-3.92-.13-5.49.43-.74,1.09-1.42,1.51-2.19a5.05,5.05,0,0,0,.31-2.49,22.58,22.58,0,0,1,.83-3.54,118.41,118.41,0,0,0-65.48-61.42c0,1.33.24,2.68,1,3.19a9.17,9.17,0,0,0,1.89.54,5.76,5.76,0,0,1,1.35.81,7.29,7.29,0,0,1,1.41.92c.42.47.23.44.52,1,1.21,2.42,2.38,4.8,3.56,7.22a12.85,12.85,0,0,1,1,3.9c.19,1.05.66,2,.84,3.08s-.24,5.46-2.22,4c-.66-.47-1.24-2.3-1.58-3a15.79,15.79,0,0,0-1.69-3.34c-.8-1-1.72-1-2.78-1.46s-1.74-1.31-2.73-1.74c-1.4-.6-4.37-1.1-5.17.46a5.87,5.87,0,0,0-.32,2.85,18,18,0,0,0,.33,5.28,28.47,28.47,0,0,1,1,3.88c.11.72.43,1.37.5,2.1a6,6,0,0,0,.07,1.46c.53,1.72,2.22,3.74,4,4.14,2,.46,3.29-.81,3.7-2.75.31-1.46-2.55-5.48.45-5.55.9,0,1.52.9,2.29,1.4a18.78,18.78,0,0,0,2.28,1.72,5.89,5.89,0,0,1,3.66,3.78c.43,1.16,1.09,4.15.14,5.17-1.22,1.3-3.54.73-4.6-.57-.6-.73-1.31-2.29-1.85-.49a10,10,0,0,0-.09,2.75c0,1.58.33,4.66-2.29,4-1.16-.28-1.84-1.46-2.74-2.1a5.07,5.07,0,0,1-1.95-2.39c-.61-1.27-2.77-3.63-4.48-2.67-2.15,1.21-.06,3.59.59,5a9.5,9.5,0,0,0,2.17,2.75,26.29,26.29,0,0,1,2.65,3.2c.61.82,1,1.8,1.59,2.64a19.37,19.37,0,0,1,1.37,1.82c.34.62.87,1.18.84,1.93,0,1-1.09,1.79-1.85,2.3s-2.24,1.25-2.69,2.29c-.21.49,0,1,0,1.47a10.27,10.27,0,0,1-.48,1.84c-.57,2-1.35,4.17-.94,6.29.34,1.74,2.26,3,3.68,3.66s4.26,2.78,6,1.28,2.25-4.33,2.71-6.31c.23-1,.39-1.84.57-2.85a12.58,12.58,0,0,0,.37-1.74,17.37,17.37,0,0,1,0-1.82,5.67,5.67,0,0,1,1.4-2.65c.58-.55,1.29-.57,1.93-.88a9.21,9.21,0,0,1,2.64-1.07,4.75,4.75,0,0,1,2.73,1.07c1.83,1.07,2.08,3.43,2.3,5.37a22.09,22.09,0,0,1,.46,2.75c0,1.43.28,2.21,1.83,2.3,1.91.11,3.29-1.85,3.67-3.67.26-1.21.38-1.79,1.82-1.84a20.93,20.93,0,0,1,3.18,0c1.17.15,2.07.89,3.23.95.91,0,1.84,0,2.75,0,1.56,0,3.91.27,5,1.46a6.48,6.48,0,0,1,1.36,4.48,9.66,9.66,0,0,1-1.72,5.5c-1,1.43-2.06,2.75-3.88,2.73a16.23,16.23,0,0,0-3.44.1,13.68,13.68,0,0,1-1.84.36c-.75.07-1.21.35-1.93.48a4.52,4.52,0,0,1-2.77-.35c-.87-.56-1.36-1.69-2.26-2.32-1.68-1.19-2.77-2.75-4.6-3.77-1.5-.84-3.15-1.87-5-1.38-.89.23-1.3,1.11-1.68,1.85-.64,1.25-1.38,2.46-2.07,3.64-.58,1-.65,1.65-1.71,2.2a24,24,0,0,1-2.76,1.39c-1.83.65-4.48,1.47-5.86,3a28,28,0,0,0-1.57,2.64c-.75,1-1.95,1.7-2.67,2.72-1.5,2.13-2,4.8-3.28,7a22.41,22.41,0,0,0-2.07,3.91,21.58,21.58,0,0,0-1.06,3.4c-.22,1.23.16,2.23-.31,3.46a7.83,7.83,0,0,0-.58,3.29,18,18,0,0,1-.1,3.3,31.14,31.14,0,0,0-.35,4c-.07,1.22-.47,2.26-.46,3.51a11,11,0,0,0,.8,4.27,34.35,34.35,0,0,0,2.4,4.08,7.52,7.52,0,0,1,.81,1.85c.16.63,0,1.39.53,1.89s.85.23,1.41.48,1.16,1,1.73,1.42c.78.54,1.41.82,1.83,1.71s.42,1.61,1.45,1.87c.57.14,1.14-.2,1.75,0s.91.91,1.47,1.34.67.52,1.34.37a16.15,16.15,0,0,1,1.37-.87,7.08,7.08,0,0,1,1.88-.54,13.89,13.89,0,0,0,2.39-1.3c.73-.36,1.48-.55,2.21-.9a12.52,12.52,0,0,1,3.26-1c3.15-.6,6.37-.07,9.52-.7,1.36-.27,2.63-.46,3.33.8a5.73,5.73,0,0,0,2.15,2.27,18.17,18.17,0,0,1,3.22,2.75c1.12,1.35,1.34,3.46,1.38,5.18,0,1.53.45,2.9.47,4.43a18.65,18.65,0,0,1-1.41,6.55c-.36,1-.53,2-.91,3a4.39,4.39,0,0,0-.45,1.79,18.74,18.74,0,0,1-1.26,4.57c-.72,2.13-.54,4.29-1.12,6.42-.15.55-.57.95-.73,1.47a6.64,6.64,0,0,0-.08,1.38,10.24,10.24,0,0,1-.8,2.73A46.65,46.65,0,0,0,340.7,314a23.73,23.73,0,0,0-.8,2.28,5,5,0,0,1-.33,1.38c-.21.49-.79,1-.95,1.48a4.92,4.92,0,0,0,0,2.68c.42.67,2.06.54,2.77.46a12.62,12.62,0,0,0,4.13-1.74,23.21,23.21,0,0,0,4.6-3.68C352.07,315.08,354.53,313.28,355.94,310.95Z"/><path id="_Tracé_8" data-name="&lt;Tracé&gt;" class="cls-6" d="M265.77,163.51l.37-.08c.19-.92.72-1.75.91-2.66.25-1.12.43-2.41.57-3.55a10.3,10.3,0,0,0-.81-5.63,9.28,9.28,0,0,0-2.33-3.3,3.64,3.64,0,0,1-.92-4c1.09-3,6-4.35,8.61-5.15a26.63,26.63,0,0,1,10.53-.81c1.58.19,2.24,2.13,2.63,3.57.55,2,1.44,4,1.47,6a12,12,0,0,1,0,2.29,10.11,10.11,0,0,1-1.28,2.29c-1,1.93-3.22,3-4.71,4.58a17.4,17.4,0,0,0-1.71,2.29c-.56.84-1.22,1.5-1.84,2.3a13.12,13.12,0,0,1-1.36,1.48,22.28,22.28,0,0,0-1.46,2.18,8.43,8.43,0,0,1-1.73,1.49,4.27,4.27,0,0,1-2.41.33c-.58,0-1.69.23-2.2-.09A18.74,18.74,0,0,1,265.77,163.51Z"/></g></g></g></g></svg>