<svg xmlns="http://www.w3.org/2000/svg" xmlns:xlink="http://www.w3.org/1999/xlink" viewBox="0 0 567 400" xmlns:v="https://vecta.io/nano"><style><![CDATA[.AL{fill:#1e2123}.AM{fill:#adbbd6}.AN{fill:#111314}.AO{fill:#bfd643}.AP{fill:#13468a}.AQ{fill:#0f294c}.AR{fill:#502f4b}.AS{fill:#542009}.AT{fill:#2d2b26}.AU{fill:#d3291e}.AV{fill:#545d63}.AW{fill:#efefef}.AX{fill:#c6ad0e}.AY{fill:#7f888f}.AZ{fill:#51c000}]]></style><path d="M347.4 319.9c1.4.8-5.2 6.4-6.6 9.9-7.7 18.8-9.3 24.6-16.7 41.5-.4 1-3.7 8.6-9.6 17.5-2.2 3.3-4.7 4.1-5.5 4.4-8 3.2-25-17.2-46.6-25.3-10.9-4.1-22-5.1-25.6-12.8-2.1-4.3-1.2-8.6-.5-11.9.8-3.7 2.8-8.5 16.4-20.9 2.4-2.2 9.3-8.4 20.8-16.8 17.9-13 22.3-13.4 24.9-12 .3.1 2 1.1 2.1 2.5.2 3.4-9 6.5-13.8 8.2-5.9 2.2-48.5 42.2-46.2 46.9 1.7 3.6 5.1 7.3 19.6 11.9 18.5 5.9 22.7 6.3 30 11.2 9 6.1 12.6 7.4 17.8 7.2 1.7 0 5-.9 13.6-17.5 7.9-15.3 8.9-26.7 18.3-39.4 1.5-2.1 6.6-5.2 7.6-4.6zm206.5-91.4c7.1 7.7 1.9 17.5-5 18.1-7.6.6-13.8-1.8-28.9-10.8-30.9-18.4-44.1-31.6-55.9-34.1-1.5-.3-8-1.5-8.2-3.6-.1-.9 1.1-1.6 1.4-1.9 4.8-3.1 15.1 2.1 17 3 20.3 10.1 47.9 15.5 53.4 16.6 10.2 1.9 19.1 5 26.2 12.7M169.6 353v-.1-.1c.5-2.8-.9-5.7-4.6-7.8-3.1-1.8-7.4-2.7-11.6-2.7-4.3 0-8.5-1-11.5-2.8l-12.6-5.6-48.2-27.8c-2.5-1.4-3.9-3.3-3.9-5.3s-1.2-3.9-3.7-5.4c-3.2-1.8-7.7-2.5-11.9-2l-3.2.3s3.2.7 3.2 2.5l6 3.5.9 1.2-1.7 1.6-4 1.6-6.2-.3-6.7-3.6c-.3.4-6.6.8-6.7 1.2l2.3 3 3.8.4c.1 1.8 1.8 3.8 4.1 5.1s5.2 2 8.2 2.2c3.6.2 7.1 1 9.6 2.5l49.8 28.7 8.8 6.3c3.2 1.9 5.1 4.3 5.4 7 .3 2.2 1.9 4.3 4.7 5.9 3.8 2.2 2.9 3.9 7.5 2.7l7.3-3.1-7.8-4.9-.2-1.9 3-2.6 5.8-2.2 6.4 1.5.2 4.6c1.7-.6 5.8-2.6 7.5-3.6 0 .1 0 .1 0 0m-32.4-34.8v-.2-.1c-.6-3 1-6 4.8-8.2 3.3-1.9 7.8-2.8 12.3-2.8 4.6 0 8.9-1.1 12.2-3l13.3-5.9 50.9-29.4c2.6-1.5 4.1-3.5 4.1-5.6s1.3-4.1 3.9-5.7c3.4-1.9 1.8-1 6.1-2.3 1.2-.3 6.5 1.2 6.5 3.2l-6.4 3.7-.9 1.3 1.8 1.7 4.3 1.6 6.6-.3 1.5-3.9c.3.5 6.2 5 6.2 5-.1 1.9-1.9 4-4.3 5.3-2.4 1.4-5.5 2.1-8.7 2.3-3.8.2-7.5 1.1-10.2 2.6l-52.6 30.3-9.3 6.6c-3.4 2-5.3 4.6-5.7 7.3-.3 2.3-2 4.5-4.9 6.2-4 2.3-15.7-.3-15.7-.3l8.2-5.1.3-2-3.2-2.8-6.2-2.3-6.7 1.6c0 .2-6.5 2.2-8.2 1.2 0 .1 0 .1 0 0m35-143.6h12.5l87-50.1-67.9-36.9-93.9 51.1 62.3 35.9" class="AW"/><path d="M274,64.9l-65.1-37.6L107.6,86.1l64.6,37.3L274,64.9z" fill="#f4f4f4"/><path d="M255.9 65.6l-40.5-23.4-1.8 1L254 66.5l1.9-.9m-3.5 1.9L212 44.1l-1.8 1 40.4 23.3 1.8-.9zm-14.8 8.9L197.1 53l-1.8 1 40.4 23.3 1.9-.9m-3.5 1.9L193.6 55l-1.8 1 40.4 23.3 1.9-1m-12.5 8.2l-40.5-23.4-1.8 1 40.4 23.3 1.9-.9m-3.6 1.9L177.5 65l-1.8 1 40.4 23.3 1.9-.9m-13.1 6.7l-40.5-23.4-1.8 1L203.1 96l1.8-.9m-3.5 1.9l-40.5-23.4-1.8 1L199.6 98l1.8-1m-12.6 8.3L148.3 82l-1.8 1 40.4 23.3 1.9-1m-3.6 2l-40.5-23.4-1.8 1 40.4 23.3 1.9-.9" class="AP"/><path d="M563.9 174.3c-6.9-4.8-17.9-2.9-25.8.3-.2 0-.4.1-.5.2l-43 19.9c-2.1 1 .4 3.5 2.3 4.9l13.7 10.8c1.5 1 11.3 1.2 12.9.4l34.1-15.8c2.5-1 3.4-1.5 5.1-2.3 7.9-3.7 8.3-13.3 1.2-18.4" class="AW"/><g class="AQ"><path d="M525.8 192.4c7.4 4.3 7.4 11.3 0 15.6s-19.5 4.3-26.9 0-7.4-11.3 0-15.6 19.4-4.3 26.9 0z"/><path d="M530.5 133.3v1.3c-.1 1.2-.6 2.3-1.4 3.4-.5-.3-1.1-.5-1.1-.8v-5.9c1 .7 1.8 1.4 2.5 2h0 0zm-7.3 1.6c-1.1-.3-2.2-.8-3.4-1V128c1.2.2 2.3.7 3.4 1v5.9zm-8.7-2l-4.2.1v-5.9l4.2-.1v5.9zm0 11.7l-4.2.1v-5.9l4.2-.1v5.9zm-8.6-10.9l-3.4 1v-5.9c1.1-.4 2.2-.7 3.4-1v5.9zm-8.1 3.3c-.8.4-1.3 1.2-1.6 1.7-.5-.6-.9-1.3-.9-1.3v-3.2c0-.9 1.2-2.1 2.5-2.9v5.7zm28.6-11c-7.7-4.4-20.2-4.4-27.8 0-4.9 2.8-6.7 6.8-5.3 10.4v62.9h38.2v-62.1c1.8-3.9.2-8.2-5.1-11.2"/></g><path d="M520.4 144.5c.9-.3 1.7-.6 3.4-1v-2.8c-1.8-.3-2.6-.8-3.4-1v4.8zm-17.6-.7c.9.4 1.8.7 3.3.9v-5.2c-1.6.3-2.5.6-3.3 1v3.3z" fill="#3381c1"/><path d="M526.4 126c-7.7-4.4-20.2-4.4-27.9 0-4 2.3-6 5.5-5.8 8.5h1.5c-.2-2.8 1.6-5.7 5.3-7.9 7.1-4.1 18.6-4.1 25.7 0 3.7 2.2 5.5 5 5.3 7.9h1.6c.2-3.1-1.7-6.2-5.7-8.5" class="AP"/><linearGradient id="A" gradientUnits="userSpaceOnUse" x1="473.278" y1="73.126" x2="462.798" y2="40.49"><stop offset="0" stop-color="#f7931e"/><stop offset="1" stop-color="#f15a24"/></linearGradient><path d="M509.9 191.7l.7 10.2 5.2-8.9-5.9-1.3z" fill="url(#A)"/><path d="M526.6 121.5l-16.7 70c-.1.4.1 1 .6 1.4 1 .9 2.8 1.4 4.2 1 .7-.2 1-.6 1.1-1l16.7-70-5.9-1.4" class="AO"/><path d="M528 115.9l-1.4 5.7c-.1.4.1 1 .6 1.4 1 .9 2.8 1.4 4.2 1 .7-.2 1-.6 1.1-1l1.4-5.7-5.9-1.4" class="AR"/><path d="M533.3 116c1 .9.7 2-.6 2.4s-3.2-.1-4.2-1-.7-2 .6-2.4 3.2.1 4.2 1z" class="AQ"/><linearGradient id="B" gradientUnits="userSpaceOnUse" x1="431.885" y1="-193.225" x2="426.385" y2="-210.377"><stop offset="0" stop-color="#f7931e"/><stop offset="1" stop-color="#f15a24"/></linearGradient><path d="M528 115.9c-.1.4.1.9.6 1.4 1 .9 2.8 1.4 4 1 .6-.2 1-.6 1.1-1l.4-1.6-5.7-1.4-.4 1.6" fill="url(#B)"/><path d="M533.6 114.3c1 .9.7 1.9-.6 2.3s-3.1-.1-4-1c-1-.9-.7-1.9.6-2.3 1.2-.3 3 .1 4 1z" class="AU"/><path d="M512 199.4c-.5.1-1.2 0-1.5-.4l-.1-.1.2 3 1.6-2.7c-.1.2-.1.2-.2.2z" class="AS"/><linearGradient id="C" gradientUnits="userSpaceOnUse" x1="721.284" y1="467.672" x2="700.884" y2="439.525"><stop offset="0" stop-color="#f7931e"/><stop offset="1" stop-color="#f15a24"/></linearGradient><path d="M517.5 188.8l3.8 9.5 2.2-10.1-6 .6z" fill="url(#C)"/><path d="M511.5 116.8l6 71.7c0 .5.4.9 1 1.2 1.2.6 3.1.4 4.3-.4.6-.4.8-.9.8-1.3l-6-71.7-6.1.5z" class="AO"/><path d="M511.1 111.1l.5 5.8c0 .4.4.9 1 1.2 1.2.6 3.1.4 4.3-.4.6-.4.8-.9.8-1.3l-.5-5.9-6.1.6" class="AR"/><path d="M516.1 109.5c1.2.6 1.3 1.7.2 2.5s-3 .9-4.3.4c-1.2-.6-1.3-1.7-.2-2.5 1.2-.8 3.1-1 4.3-.4" class="AQ"/><linearGradient id="D" gradientUnits="userSpaceOnUse" x1="604.576" y1="235.098" x2="594.326" y2="220.961"><stop offset="0" stop-color="#f7931e"/><stop offset="1" stop-color="#f15a24"/></linearGradient><path d="M511.1 111h0c0 .5.3.9 1 1.2 1.2.6 3.1.4 4.1-.3.6-.4.8-.7.8-1.3l-.1-1.6-5.8.5v1.5z" fill="url(#D)"/><path d="M515.9 107.8c1.2.6 1.3 1.6.2 2.4s-2.9.9-4.1.3-1.3-1.6-.2-2.4c1-.7 2.9-.9 4.1-.3z" class="AU"/><path d="M521.9 195.4c-.4.3-1.1.3-1.6.1h-.1l1.1 2.8.7-3s-.1 0-.1.1" class="AS"/><linearGradient id="E" gradientUnits="userSpaceOnUse" x1="576.684" y1="320.803" x2="560.134" y2="291.381"><stop offset="0" stop-color="#f7931e"/><stop offset="1" stop-color="#f15a24"/></linearGradient><path d="M501.4 189.7l2.7 9.9 3.3-9.8-6-.1z" fill="url(#E)"/><path d="M504.4 97.8l-3 91.7c0 .5.3.9.9 1.3 1.2.7 3.1.8 4.3.1.6-.3.9-.8.9-1.2l3-91.7-6.1-.2" class="AO"/><path d="M504.5 92.1l-.2 5.9c0 .5.3.9.9 1.3 1.2.7 3.1.8 4.3.1.6-.3.9-.8.9-1.2l.2-5.9-6.1-.2" class="AR"/><path d="M509.8 91.1c1.2.7 1.1 1.8-.1 2.5-1.2.6-3.1.6-4.3-.1s-1.1-1.8.1-2.5 3.1-.7 4.3.1z" class="AQ"/><linearGradient id="F" gradientUnits="userSpaceOnUse" x1="472.314" y1="28.773" x2="463.853" y2="13.718"><stop offset="0" stop-color="#f7931e"/><stop offset="1" stop-color="#f15a24"/></linearGradient><path d="M504.6 91.9c0 .5.2.9.8 1.3 1.1.7 3 .8 4.1.1.6-.3.9-.7.9-1.2v-1.6l-5.9-.2.1 1.6" fill="url(#F)"/><path d="M509.7 89.3c1.1.7 1.1 1.8-.1 2.4s-3 .6-4.1-.1-1.1-1.8.1-2.4c1.1-.6 3-.6 4.1.1z" class="AU"/><path d="M504.9 196.8c-.4.2-1.2.2-1.6-.1 0 0-.1 0-.1-.1l.8 2.9 1-2.9c0 .1 0 .1-.1.2z" class="AS"/><linearGradient id="G" gradientUnits="userSpaceOnUse" x1="941.322" y1="595.494" x2="916.382" y2="571.763"><stop offset="0" stop-color="#f7931e"/><stop offset="1" stop-color="#f15a24"/></linearGradient><path d="M512.2 189l5.5 8.7.3-10.3-5.8 1.6z" fill="url(#G)"/><path d="M493.3 119.3l18.9 69.4c.1.4.5.8 1.2 1 1.3.3 3.2-.2 4.1-1.1.5-.5.6-1 .5-1.4l-18.9-69.4-5.8 1.5" class="AO"/><path d="M491.8 113.8l1.5 5.7c.1.4.5.8 1.2 1 1.3.3 3.2-.2 4.1-1.1.5-.5.6-1 .5-1.4l-1.5-5.7-5.8 1.5" class="AR"/><path d="M496.4 111.3c1.3.3 1.6 1.4.7 2.4-1 1-2.8 1.5-4.1 1.1-1.3-.3-1.6-1.4-.7-2.4s2.8-1.5 4.1-1.1z" class="AQ"/><linearGradient id="H" gradientUnits="userSpaceOnUse" x1="772.544" y1="376.925" x2="760.314" y2="365.29"><stop offset="0" stop-color="#f7931e"/><stop offset="1" stop-color="#f15a24"/></linearGradient><path d="M491.8 113.7h0c.1.4.5.8 1.1 1 1.3.3 3.1-.1 4-1 .5-.5.7-.9.5-1.4l-.4-1.6-5.7 1.5.5 1.5" fill="url(#H)"/><path d="M495.9 109.7c1.3.3 1.6 1.4.6 2.3-.9.9-2.7 1.4-4 1.1s-1.6-1.4-.6-2.3c.9-1 2.7-1.5 4-1.1z" class="AU"/><path d="M517.7 194.7c-.4.4-1 .5-1.5.4h-.1l1.6 2.6.1-3.1c0 0 0 0-.1.1" class="AS"/><g class="AT"><path d="M512.2 195.4c.1-.2.1-.4.1-.5l5.7-63.6-4.5-.4-5.8 63.7h-.1c-.1.2-.1.4 0 .6l.6 6.7c0 .2.1.3.2.4.4.2 1 .3 1.4.1.2-.1.3-.2.3-.4h.1l2-6.6"/><path d="M522.6 129.5c3.5 2.4 3.1 5.9-.7 7.6-3.8 1.8-9.8 1.2-13.2-1.2-3.5-2.4-3.2-5.9.7-7.6 3.8-1.8 9.8-1.3 13.2 1.2z"/></g><path d="M522.9 126.7c3.5 2.4 3.2 5.9-.7 7.6-3.8 1.8-9.8 1.2-13.2-1.2-3.5-2.4-3.1-5.9.7-7.6s9.7-1.2 13.2 1.2z" class="AX"/><path d="M522.3 119.2c2.8 2 2.5 4.7-.6 6.2-3.1 1.4-7.9 1-10.7-1s-2.5-4.7.6-6.2c3.1-1.4 7.9-1 10.7 1zm4.1-14.1c4.3 3 3.9 7.2-.9 9.4-4.7 2.2-12.1 1.5-16.3-1.5-4.3-3-3.9-7.2.9-9.4 4.7-2.2 12-1.5 16.3 1.5z" fill="#fff"/><path d="M528.3 94.5l.7 10.7c.2 3.1-.3 6.2-1.6 9l-2.6 6-.8 6.5 1.1 3.9-.1.6-18.7-1.6.1-1.1 2.1-3.5.1-7.6-1.1-3.3c-1.2-3.7-1.3-7.6-.2-11.4l2.8-9.8 18.2 1.6" class="AX"/><path d="M526 91.1c3.3 2.3 3 5.6-.7 7.4-3.7 1.7-9.4 1.2-12.7-1.2-3.3-2.3-3-5.6.7-7.4 3.7-1.6 9.4-1.1 12.7 1.2zm-10.4 12.1c-1 .9-1.7 2.2-1.7 4.5-.1 4.2.3 11 2.5 11.5 1.9.4 4.2-4.1 4.5-4.6 1.9-3.6 3-9.7.2-11.7-1.5-1-4.1-.9-5.5.3m.2 20.5c-1.8.4-2.6 2.6-2.6 4.3 0 .3 0 3.1 2 3.8 1.4.5 3-.4 3.7-1.4 1.5-1.8 1-4.8-.7-6.1-.2-.1-1.2-.8-2.4-.6" fill="#e7d113"/><path d="M509.9 95.9c1.3-.2 2.9 1.9 3.1 3.8.1 1.4-.6 2.2-1.4 3.9-1 2.3-1.1 4.1-1.2 7.4-.1 2.3.2 2 .8 8.9.3 3.5.5 6.3-1 8.2-.3.3-1 1.2-1.6 1.1-.5-.1-.7-1-.7-1.5 0-1.2.7-2.1 1-2.5 1-1.5.7-3.4 0-7-1.6-7.9-1.9-7.7-2.2-9.9-.6-5.7 1.1-12.1 3.2-12.4m18.1 1.7c-1.2-.4-3.2 1.3-3.7 3.2-.4 1.4.2 2.3.7 4.1.6 2.4.3 4.2-.1 7.5-.3 2.3-.6 1.9-2.4 8.6-.9 3.4-1.6 6.1-.5 8.2.2.4.8 1.4 1.4 1.3.5-.1.8-.8 1-1.4.3-1.2-.3-2.2-.5-2.6-.8-1.6-.1-3.5 1.2-6.9 3-7.5 3.3-7.3 3.9-9.4 1.5-5.4 1-12-1-12.6z" class="AT"/><path d="M525.4 90.5c2.9 2.1 2.7 5-.6 6.5s-8.3 1.1-11.2-1-2.7-5 .6-6.5c3.2-1.5 8.2-1.1 11.2 1z" fill="#ece61b"/><linearGradient id="I" gradientUnits="userSpaceOnUse" x1="422.4" y1="-172.031" x2="434.89" y2="-139.144"><stop offset="0" stop-color="#f7931e"/><stop offset="1" stop-color="#f15a24"/></linearGradient><path d="M530.3 108.2L529.1 98l-4.8 9.2 6 1z" fill="url(#I)"/><path d="M517.3 179.2l13-70.8c.1-.4-.1-.9-.7-1.4-1-.9-2.9-1.2-4.2-.8-.6.2-1 .6-1.1 1.1l-13 70.8 6 1.1" class="AO"/><path d="M516.2 184.8l1.1-5.8c.1-.4-.1-.9-.7-1.4-1-.9-2.9-1.2-4.2-.8-.6.2-1 .6-1.1 1.1l-1.1 5.8 6 1.1" class="AR"/><path d="M510.9 185c-1-.9-.8-2 .4-2.4 1.3-.5 3.2-.1 4.2.8s.8 2-.4 2.4c-1.3.5-3.1.1-4.2-.8" class="AQ"/><linearGradient id="J" gradientUnits="userSpaceOnUse" x1="475.885" y1="86.908" x2="482.075" y2="103.215"><stop offset="0" stop-color="#f7931e"/><stop offset="1" stop-color="#f15a24"/></linearGradient><path d="M516.1 184.8h0c.1-.4-.1-.9-.6-1.4-1-.9-2.8-1.2-4.1-.8-.6.2-1 .7-1.1 1l-.3 1.7 5.8 1.1.3-1.6" fill="url(#J)"/><path d="M510.7 186.7c-1-.9-.8-1.9.4-2.4 1.2-.4 3.1-.1 4.1.7 1 .9.8 1.9-.4 2.4-1.3.5-3.1.2-4.1-.7" class="AU"/><path d="M527.8 100.6c.5-.2 1.2 0 1.6.3l.1.1-.4-3-1.4 2.7c0 0 0 0 .1-.1" class="AS"/><path d="M530.2 146.6c-.7.7-1.6 1.3-2.6 1.9v-5.9c1-.6 1.9-1.2 2.6-1.9v5.9zm0 11.1c-.7.7-1.6 1.3-2.6 1.9v-5.9c1-.6 1.9-1.2 2.6-1.9v5.9zm0 11c-.7.7-1.6 1.3-2.6 1.9v-5.9c1-.6 1.9-1.2 2.6-1.9v5.9zm0 11.1c-.7.7-1.6 1.3-2.6 1.9v-5.9c1-.6 1.9-1.2 2.6-1.9v5.9zm0 11.1c-.7.7-1.6 1.3-2.6 1.9v-5.9c1-.6 1.9-1.2 2.6-1.9v5.9zm0 11c-.7.7-1.6 1.3-2.6 1.9V198c1-.6 1.9-1.2 2.6-1.9v5.8zm-6.9-51l-3.4 1V146c1.2-.2 2.4-.7 3.4-1v5.9zm0 11.1l-3.4 1v-5.9c1.2-.2 2.4-.7 3.4-1v5.9zm0 11l-3.4 1v-5.9c1.2-.2 2.4-.7 3.4-1v5.9zm0 11.1l-3.4 1v-5.9c1.2-.2 2.4-.7 3.4-1v5.9zm0 11.1l-3.4 1v-5.9c1.2-.2 2.4-.7 3.4-1v5.9zm0 11l-3.4 1v-5.9c1.2-.2 2.4-.7 3.4-1v5.9zm-8.8-53.2c-1.4 0-2.8 0-4.1-.1V147l4.1.1v5.9zm0 11c-1.4 0-2.8 0-4.1-.1V158l4.1.1v5.9zm0 11.1c-1.4 0-2.8 0-4.1-.1v-5.9l4.1.1v5.9zm0 11.1c-1.4 0-2.8 0-4.1-.1v-5.9l4.1.1v5.9zm0 11c-1.4 0-2.8 0-4.1-.1v-5.9l4.1.1v5.9zm0 11.1c-1.4 0-2.8 0-4.1-.1v-5.9l4.1.1v5.9zm-8.6-56.2l-3.3-1v-5.9c1.1.4 2.2.7 3.3 1v5.9zm0 11.1l-3.3-1v-5.9c1.1.4 2.2.7 3.3 1v5.9zm0 11.1l-3.3-1v-5.9c1.1.4 2.2.7 3.3 1v5.9zm0 11l-3.3-1v-5.9c1.1.4 2.2.7 3.3 1v5.9zm0 11.1l-3.3-1v-5.9c1.1.4 2.2.7 3.3 1v5.9zm0 11.1l-3.3-1v-5.9c1.1.4 2.2.7 3.3 1v5.9zm-8.5-59.1c-1-.8-1.9-1.7-2.5-2.7v-5.9c.6.9 1.5 1.8 2.5 2.7v5.9zm0 11c-1-.8-1.9-1.7-2.5-2.7v-5.9c.6.9 1.5 1.8 2.5 2.7v5.9zm0 11.1c-1-.8-1.9-1.7-2.5-2.7V162c.6.9 1.5 1.8 2.5 2.7v5.8zm0 11.1c-1-.8-1.9-1.7-2.5-2.7V173c.6.9 1.5 1.8 2.5 2.7v5.9zm0 11c-1-.8-1.9-1.7-2.5-2.7V184c.6.9 1.5 1.8 2.5 2.7v5.9zm0 11.1c-1-.8-1.9-1.7-2.5-2.7v-5.9c.6.9 1.5 1.8 2.5 2.7v5.9zm29-61.7c-7.7 4.4-20.2 4.4-27.9 0-2.7-1.6-4.4-3.5-5.3-5.5v63.7c0 2.8 1.9 5.6 5.6 7.8 7.4 4.3 19.3 4.3 26.8 0 3.7-2.1 5.8-5 5.8-7.8l.2-63.6c-.8 2-2.5 3.9-5.2 5.4" class="AP"/><path d="M526.4 142c-7.7 4.4-20.2 4.4-27.8 0-3.4-2-5.3-4.4-5.7-7-.6 3.3 1.3 6.7 5.7 9.2 7.7 4.4 20.2 4.4 27.9 0 4.3-2.5 6.2-5.8 5.7-9.1-.6 2.6-2.5 5-5.8 6.9" class="AQ"/><path d="M530.6 134.5c-.2 2.6-2 5-5.3 6.9-7.1 4.1-18.6 4.1-25.7 0-3.3-1.9-5.1-4.4-5.3-6.9h-1.6c.2 2.8 2.1 5.5 5.8 7.6 7.7 4.4 20.2 4.4 27.8 0 3.6-2.1 5.6-4.7 5.8-7.6h-1.5" class="AP"/><path d="M72.2,222.6l65.1-37.6l101.3,58.8L174,281.1L72.2,222.6z" fill="#f2f2f2"/><path d="M90.3 223.3l40.5-23.4 1.8 1-40.4 23.3-1.9-.9zm3.5 1.9l40.5-23.4 1.8 1-40.4 23.3-1.9-.9m14.8 8.9l40.5-23.4 1.8 1-40.5 23.3-1.8-.9zm3.6 1.9l40.5-23.4 1.8 1L114 237l-1.8-1zm12.4 8.2l40.5-23.4 1.8 1-40.4 23.3-1.9-.9zm3.6 1.9l40.5-23.4 1.8 1-40.5 23.4-1.8-1zm13.1 6.7l40.5-23.4 1.8 1-40.4 23.3-1.9-.9zm3.5 2l40.5-23.4 1.8 1-40.4 23.3-1.9-.9zm12.7 8.3l40.5-23.4 1.8 1-40.5 23.3-1.8-.9zm3.5 1.9l40.5-23.4 1.8 1-40.4 23.3-1.9-.9" class="AP"/><path d="M184.6 192.8h0 0l-1.3-.8c-.1-.1-.1-.2-.2-.2h0l-5.2-3.1-64.7-39.1c-.1 0-.1-.1-.2-.1h0l-7.4-1.8-3.1-.8-6 .7c.1.1 13.2 7.3 13.3 7.4h0 0l.1.1 64.7 39.2 1.6 4.8c.4.2 6.1-.6 6.7-1 1.2-.7 2.2-2.3 2.3-3.7 0-.9-.2-1.4-.6-1.6" class="AW"/><linearGradient id="K" gradientUnits="userSpaceOnUse" x1="200.956" y1="151.55" x2="219.752" y2="151.55"><stop offset="0" stop-color="#f7931e"/><stop offset="1" stop-color="#f15a24"/></linearGradient><path d="M107 150.1l-10.5-2.6 7.2 8.1 3.3-5.5z" fill="url(#K)"/><path d="M171.9 189.4l-64.7-39.1c-.4-.2-1-.2-1.6.1-1.3.7-2.3 2.4-2.3 3.8 0 .7.2 1.2.6 1.5l64.7 39.2 3.3-5.5z" class="AO"/><path d="M177.1 192.5l-5.3-3.2c-.4-.2-1-.2-1.6.1-1.3.7-2.3 2.4-2.3 3.8 0 .7.2 1.2.6 1.5l5.3 3.2 3.3-5.4" class="AR"/><path d="M175.3 197.8c-1.3.7-2.3.1-2.2-1.3 0-1.4 1.1-3.2 2.3-3.8 1.3-.7 2.3-.1 2.2 1.3 0 1.4-1 3.1-2.3 3.8z" fill="#246693"/><linearGradient id="L" gradientUnits="userSpaceOnUse" x1="280.254" y1="195.559" x2="288.306" y2="195.559"><stop offset="0" stop-color="#f7931e"/><stop offset="1" stop-color="#f15a24"/></linearGradient><path d="M177.1 192.6c-.4-.3-.9-.2-1.6.1-1.2.7-2.2 2.3-2.3 3.7 0 .7.2 1.2.6 1.4h0l1.5.9 3.2-5.3-1.4-.8" fill="url(#L)"/><path d="M176.9 198.6c-1.2.7-2.2.1-2.2-1.3s1-3.1 2.3-3.7c1.2-.7 2.2-.1 2.2 1.3-.1 1.4-1.1 3.1-2.3 3.7z" class="AU"/><path d="M98.7 149.7c0-.5.4-1.2.9-1.4h.1l-3.1-.8 2.2 2.4c-.1 0-.1-.1-.1-.2z" class="AS"/><path d="M236.7 331.2l29.9 19.4c3.2 1.8 14.5 3.2 17.7 1.4l83.9-48.4c4.1-2.3 4.1-6.2 0-8.5l-36.1-20.9c-3.2-1.8-8.3-1.8-11.5 0l-83.9 48.4c-4 2.4-4 6.3 0 8.6z" class="AW"/><path d="M224.7 327.2l34.6 20c3 1.7 8 1.7 11 0l80.4-46.4c3.9-2.2 3.9-5.9 0-8.2l-34.6-20c-3-1.7-8-1.7-11 0L224.7 319c-3.9 2.3-3.9 6 0 8.2z" fill="#0e223e"/><use xlink:href="#P" fill="#0e2544"/><use xlink:href="#Q" fill="#0f284b"/><use xlink:href="#R" fill="#0f2b51"/><use xlink:href="#R" y="-0.4" fill="#102e57"/><use xlink:href="#R" y="-0.8" fill="#10315e"/><path d="M224.7 325l34.6 20c3 1.7 8 1.7 11 0l80.4-46.4c3.9-2.2 3.9-5.9 0-8.2l-34.6-20c-3-1.7-8-1.7-11 0l-80.4 46.4c-3.9 2.3-3.9 5.9 0 8.2" fill="#103464"/><path d="M224.7 324.6l34.6 20c3 1.7 8 1.7 11 0l80.4-46.4c3.9-2.2 3.9-5.9 0-8.2l-34.6-20c-3-1.7-8-1.7-11 0l-80.4 46.4c-3.9 2.3-3.9 6 0 8.2" fill="#11376a"/><path d="M224.7 324.2l34.6 20c3 1.7 8 1.7 11 0l80.4-46.4c3.9-2.2 3.9-5.9 0-8.2l-34.6-20c-3-1.7-8-1.7-11 0L224.7 316c-3.9 2.3-3.9 6 0 8.2" fill="#113a71"/><use xlink:href="#R" y="-2.3" fill="#123d77"/><use xlink:href="#P" y="-3.4" fill="#12407d"/><use xlink:href="#Q" y="-3.4" fill="#134384"/><use xlink:href="#R" y="-3.4" class="AP"/><path d="M226.3 321.3l33.5 19.4c2.9 1.7 7.7 1.7 10.7 0l77.9-45c3.8-2.2 3.8-5.7 0-7.9l-33.5-19.4c-2.9-1.7-7.7-1.7-10.7 0l-77.9 45c-3.8 2.1-3.8 5.7 0 7.9z" fill="#7799d0"/><path d="M302.7 269.9c4.9-3.1 10.3 1.7 17.8 5.7l17.2 9.9c5.4 3.4 14.8 7 9.4 10.4l-74.4 42.9c-.3.2-.6.3-.8.5l-1.3.7c-2.5 1.4-6.6 1.4-9.1 0l-35.7-20.6c-2.5-1.4-2.4-3.8.1-5.2l76.8-44.3zm.3-1.1l-77.2 44.6c-3.6 2.1-3.6 5.5 0 7.5l33.2 19.4c3.6 2.1 9.2 2.4 13.3-.1l77.2-44.6c3.6-2.1 3.6-5.5 0-7.5L316 268.8c-3.6-2.1-8.9-2.4-13 0z" class="AP"/><path d="M338.4 283.9c-.3.2-.3.5 0 .6.3.2.8.2 1.1 0s.3-.5 0-.6-.8-.1-1.1 0zm-16.7-9.5c-.2.1-.2.3 0 .4s.6.1.8 0 .2-.3 0-.4c-.3-.1-.6-.1-.8 0zm14.2 8.3c-.5.3-.5.7 0 1a1.72 1.72 0 0 0 1.7 0c.5-.3.5-.7 0-1-.4-.3-1.2-.3-1.7 0z" fill="#f4f4f4"/><path d="M389 82.3l.1.1s.1 0 .1-.1h-.2" fill="#f4cb5c"/><g class="AT"><path d="M457 199.5c.1.1.3.2.5.3l54 26.7 1.9-3.8-54.1-26.8.1-.1c-.1-.1-.3-.2-.5-.2l-6-1.7c-.1-.1-.3 0-.4.1-.3.2-.6.7-.6 1.1 0 .2.1.3.2.4v.1l4.9 3.9"/><path d="M511.5 231.2c-3.3 2.2-6.2.8-6.5-3.2s2.2-9 5.6-11.2c3.3-2.2 6.2-.8 6.5 3.2.2 3.9-2.3 8.9-5.6 11.2z"/></g><path d="M513.8 232.3c-3.3 2.2-6.2.8-6.5-3.2s2.2-9 5.6-11.2c3.3-2.2 6.2-.8 6.5 3.2.2 4-2.3 9-5.6 11.2" class="AX"/><path d="M520.7 234.3c-2.7 1.8-5 .6-5.2-2.6s1.8-7.3 4.5-9.1 5-.6 5.2 2.6c.1 3.3-1.9 7.4-4.5 9.1m10.9 8.5c-4.1 2.7-7.7 1-8-4-.3-4.9 2.8-11.1 6.9-13.9 4.1-2.7 7.7-1 8 4 .3 4.9-2.7 11.2-6.9 13.9z" fill="#fff"/><path d="M540.3 248.1l-9.6-3a19.2 19.2 0 0 1-7.4-4.4l-4.4-4.3-5.5-2.9-3.8-.3-.5-.3 7.8-15.9 1 .5 2.4 3.1 6.6 2.7 3.2.2c3.7.2 7.2 1.5 10.1 3.7l7.6 5.8-7.5 15.1" class="AX"/><path d="M537 233.9c-.4-1.1-1.3-2.2-3.4-3-3.6-1.5-9.8-3.5-11-1.7-1 1.5 2.1 5.1 2.5 5.5 2.6 2.9 7.5 6 10.3 4.2 1.4-1 2.2-3.3 1.6-5m-18.1-6.7c.3-1.7-1.4-3.2-2.9-3.8-.2-.1-2.8-1-4.1.5-.9 1.1-.6 2.8-.1 3.8 1.1 1.9 3.9 2.5 5.6 1.4.3-.2 1.3-.8 1.5-1.9z" fill="#e7d113"/><path d="M545.3 231.4c-.3 1.2-2.6 1.9-4.4 1.4-1.3-.4-1.7-1.3-2.9-2.6-1.6-1.7-3.2-2.4-6.1-3.6-2-.9-1.8-.5-8.1-2.3-3.2-.9-5.7-1.7-6.9-3.7-.2-.3-.8-1.3-.4-1.8.3-.4 1.1-.3 1.6-.1 1.1.4 1.6 1.3 1.9 1.7.9 1.4 2.8 1.8 6.1 2.4l9.5 1.5c5.2 1.5 10.2 5.2 9.7 7.1m-7.6 15.4c.7-.9-.1-3.3-1.5-4.3-1.1-.8-2.1-.6-3.8-.8-2.3-.3-3.8-1.1-6.6-2.7-1.9-1.1-1.5-1.2-6.7-5.1-2.6-2-4.8-3.5-7.1-3.2-.4 0-1.5.2-1.6.8-.1.5.4 1 .9 1.3.9.6 2 .5 2.5.4 1.7-.1 3.1 1.1 5.6 3.4l6.9 6.7c4.2 3.2 10.2 5 11.4 3.5" class="AT"/><path d="M259.3 124.3l-87.1 50.3-62.3-36v-1.3L259.3 123v1.3z" class="AL"/><path d="M259.3 123l-87.1 50.3-62.2-35.9L197 87l62.3 36z" fill="#2e3235"/><path d="M258.5 122.2L172.3 172l-61.6-35.5V133l147.8-14.2v3.4" class="AM"/><path d="M258.5 118.8l-86.2 49.8-61.6-35.6 86.2-49.8 61.6 35.6z" fill="#cfd8e5"/><path d="M258.5 118.8l-71.8 40.3c-5.9 3.1-14.4 5.9-14.4 5.9l-61.6-35.5s7.7-2.3 13.3-5.3c16-8.5 72.9-40.9 72.9-40.9l61.6 35.5" fill="#ebeef2"/><use xlink:href="#S" class="AM"/><use xlink:href="#T" class="AN"/><path d="M197.7 87.3h-.2c.3-2 1.6-4.2 3.3-5.1 1.9-1.1 3.4-.2 3.4 1.9 0 .9-.3 1.9-.7 2.8l-.2-.1c.4-.8.6-1.7.6-2.5 0-2-1.4-2.8-3.1-1.8-1.6.9-2.8 3-3.1 4.8h0z" class="AL"/><use xlink:href="#S" x="1.2" y="0.7" class="AM"/><path d="M198.5 88c.2-2 1.6-4.2 3.3-5.2 1.9-1.1 3.4-.2 3.4 1.9 0 .9-.3 1.9-.7 2.8l-.2-.1c.4-.8.6-1.7.6-2.5 0-2-1.4-2.7-3.1-1.8-1.6.9-2.9 3-3 4.9h-.3z" class="AN"/><path d="M198.9 88h-.2c.3-2 1.6-4.2 3.3-5.1 1.9-1.1 3.4-.2 3.4 1.9 0 .9-.3 1.9-.7 2.8l-.2-.1c.4-.8.6-1.7.6-2.5 0-2-1.4-2.7-3.1-1.8-1.6.9-2.9 3-3.1 4.8h0z" class="AL"/><use xlink:href="#U" class="AM"/><use xlink:href="#V" class="AN"/><use xlink:href="#W" class="AL"/><use xlink:href="#U" x="1.2" y="0.7" class="AM"/><use xlink:href="#X" class="AN"/><path d="M205.1 91.6h-.2c.3-2 1.6-4.2 3.3-5.1 1.9-1.1 3.4-.2 3.4 1.9 0 .9-.3 1.9-.7 2.8l-.2-.1c.4-.8.6-1.7.6-2.5 0-2-1.4-2.7-3.1-1.8-1.6.9-2.9 2.9-3.1 4.8h0" class="AL"/><use xlink:href="#S" x="12.6" y="7.3" class="AM"/><use xlink:href="#V" x="6.4" y="3.7" class="AN"/><path d="M210.3 94.6h-.2c.3-2 1.6-4.2 3.3-5.1 1.9-1.1 3.4-.2 3.4 1.9 0 .9-.3 1.9-.7 2.8l-.2-.1c.4-.8.6-1.7.6-2.5 0-2-1.4-2.8-3.1-1.8-1.5.9-2.8 3-3.1 4.8h0" class="AL"/><use xlink:href="#S" x="13.8" y="8" class="AM"/><use xlink:href="#X" x="6.5" y="3.7" class="AN"/><use xlink:href="#Y" class="AL"/><path d="M216 97.5c-.3.2-.3.5 0 .6.3.2.8.2 1.1 0s.3-.5 0-.6-.8-.1-1.1 0z" class="AM"/><use xlink:href="#X" x="11.7" y="6.7" class="AN"/><use xlink:href="#Z" class="AL"/><path d="M217.2 98.2c-.3.2-.3.5 0 .6.3.2.8.2 1.1 0s.3-.5 0-.6-.8-.1-1.1 0z" class="AM"/><use xlink:href="#X" x="12.9" y="7.4" class="AN"/><use xlink:href="#a" class="AL"/><path d="M222.4 101.3c-.3.2-.3.5 0 .6s.8.2 1.1 0 .3-.5 0-.6c-.3-.2-.8-.2-1.1 0z" class="AM"/><use xlink:href="#V" x="19.2" y="11.1" class="AN"/><use xlink:href="#Y" x="11.6" y="6.7" class="AL"/><use xlink:href="#S" x="26.6" y="15.4" class="AM"/><path d="M223.9 102.7c.2-2 1.6-4.2 3.3-5.2 1.9-1.1 3.4-.2 3.4 1.9 0 .9-.3 1.9-.7 2.8l-.2-.1c.4-.8.6-1.7.6-2.5 0-2-1.4-2.8-3.1-1.8-1.6.9-2.9 3-3.1 4.9 0 0-.1 0-.2 0" class="AN"/><use xlink:href="#a" x="6.4" y="3.7" class="AL"/><use xlink:href="#U" x="25.6" y="14.8" class="AM"/><use xlink:href="#T" x="31.7" y="18.4" class="AN"/><use xlink:href="#W" x="25.6" y="14.8" class="AL"/><path d="M229.9 105.6c-.3.2-.3.4 0 .6s.8.2 1.1 0 .3-.5 0-.6c-.3-.2-.8-.2-1.1 0z" class="AM"/><use xlink:href="#b" class="AN"/><use xlink:href="#W" x="26.8" y="15.5" class="AL"/><use xlink:href="#S" x="38.3" y="22.1" class="AM"/><use xlink:href="#X" x="31" y="17.8" class="AN"/><path d="M236 109.4h-.2c.3-2 1.6-4.2 3.3-5.1 1.9-1.1 3.4-.2 3.4 1.9 0 .9-.3 1.9-.7 2.8l-.2-.1c.4-.8.6-1.7.6-2.5 0-2-1.4-2.8-3.1-1.8-1.6.9-2.9 3-3.1 4.8h0z" class="AL"/><use xlink:href="#S" x="39.5" y="22.8" class="AM"/><use xlink:href="#X" x="32.2" y="18.5" class="AN"/><path d="M237.2 110.1h-.2c.3-2 1.6-4.2 3.3-5.1 1.9-1.1 3.4-.2 3.4 1.9 0 .9-.3 1.9-.7 2.8l-.2-.1c.4-.8.6-1.7.6-2.5 0-2-1.4-2.8-3.1-1.8-1.6.9-2.9 3-3.1 4.8h0" class="AL"/><path d="M241.6 112.3c-.3.2-.3.5 0 .6.3.2.8.2 1.1 0s.3-.5 0-.6c-.4-.2-.8-.2-1.1 0z" class="AM"/><path d="M241.9 113c.2-2 1.6-4.2 3.3-5.2 1.9-1.1 3.4-.2 3.4 1.9 0 .9-.3 1.9-.7 2.8l-.2-.1c.4-.8.6-1.7.6-2.5 0-2-1.4-2.7-3.1-1.8-1.6.9-2.9 3-3 4.9-.2.1-.3.1-.3 0" class="AN"/><use xlink:href="#W" x="38.4" y="22.2" class="AL"/><path d="M242.8 113c-.3.2-.3.5 0 .6.3.2.8.2 1.1 0s.3-.5 0-.6c-.4-.2-.8-.2-1.1 0z" class="AM"/><use xlink:href="#b" x="12.8" y="7.4" class="AN"/><use xlink:href="#W" x="39.6" y="22.9" class="AL"/><use xlink:href="#S" x="51.2" y="29.6" class="AM"/><use xlink:href="#V" x="45" y="26" class="AN"/><path d="M248.9 116.9h-.2c.3-2 1.6-4.2 3.3-5.1 1.9-1.1 3.4-.2 3.4 1.9 0 .9-.3 1.9-.7 2.8l-.2-.1c.4-.8.6-1.7.6-2.5 0-2-1.4-2.8-3.1-1.8-1.6.9-2.8 3-3.1 4.8h0" class="AL"/><use xlink:href="#S" x="52.4" y="30.3" class="AM"/><use xlink:href="#T" x="52.4" y="30.3" class="AN"/><use xlink:href="#Z" x="33.4" y="19.3" class="AL"/><path d="M157.7 348.1c-3.2-1.8-7.4-2.7-11.7-2.7-4.4 0-8.5-1-11.6-2.8l-12.6-5.6-48.4-28c-2.5-1.4-3.9-3.3-3.9-5.4 0-2-15.7-10.3-15.7-10.3v2.9l6.1 3.5 2.1 2.9-3 2.7-4.1 1.6-6.2-.3-5.4-2.9c.2-.2.4-.3.4-.3 0-.1-2.3-1.8-2.3-1.8v3.3c.1 1.8 1.8 3.8 4.1 5.1s5.2 2 8.2 2.2c3.6.2 7.1 1 9.7 2.5l50 28.9 8.8 6.3c3.2 1.9 5.1 4.4 5.4 7 .3 2.2 1.9 4.3 4.7 5.9 3.8 2.2 10.3 3.7 14.9 2.5v-2.9l-8.2-4.2-.2-2.3 3.4-2.9 5.9-2.2 6.4 1.5 7.6 4.4c1-3.1-.4-6.3-4.4-8.6" class="AV"/><path d="M146 342.5c-4.4 0-8.5-1-11.6-2.8l-12.6-5.6-48.4-28c-2.5-1.4-3.9-3.3-3.9-5.4 0-2-1.2-3.9-3.7-5.4-3.2-1.8-7.7-2.5-12-2l6.1 3.5 2.1 2.9-3 2.7-4.1 1.6-6.2-.3-6.8-3.6c-1.6 2.2.5 5.1 3.5 6.9 2.3 1.3 5.2 2 8.2 2.2 3.6.2 7.1 1 9.7 2.5l50 28.9 8.8 6.3c3.2 1.9 5.1 4.4 5.4 7 .3 2.2 1.9 4.3 4.7 5.9 3.8 2.2 10.3 3.7 14.9 2.5l-7.8-4.9-.6-4.5 3.4-2.9 5.9-2.2 6.4 1.5 7.6 4.4c1-3.1-.4-6.3-4.4-8.6-3.1-1.7-7.3-2.6-11.6-2.6" class="AY"/><path d="M67.9 300.5c-.1-1.7-1.1-3.5-3.3-4.8-2.8-1.6-7-2.8-10.8-2.4l6.1 3.5 2.1 2.9-3 2.7-4.1 1.6-6.2-.3-6.8-3.6c-1.4 1.9 2 4.4 4.7 5.9 2 1.2 4.6 1.9 7.3 1.9 2.2.1 14.4-.3 14-7.4m90.1 45.8c-3-1.7-7-2.5-11-2.5-6.4 0-19.1 3.1-17.2 10.7.5 2 1.7 4 4.4 5.6 3.6 2.1 8.7 3.4 13.1 2.4l-7.8-4.9-.6-4.5 3.4-2.9 5.9-2.2 6.4 1.5 7.6 4.4c.8-2.9-.5-5.4-4.2-7.6z" class="AT"/><path d="M137 344.6l-69.5-40c-1.4 1.8-4.1 2.7-6.6 3.2l69.5 40.3c1.6-1.6 4-2.7 6.6-3.5" class="AV"/><path d="M128.5 120.6l78 18.3c.5.1 1.1-.1 1.6-.7 1-1.1 1.5-3.2 1.1-4.6-.2-.7-.6-1.2-1.1-1.3l-78-18.3-1.6 6.6" class="AO"/><linearGradient id="M" gradientUnits="userSpaceOnUse" x1="375.289" y1="-66.004" x2="385.792" y2="-73.526"><stop offset="0" stop-color="#f7931e"/><stop offset="1" stop-color="#f15a24"/></linearGradient><path d="M123.2 115.1l.6-2.5-1.8-.4c-.5-.1-1 .1-1.5.6-1 1.1-1.5 3.1-1.1 4.5.2.7.6 1.1 1.1 1.2l1.8.4.6-2.5c.1-.3.3-.8.3-1.3" fill="url(#M)"/><path d="M122.3 113.3c1-1.1 2.2-.8 2.6.6s0 3.4-1.1 4.5c-1 1.1-2.2.8-2.6-.6s.1-3.4 1.1-4.5" fill="#246693"/><g class="AR"><path d="M122.4 113.2c1-1.1 2.2-.8 2.7.6.4 1.5 0 3.5-1.1 4.6-1 1.1-2.2.8-2.7-.6s0-3.5 1.1-4.6z"/><path d="M122.3 119.1l6.4 1.5c.5.1 1.1-.1 1.6-.7 1-1.1 1.5-3.2 1.1-4.6-.2-.7-.6-1.2-1.1-1.3l-6.4-1.5-1.6 6.6"/></g><path d="M128.8 114.7c1-1.1 2.2-.8 2.7.6.4 1.5 0 3.5-1.1 4.6-1 1.1-2.2.8-2.7-.6-.4-1.4.1-3.5 1.1-4.6z" class="AO"/><linearGradient id="N" gradientUnits="userSpaceOnUse" x1="473.142" y1="-51.254" x2="488.778" y2="-62.453"><stop offset="0" stop-color="#f7931e"/><stop offset="1" stop-color="#f15a24"/></linearGradient><path d="M218.1 138.2l-9.6-5.6c-.6-.5-1.3-.3-2 .4-1 1.1-1.5 3.2-1.1 4.6.3.8.8 1.3 1.3 1.3h0l11.4-.7" fill="url(#N)"/><path d="M218.1 138.2l-3-1.7h-.1c-.2-.1-.4-.1-.6.2-.3.3-.5 1-.3 1.4.1.3.3.4.4.4h.1l3.5-.3" class="AS"/><path d="M141.7 308.8c3.2-1.8 7.4-2.7 11.7-2.7 4.4 0 8.5-1 11.6-2.8l12.6-5.6 48.4-28c2.5-1.4 3.9-3.3 3.9-5.4 0-2 15.7-10.3 15.7-10.3v2.9l-6.1 3.5-2.1 2.9 3 2.7 4.1 1.6 6.2-.3 5.4-2.9c-.3-.2-.4-.3-.4-.3 0-.1 2.3-1.8 2.3-1.8v3.3c-.1 1.8-1.8 3.8-4.1 5.1s-5.2 2-8.2 2.2c-3.6.2-7.1 1-9.7 2.5l-50 28.9-8.8 6.3c-3.2 1.9-5.1 4.4-5.4 7-.3 2.2-1.9 4.3-4.7 5.9-3.8 2.2-10.3 3.7-14.9 2.5v-2.9l8.2-4.2.2-2.3-3.4-2.9-5.9-2.2-6.4 1.5-7.6 4.4c-1-3 .4-6.3 4.4-8.6" class="AV"/><path d="M153.4 303.3c4.3 0 8.5-1 11.6-2.8l12.6-5.6 48.4-28c2.5-1.4 3.9-3.3 3.9-5.4 0-2 1.2-3.9 3.7-5.4 3.2-1.8 7.7-2.5 12-2l-6.1 3.5-2.1 2.9 3 2.7 4.1 1.6 6.2-.3 6.8-3.6c1.6 2.2-.5 5.1-3.5 6.9-2.3 1.3-5.2 2-8.2 2.2-3.6.2-7.1 1-9.7 2.5l-50 28.9-8.8 6.3c-3.2 1.9-5.1 4.4-5.4 7-.3 2.2-1.9 4.3-4.7 5.9-3.8 2.2-10.3 3.7-14.9 2.5l7.8-4.9.6-4.5-3.4-2.9-5.9-2.2-6.4 1.5-7.6 4.4c-1-3.1.4-6.3 4.4-8.6 3.1-1.8 7.3-2.6 11.6-2.6" class="AY"/><path d="M231.5 261.2c.1-1.7 1.1-3.5 3.3-4.8 2.8-1.6 7-2.8 10.8-2.4l-6.1 3.5-2.1 2.9 3 2.7 4.1 1.6 6.2-.3 6.8-3.6c1.4 1.9-2 4.4-4.7 5.9-2 1.2-4.6 1.9-7.3 1.9-2.2.1-14.4-.3-14-7.4M141.4 307c3-1.7 7-2.5 11-2.5 6.4 0 19.1 3.1 17.2 10.7-.5 2-1.7 4-4.4 5.6-3.6 2.1-8.7 3.4-13.1 2.4l7.8-4.9.6-4.5-3.4-2.9-5.9-2.2-6.4 1.5-7.6 4.4c-.8-2.9.5-5.4 4.2-7.6" class="AT"/><path d="M162.4 305.3l69.5-40c1.4 1.8 4.1 2.7 6.6 3.2L169 308.8c-1.6-1.6-4-2.7-6.6-3.5" class="AV"/><path d="M234.3 327.4l1.7-3.6 18-14.2s34-10 41.7-19.6c.7-.9 3.7-2 5.5.3 3 3.7-7.1 6.9-7.1 6.9L256.7 314l-21.1 19.1-1.4 5.4.1-11.1m67.8 38.1l7.3-1 14.2-11.7 10.1-26.4 5.3-9.1c1.1-1.9 2.8-3.6 5-3.7.7 0 2 .6 2 .6l.4.3-7.9 9.3-10.1 30.6-20 17h-4.6l-1.7-5.9" fill="#163756"/><path d="M235.7 328.1l1.7-3.6 18-14.2s34-10 41.7-19.6c.7-.9 3.6-1.5 4.4-.1 2.6 4-5.9 7.4-5.9 7.4l-38.7 16.1-19.4 16.6-1.7 8.6-.1-11.2" fill="#0d2744"/><g fill="#163756"><path d="M263.8 357c-1.9 4.5-6.1 3.7-6.7 3.4l-16.6-9.4c-.6-.3-1-1.1-1-1.8l-1-17.6c0-.7.5-.9 1-.6l26.6 15.4c.6.3 1 1.1 1 1.8l-3.3 8.8zm6-12.3l-32.1-20c-.8-.5-2.1 1.1-2.1 2.1V350c0 .9.7 2.1 1.5 2.5l20.1 11.8c.8.5 7.1 1.7 9.6-3.1l4.5-14c0-.9-.7-2-1.5-2.5m33.3 41.2c0 .7-.5.9-1 .6L284 375.9c-2.1-1.1-3.3-4-4.3-8.5l-2.6-13.6c0-.7.5-.9 1-.6l24.5 13.9c.6.3 1 1.1 1 1.8l-.5 17zm4.9-21.2l-34.7-18.1c-.8-.5-1.5-.1-1.5.8l4 20.2c0 .9 1 7.2 6.3 10.7l22.8 14.7c.8.5 2.6-.4 2.6-1.9v-23.2c0-.9 1.3-2.7.5-3.2"/><path d="M268.3 343.8l7.7 4.2.7 7.4-1.3-1.3c-1.9-1.9-4.5-3-7.3-3h-1.3l1.5-7.3"/></g><g fill="#0d2744"><path d="M262.5 358c-1.9 4.5-6.1 3.7-6.7 3.4l-16.6-9.4c-.6-.3-1-1.1-1-1.8l-1-17.6c0-.7.5-.9 1-.6l26.6 15.4c.6.3 1 1.1 1 1.8l-3.3 8.8zm6-12.4l-32.7-18.8c-.8-.5-1.5-.1-1.5.8v23.2c0 .9.7 2.1 1.5 2.5l20.1 11.8c.8.5 7.1 1.7 9.6-3.1l4.5-14c-.1-.8-.7-1.9-1.5-2.4m33.2 41.3c0 .7-.5.9-1 .6l-18.1-10.6c-2.1-1.1-3.3-4-4.3-8.5l-2.6-13.6c0-.7.5-.9 1-.6l24.5 13.9c.6.3 1 1.1 1 1.8l-.5 17zm3-20.6L272 347.5c-.8-.5-1.5-.1-1.5.8l4 20.2c0 .9 1 7.2 6.3 10.7l23.9 13.7c.8.5 1.5.1 1.5-.8v-23.2c-.1-1-.7-2.1-1.5-2.6z"/><path d="M267.6 345.1l6.6 3.6.7 7.4-1.3-1.3c-1.9-1.9-4.5-3-7.3-3l-.3.6 1.6-7.3zm38.2 23l4.3-1 15.3-12.6s9.3-29.9 17-39.4c.7-.9 3.6-1.5 4.4-.1 2.6 4-5.9 7.4-5.9 7.4L327 359l-15.7 13.8-5.4 4.5-.1-9.2"/></g><path d="M180.4 273.3v-.2-.1c.8-3.9-1.3-7.9-6.4-10.9-4.4-2.5-10.3-3.7-16.2-3.7-6 0-11.8-1.5-16.1-3.9l-17.5-7.8-67.3-38.9c-3.4-2-5.5-4.6-5.4-7.4 0-2.7-1.7-5.5-5.2-7.5-4.4-2.6-10.7-3.5-16.7-2.8l-4.5.4s4.5 1 4.5 3.5l8.4 4.9 1.2 1.7-2.4 2.2-5.6 2.2-8.7-.4-9.4-5c-.5.6-9.2 1.1-9.3 1.7l3.2 4.1 5.3.6c.1 2.5 2.5 5.3 5.7 7.1s7.2 2.8 11.5 3c5.1.2 9.9 1.4 13.5 3.5l69.5 40.1 12.3 8.8c4.5 2.6 7.1 6.1 7.5 9.7.4 3.1 2.6 6 6.5 8.3 5.3 3.1 4 5.4 10.5 3.8l10.2-4.3-10.9-6.8-.3-2.7 4.2-3.7 8.1-3 8.9 2.1.3 6.4c2.5-.8 8.3-3.7 10.6-5 0 .1 0 .1 0 0" class="AW"/><path d="M180.7 273.6v-.2-.2c.8-3.9-1.3-8-6.4-10.9-4.4-2.5-10.3-3.7-16.2-3.7-6 0-11.8-1.5-16.1-3.9l-17.5-7.8-46.8-27-5.2 3 84.7 48.7 3.9-1.4 8.9 2.1.3 6.4c2.3-.9 8.1-3.8 10.4-5.1 0 .1 0 0 0 0z" fill="#b7b7b7"/><path d="M163.9 266.4c-4.4-2.5-10.3-3.7-16.2-3.7-6 0-11.8-1.5-16.1-3.9l-17.5-7.8-67.4-39c-3.4-2-5.5-4.6-5.4-7.4 0-2.7-21.8-14.3-21.8-14.3v4l8.4 4.9 3 4.1-4.2 3.8-5.6 2.2-8.7-.4-7.6-4 .6-.4c0-.2-3.2-2.6-3.2-2.6v4.5c.1 2.5 2.5 5.3 5.7 7.1s7.2 2.8 11.5 3c5.1.2 9.9 1.4 13.5 3.5l69.5 40.1 12.3 8.8c4.5 2.6 7.1 6.1 7.5 9.7.4 3.1 2.6 6 6.5 8.3 5.3 3.1 14.3 5.1 20.7 3.5v-4l-11.4-5.8-.3-3.2 4.7-4.1 8.1-3 8.9 2.1 10.5 6.1c1.5-4.4-.5-8.9-6-12.1" class="AV"/><path d="M147.6 258.7c-6 0-11.8-1.5-16.1-3.9L114 247l-67.3-39c-3.4-2-5.5-4.6-5.4-7.4 0-2.7-1.7-5.5-5.2-7.5-4.4-2.6-10.7-3.5-16.7-2.8l8.4 4.9 3 4.1-4.2 3.8-5.6 2.2-8.7-.4-9.4-5c-2.2 3 .7 7.1 4.9 9.6 3.2 1.8 7.2 2.8 11.5 3 5.1.2 9.9 1.4 13.5 3.5l69.5 40.1 12.3 8.8c4.5 2.6 7.1 6.1 7.5 9.7.4 3.1 2.6 6 6.5 8.3 5.3 3.1 14.3 5.1 20.7 3.5l-10.9-6.8-.8-6.2 4.7-4.1 8.1-3 8.9 2.1 10.5 6.1c1.4-4.3-.5-8.8-6.1-12-4.2-2.6-10.1-3.8-16.1-3.8" class="AY"/><path d="M39 200.2c-.2-2.4-1.5-4.8-4.6-6.6-3.9-2.3-9.8-3.9-15-3.3l8.4 4.9 3 4.1-4.2 3.8-5.6 2.2-8.7-.4-9.4-5c-2 2.7 2.8 6.1 6.5 8.2 2.8 1.6 6.4 2.7 10.1 2.7 3.2-.1 20.1-.7 19.5-10.6m125.3 63.7c-4.1-2.4-9.7-3.5-15.2-3.5-8.8 0-26.6 4.4-24 14.8.7 2.8 2.4 5.6 6.1 7.8 5 2.9 12.1 4.8 18.2 3.3l-10.9-6.8-.8-6.2 4.7-4.1 8.1-3 8.9 2.1 10.5 6.1c1.4-4-.4-7.5-5.6-10.5" class="AT"/><path d="M135.1 261.5l-96.6-55.6c-2 2.5-5.7 3.8-9.1 4.5l96.7 56c2.1-2.2 5.4-3.8 9-4.9" class="AV"/><path d="M252.9 161.8V10.4c0-2.7 2.3-4.9 5.1-4.9h239.8c2.8 0 5.1 2.2 5.1 4.9v151.4h-250 0z" fill="#2a3751"/><path d="M502.9 161.8v20.8c0 2.9-2.3 5.2-5.1 5.2H258c-2.8 0-5.1-2.3-5.1-5.2v-20.8h250 0z" fill="#636363"/><path d="M341.4 224.3h72.9l-5.2-36.5h-62.5z" fill="#c9c9c9"/><path d="M409.1 187.8h-62.5l-3.2 22.8 66.9-14.3z" fill="#aaa"/><path d="M323.2 224.3h109.4v5.2H323.2z" fill="#636363"/><path d="M346.6 187.8h62.5l.4 2.5-64.5 8.9z" fill="#939393"/><path d="M310.8 119.4h134.1v5.2H310.8zm-27.4 16.2h189v5.2h-189z" fill="#e1e5ea"/><circle cx="307.1" cy="68.5" r="26.1" class="AZ"/><path d="M305.2 80.1l-9.8-9.8 3.7-3.7 5.6 5.7 11.1-13.8 4.1 3.2z" fill="#333"/><circle transform="matrix(.1602 -.9871 .9871 .1602 248.982 429.3831)" cx="376.8" cy="68.4" r="26.1" class="AZ"/><path d="M374.9 80.1l-9.8-9.8 3.7-3.7 5.7 5.7 11.1-13.8 4 3.2z" fill="#333"/><circle cx="448.6" cy="68.5" r="26.1" class="AZ"/><path d="M446.7 80.1l-9.8-9.8 3.7-3.7 5.7 5.7 11.1-13.8 4 3.2z" fill="#333"/><defs ><path id="P" d="M224.7 326.9l34.6 20c3 1.7 8 1.7 11 0l80.4-46.4c3.9-2.2 3.9-5.9 0-8.2l-34.6-20c-3-1.7-8-1.7-11 0l-80.4 46.4c-3.9 2.2-3.9 5.9 0 8.2z"/><path id="Q" d="M224.7 326.5l34.6 20c3 1.7 8 1.7 11 0l80.4-46.4c3.9-2.2 3.9-5.9 0-8.2l-34.6-20c-3-1.7-8-1.7-11 0l-80.4 46.4c-3.9 2.3-3.9 5.9 0 8.2z"/><path id="R" d="M224.7 326.1l34.6 20c3 1.7 8 1.7 11 0l80.4-46.4c3.9-2.2 3.9-5.9 0-8.2l-34.6-20c-3-1.7-8-1.7-11 0l-80.4 46.4c-3.9 2.3-3.9 6 0 8.2z"/><path id="S" d="M197 86.6c-.3.2-.3.5 0 .6.3.2.8.2 1.1 0s.3-.5 0-.6c-.3-.2-.8-.2-1.1 0z"/><path id="T" d="M197.3 87.3c.2-2 1.6-4.2 3.3-5.2 1.9-1.1 3.4-.2 3.4 1.9 0 .9-.3 1.9-.7 2.8l-.2-.1c.4-.8.6-1.7.6-2.5 0-2-1.4-2.8-3.1-1.8-1.6.9-2.9 3-3 4.9h-.3"/><path id="U" d="M203.2 90.1c-.3.2-.3.5 0 .6.3.2.8.2 1.1 0s.3-.5 0-.6c-.4-.1-.8-.1-1.1 0z"/><path id="V" d="M203.5 90.9c.2-2 1.6-4.2 3.3-5.2 1.9-1.1 3.4-.2 3.4 1.9 0 .9-.3 1.9-.7 2.8l-.2-.1c.4-.8.6-1.7.6-2.5 0-2-1.4-2.8-3.1-1.8-1.6.9-2.9 3-3 4.9h-.3z"/><path id="W" d="M203.9 90.9h-.2c.3-2 1.6-4.2 3.3-5.1 1.9-1.1 3.4-.2 3.4 1.9 0 .9-.3 1.9-.7 2.8l-.2-.1c.4-.8.6-1.7.6-2.5 0-2-1.4-2.8-3.1-1.8-1.6.9-2.9 2.9-3.1 4.8h0"/><path id="X" d="M204.6 91.6c.2-2 1.6-4.2 3.3-5.2 1.9-1.1 3.4-.2 3.4 1.9 0 .9-.3 1.9-.7 2.8l-.2-.1c.4-.8.6-1.7.6-2.5 0-2-1.4-2.7-3.1-1.8-1.6.9-2.9 3-3 4.9h-.3"/><path id="Y" d="M211.5 95.3h-.2c.3-2 1.6-4.2 3.3-5.1 1.9-1.1 3.4-.2 3.4 1.9 0 .9-.3 1.9-.7 2.8l-.2-.1c.4-.8.6-1.7.6-2.5 0-2-1.4-2.8-3.1-1.8-1.5.9-2.8 3-3.1 4.8h0z"/><path id="Z" d="M216.7 98.3h-.2c.3-2 1.6-4.2 3.3-5.1 1.9-1.1 3.4-.2 3.4 1.9 0 .9-.3 1.9-.7 2.8l-.2-.1c.4-.8.6-1.7.6-2.5 0-2-1.4-2.8-3.1-1.8-1.6.9-2.8 2.9-3.1 4.8h0"/><path id="a" d="M217.9 99h-.2c.3-2 1.6-4.2 3.3-5.1 1.9-1.1 3.4-.2 3.4 1.9 0 .9-.3 1.9-.7 2.8l-.2-.1c.4-.8.6-1.7.6-2.5 0-2-1.4-2.8-3.1-1.8-1.6.9-2.8 2.9-3.1 4.8h0z"/><path id="b" d="M230.2 106.3c.2-2 1.6-4.2 3.3-5.2 1.9-1.1 3.4-.2 3.4 1.9 0 .9-.3 1.9-.7 2.8l-.2-.1c.4-.8.6-1.7.6-2.5 0-2-1.4-2.8-3.1-1.8-1.6.9-2.9 3-3 4.9-.1.1-.2.1-.3 0"/></defs></svg>