<?xml version="1.0" encoding="utf-8"?>
<!-- Generator: Adobe Illustrator 24.3.0, SVG Export Plug-In . SVG Version: 6.00 Build 0)  -->
<svg version="1.1" id="Calque_1" xmlns:v="https://vecta.io/nano"
	 xmlns="http://www.w3.org/2000/svg" xmlns:xlink="http://www.w3.org/1999/xlink" x="0px" y="0px" viewBox="0 0 567 400"
	 style="enable-background:new 0 0 567 400;" xml:space="preserve">
<style type="text/css">
	.st0{fill:#EFEFEF;}
	.st1{fill:#F4F4F4;}
	.st2{fill:#13468A;}
	.st3{fill:#3381C1;}
	.st4{fill:#0D2744;}
	.st5{fill:url(#SVGID_1_);}
	.st6{fill:#BFD643;}
	.st7{fill:#502F4B;}
	.st8{fill:#0F294C;}
	.st9{fill:url(#SVGID_2_);}
	.st10{fill:#D3291E;}
	.st11{fill:#542009;}
	.st12{fill:url(#SVGID_3_);}
	.st13{fill:url(#SVGID_4_);}
	.st14{fill:url(#SVGID_5_);}
	.st15{fill:url(#SVGID_6_);}
	.st16{fill:url(#SVGID_7_);}
	.st17{fill:url(#SVGID_8_);}
	.st18{fill:#2D2B26;}
	.st19{fill:#C6AD0E;}
	.st20{fill:#FFFFFF;}
	.st21{fill:#E7D113;}
	.st22{fill:#ECE61B;}
	.st23{fill:url(#SVGID_9_);}
	.st24{fill:url(#SVGID_10_);}
	.st25{fill:#F2F2F2;}
	.st26{fill:url(#SVGID_11_);}
	.st27{fill:#246693;}
	.st28{fill:url(#SVGID_12_);}
	.st29{fill:#0E223E;}
	.st30{fill:#0E2544;}
	.st31{fill:#0F284B;}
	.st32{fill:#0F2B51;}
	.st33{fill:#102E57;}
	.st34{fill:#10315E;}
	.st35{display:none;fill:#103464;}
	.st36{fill:#11376A;}
	.st37{fill:#113A71;}
	.st38{fill:#123D77;}
	.st39{fill:#12407D;}
	.st40{fill:#134384;}
	.st41{fill:#1787FC;}
	.st42{fill:#F4CB5C;}
	.st43{fill:#1E2123;}
	.st44{fill:#2E3235;}
	.st45{fill:#ADBBD6;}
	.st46{fill:#CFD8E5;}
	.st47{fill:#EBEEF2;}
	.st48{fill:#111314;}
	.st49{fill:#545D63;}
	.st50{fill:#7F888F;}
	.st51{fill:url(#SVGID_13_);}
	.st52{fill:url(#SVGID_14_);}
	.st53{fill:#163756;}
	.st54{fill:#B7B7B7;}
	.st55{fill:#C9C9C9;}
	.st56{fill:#AAAAAA;}
	.st57{fill:#939393;}
	.st58{fill:#48B548;}
	.st59{fill:#333333;}
</style>
<path class="st0" d="M347.4,319.9c1.4,0.8-5.2,6.4-6.6,9.9c-7.7,18.8-9.3,24.6-16.7,41.5c-0.4,1-3.7,8.6-9.6,17.5
	c-2.2,3.3-4.7,4.1-5.5,4.4c-8,3.2-25-17.2-46.6-25.3c-10.9-4.1-22-5.1-25.6-12.8c-2.1-4.3-1.2-8.6-0.5-11.9
	c0.8-3.7,2.8-8.5,16.4-20.9c2.4-2.2,9.3-8.4,20.8-16.8c17.9-13,22.3-13.4,24.9-12c0.3,0.1,2,1.1,2.1,2.5c0.2,3.4-9,6.5-13.8,8.2
	c-5.9,2.2-48.5,42.2-46.2,46.9c1.7,3.6,5.1,7.3,19.6,11.9c18.5,5.9,22.7,6.3,30,11.2c9,6.1,12.6,7.4,17.8,7.2c1.7,0,5-0.9,13.6-17.5
	c7.9-15.3,8.9-26.7,18.3-39.4C341.3,322.4,346.4,319.3,347.4,319.9L347.4,319.9z M553.9,228.5c7.1,7.7,1.9,17.5-5,18.1
	c-7.6,0.6-13.8-1.8-28.9-10.8c-30.9-18.4-44.1-31.6-55.9-34.1c-1.5-0.3-8-1.5-8.2-3.6c-0.1-0.9,1.1-1.6,1.4-1.9
	c4.8-3.1,15.1,2.1,17,3c20.3,10.1,47.9,15.5,53.4,16.6C537.9,217.7,546.8,220.8,553.9,228.5 M169.6,353v-0.1v-0.1
	c0.5-2.8-0.9-5.7-4.6-7.8c-3.1-1.8-7.4-2.7-11.6-2.7c-4.3,0-8.5-1-11.5-2.8l-12.6-5.6l-48.2-27.8c-2.5-1.4-3.9-3.3-3.9-5.3
	s-1.2-3.9-3.7-5.4c-3.2-1.8-7.7-2.5-11.9-2l-3.2,0.3c0,0,3.2,0.7,3.2,2.5l6,3.5l0.9,1.2l-1.7,1.6l-4,1.6l-6.2-0.3l-6.7-3.6
	c-0.3,0.4-6.6,0.8-6.7,1.2l2.3,3l3.8,0.4c0.1,1.8,1.8,3.8,4.1,5.1s5.2,2,8.2,2.2c3.6,0.2,7.1,1,9.6,2.5l49.8,28.7l8.8,6.3
	c3.2,1.9,5.1,4.3,5.4,7c0.3,2.2,1.9,4.3,4.7,5.9c3.8,2.2,2.9,3.9,7.5,2.7l7.3-3.1l-7.8-4.9l-0.2-1.9l3-2.6l5.8-2.2l6.4,1.5l0.2,4.6
	C163.8,356,167.9,354,169.6,353C169.6,353.1,169.6,353.1,169.6,353 M137.2,318.2V318v-0.1c-0.6-3,1-6,4.8-8.2
	c3.3-1.9,7.8-2.8,12.3-2.8c4.6,0,8.9-1.1,12.2-3l13.3-5.9l50.9-29.4c2.6-1.5,4.1-3.5,4.1-5.6s1.3-4.1,3.9-5.7c3.4-1.9,1.8-1,6.1-2.3
	c1.2-0.3,6.5,1.2,6.5,3.2l-6.4,3.7l-0.9,1.3l1.8,1.7l4.3,1.6l6.6-0.3l1.5-3.9c0.3,0.5,6.2,5,6.2,5c-0.1,1.9-1.9,4-4.3,5.3
	c-2.4,1.4-5.5,2.1-8.7,2.3c-3.8,0.2-7.5,1.1-10.2,2.6l-52.6,30.3l-9.3,6.6c-3.4,2-5.3,4.6-5.7,7.3c-0.3,2.3-2,4.5-4.9,6.2
	c-4,2.3-15.7-0.3-15.7-0.3l8.2-5.1l0.3-2l-3.2-2.8l-6.2-2.3l-6.7,1.6C145.4,317.2,138.9,319.2,137.2,318.2
	C137.2,318.3,137.2,318.3,137.2,318.2 M172.2,174.6h12.5l87-50.1l-67.9-36.9l-93.9,51.1L172.2,174.6"/>
<path class="st1" d="M274,64.9l-65.1-37.6L107.6,86.1l64.6,37.3L274,64.9z"/>
<path class="st2" d="M255.9,65.6l-40.5-23.4l-1.8,1L254,66.5L255.9,65.6 M252.4,67.5L212,44.1l-1.8,1l40.4,23.3L252.4,67.5
	L252.4,67.5z M237.6,76.4L197.1,53l-1.8,1l40.4,23.3L237.6,76.4 M234.1,78.3L193.6,55l-1.8,1l40.4,23.3L234.1,78.3 M221.6,86.5
	l-40.5-23.4l-1.8,1l40.4,23.3L221.6,86.5 M218,88.4L177.5,65l-1.8,1l40.4,23.3L218,88.4 M204.9,95.1l-40.5-23.4l-1.8,1L203.1,96
	L204.9,95.1 M201.4,97l-40.5-23.4l-1.8,1L199.6,98L201.4,97 M188.8,105.3L148.3,82l-1.8,1l40.4,23.3L188.8,105.3 M185.2,107.3
	l-40.5-23.4l-1.8,1l40.4,23.3L185.2,107.3"/>
<path class="st0" d="M563.9,174.3c-6.9-4.8-17.9-2.9-25.8,0.3c-0.2,0-0.4,0.1-0.5,0.2l-43,19.9c-2.1,1,0.4,3.5,2.3,4.9l13.7,10.8
	c1.5,1,11.3,1.2,12.9,0.4l34.1-15.8c2.5-1,3.4-1.5,5.1-2.3C570.6,189,571,179.4,563.9,174.3"/>
<path class="st3" d="M520.4,144.5c0.9-0.3,1.7-0.6,3.4-1v-2.8c-1.8-0.3-2.6-0.8-3.4-1V144.5z M502.8,143.8c0.9,0.4,1.8,0.7,3.3,0.9
	v-5.2c-1.6,0.3-2.5,0.6-3.3,1V143.8z"/>
<path class="st4" d="M526.5,126c-7.7-4.4-20.2-4.4-27.9,0c-4,2.3-6,5.5-5.8,8.5h1.5c-0.2-2.8,1.6-5.7,5.3-7.9
	c7.1-4.1,18.6-4.1,25.7,0c3.7,2.2,5.5,5,5.3,7.9h1.6C532.4,131.4,530.5,128.3,526.5,126"/>
<linearGradient id="SVGID_1_" gradientUnits="userSpaceOnUse" x1="473.2773" y1="957.1262" x2="462.7972" y2="924.4904" gradientTransform="matrix(1 0 0 1 0 -884)">
	<stop  offset="0" style="stop-color:#F7931E"/>
	<stop  offset="1" style="stop-color:#F15A24"/>
</linearGradient>
<path class="st5" d="M509.9,191.7l0.7,10.2l5.2-8.9L509.9,191.7z"/>
<path class="st6" d="M526.6,121.5l-16.7,70c-0.1,0.4,0.1,1,0.6,1.4c1,0.9,2.8,1.4,4.2,1c0.7-0.2,1-0.6,1.1-1l16.7-70L526.6,121.5"/>
<path class="st7" d="M528,115.9l-1.4,5.7c-0.1,0.4,0.1,1,0.6,1.4c1,0.9,2.8,1.4,4.2,1c0.7-0.2,1-0.6,1.1-1l1.4-5.7L528,115.9"/>
<path class="st8" d="M533.3,116c1,0.9,0.7,2-0.6,2.4s-3.2-0.1-4.2-1s-0.7-2,0.6-2.4S532.3,115.1,533.3,116z"/>
<linearGradient id="SVGID_2_" gradientUnits="userSpaceOnUse" x1="431.886" y1="690.7747" x2="426.386" y2="673.6226" gradientTransform="matrix(1 0 0 1 0 -884)">
	<stop  offset="0" style="stop-color:#F7931E"/>
	<stop  offset="1" style="stop-color:#F15A24"/>
</linearGradient>
<path class="st9" d="M528,115.9c-0.1,0.4,0.1,0.9,0.6,1.4c1,0.9,2.8,1.4,4,1c0.6-0.2,1-0.6,1.1-1l0.4-1.6l-5.7-1.4L528,115.9"/>
<path class="st10" d="M533.6,114.3c1,0.9,0.7,1.9-0.6,2.3s-3.1-0.1-4-1c-1-0.9-0.7-1.9,0.6-2.3C530.8,113,532.6,113.4,533.6,114.3z"
	/>
<path class="st11" d="M512,199.4c-0.5,0.1-1.2,0-1.5-0.4l-0.1-0.1l0.2,3l1.6-2.7C512.1,199.4,512.1,199.4,512,199.4z"/>
<linearGradient id="SVGID_3_" gradientUnits="userSpaceOnUse" x1="721.2892" y1="1351.6681" x2="700.8892" y2="1323.5211" gradientTransform="matrix(1 0 0 1 0 -884)">
	<stop  offset="0" style="stop-color:#F7931E"/>
	<stop  offset="1" style="stop-color:#F15A24"/>
</linearGradient>
<path class="st12" d="M517.5,188.8l3.8,9.5l2.2-10.1L517.5,188.8z"/>
<path class="st6" d="M511.5,116.8l6,71.7c0,0.5,0.4,0.9,1,1.2c1.2,0.6,3.1,0.4,4.3-0.4c0.6-0.4,0.8-0.9,0.8-1.3l-6-71.7L511.5,116.8
	L511.5,116.8z"/>
<path class="st7" d="M511.1,111.1l0.5,5.8c0,0.4,0.4,0.9,1,1.2c1.2,0.6,3.1,0.4,4.3-0.4c0.6-0.4,0.8-0.9,0.8-1.3l-0.5-5.9
	L511.1,111.1"/>
<path class="st8" d="M516.1,109.5c1.2,0.6,1.3,1.7,0.2,2.5s-3,0.9-4.3,0.4c-1.2-0.6-1.3-1.7-0.2-2.5
	C513,109.1,514.9,108.9,516.1,109.5"/>
<linearGradient id="SVGID_4_" gradientUnits="userSpaceOnUse" x1="604.5752" y1="1119.0985" x2="594.3252" y2="1104.9615" gradientTransform="matrix(1 0 0 1 0 -884)">
	<stop  offset="0" style="stop-color:#F7931E"/>
	<stop  offset="1" style="stop-color:#F15A24"/>
</linearGradient>
<path class="st13" d="M511.1,111L511.1,111c0,0.5,0.3,0.9,1,1.2c1.2,0.6,3.1,0.4,4.1-0.3c0.6-0.4,0.8-0.7,0.8-1.3l-0.1-1.6l-5.8,0.5
	L511.1,111L511.1,111z"/>
<path class="st10" d="M515.9,107.8c1.2,0.6,1.3,1.6,0.2,2.4s-2.9,0.9-4.1,0.3s-1.3-1.6-0.2-2.4C512.8,107.4,514.7,107.2,515.9,107.8
	z"/>
<path class="st11" d="M521.9,195.4c-0.4,0.3-1.1,0.3-1.6,0.1h-0.1l1.1,2.8l0.7-3C522,195.3,521.9,195.3,521.9,195.4"/>
<linearGradient id="SVGID_5_" gradientUnits="userSpaceOnUse" x1="576.6838" y1="1204.8032" x2="560.1337" y2="1175.3812" gradientTransform="matrix(1 0 0 1 0 -884)">
	<stop  offset="0" style="stop-color:#F7931E"/>
	<stop  offset="1" style="stop-color:#F15A24"/>
</linearGradient>
<path class="st14" d="M501.4,189.7l2.7,9.9l3.3-9.8L501.4,189.7L501.4,189.7z"/>
<path class="st6" d="M504.4,97.8l-3,91.7c0,0.5,0.3,0.9,0.9,1.3c1.2,0.7,3.1,0.8,4.3,0.1c0.6-0.3,0.9-0.8,0.9-1.2l3-91.7L504.4,97.8
	"/>
<path class="st7" d="M504.5,92.1l-0.2,5.9c0,0.5,0.3,0.9,0.9,1.3c1.2,0.7,3.1,0.8,4.3,0.1c0.6-0.3,0.9-0.8,0.9-1.2l0.2-5.9
	L504.5,92.1"/>
<path class="st8" d="M509.8,91.1c1.2,0.7,1.1,1.8-0.1,2.5c-1.2,0.6-3.1,0.6-4.3-0.1s-1.1-1.8,0.1-2.5S508.6,90.3,509.8,91.1z"/>
<linearGradient id="SVGID_6_" gradientUnits="userSpaceOnUse" x1="472.3106" y1="912.7748" x2="463.8496" y2="897.7199" gradientTransform="matrix(1 0 0 1 0 -884)">
	<stop  offset="0" style="stop-color:#F7931E"/>
	<stop  offset="1" style="stop-color:#F15A24"/>
</linearGradient>
<path class="st15" d="M504.6,91.9c0,0.5,0.2,0.9,0.8,1.3c1.1,0.7,3,0.8,4.1,0.1c0.6-0.3,0.9-0.7,0.9-1.2v-1.6l-5.9-0.2L504.6,91.9"
	/>
<path class="st10" d="M509.7,89.3c1.1,0.7,1.1,1.8-0.1,2.4s-3,0.6-4.1-0.1s-1.1-1.8,0.1-2.4C506.7,88.6,508.6,88.6,509.7,89.3z"/>
<path class="st11" d="M504.9,196.8c-0.4,0.2-1.2,0.2-1.6-0.1c0,0-0.1,0-0.1-0.1l0.8,2.9l1-2.9C505,196.7,505,196.7,504.9,196.8
	L504.9,196.8z"/>
<linearGradient id="SVGID_7_" gradientUnits="userSpaceOnUse" x1="941.322" y1="1479.494" x2="916.382" y2="1455.7629" gradientTransform="matrix(1 0 0 1 0 -884)">
	<stop  offset="0" style="stop-color:#F7931E"/>
	<stop  offset="1" style="stop-color:#F15A24"/>
</linearGradient>
<path class="st16" d="M512.2,189l5.5,8.7l0.3-10.3L512.2,189z"/>
<path class="st6" d="M493.3,119.3l18.9,69.4c0.1,0.4,0.5,0.8,1.2,1c1.3,0.3,3.2-0.2,4.1-1.1c0.5-0.5,0.6-1,0.5-1.4l-18.9-69.4
	L493.3,119.3"/>
<path class="st7" d="M491.8,113.8l1.5,5.7c0.1,0.4,0.5,0.8,1.2,1c1.3,0.3,3.2-0.2,4.1-1.1c0.5-0.5,0.6-1,0.5-1.4l-1.5-5.7
	L491.8,113.8"/>
<path class="st8" d="M496.4,111.3c1.3,0.3,1.6,1.4,0.7,2.4c-1,1-2.8,1.5-4.1,1.1c-1.3-0.3-1.6-1.4-0.7-2.4S495.1,110.9,496.4,111.3z
	"/>
<linearGradient id="SVGID_8_" gradientUnits="userSpaceOnUse" x1="772.5416" y1="1260.9276" x2="760.3116" y2="1249.2925" gradientTransform="matrix(1 0 0 1 0 -884)">
	<stop  offset="0" style="stop-color:#F7931E"/>
	<stop  offset="1" style="stop-color:#F15A24"/>
</linearGradient>
<path class="st17" d="M491.8,113.7L491.8,113.7c0.1,0.4,0.5,0.8,1.1,1c1.3,0.3,3.1-0.1,4-1c0.5-0.5,0.7-0.9,0.5-1.4l-0.4-1.6
	l-5.7,1.5L491.8,113.7"/>
<path class="st10" d="M495.9,109.7c1.3,0.3,1.6,1.4,0.6,2.3c-0.9,0.9-2.7,1.4-4,1.1s-1.6-1.4-0.6-2.3
	C492.8,109.8,494.6,109.3,495.9,109.7z"/>
<path class="st11" d="M517.7,194.7c-0.4,0.4-1,0.5-1.5,0.4h-0.1l1.6,2.6l0.1-3.1C517.8,194.6,517.8,194.6,517.7,194.7"/>
<g>
	<path class="st18" d="M512.2,195.4c0.1-0.2,0.1-0.4,0.1-0.5l5.7-63.6l-4.5-0.4l-5.8,63.7h-0.1c-0.1,0.2-0.1,0.4,0,0.6l0.6,6.7
		c0,0.2,0.1,0.3,0.2,0.4c0.4,0.2,1,0.3,1.4,0.1c0.2-0.1,0.3-0.2,0.3-0.4h0.1L512.2,195.4"/>
	<path class="st18" d="M522.6,129.5c3.5,2.4,3.1,5.9-0.7,7.6c-3.8,1.8-9.8,1.2-13.2-1.2c-3.5-2.4-3.2-5.9,0.7-7.6
		C513.2,126.5,519.2,127,522.6,129.5z"/>
</g>
<path class="st19" d="M522.9,126.7c3.5,2.4,3.2,5.9-0.7,7.6c-3.8,1.8-9.8,1.2-13.2-1.2c-3.5-2.4-3.1-5.9,0.7-7.6
	C513.5,123.8,519.4,124.3,522.9,126.7z"/>
<path class="st20" d="M522.3,119.2c2.8,2,2.5,4.7-0.6,6.2c-3.1,1.4-7.9,1-10.7-1s-2.5-4.7,0.6-6.2
	C514.7,116.8,519.5,117.2,522.3,119.2z M526.4,105.1c4.3,3,3.9,7.2-0.9,9.4c-4.7,2.2-12.1,1.5-16.3-1.5c-4.3-3-3.9-7.2,0.9-9.4
	C514.8,101.4,522.1,102.1,526.4,105.1z"/>
<path class="st19" d="M528.3,94.5l0.7,10.7c0.2,3.1-0.3,6.2-1.6,9l-2.6,6l-0.8,6.5l1.1,3.9l-0.1,0.6l-18.7-1.6l0.1-1.1l2.1-3.5
	l0.1-7.6l-1.1-3.3c-1.2-3.7-1.3-7.6-0.2-11.4l2.8-9.8L528.3,94.5"/>
<path class="st21" d="M526,91.1c3.3,2.3,3,5.6-0.7,7.4c-3.7,1.7-9.4,1.2-12.7-1.2c-3.3-2.3-3-5.6,0.7-7.4
	C517,88.3,522.7,88.8,526,91.1z M515.6,103.2c-1,0.9-1.7,2.2-1.7,4.5c-0.1,4.2,0.3,11,2.5,11.5c1.9,0.4,4.2-4.1,4.5-4.6
	c1.9-3.6,3-9.7,0.2-11.7C519.6,101.9,517,102,515.6,103.2 M515.8,123.7c-1.8,0.4-2.6,2.6-2.6,4.3c0,0.3,0,3.1,2,3.8
	c1.4,0.5,3-0.4,3.7-1.4c1.5-1.8,1-4.8-0.7-6.1C518,124.2,517,123.5,515.8,123.7"/>
<path class="st18" d="M509.9,95.9c1.3-0.2,2.9,1.9,3.1,3.8c0.1,1.4-0.6,2.2-1.4,3.9c-1,2.3-1.1,4.1-1.2,7.4c-0.1,2.3,0.2,2,0.8,8.9
	c0.3,3.5,0.5,6.3-1,8.2c-0.3,0.3-1,1.2-1.6,1.1c-0.5-0.1-0.7-1-0.7-1.5c0-1.2,0.7-2.1,1-2.5c1-1.5,0.7-3.4,0-7
	c-1.6-7.9-1.9-7.7-2.2-9.9C506.1,102.6,507.8,96.2,509.9,95.9 M528,97.6c-1.2-0.4-3.2,1.3-3.7,3.2c-0.4,1.4,0.2,2.3,0.7,4.1
	c0.6,2.4,0.3,4.2-0.1,7.5c-0.3,2.3-0.6,1.9-2.4,8.6c-0.9,3.4-1.6,6.1-0.5,8.2c0.2,0.4,0.8,1.4,1.4,1.3c0.5-0.1,0.8-0.8,1-1.4
	c0.3-1.2-0.3-2.2-0.5-2.6c-0.8-1.6-0.1-3.5,1.2-6.9c3-7.5,3.3-7.3,3.9-9.4C530.5,104.8,530,98.2,528,97.6L528,97.6z"/>
<path class="st22" d="M525.4,90.5c2.9,2.1,2.7,5-0.6,6.5s-8.3,1.1-11.2-1s-2.7-5,0.6-6.5C517.4,88,522.4,88.4,525.4,90.5z"/>
<linearGradient id="SVGID_9_" gradientUnits="userSpaceOnUse" x1="422.3991" y1="711.9694" x2="434.8891" y2="744.8563" gradientTransform="matrix(1 0 0 1 0 -884)">
	<stop  offset="0" style="stop-color:#F7931E"/>
	<stop  offset="1" style="stop-color:#F15A24"/>
</linearGradient>
<path class="st23" d="M530.3,108.2L529.1,98l-4.8,9.2L530.3,108.2z"/>
<path class="st6" d="M517.3,179.2l13-70.8c0.1-0.4-0.1-0.9-0.7-1.4c-1-0.9-2.9-1.2-4.2-0.8c-0.6,0.2-1,0.6-1.1,1.1l-13,70.8
	L517.3,179.2"/>
<path class="st7" d="M516.2,184.8l1.1-5.8c0.1-0.4-0.1-0.9-0.7-1.4c-1-0.9-2.9-1.2-4.2-0.8c-0.6,0.2-1,0.6-1.1,1.1l-1.1,5.8
	L516.2,184.8"/>
<path class="st8" d="M510.9,185c-1-0.9-0.8-2,0.4-2.4c1.3-0.5,3.2-0.1,4.2,0.8s0.8,2-0.4,2.4C513.8,186.3,512,185.9,510.9,185"/>
<linearGradient id="SVGID_10_" gradientUnits="userSpaceOnUse" x1="475.8849" y1="970.908" x2="482.0749" y2="987.215" gradientTransform="matrix(1 0 0 1 0 -884)">
	<stop  offset="0" style="stop-color:#F7931E"/>
	<stop  offset="1" style="stop-color:#F15A24"/>
</linearGradient>
<path class="st24" d="M516.1,184.8L516.1,184.8c0.1-0.4-0.1-0.9-0.6-1.4c-1-0.9-2.8-1.2-4.1-0.8c-0.6,0.2-1,0.7-1.1,1l-0.3,1.7
	l5.8,1.1L516.1,184.8"/>
<path class="st10" d="M510.7,186.7c-1-0.9-0.8-1.9,0.4-2.4c1.2-0.4,3.1-0.1,4.1,0.7c1,0.9,0.8,1.9-0.4,2.4
	C513.5,187.9,511.7,187.6,510.7,186.7"/>
<path class="st11" d="M527.8,100.6c0.5-0.2,1.2,0,1.6,0.3l0.1,0.1l-0.4-3l-1.4,2.7C527.7,100.7,527.7,100.7,527.8,100.6"/>
<path class="st4" d="M530.2,146.6c-0.7,0.7-1.6,1.3-2.6,1.9v-5.9c1-0.6,1.9-1.2,2.6-1.9V146.6z M530.2,157.7
	c-0.7,0.7-1.6,1.3-2.6,1.9v-5.9c1-0.6,1.9-1.2,2.6-1.9V157.7z M530.2,168.7c-0.7,0.7-1.6,1.3-2.6,1.9v-5.9c1-0.6,1.9-1.2,2.6-1.9
	V168.7z M530.2,179.8c-0.7,0.7-1.6,1.3-2.6,1.9v-5.9c1-0.6,1.9-1.2,2.6-1.9V179.8z M530.2,190.9c-0.7,0.7-1.6,1.3-2.6,1.9v-5.9
	c1-0.6,1.9-1.2,2.6-1.9V190.9z M530.2,201.9c-0.7,0.7-1.6,1.3-2.6,1.9V198c1-0.6,1.9-1.2,2.6-1.9V201.9L530.2,201.9z M523.3,150.9
	l-3.4,1V146c1.2-0.2,2.4-0.7,3.4-1V150.9L523.3,150.9z M523.3,162l-3.4,1v-5.9c1.2-0.2,2.4-0.7,3.4-1V162z M523.3,173l-3.4,1v-5.9
	c1.2-0.2,2.4-0.7,3.4-1V173z M523.3,184.1l-3.4,1v-5.9c1.2-0.2,2.4-0.7,3.4-1V184.1z M523.3,195.2l-3.4,1v-5.9
	c1.2-0.2,2.4-0.7,3.4-1V195.2z M523.3,206.2l-3.4,1v-5.9c1.2-0.2,2.4-0.7,3.4-1V206.2z M514.5,153c-1.4,0-2.8,0-4.1-0.1V147l4.1,0.1
	V153L514.5,153z M514.5,164c-1.4,0-2.8,0-4.1-0.1V158l4.1,0.1V164L514.5,164z M514.5,175.1c-1.4,0-2.8,0-4.1-0.1v-5.9l4.1,0.1V175.1
	z M514.5,186.2c-1.4,0-2.8,0-4.1-0.1v-5.9l4.1,0.1V186.2z M514.5,197.2c-1.4,0-2.8,0-4.1-0.1v-5.9l4.1,0.1V197.2z M514.5,208.3
	c-1.4,0-2.8,0-4.1-0.1v-5.9l4.1,0.1V208.3z M505.9,152.1l-3.3-1v-5.9c1.1,0.4,2.2,0.7,3.3,1V152.1z M505.9,163.2l-3.3-1v-5.9
	c1.1,0.4,2.2,0.7,3.3,1V163.2z M505.9,174.3l-3.3-1v-5.9c1.1,0.4,2.2,0.7,3.3,1V174.3z M505.9,185.3l-3.3-1v-5.9
	c1.1,0.4,2.2,0.7,3.3,1V185.3z M505.9,196.4l-3.3-1v-5.9c1.1,0.4,2.2,0.7,3.3,1V196.4z M505.9,207.5l-3.3-1v-5.9
	c1.1,0.4,2.2,0.7,3.3,1V207.5z M497.4,148.4c-1-0.8-1.9-1.7-2.5-2.7v-5.9c0.6,0.9,1.5,1.8,2.5,2.7V148.4z M497.4,159.4
	c-1-0.8-1.9-1.7-2.5-2.7v-5.9c0.6,0.9,1.5,1.8,2.5,2.7V159.4z M497.4,170.5c-1-0.8-1.9-1.7-2.5-2.7V162c0.6,0.9,1.5,1.8,2.5,2.7
	V170.5L497.4,170.5z M497.4,181.6c-1-0.8-1.9-1.7-2.5-2.7V173c0.6,0.9,1.5,1.8,2.5,2.7V181.6L497.4,181.6z M497.4,192.6
	c-1-0.8-1.9-1.7-2.5-2.7V184c0.6,0.9,1.5,1.8,2.5,2.7V192.6L497.4,192.6z M497.4,203.7c-1-0.8-1.9-1.7-2.5-2.7v-5.9
	c0.6,0.9,1.5,1.8,2.5,2.7V203.7z M526.4,142c-7.7,4.4-20.2,4.4-27.9,0c-2.7-1.6-4.4-3.5-5.3-5.5v63.7c0,2.8,1.9,5.6,5.6,7.8
	c7.4,4.3,19.3,4.3,26.8,0c3.7-2.1,5.8-5,5.8-7.8l0.2-63.6C530.8,138.6,529.1,140.5,526.4,142"/>
<path class="st4" d="M526.4,141c-7.7,4.4-20.2,4.4-27.8,0c-3.4-2-5.3-4.4-5.7-7c-0.6,3.3,1.3,6.7,5.7,9.2c7.7,4.4,20.2,4.4,27.9,0
	c4.3-2.5,6.2-5.8,5.7-9.1C531.6,136.7,529.7,139.1,526.4,141"/>
<path class="st4" d="M530.6,134.5c-0.2,2.6-2,5-5.3,6.9c-7.1,4.1-18.6,4.1-25.7,0c-3.3-1.9-5.1-4.4-5.3-6.9h-1.6
	c0.2,2.8,2.1,5.5,5.8,7.6c7.7,4.4,20.2,4.4,27.8,0c3.6-2.1,5.6-4.7,5.8-7.6H530.6"/>
<path class="st25" d="M72.2,222.6l65.1-37.6l101.3,58.8L174,281.1L72.2,222.6z"/>
<path class="st2" d="M90.3,223.3l40.5-23.4l1.8,1l-40.4,23.3L90.3,223.3L90.3,223.3z M93.8,225.2l40.5-23.4l1.8,1l-40.4,23.3
	L93.8,225.2 M108.6,234.1l40.5-23.4l1.8,1L110.4,235L108.6,234.1L108.6,234.1z M112.2,236l40.5-23.4l1.8,1L114,237L112.2,236z
	 M124.6,244.2l40.5-23.4l1.8,1l-40.4,23.3L124.6,244.2L124.6,244.2z M128.2,246.1l40.5-23.4l1.8,1L130,247.1L128.2,246.1z
	 M141.3,252.8l40.5-23.4l1.8,1l-40.4,23.3L141.3,252.8L141.3,252.8z M144.8,254.8l40.5-23.4l1.8,1l-40.4,23.3L144.8,254.8
	L144.8,254.8z M157.5,263.1l40.5-23.4l1.8,1L159.3,264L157.5,263.1z M161,265l40.5-23.4l1.8,1l-40.4,23.3L161,265"/>
<path class="st0" d="M184.6,192.8L184.6,192.8L184.6,192.8l-1.3-0.8c-0.1-0.1-0.1-0.2-0.2-0.2l0,0l-5.2-3.1l-64.7-39.1
	c-0.1,0-0.1-0.1-0.2-0.1l0,0l-7.4-1.8l-3.1-0.8l-6,0.7c0.1,0.1,13.2,7.3,13.3,7.4l0,0l0,0l0.1,0.1l64.7,39.2l1.6,4.8
	c0.4,0.2,6.1-0.6,6.7-1c1.2-0.7,2.2-2.3,2.3-3.7C185.2,193.5,185,193,184.6,192.8"/>
<linearGradient id="SVGID_11_" gradientUnits="userSpaceOnUse" x1="200.956" y1="1035.55" x2="219.752" y2="1035.55" gradientTransform="matrix(1 0 0 1 0 -884)">
	<stop  offset="0" style="stop-color:#F7931E"/>
	<stop  offset="1" style="stop-color:#F15A24"/>
</linearGradient>
<path class="st26" d="M107,150.1l-10.5-2.6l7.2,8.1L107,150.1z"/>
<path class="st6" d="M171.9,189.4l-64.7-39.1c-0.4-0.2-1-0.2-1.6,0.1c-1.3,0.7-2.3,2.4-2.3,3.8c0,0.7,0.2,1.2,0.6,1.5l64.7,39.2
	L171.9,189.4z"/>
<path class="st7" d="M177.1,192.5l-5.3-3.2c-0.4-0.2-1-0.2-1.6,0.1c-1.3,0.7-2.3,2.4-2.3,3.8c0,0.7,0.2,1.2,0.6,1.5l5.3,3.2
	L177.1,192.5"/>
<path class="st27" d="M175.3,197.8c-1.3,0.7-2.3,0.1-2.2-1.3c0-1.4,1.1-3.2,2.3-3.8c1.3-0.7,2.3-0.1,2.2,1.3
	C177.6,195.4,176.6,197.1,175.3,197.8z"/>
<linearGradient id="SVGID_12_" gradientUnits="userSpaceOnUse" x1="280.254" y1="1079.5594" x2="288.306" y2="1079.5594" gradientTransform="matrix(1 0 0 1 0 -884)">
	<stop  offset="0" style="stop-color:#F7931E"/>
	<stop  offset="1" style="stop-color:#F15A24"/>
</linearGradient>
<path class="st28" d="M177.1,192.6c-0.4-0.3-0.9-0.2-1.6,0.1c-1.2,0.7-2.2,2.3-2.3,3.7c0,0.7,0.2,1.2,0.6,1.4l0,0l1.5,0.9l3.2-5.3
	L177.1,192.6"/>
<path class="st10" d="M176.9,198.6c-1.2,0.7-2.2,0.1-2.2-1.3s1-3.1,2.3-3.7c1.2-0.7,2.2-0.1,2.2,1.3
	C179.1,196.3,178.1,198,176.9,198.6z"/>
<path class="st11" d="M98.7,149.7c0-0.5,0.4-1.2,0.9-1.4h0.1l-3.1-0.8l2.2,2.4C98.7,149.9,98.7,149.8,98.7,149.7z"/>
<path class="st0" d="M236.7,331.2l29.9,19.4c3.2,1.8,14.5,3.2,17.7,1.4l83.9-48.4c4.1-2.3,4.1-6.2,0-8.5l-36.1-20.9
	c-3.2-1.8-8.3-1.8-11.5,0l-83.9,48.4C232.7,325,232.7,328.9,236.7,331.2L236.7,331.2z"/>
<path class="st29" d="M224.7,327.2l34.6,20c3,1.7,8,1.7,11,0l80.4-46.4c3.9-2.2,3.9-5.9,0-8.2l-34.6-20c-3-1.7-8-1.7-11,0L224.7,319
	C220.8,321.3,220.8,325,224.7,327.2z"/>
<g>
	<path id="P" class="st30" d="M224.7,326.9l34.6,20c3,1.7,8,1.7,11,0l80.4-46.4c3.9-2.2,3.9-5.9,0-8.2l-34.6-20c-3-1.7-8-1.7-11,0
		l-80.4,46.4C220.8,320.9,220.8,324.6,224.7,326.9L224.7,326.9z"/>
</g>
<g>
	<path id="Q" class="st31" d="M224.7,326.5l34.6,20c3,1.7,8,1.7,11,0l80.4-46.4c3.9-2.2,3.9-5.9,0-8.2l-34.6-20c-3-1.7-8-1.7-11,0
		l-80.4,46.4C220.8,320.6,220.8,324.2,224.7,326.5L224.7,326.5z"/>
</g>
<g>
	<path id="R" class="st32" d="M224.7,326.1l34.6,20c3,1.7,8,1.7,11,0l80.4-46.4c3.9-2.2,3.9-5.9,0-8.2l-34.6-20c-3-1.7-8-1.7-11,0
		l-80.4,46.4C220.8,320.2,220.8,323.9,224.7,326.1L224.7,326.1z"/>
</g>
<g>
	<path id="R_1_" class="st33" d="M224.7,325.7l34.6,20c3,1.7,8,1.7,11,0l80.4-46.4c3.9-2.2,3.9-5.9,0-8.2l-34.6-20
		c-3-1.7-8-1.7-11,0l-80.4,46.4C220.8,319.8,220.8,323.5,224.7,325.7L224.7,325.7z"/>
</g>
<g>
	<path id="R_2_" class="st34" d="M224.7,325.3l34.6,20c3,1.7,8,1.7,11,0l80.4-46.4c3.9-2.2,3.9-5.9,0-8.2l-34.6-20
		c-3-1.7-8-1.7-11,0l-80.4,46.4C220.8,319.4,220.8,323.1,224.7,325.3L224.7,325.3z"/>
</g>
<path class="st35" d="M224.7,325l34.6,20c3,1.7,8,1.7,11,0l80.4-46.4c3.9-2.2,3.9-5.9,0-8.2l-34.6-20c-3-1.7-8-1.7-11,0l-80.4,46.4
	C220.8,319.1,220.8,322.7,224.7,325"/>
<path class="st36" d="M224.7,324.6l34.6,20c3,1.7,8,1.7,11,0l80.4-46.4c3.9-2.2,3.9-5.9,0-8.2l-34.6-20c-3-1.7-8-1.7-11,0
	l-80.4,46.4C220.8,318.7,220.8,322.4,224.7,324.6"/>
<path class="st37" d="M224.7,324.2l34.6,20c3,1.7,8,1.7,11,0l80.4-46.4c3.9-2.2,3.9-5.9,0-8.2l-34.6-20c-3-1.7-8-1.7-11,0L224.7,316
	C220.8,318.3,220.8,322,224.7,324.2"/>
<g>
	<path id="R_3_" class="st38" d="M224.7,323.8l34.6,20c3,1.7,8,1.7,11,0l80.4-46.4c3.9-2.2,3.9-5.9,0-8.2l-34.6-20
		c-3-1.7-8-1.7-11,0l-80.4,46.4C220.8,317.9,220.8,321.6,224.7,323.8L224.7,323.8z"/>
</g>
<g>
	<path id="P_1_" class="st39" d="M224.7,323.5l34.6,20c3,1.7,8,1.7,11,0l80.4-46.4c3.9-2.2,3.9-5.9,0-8.2l-34.6-20
		c-3-1.7-8-1.7-11,0l-80.4,46.4C220.8,317.5,220.8,321.2,224.7,323.5L224.7,323.5z"/>
</g>
<g>
	<path id="Q_1_" class="st40" d="M224.7,323.1l34.6,20c3,1.7,8,1.7,11,0l80.4-46.4c3.9-2.2,3.9-5.9,0-8.2l-34.6-20
		c-3-1.7-8-1.7-11,0l-80.4,46.4C220.8,317.2,220.8,320.8,224.7,323.1L224.7,323.1z"/>
</g>
<g>
	<path id="R_4_" class="st2" d="M224.7,322.7l34.6,20c3,1.7,8,1.7,11,0l80.4-46.4c3.9-2.2,3.9-5.9,0-8.2l-34.6-20c-3-1.7-8-1.7-11,0
		l-80.4,46.4C220.8,316.8,220.8,320.5,224.7,322.7L224.7,322.7z"/>
</g>
<path class="st41" d="M226.3,321.3l33.5,19.4c2.9,1.7,7.7,1.7,10.7,0l77.9-45c3.8-2.2,3.8-5.7,0-7.9l-33.5-19.4
	c-2.9-1.7-7.7-1.7-10.7,0l-77.9,45C222.5,315.5,222.5,319.1,226.3,321.3L226.3,321.3z"/>
<path class="st2" d="M302.7,269.9c4.9-3.1,10.3,1.7,17.8,5.7l17.2,9.9c5.4,3.4,14.8,7,9.4,10.4l-74.4,42.9c-0.3,0.2-0.6,0.3-0.8,0.5
	l-1.3,0.7c-2.5,1.4-6.6,1.4-9.1,0l-35.7-20.6c-2.5-1.4-2.4-3.8,0.1-5.2L302.7,269.9L302.7,269.9z M303,268.8l-77.2,44.6
	c-3.6,2.1-3.6,5.5,0,7.5l33.2,19.4c3.6,2.1,9.2,2.4,13.3-0.1l77.2-44.6c3.6-2.1,3.6-5.5,0-7.5L316,268.8
	C312.4,266.7,307.1,266.4,303,268.8z"/>
<path class="st1" d="M338.4,283.9c-0.3,0.2-0.3,0.5,0,0.6c0.3,0.2,0.8,0.2,1.1,0s0.3-0.5,0-0.6S338.7,283.8,338.4,283.9z
	 M321.7,274.4c-0.2,0.1-0.2,0.3,0,0.4s0.6,0.1,0.8,0s0.2-0.3,0-0.4C322.2,274.3,321.9,274.3,321.7,274.4z M335.9,282.7
	c-0.5,0.3-0.5,0.7,0,1s1.2,0.3,1.7,0s0.5-0.7,0-1C337.2,282.4,336.4,282.4,335.9,282.7z"/>
<path class="st42" d="M389,82.3l0.1,0.1c0,0,0.1,0,0.1-0.1H389"/>
<g>
	<path class="st18" d="M457,199.5c0.1,0.1,0.3,0.2,0.5,0.3l54,26.7l1.9-3.8l-54.1-26.8l0.1-0.1c-0.1-0.1-0.3-0.2-0.5-0.2l-6-1.7
		c-0.1-0.1-0.3,0-0.4,0.1c-0.3,0.2-0.6,0.7-0.6,1.1c0,0.2,0.1,0.3,0.2,0.4v0.1L457,199.5"/>
	<path class="st18" d="M511.5,231.2c-3.3,2.2-6.2,0.8-6.5-3.2s2.2-9,5.6-11.2c3.3-2.2,6.2-0.8,6.5,3.2
		C517.3,223.9,514.8,228.9,511.5,231.2L511.5,231.2z"/>
</g>
<path class="st19" d="M513.8,232.3c-3.3,2.2-6.2,0.8-6.5-3.2s2.2-9,5.6-11.2c3.3-2.2,6.2-0.8,6.5,3.2
	C519.6,225.1,517.1,230.1,513.8,232.3"/>
<path class="st20" d="M520.7,234.3c-2.7,1.8-5,0.6-5.2-2.6s1.8-7.3,4.5-9.1s5-0.6,5.2,2.6C525.3,228.5,523.3,232.6,520.7,234.3
	 M531.6,242.8c-4.1,2.7-7.7,1-8-4c-0.3-4.9,2.8-11.1,6.9-13.9c4.1-2.7,7.7-1,8,4C538.8,233.8,535.8,240.1,531.6,242.8z"/>
<path class="st19" d="M540.3,248.1l-9.6-3c-2.8-0.9-5.3-2.4-7.4-4.4l-4.4-4.3l-5.5-2.9l-3.8-0.3l-0.5-0.3l7.8-15.9l1,0.5l2.4,3.1
	l6.6,2.7l3.2,0.2c3.7,0.2,7.2,1.5,10.1,3.7l7.6,5.8L540.3,248.1"/>
<path class="st21" d="M537,233.9c-0.4-1.1-1.3-2.2-3.4-3c-3.6-1.5-9.8-3.5-11-1.7c-1,1.5,2.1,5.1,2.5,5.5c2.6,2.9,7.5,6,10.3,4.2
	C536.8,237.9,537.6,235.6,537,233.9 M518.9,227.2c0.3-1.7-1.4-3.2-2.9-3.8c-0.2-0.1-2.8-1-4.1,0.5c-0.9,1.1-0.6,2.8-0.1,3.8
	c1.1,1.9,3.9,2.5,5.6,1.4C517.7,228.9,518.7,228.3,518.9,227.2L518.9,227.2z"/>
<path class="st18" d="M545.3,231.4c-0.3,1.2-2.6,1.9-4.4,1.4c-1.3-0.4-1.7-1.3-2.9-2.6c-1.6-1.7-3.2-2.4-6.1-3.6
	c-2-0.9-1.8-0.5-8.1-2.3c-3.2-0.9-5.7-1.7-6.9-3.7c-0.2-0.3-0.8-1.3-0.4-1.8c0.3-0.4,1.1-0.3,1.6-0.1c1.1,0.4,1.6,1.3,1.9,1.7
	c0.9,1.4,2.8,1.8,6.1,2.4l9.5,1.5C540.8,225.8,545.8,229.5,545.3,231.4 M537.7,246.8c0.7-0.9-0.1-3.3-1.5-4.3
	c-1.1-0.8-2.1-0.6-3.8-0.8c-2.3-0.3-3.8-1.1-6.6-2.7c-1.9-1.1-1.5-1.2-6.7-5.1c-2.6-2-4.8-3.5-7.1-3.2c-0.4,0-1.5,0.2-1.6,0.8
	c-0.1,0.5,0.4,1,0.9,1.3c0.9,0.6,2,0.5,2.5,0.4c1.7-0.1,3.1,1.1,5.6,3.4l6.9,6.7C530.5,246.5,536.5,248.3,537.7,246.8"/>
<path class="st43" d="M259.3,124.3l-87.1,50.3l-62.3-36v-1.3L259.3,123V124.3z"/>
<path class="st44" d="M259.3,123l-87.1,50.3L110,137.4L197,87L259.3,123z"/>
<path class="st45" d="M258.5,122.2L172.3,172l-61.6-35.5V133l147.8-14.2V122.2"/>
<path class="st46" d="M258.5,118.8l-86.2,49.8L110.7,133l86.2-49.8L258.5,118.8z"/>
<path class="st47" d="M258.5,118.8l-71.8,40.3c-5.9,3.1-14.4,5.9-14.4,5.9l-61.6-35.5c0,0,7.7-2.3,13.3-5.3
	c16-8.5,72.9-40.9,72.9-40.9L258.5,118.8"/>
<g>
	<path id="S" class="st45" d="M197,86.6c-0.3,0.2-0.3,0.5,0,0.6c0.3,0.2,0.8,0.2,1.1,0s0.3-0.5,0-0.6
		C197.8,86.4,197.3,86.4,197,86.6z"/>
</g>
<g>
	<path id="T" class="st48" d="M197.3,87.3c0.2-2,1.6-4.2,3.3-5.2c1.9-1.1,3.4-0.2,3.4,1.9c0,0.9-0.3,1.9-0.7,2.8l-0.2-0.1
		c0.4-0.8,0.6-1.7,0.6-2.5c0-2-1.4-2.8-3.1-1.8c-1.6,0.9-2.9,3-3,4.9L197.3,87.3"/>
</g>
<path class="st43" d="M197.7,87.3h-0.2c0.3-2,1.6-4.2,3.3-5.1c1.9-1.1,3.4-0.2,3.4,1.9c0,0.9-0.3,1.9-0.7,2.8l-0.2-0.1
	c0.4-0.8,0.6-1.7,0.6-2.5c0-2-1.4-2.8-3.1-1.8C199.2,83.4,198,85.5,197.7,87.3L197.7,87.3z"/>
<g>
	<path id="S_1_" class="st45" d="M198.2,87.3c-0.3,0.2-0.3,0.5,0,0.6c0.3,0.2,0.8,0.2,1.1,0s0.3-0.5,0-0.6
		C199,87.1,198.5,87.1,198.2,87.3z"/>
</g>
<path class="st48" d="M198.5,88c0.2-2,1.6-4.2,3.3-5.2c1.9-1.1,3.4-0.2,3.4,1.9c0,0.9-0.3,1.9-0.7,2.8l-0.2-0.1
	c0.4-0.8,0.6-1.7,0.6-2.5c0-2-1.4-2.7-3.1-1.8c-1.6,0.9-2.9,3-3,4.9C198.8,88,198.5,88,198.5,88z"/>
<path class="st43" d="M198.9,88h-0.2c0.3-2,1.6-4.2,3.3-5.1c1.9-1.1,3.4-0.2,3.4,1.9c0,0.9-0.3,1.9-0.7,2.8l-0.2-0.1
	c0.4-0.8,0.6-1.7,0.6-2.5c0-2-1.4-2.7-3.1-1.8C200.4,84.1,199.1,86.2,198.9,88L198.9,88z"/>
<g>
	<path id="U" class="st45" d="M203.2,90.1c-0.3,0.2-0.3,0.5,0,0.6c0.3,0.2,0.8,0.2,1.1,0s0.3-0.5,0-0.6
		C203.9,90,203.5,90,203.2,90.1z"/>
</g>
<g>
	<path id="V" class="st48" d="M203.5,90.9c0.2-2,1.6-4.2,3.3-5.2c1.9-1.1,3.4-0.2,3.4,1.9c0,0.9-0.3,1.9-0.7,2.8l-0.2-0.1
		c0.4-0.8,0.6-1.7,0.6-2.5c0-2-1.4-2.8-3.1-1.8c-1.6,0.9-2.9,3-3,4.9C203.8,90.9,203.5,90.9,203.5,90.9z"/>
</g>
<g>
	<path id="W" class="st43" d="M203.9,90.9h-0.2c0.3-2,1.6-4.2,3.3-5.1c1.9-1.1,3.4-0.2,3.4,1.9c0,0.9-0.3,1.9-0.7,2.8l-0.2-0.1
		c0.4-0.8,0.6-1.7,0.6-2.5c0-2-1.4-2.8-3.1-1.8C205.4,87,204.1,89,203.9,90.9L203.9,90.9"/>
</g>
<g>
	<path id="U_1_" class="st45" d="M204.4,90.8c-0.3,0.2-0.3,0.5,0,0.6c0.3,0.2,0.8,0.2,1.1,0s0.3-0.5,0-0.6
		C205.1,90.7,204.7,90.7,204.4,90.8z"/>
</g>
<g>
	<path id="X" class="st48" d="M204.6,91.6c0.2-2,1.6-4.2,3.3-5.2c1.9-1.1,3.4-0.2,3.4,1.9c0,0.9-0.3,1.9-0.7,2.8l-0.2-0.1
		c0.4-0.8,0.6-1.7,0.6-2.5c0-2-1.4-2.7-3.1-1.8c-1.6,0.9-2.9,3-3,4.9L204.6,91.6"/>
</g>
<path class="st43" d="M205.1,91.6h-0.2c0.3-2,1.6-4.2,3.3-5.1c1.9-1.1,3.4-0.2,3.4,1.9c0,0.9-0.3,1.9-0.7,2.8l-0.2-0.1
	c0.4-0.8,0.6-1.7,0.6-2.5c0-2-1.4-2.7-3.1-1.8C206.6,87.7,205.3,89.7,205.1,91.6L205.1,91.6"/>
<g>
	<path id="S_2_" class="st45" d="M209.6,93.9c-0.3,0.2-0.3,0.5,0,0.6c0.3,0.2,0.8,0.2,1.1,0s0.3-0.5,0-0.6
		C210.4,93.7,209.9,93.7,209.6,93.9z"/>
</g>
<g>
	<path id="V_1_" class="st48" d="M209.9,94.6c0.2-2,1.6-4.2,3.3-5.2c1.9-1.1,3.4-0.2,3.4,1.9c0,0.9-0.3,1.9-0.7,2.8l-0.2-0.1
		c0.4-0.8,0.6-1.7,0.6-2.5c0-2-1.4-2.8-3.1-1.8c-1.6,0.9-2.9,3-3,4.9C210.2,94.6,209.9,94.6,209.9,94.6z"/>
</g>
<path class="st43" d="M210.3,94.6h-0.2c0.3-2,1.6-4.2,3.3-5.1c1.9-1.1,3.4-0.2,3.4,1.9c0,0.9-0.3,1.9-0.7,2.8l-0.2-0.1
	c0.4-0.8,0.6-1.7,0.6-2.5c0-2-1.4-2.8-3.1-1.8C211.9,90.7,210.6,92.8,210.3,94.6L210.3,94.6"/>
<g>
	<path id="S_3_" class="st45" d="M210.8,94.6c-0.3,0.2-0.3,0.5,0,0.6c0.3,0.2,0.8,0.2,1.1,0s0.3-0.5,0-0.6
		C211.6,94.4,211.1,94.4,210.8,94.6z"/>
</g>
<g>
	<path id="X_1_" class="st48" d="M211.1,95.3c0.2-2,1.6-4.2,3.3-5.2c1.9-1.1,3.4-0.2,3.4,1.9c0,0.9-0.3,1.9-0.7,2.8l-0.2-0.1
		c0.4-0.8,0.6-1.7,0.6-2.5c0-2-1.4-2.7-3.1-1.8c-1.6,0.9-2.9,3-3,4.9L211.1,95.3"/>
</g>
<g>
	<path id="Y" class="st43" d="M211.5,95.3h-0.2c0.3-2,1.6-4.2,3.3-5.1c1.9-1.1,3.4-0.2,3.4,1.9c0,0.9-0.3,1.9-0.7,2.8l-0.2-0.1
		c0.4-0.8,0.6-1.7,0.6-2.5c0-2-1.4-2.8-3.1-1.8C213.1,91.4,211.8,93.5,211.5,95.3L211.5,95.3z"/>
</g>
<path class="st45" d="M216,97.5c-0.3,0.2-0.3,0.5,0,0.6c0.3,0.2,0.8,0.2,1.1,0s0.3-0.5,0-0.6S216.3,97.4,216,97.5z"/>
<g>
	<path id="X_2_" class="st48" d="M216.3,98.3c0.2-2,1.6-4.2,3.3-5.2c1.9-1.1,3.4-0.2,3.4,1.9c0,0.9-0.3,1.9-0.7,2.8l-0.2-0.1
		c0.4-0.8,0.6-1.7,0.6-2.5c0-2-1.4-2.7-3.1-1.8c-1.6,0.9-2.9,3-3,4.9L216.3,98.3"/>
</g>
<g>
	<path id="Z" class="st43" d="M216.7,98.3h-0.2c0.3-2,1.6-4.2,3.3-5.1c1.9-1.1,3.4-0.2,3.4,1.9c0,0.9-0.3,1.9-0.7,2.8l-0.2-0.1
		c0.4-0.8,0.6-1.7,0.6-2.5c0-2-1.4-2.8-3.1-1.8C218.2,94.4,217,96.4,216.7,98.3L216.7,98.3"/>
</g>
<path class="st45" d="M217.2,98.2c-0.3,0.2-0.3,0.5,0,0.6c0.3,0.2,0.8,0.2,1.1,0s0.3-0.5,0-0.6S217.5,98.1,217.2,98.2z"/>
<g>
	<path id="X_3_" class="st48" d="M217.5,99c0.2-2,1.6-4.2,3.3-5.2c1.9-1.1,3.4-0.2,3.4,1.9c0,0.9-0.3,1.9-0.7,2.8l-0.2-0.1
		c0.4-0.8,0.6-1.7,0.6-2.5c0-2-1.4-2.7-3.1-1.8c-1.6,0.9-2.9,3-3,4.9L217.5,99"/>
</g>
<g>
	<path id="a" class="st43" d="M217.9,99h-0.2c0.3-2,1.6-4.2,3.3-5.1c1.9-1.1,3.4-0.2,3.4,1.9c0,0.9-0.3,1.9-0.7,2.8l-0.2-0.1
		c0.4-0.8,0.6-1.7,0.6-2.5c0-2-1.4-2.8-3.1-1.8C219.4,95.1,218.2,97.1,217.9,99L217.9,99z"/>
</g>
<path class="st45" d="M222.4,101.3c-0.3,0.2-0.3,0.5,0,0.6s0.8,0.2,1.1,0s0.3-0.5,0-0.6C223.2,101.1,222.7,101.1,222.4,101.3z"/>
<g>
	<path id="V_2_" class="st48" d="M222.7,102c0.2-2,1.6-4.2,3.3-5.2c1.9-1.1,3.4-0.2,3.4,1.9c0,0.9-0.3,1.9-0.7,2.8l-0.2-0.1
		c0.4-0.8,0.6-1.7,0.6-2.5c0-2-1.4-2.8-3.1-1.8c-1.6,0.9-2.9,3-3,4.9C223,102,222.7,102,222.7,102z"/>
</g>
<g>
	<path id="Y_1_" class="st43" d="M223.1,102h-0.2c0.3-2,1.6-4.2,3.3-5.1c1.9-1.1,3.4-0.2,3.4,1.9c0,0.9-0.3,1.9-0.7,2.8l-0.2-0.1
		c0.4-0.8,0.6-1.7,0.6-2.5c0-2-1.4-2.8-3.1-1.8C224.7,98.1,223.4,100.2,223.1,102L223.1,102z"/>
</g>
<g>
	<path id="S_4_" class="st45" d="M223.6,102c-0.3,0.2-0.3,0.5,0,0.6c0.3,0.2,0.8,0.2,1.1,0s0.3-0.5,0-0.6
		C224.4,101.8,223.9,101.8,223.6,102z"/>
</g>
<path class="st48" d="M223.9,102.7c0.2-2,1.6-4.2,3.3-5.2c1.9-1.1,3.4-0.2,3.4,1.9c0,0.9-0.3,1.9-0.7,2.8l-0.2-0.1
	c0.4-0.8,0.6-1.7,0.6-2.5c0-2-1.4-2.8-3.1-1.8c-1.6,0.9-2.9,3-3.1,4.9C224.1,102.7,224,102.7,223.9,102.7"/>
<g>
	<path id="a_1_" class="st43" d="M224.3,102.7h-0.2c0.3-2,1.6-4.2,3.3-5.1c1.9-1.1,3.4-0.2,3.4,1.9c0,0.9-0.3,1.9-0.7,2.8l-0.2-0.1
		c0.4-0.8,0.6-1.7,0.6-2.5c0-2-1.4-2.8-3.1-1.8C225.8,98.8,224.6,100.8,224.3,102.7L224.3,102.7z"/>
</g>
<g>
	<path id="U_2_" class="st45" d="M228.8,104.9c-0.3,0.2-0.3,0.5,0,0.6c0.3,0.2,0.8,0.2,1.1,0s0.3-0.5,0-0.6
		C229.5,104.8,229.1,104.8,228.8,104.9z"/>
</g>
<g>
	<path id="T_1_" class="st48" d="M229,105.7c0.2-2,1.6-4.2,3.3-5.2c1.9-1.1,3.4-0.2,3.4,1.9c0,0.9-0.3,1.9-0.7,2.8l-0.2-0.1
		c0.4-0.8,0.6-1.7,0.6-2.5c0-2-1.4-2.8-3.1-1.8c-1.6,0.9-2.9,3-3,4.9L229,105.7"/>
</g>
<g>
	<path id="W_1_" class="st43" d="M229.5,105.7h-0.2c0.3-2,1.6-4.2,3.3-5.1c1.9-1.1,3.4-0.2,3.4,1.9c0,0.9-0.3,1.9-0.7,2.8l-0.2-0.1
		c0.4-0.8,0.6-1.7,0.6-2.5c0-2-1.4-2.8-3.1-1.8C231,101.8,229.7,103.8,229.5,105.7L229.5,105.7"/>
</g>
<path class="st45" d="M229.9,105.6c-0.3,0.2-0.3,0.4,0,0.6s0.8,0.2,1.1,0s0.3-0.5,0-0.6C230.7,105.4,230.2,105.4,229.9,105.6z"/>
<g>
	<path id="b" class="st48" d="M230.2,106.3c0.2-2,1.6-4.2,3.3-5.2c1.9-1.1,3.4-0.2,3.4,1.9c0,0.9-0.3,1.9-0.7,2.8l-0.2-0.1
		c0.4-0.8,0.6-1.7,0.6-2.5c0-2-1.4-2.8-3.1-1.8c-1.6,0.9-2.9,3-3,4.9C230.4,106.4,230.3,106.4,230.2,106.3"/>
</g>
<g>
	<path id="W_2_" class="st43" d="M230.7,106.4h-0.2c0.3-2,1.6-4.2,3.3-5.1c1.9-1.1,3.4-0.2,3.4,1.9c0,0.9-0.3,1.9-0.7,2.8l-0.2-0.1
		c0.4-0.8,0.6-1.7,0.6-2.5c0-2-1.4-2.8-3.1-1.8C232.2,102.5,230.9,104.5,230.7,106.4L230.7,106.4"/>
</g>
<g>
	<path id="S_5_" class="st45" d="M235.3,108.7c-0.3,0.2-0.3,0.5,0,0.6c0.3,0.2,0.8,0.2,1.1,0s0.3-0.5,0-0.6
		C236.1,108.5,235.6,108.5,235.3,108.7z"/>
</g>
<g>
	<path id="X_4_" class="st48" d="M235.6,109.4c0.2-2,1.6-4.2,3.3-5.2c1.9-1.1,3.4-0.2,3.4,1.9c0,0.9-0.3,1.9-0.7,2.8l-0.2-0.1
		c0.4-0.8,0.6-1.7,0.6-2.5c0-2-1.4-2.7-3.1-1.8c-1.6,0.9-2.9,3-3,4.9L235.6,109.4"/>
</g>
<path class="st43" d="M236,109.4h-0.2c0.3-2,1.6-4.2,3.3-5.1c1.9-1.1,3.4-0.2,3.4,1.9c0,0.9-0.3,1.9-0.7,2.8l-0.2-0.1
	c0.4-0.8,0.6-1.7,0.6-2.5c0-2-1.4-2.8-3.1-1.8C237.5,105.5,236.2,107.6,236,109.4L236,109.4z"/>
<g>
	<path id="S_6_" class="st45" d="M236.5,109.4c-0.3,0.2-0.3,0.5,0,0.6c0.3,0.2,0.8,0.2,1.1,0s0.3-0.5,0-0.6
		C237.3,109.2,236.8,109.2,236.5,109.4z"/>
</g>
<g>
	<path id="X_5_" class="st48" d="M236.8,110.1c0.2-2,1.6-4.2,3.3-5.2c1.9-1.1,3.4-0.2,3.4,1.9c0,0.9-0.3,1.9-0.7,2.8l-0.2-0.1
		c0.4-0.8,0.6-1.7,0.6-2.5c0-2-1.4-2.7-3.1-1.8c-1.6,0.9-2.9,3-3,4.9L236.8,110.1"/>
</g>
<path class="st43" d="M237.2,110.1H237c0.3-2,1.6-4.2,3.3-5.1c1.9-1.1,3.4-0.2,3.4,1.9c0,0.9-0.3,1.9-0.7,2.8l-0.2-0.1
	c0.4-0.8,0.6-1.7,0.6-2.5c0-2-1.4-2.8-3.1-1.8C238.7,106.2,237.4,108.3,237.2,110.1L237.2,110.1"/>
<path class="st45" d="M241.6,112.3c-0.3,0.2-0.3,0.5,0,0.6c0.3,0.2,0.8,0.2,1.1,0s0.3-0.5,0-0.6
	C242.3,112.1,241.9,112.1,241.6,112.3z"/>
<path class="st48" d="M241.9,113c0.2-2,1.6-4.2,3.3-5.2c1.9-1.1,3.4-0.2,3.4,1.9c0,0.9-0.3,1.9-0.7,2.8l-0.2-0.1
	c0.4-0.8,0.6-1.7,0.6-2.5c0-2-1.4-2.7-3.1-1.8c-1.6,0.9-2.9,3-3,4.9C242,113.1,241.9,113.1,241.9,113"/>
<g>
	<path id="W_3_" class="st43" d="M242.3,113.1h-0.2c0.3-2,1.6-4.2,3.3-5.1c1.9-1.1,3.4-0.2,3.4,1.9c0,0.9-0.3,1.9-0.7,2.8l-0.2-0.1
		c0.4-0.8,0.6-1.7,0.6-2.5c0-2-1.4-2.8-3.1-1.8C243.8,109.2,242.5,111.2,242.3,113.1L242.3,113.1"/>
</g>
<path class="st45" d="M242.8,113c-0.3,0.2-0.3,0.5,0,0.6c0.3,0.2,0.8,0.2,1.1,0s0.3-0.5,0-0.6C243.5,112.8,243.1,112.8,242.8,113z"
	/>
<g>
	<path id="b_1_" class="st48" d="M243,113.7c0.2-2,1.6-4.2,3.3-5.2c1.9-1.1,3.4-0.2,3.4,1.9c0,0.9-0.3,1.9-0.7,2.8l-0.2-0.1
		c0.4-0.8,0.6-1.7,0.6-2.5c0-2-1.4-2.8-3.1-1.8c-1.6,0.9-2.9,3-3,4.9C243.2,113.8,243.1,113.8,243,113.7"/>
</g>
<g>
	<path id="W_4_" class="st43" d="M243.5,113.8h-0.2c0.3-2,1.6-4.2,3.3-5.1c1.9-1.1,3.4-0.2,3.4,1.9c0,0.9-0.3,1.9-0.7,2.8l-0.2-0.1
		c0.4-0.8,0.6-1.7,0.6-2.5c0-2-1.4-2.8-3.1-1.8C245,109.9,243.7,111.9,243.5,113.8L243.5,113.8"/>
</g>
<g>
	<path id="S_7_" class="st45" d="M248.2,116.2c-0.3,0.2-0.3,0.5,0,0.6c0.3,0.2,0.8,0.2,1.1,0s0.3-0.5,0-0.6
		C249,116,248.5,116,248.2,116.2z"/>
</g>
<g>
	<path id="V_3_" class="st48" d="M248.5,116.9c0.2-2,1.6-4.2,3.3-5.2c1.9-1.1,3.4-0.2,3.4,1.9c0,0.9-0.3,1.9-0.7,2.8l-0.2-0.1
		c0.4-0.8,0.6-1.7,0.6-2.5c0-2-1.4-2.8-3.1-1.8c-1.6,0.9-2.9,3-3,4.9C248.8,116.9,248.5,116.9,248.5,116.9z"/>
</g>
<path class="st43" d="M248.9,116.9h-0.2c0.3-2,1.6-4.2,3.3-5.1c1.9-1.1,3.4-0.2,3.4,1.9c0,0.9-0.3,1.9-0.7,2.8l-0.2-0.1
	c0.4-0.8,0.6-1.7,0.6-2.5c0-2-1.4-2.8-3.1-1.8C250.4,113,249.2,115.1,248.9,116.9L248.9,116.9"/>
<g>
	<path id="S_8_" class="st45" d="M249.4,116.9c-0.3,0.2-0.3,0.5,0,0.6c0.3,0.2,0.8,0.2,1.1,0s0.3-0.5,0-0.6
		C250.2,116.7,249.7,116.7,249.4,116.9z"/>
</g>
<g>
	<path id="T_2_" class="st48" d="M249.7,117.6c0.2-2,1.6-4.2,3.3-5.2c1.9-1.1,3.4-0.2,3.4,1.9c0,0.9-0.3,1.9-0.7,2.8l-0.2-0.1
		c0.4-0.8,0.6-1.7,0.6-2.5c0-2-1.4-2.8-3.1-1.8c-1.6,0.9-2.9,3-3,4.9L249.7,117.6"/>
</g>
<g>
	<path id="Z_1_" class="st43" d="M250.1,117.6h-0.2c0.3-2,1.6-4.2,3.3-5.1c1.9-1.1,3.4-0.2,3.4,1.9c0,0.9-0.3,1.9-0.7,2.8l-0.2-0.1
		c0.4-0.8,0.6-1.7,0.6-2.5c0-2-1.4-2.8-3.1-1.8C251.6,113.7,250.4,115.7,250.1,117.6L250.1,117.6"/>
</g>
<path class="st49" d="M157.7,348.1c-3.2-1.8-7.4-2.7-11.7-2.7c-4.4,0-8.5-1-11.6-2.8l-12.6-5.6l-48.4-28c-2.5-1.4-3.9-3.3-3.9-5.4
	c0-2-15.7-10.3-15.7-10.3v2.9l6.1,3.5l2.1,2.9l-3,2.7l-4.1,1.6l-6.2-0.3l-5.4-2.9c0.2-0.2,0.4-0.3,0.4-0.3c0-0.1-2.3-1.8-2.3-1.8
	v3.3c0.1,1.8,1.8,3.8,4.1,5.1s5.2,2,8.2,2.2c3.6,0.2,7.1,1,9.7,2.5l50,28.9l8.8,6.3c3.2,1.9,5.1,4.4,5.4,7c0.3,2.2,1.9,4.3,4.7,5.9
	c3.8,2.2,10.3,3.7,14.9,2.5v-2.9l-8.2-4.2l-0.2-2.3l3.4-2.9l5.9-2.2l6.4,1.5l7.6,4.4C163.1,353.6,161.7,350.4,157.7,348.1"/>
<path class="st50" d="M146,342.5c-4.4,0-8.5-1-11.6-2.8l-12.6-5.6l-48.4-28c-2.5-1.4-3.9-3.3-3.9-5.4c0-2-1.2-3.9-3.7-5.4
	c-3.2-1.8-7.7-2.5-12-2l6.1,3.5l2.1,2.9l-3,2.7l-4.1,1.6l-6.2-0.3l-6.8-3.6c-1.6,2.2,0.5,5.1,3.5,6.9c2.3,1.3,5.2,2,8.2,2.2
	c3.6,0.2,7.1,1,9.7,2.5l50,28.9l8.8,6.3c3.2,1.9,5.1,4.4,5.4,7c0.3,2.2,1.9,4.3,4.7,5.9c3.8,2.2,10.3,3.7,14.9,2.5l-7.8-4.9
	l-0.6-4.5l3.4-2.9l5.9-2.2l6.4,1.5l7.6,4.4c1-3.1-0.4-6.3-4.4-8.6C154.5,343.4,150.3,342.5,146,342.5"/>
<path class="st18" d="M67.9,300.5c-0.1-1.7-1.1-3.5-3.3-4.8c-2.8-1.6-7-2.8-10.8-2.4l6.1,3.5l2.1,2.9l-3,2.7l-4.1,1.6l-6.2-0.3
	l-6.8-3.6c-1.4,1.9,2,4.4,4.7,5.9c2,1.2,4.6,1.9,7.3,1.9C56.1,308,68.3,307.6,67.9,300.5 M158,346.3c-3-1.7-7-2.5-11-2.5
	c-6.4,0-19.1,3.1-17.2,10.7c0.5,2,1.7,4,4.4,5.6c3.6,2.1,8.7,3.4,13.1,2.4l-7.8-4.9l-0.6-4.5l3.4-2.9l5.9-2.2l6.4,1.5l7.6,4.4
	C163,351,161.7,348.5,158,346.3L158,346.3z"/>
<path class="st49" d="M137,344.6l-69.5-40c-1.4,1.8-4.1,2.7-6.6,3.2l69.5,40.3C132,346.5,134.4,345.4,137,344.6"/>
<path class="st6" d="M128.5,120.6l78,18.3c0.5,0.1,1.1-0.1,1.6-0.7c1-1.1,1.5-3.2,1.1-4.6c-0.2-0.7-0.6-1.2-1.1-1.3l-78-18.3
	L128.5,120.6"/>
<linearGradient id="SVGID_13_" gradientUnits="userSpaceOnUse" x1="375.2887" y1="817.9956" x2="385.7917" y2="810.4736" gradientTransform="matrix(1 0 0 1 0 -884)">
	<stop  offset="0" style="stop-color:#F7931E"/>
	<stop  offset="1" style="stop-color:#F15A24"/>
</linearGradient>
<path class="st51" d="M123.2,115.1l0.6-2.5l-1.8-0.4c-0.5-0.1-1,0.1-1.5,0.6c-1,1.1-1.5,3.1-1.1,4.5c0.2,0.7,0.6,1.1,1.1,1.2
	l1.8,0.4l0.6-2.5C123,116.1,123.2,115.6,123.2,115.1"/>
<path class="st27" d="M122.3,113.3c1-1.1,2.2-0.8,2.6,0.6s0,3.4-1.1,4.5c-1,1.1-2.2,0.8-2.6-0.6S121.3,114.4,122.3,113.3"/>
<g>
	<path class="st7" d="M122.4,113.2c1-1.1,2.2-0.8,2.7,0.6c0.4,1.5,0,3.5-1.1,4.6c-1,1.1-2.2,0.8-2.7-0.6S121.3,114.3,122.4,113.2z"
		/>
	<path class="st7" d="M122.3,119.1l6.4,1.5c0.5,0.1,1.1-0.1,1.6-0.7c1-1.1,1.5-3.2,1.1-4.6c-0.2-0.7-0.6-1.2-1.1-1.3l-6.4-1.5
		L122.3,119.1"/>
</g>
<path class="st6" d="M128.8,114.7c1-1.1,2.2-0.8,2.7,0.6c0.4,1.5,0,3.5-1.1,4.6c-1,1.1-2.2,0.8-2.7-0.6
	C127.3,117.9,127.8,115.8,128.8,114.7z"/>
<linearGradient id="SVGID_14_" gradientUnits="userSpaceOnUse" x1="473.1435" y1="832.748" x2="488.7795" y2="821.5491" gradientTransform="matrix(1 0 0 1 0 -884)">
	<stop  offset="0" style="stop-color:#F7931E"/>
	<stop  offset="1" style="stop-color:#F15A24"/>
</linearGradient>
<path class="st52" d="M218.1,138.2l-9.6-5.6c-0.6-0.5-1.3-0.3-2,0.4c-1,1.1-1.5,3.2-1.1,4.6c0.3,0.8,0.8,1.3,1.3,1.3l0,0
	L218.1,138.2"/>
<path class="st11" d="M218.1,138.2l-3-1.7H215c-0.2-0.1-0.4-0.1-0.6,0.2c-0.3,0.3-0.5,1-0.3,1.4c0.1,0.3,0.3,0.4,0.4,0.4h0.1
	L218.1,138.2"/>
<path class="st49" d="M141.7,308.8c3.2-1.8,7.4-2.7,11.7-2.7c4.4,0,8.5-1,11.6-2.8l12.6-5.6l48.4-28c2.5-1.4,3.9-3.3,3.9-5.4
	c0-2,15.7-10.3,15.7-10.3v2.9l-6.1,3.5l-2.1,2.9l3,2.7l4.1,1.6l6.2-0.3l5.4-2.9c-0.3-0.2-0.4-0.3-0.4-0.3c0-0.1,2.3-1.8,2.3-1.8v3.3
	c-0.1,1.8-1.8,3.8-4.1,5.1s-5.2,2-8.2,2.2c-3.6,0.2-7.1,1-9.7,2.5l-50,28.9l-8.8,6.3c-3.2,1.9-5.1,4.4-5.4,7
	c-0.3,2.2-1.9,4.3-4.7,5.9c-3.8,2.2-10.3,3.7-14.9,2.5v-2.9l8.2-4.2l0.2-2.3l-3.4-2.9l-5.9-2.2l-6.4,1.5l-7.6,4.4
	C136.3,314.4,137.7,311.1,141.7,308.8"/>
<path class="st50" d="M153.4,303.3c4.3,0,8.5-1,11.6-2.8l12.6-5.6l48.4-28c2.5-1.4,3.9-3.3,3.9-5.4c0-2,1.2-3.9,3.7-5.4
	c3.2-1.8,7.7-2.5,12-2l-6.1,3.5l-2.1,2.9l3,2.7l4.1,1.6l6.2-0.3l6.8-3.6c1.6,2.2-0.5,5.1-3.5,6.9c-2.3,1.3-5.2,2-8.2,2.2
	c-3.6,0.2-7.1,1-9.7,2.5l-50,28.9l-8.8,6.3c-3.2,1.9-5.1,4.4-5.4,7c-0.3,2.2-1.9,4.3-4.7,5.9c-3.8,2.2-10.3,3.7-14.9,2.5l7.8-4.9
	l0.6-4.5l-3.4-2.9l-5.9-2.2l-6.4,1.5l-7.6,4.4c-1-3.1,0.4-6.3,4.4-8.6C144.9,304.1,149.1,303.3,153.4,303.3"/>
<path class="st18" d="M231.5,261.2c0.1-1.7,1.1-3.5,3.3-4.8c2.8-1.6,7-2.8,10.8-2.4l-6.1,3.5l-2.1,2.9l3,2.7l4.1,1.6l6.2-0.3
	l6.8-3.6c1.4,1.9-2,4.4-4.7,5.9c-2,1.2-4.6,1.9-7.3,1.9C243.3,268.7,231.1,268.3,231.5,261.2 M141.4,307c3-1.7,7-2.5,11-2.5
	c6.4,0,19.1,3.1,17.2,10.7c-0.5,2-1.7,4-4.4,5.6c-3.6,2.1-8.7,3.4-13.1,2.4l7.8-4.9l0.6-4.5l-3.4-2.9l-5.9-2.2l-6.4,1.5l-7.6,4.4
	C136.4,311.7,137.7,309.2,141.4,307"/>
<path class="st49" d="M162.4,305.3l69.5-40c1.4,1.8,4.1,2.7,6.6,3.2L169,308.8C167.4,307.2,165,306.1,162.4,305.3"/>
<path class="st53" d="M234.3,327.4l1.7-3.6l18-14.2c0,0,34-10,41.7-19.6c0.7-0.9,3.7-2,5.5,0.3c3,3.7-7.1,6.9-7.1,6.9L256.7,314
	l-21.1,19.1l-1.4,5.4L234.3,327.4 M302.1,365.5l7.3-1l14.2-11.7l10.1-26.4l5.3-9.1c1.1-1.9,2.8-3.6,5-3.7c0.7,0,2,0.6,2,0.6l0.4,0.3
	l-7.9,9.3l-10.1,30.6l-20,17h-4.6L302.1,365.5"/>
<path class="st4" d="M235.7,328.1l1.7-3.6l18-14.2c0,0,34-10,41.7-19.6c0.7-0.9,3.6-1.5,4.4-0.1c2.6,4-5.9,7.4-5.9,7.4l-38.7,16.1
	l-19.4,16.6l-1.7,8.6L235.7,328.1"/>
<g>
	<path class="st53" d="M263.8,357c-1.9,4.5-6.1,3.7-6.7,3.4l-16.6-9.4c-0.6-0.3-1-1.1-1-1.8l-1-17.6c0-0.7,0.5-0.9,1-0.6l26.6,15.4
		c0.6,0.3,1,1.1,1,1.8L263.8,357L263.8,357z M269.8,344.7l-32.1-20c-0.8-0.5-2.1,1.1-2.1,2.1V350c0,0.9,0.7,2.1,1.5,2.5l20.1,11.8
		c0.8,0.5,7.1,1.7,9.6-3.1l4.5-14C271.3,346.3,270.6,345.2,269.8,344.7 M303.1,385.9c0,0.7-0.5,0.9-1,0.6L284,375.9
		c-2.1-1.1-3.3-4-4.3-8.5l-2.6-13.6c0-0.7,0.5-0.9,1-0.6l24.5,13.9c0.6,0.3,1,1.1,1,1.8L303.1,385.9L303.1,385.9z M308,364.7
		l-34.7-18.1c-0.8-0.5-1.5-0.1-1.5,0.8l4,20.2c0,0.9,1,7.2,6.3,10.7l22.8,14.7c0.8,0.5,2.6-0.4,2.6-1.9v-23.2
		C307.5,367,308.8,365.2,308,364.7"/>
	<path class="st53" d="M268.3,343.8l7.7,4.2l0.7,7.4l-1.3-1.3c-1.9-1.9-4.5-3-7.3-3h-1.3L268.3,343.8"/>
</g>
<g>
	<path class="st4" d="M262.5,358c-1.9,4.5-6.1,3.7-6.7,3.4l-16.6-9.4c-0.6-0.3-1-1.1-1-1.8l-1-17.6c0-0.7,0.5-0.9,1-0.6l26.6,15.4
		c0.6,0.3,1,1.1,1,1.8L262.5,358L262.5,358z M268.5,345.6l-32.7-18.8c-0.8-0.5-1.5-0.1-1.5,0.8v23.2c0,0.9,0.7,2.1,1.5,2.5
		l20.1,11.8c0.8,0.5,7.1,1.7,9.6-3.1l4.5-14C269.9,347.2,269.3,346.1,268.5,345.6 M301.7,386.9c0,0.7-0.5,0.9-1,0.6l-18.1-10.6
		c-2.1-1.1-3.3-4-4.3-8.5l-2.6-13.6c0-0.7,0.5-0.9,1-0.6l24.5,13.9c0.6,0.3,1,1.1,1,1.8L301.7,386.9L301.7,386.9z M304.7,366.3
		L272,347.5c-0.8-0.5-1.5-0.1-1.5,0.8l4,20.2c0,0.9,1,7.2,6.3,10.7l23.9,13.7c0.8,0.5,1.5,0.1,1.5-0.8v-23.2
		C306.1,367.9,305.5,366.8,304.7,366.3L304.7,366.3z"/>
	<path class="st4" d="M267.6,345.1l6.6,3.6l0.7,7.4l-1.3-1.3c-1.9-1.9-4.5-3-7.3-3l-0.3,0.6L267.6,345.1L267.6,345.1z M305.8,368.1
		l4.3-1l15.3-12.6c0,0,9.3-29.9,17-39.4c0.7-0.9,3.6-1.5,4.4-0.1c2.6,4-5.9,7.4-5.9,7.4L327,359l-15.7,13.8l-5.4,4.5L305.8,368.1"/>
</g>
<path class="st0" d="M180.4,273.3v-0.2V273c0.8-3.9-1.3-7.9-6.4-10.9c-4.4-2.5-10.3-3.7-16.2-3.7c-6,0-11.8-1.5-16.1-3.9l-17.5-7.8
	l-67.3-38.9c-3.4-2-5.5-4.6-5.4-7.4c0-2.7-1.7-5.5-5.2-7.5c-4.4-2.6-10.7-3.5-16.7-2.8l-4.5,0.4c0,0,4.5,1,4.5,3.5l8.4,4.9l1.2,1.7
	l-2.4,2.2l-5.6,2.2l-8.7-0.4l-9.4-5c-0.5,0.6-9.2,1.1-9.3,1.7l3.2,4.1l5.3,0.6c0.1,2.5,2.5,5.3,5.7,7.1s7.2,2.8,11.5,3
	c5.1,0.2,9.9,1.4,13.5,3.5l69.5,40.1l12.3,8.8c4.5,2.6,7.1,6.1,7.5,9.7c0.4,3.1,2.6,6,6.5,8.3c5.3,3.1,4,5.4,10.5,3.8l10.2-4.3
	l-10.9-6.8l-0.3-2.7l4.2-3.7l8.1-3l8.9,2.1l0.3,6.4C172.3,277.5,178.1,274.6,180.4,273.3C180.4,273.4,180.4,273.4,180.4,273.3"/>
<path class="st54" d="M180.7,273.6v-0.2v-0.2c0.8-3.9-1.3-8-6.4-10.9c-4.4-2.5-10.3-3.7-16.2-3.7c-6,0-11.8-1.5-16.1-3.9l-17.5-7.8
	l-46.8-27l-5.2,3l84.7,48.7l3.9-1.4l8.9,2.1l0.3,6.4C172.6,277.8,178.4,274.9,180.7,273.6C180.7,273.7,180.7,273.6,180.7,273.6
	L180.7,273.6z"/>
<path class="st49" d="M163.9,266.4c-4.4-2.5-10.3-3.7-16.2-3.7c-6,0-11.8-1.5-16.1-3.9l-17.5-7.8l-67.4-39c-3.4-2-5.5-4.6-5.4-7.4
	c0-2.7-21.8-14.3-21.8-14.3v4l8.4,4.9l3,4.1l-4.2,3.8l-5.6,2.2l-8.7-0.4l-7.6-4l0.6-0.4c0-0.2-3.2-2.6-3.2-2.6v4.5
	c0.1,2.5,2.5,5.3,5.7,7.1s7.2,2.8,11.5,3c5.1,0.2,9.9,1.4,13.5,3.5l69.5,40.1l12.3,8.8c4.5,2.6,7.1,6.1,7.5,9.7
	c0.4,3.1,2.6,6,6.5,8.3c5.3,3.1,14.3,5.1,20.7,3.5v-4l-11.4-5.8l-0.3-3.2l4.7-4.1l8.1-3l8.9,2.1l10.5,6.1
	C171.4,274.1,169.4,269.6,163.9,266.4"/>
<path class="st50" d="M147.6,258.7c-6,0-11.8-1.5-16.1-3.9L114,247l-67.3-39c-3.4-2-5.5-4.6-5.4-7.4c0-2.7-1.7-5.5-5.2-7.5
	c-4.4-2.6-10.7-3.5-16.7-2.8l8.4,4.9l3,4.1l-4.2,3.8l-5.6,2.2l-8.7-0.4l-9.4-5c-2.2,3,0.7,7.1,4.9,9.6c3.2,1.8,7.2,2.8,11.5,3
	c5.1,0.2,9.9,1.4,13.5,3.5l69.5,40.1l12.3,8.8c4.5,2.6,7.1,6.1,7.5,9.7c0.4,3.1,2.6,6,6.5,8.3c5.3,3.1,14.3,5.1,20.7,3.5l-10.9-6.8
	l-0.8-6.2l4.7-4.1l8.1-3l8.9,2.1l10.5,6.1c1.4-4.3-0.5-8.8-6.1-12C159.5,259.9,153.6,258.7,147.6,258.7"/>
<path class="st18" d="M39,200.2c-0.2-2.4-1.5-4.8-4.6-6.6c-3.9-2.3-9.8-3.9-15-3.3l8.4,4.9l3,4.1l-4.2,3.8l-5.6,2.2l-8.7-0.4l-9.4-5
	c-2,2.7,2.8,6.1,6.5,8.2c2.8,1.6,6.4,2.7,10.1,2.7C22.7,210.7,39.6,210.1,39,200.2 M164.3,263.9c-4.1-2.4-9.7-3.5-15.2-3.5
	c-8.8,0-26.6,4.4-24,14.8c0.7,2.8,2.4,5.6,6.1,7.8c5,2.9,12.1,4.8,18.2,3.3l-10.9-6.8l-0.8-6.2l4.7-4.1l8.1-3l8.9,2.1l10.5,6.1
	C171.3,270.4,169.5,266.9,164.3,263.9"/>
<path class="st49" d="M135.1,261.5l-96.6-55.6c-2,2.5-5.7,3.8-9.1,4.5l96.7,56C128.2,264.2,131.5,262.6,135.1,261.5"/>
<path class="st47" d="M252.9,161.8V10.4c0-2.7,2.3-4.9,5.1-4.9h239.8c2.8,0,5.1,2.2,5.1,4.9v151.4L252.9,161.8L252.9,161.8
	L252.9,161.8z"/>
<path class="st49" d="M502.9,161.8v20.8c0,2.9-2.3,5.2-5.1,5.2H258c-2.8,0-5.1-2.3-5.1-5.2v-20.8H502.9L502.9,161.8z"/>
<path class="st55" d="M341.4,224.3h72.9l-5.2-36.5h-62.5L341.4,224.3z"/>
<path class="st56" d="M409.1,187.8h-62.5l-3.2,22.8l66.9-14.3L409.1,187.8z"/>
<path class="st49" d="M323.2,224.3h109.4v5.2H323.2V224.3z"/>
<path class="st57" d="M346.6,187.8h62.5l0.4,2.5l-64.5,8.9L346.6,187.8z"/>
<path class="st41" d="M310.8,119.4h134.1v5.2H310.8V119.4z M283.4,135.6h189v5.2h-189V135.6z"/>
<circle class="st58" cx="307.1" cy="68.5" r="26.1"/>
<path class="st59" d="M305.2,80.1l-9.8-9.8l3.7-3.7l5.6,5.7l11.1-13.8l4.1,3.2L305.2,80.1z"/>
<ellipse transform="matrix(0.1602 -0.9871 0.9871 0.1602 249.0564 429.4074)" class="st58" cx="376.9" cy="68.3" rx="26.1" ry="26.1"/>
<path class="st59" d="M374.9,80.1l-9.8-9.8l3.7-3.7l5.7,5.7l11.1-13.8l4,3.2L374.9,80.1z"/>
<circle class="st58" cx="448.6" cy="68.5" r="26.1"/>
<path class="st59" d="M446.7,80.1l-9.8-9.8l3.7-3.7l5.7,5.7l11.1-13.8l4,3.2L446.7,80.1z"/>
</svg>
