<svg xmlns="http://www.w3.org/2000/svg" xmlns:xlink="http://www.w3.org/1999/xlink" width="356" height="207" fill="none" xmlns:v="https://vecta.io/nano"><style><![CDATA[.B{fill:#3b55ca}.C{fill:#000}.D{opacity:.3}.E{fill:#37474f}.F{fill:#263238}.G{fill:#455a64}.H{fill:#fafafa}]]></style><path d="M352.69 132.808L162 22.675a11.95 11.95 0 0 0-11.194 0L57.739 76.462a5.71 5.71 0 0 0-2.248 2.017c-.555.862-.868 1.858-.906 2.882v8.963c.037 1.026.35 2.023.905 2.887a5.72 5.72 0 0 0 2.249 2.022l190.69 110.132c1.726.908 3.647 1.383 5.597 1.383s3.871-.475 5.597-1.383l93.118-53.797a5.72 5.72 0 0 0 2.244-2.014c.555-.86.869-1.853.91-2.875v-9.015c-.053-1.022-.379-2.011-.942-2.865a5.74 5.74 0 0 0-2.263-1.992h0zm-200.4-98.622c1.289-.656 2.714-.998 4.16-.998a9.17 9.17 0 0 1 4.159.998l186.999 108.029-89.469 51.683a9.27 9.27 0 0 1-4.165.988c-1.446 0-2.872-.338-4.164-.988L62.821 85.869l89.469-51.683z" class="E"/><path d="M253.974 194.887c-1.439.008-2.857-.347-4.123-1.031L62.821 85.869 80.344 75.72 70.15 69.274l-12.451 7.22a5.71 5.71 0 0 0-2.248 2.017c-.555.862-.868 1.858-.906 2.882v8.932c.037 1.026.35 2.023.905 2.887a5.72 5.72 0 0 0 2.249 2.022l190.69 110.132c1.714.939 3.643 1.416 5.597 1.382h0l-.011-11.861z" class="F"/><path d="M352.69 132.808L162 22.675a11.95 11.95 0 0 0-11.194 0L57.74 76.462a5.38 5.38 0 0 0-2.294 1.987c-.558.869-.855 1.88-.855 2.913s.297 2.044.855 2.913a5.38 5.38 0 0 0 2.294 1.987l2.196 1.269 188.432 108.864c1.728.908 3.65 1.383 5.602 1.383s3.874-.475 5.602-1.383l90.902-52.519 2.217-1.278a5.38 5.38 0 0 0 2.296-1.983c.559-.868.856-1.879.856-2.911a5.38 5.38 0 0 0-.856-2.912 5.37 5.37 0 0 0-2.296-1.982h0zm-94.551 61.089a9.27 9.27 0 0 1-4.165.988c-1.446 0-2.872-.338-4.164-.988L62.821 85.869l89.47-51.683c1.288-.656 2.713-.998 4.159-.998a9.17 9.17 0 0 1 4.159.998l186.999 108.029-89.469 51.683z" class="G"/><path d="M351.247 140.11l-3.639 2.063L160.609 34.186a9.17 9.17 0 0 0-4.159-.998c-1.446 0-2.871.342-4.159.998l-89.47 51.683-3.639-2.114c-2.299-1.32-2.299-3.476 0-4.796l93.108-53.787c1.288-.656 2.713-.998 4.159-.998a9.17 9.17 0 0 1 4.159.998l190.689 110.133c2.247 1.33 2.247 3.496-.051 4.806z" class="F"/><path d="M156.444 33.185v-9.014c-1.439-.01-2.857.344-4.123 1.031L59.183 78.979c-2.299 1.32-2.299 3.476 0 4.796l3.639 2.114 89.47-51.683c1.273-.693 2.704-1.045 4.153-1.021h0z" class="E"/><path d="M334.672 139.955a1.44 1.44 0 0 0-.261-.686c-.144-.202-.338-.364-.564-.469l-46.59-26.94c-.64-.32-1.345-.487-2.061-.487a4.61 4.61 0 0 0-2.062.487l-77.76 44.928a1.42 1.42 0 0 0-.594.479c-.151.21-.241.458-.261.717v2.207a1.42 1.42 0 0 0 .261.718c.151.21.356.376.594.479l46.518 26.919c.639.324 1.345.492 2.062.492s1.422-.168 2.061-.492l77.832-44.948c.236-.104.439-.268.589-.477s.243-.453.267-.709l-.031-2.218z" class="B"/><path opacity=".55" d="M253.974 186.585v2.196c-.716.009-1.424-.157-2.061-.484l-46.559-26.899c-.236-.11-.438-.281-.587-.495a1.48 1.48 0 0 1-.259-.722v-2.197c.023.256.113.502.261.712a1.45 1.45 0 0 0 .585.484l46.559 26.899a4.12 4.12 0 0 0 2.061.506z" class="C"/><path d="M286.505 111.571h-2.649a4.83 4.83 0 0 1 2.649 0h0z" class="B"/><path opacity=".45" d="M334.672 140.12v2.063a1.45 1.45 0 0 1-.267.713c-.15.211-.353.377-.588.483l-77.76 44.928c-.638.327-1.346.493-2.062.485v-2.197c.719.011 1.429-.163 2.062-.506l77.79-44.927a1.64 1.64 0 0 0 .525-.432c.142-.18.244-.388.3-.61h0z" class="C"/><use xlink:href="#B" class="B"/><use xlink:href="#B" class="C D"/><g class="B"><path d="M250.82 172.269l-9.091 5.25c-.227.134-.33.288-.216.35a.77.77 0 0 0 .317.002c.104-.021.203-.064.291-.125l8.792-5.085 3.041 1.753a.22.22 0 0 0 .098.023c.034 0 .067-.008.098-.023l4.7-2.723c.031-.015.056-.039.075-.068s.028-.062.028-.097v-3.507l7.308-4.228c.3.086.621.053.897-.093.319-.175.319-.464 0-.65-.175-.086-.367-.131-.562-.131s-.387.045-.562.131c-.247.144-.299.351-.154.526l-7.216 4.126c-.03.015-.056.038-.075.068s-.028.062-.028.097v3.506l-4.504 2.61-3.041-1.753c-.033-.01-.069-.011-.103-.004s-.066.023-.093.045zm-2.422 9.097l13.606-7.849c.028-.021.05-.047.066-.077s.026-.064.027-.099v-3.517l3.174-1.825c.301.075.618.042.897-.093.32-.186.32-.475 0-.65a1.21 1.21 0 0 0-.562-.139c-.195 0-.388.048-.561.139-.248.134-.299.34-.155.516l-3.092 1.774c-.029.019-.053.045-.069.076s-.025.064-.024.099v3.517l-13.688 7.911c-.237.134-.33.289-.227.351a.79.79 0 0 0 .318-.004.8.8 0 0 0 .29-.13h0zm76.863-44.856l-16.729 9.664c-.03.016-.054.04-.07.069a.18.18 0 0 0-.023.096v3.518l-38.375 22.164c-.3-.084-.62-.051-.896.093-.31.175-.31.464 0 .65a1.29 1.29 0 0 0 1.133 0c.237-.145.289-.351.155-.526l38.272-22.093c.026-.019.048-.044.064-.072a.23.23 0 0 0 .029-.093v-3.517l16.832-9.726c.227-.134.33-.289.216-.351a.8.8 0 0 0-.316 0c-.105.022-.204.064-.292.124h0zm-73.74 46.64l13.606-7.859a.21.21 0 0 0 .068-.071c.016-.029.025-.061.025-.094v-3.517l7.287-4.208a1.27 1.27 0 0 0 .918-.093c.309-.176.309-.464 0-.65-.177-.087-.371-.132-.567-.132a1.28 1.28 0 0 0-.567.132c-.237.144-.289.34-.155.516l-7.215 4.125c-.029.017-.053.041-.069.07s-.025.062-.024.095v3.517l-13.699 7.911c-.226.134-.329.289-.226.351a.81.81 0 0 0 .318.015c.106-.016.208-.053.3-.108h0z"/><path d="M298.606 121.111l-5.752 3.322a.19.19 0 0 0-.073.068c-.018.029-.028.062-.03.097v3.517l-5.741 3.321a1.26 1.26 0 0 0-.897.082.35.35 0 0 0-.168.129c-.042.059-.064.129-.064.201a.35.35 0 0 0 .232.33 1.26 1.26 0 0 0 1.124 0c.247-.144.299-.35.154-.526l5.649-3.259c.029-.017.054-.041.072-.069s.029-.062.031-.096v-3.517l5.855-3.383c.226-.134.33-.289.216-.351a.79.79 0 0 0-.318.004.8.8 0 0 0-.29.13h0zm29.799 17.204l-8.462 4.889a1.36 1.36 0 0 0-.907.093c-.31.186-.31.474 0 .65.175.091.369.139.566.139a1.23 1.23 0 0 0 .567-.139c.248-.134.289-.341.155-.516l8.462-4.889c.227-.134.33-.289.227-.351-.104-.023-.212-.024-.317-.002s-.204.064-.291.126h0zm-63.783-6.302l1.278.743-4.061 2.341h-6.185a.18.18 0 0 0-.103 0l-7.833 4.528c-.03.016-.056.04-.074.069s-.028.062-.029.096v3.631c.002.033.012.066.03.095s.043.053.073.07l1.278.732-9.102 5.26c-.03.016-.055.04-.073.069s-.029.062-.03.096v3.517l-4.525 2.62-4.494-2.579v-3.403l12.596-7.22c.3.081.619.048.897-.093.069-.021.129-.065.172-.123a.34.34 0 0 0-.172-.527 1.21 1.21 0 0 0-1.124 0c-.247.134-.289.351-.155.516l-12.503 7.22c-.027.018-.05.042-.066.071s-.025.061-.026.094v3.63c.001.033.01.065.026.094s.039.053.066.071l4.412 2.496-15.08 8.705c-.227.134-.319.299-.216.361a.83.83 0 0 0 .608-.134l15.028-8.725 1.381.794v3.445l-12.029 7.013c-.226.134-.329.289-.226.351a.79.79 0 0 0 .318-.004c.104-.023.203-.067.29-.13l11.988-6.931c.03-.015.055-.039.072-.068s.024-.063.02-.097v-3.672c0-.033-.009-.066-.025-.094a.19.19 0 0 0-.067-.071l-1.279-.743 4.433-2.557c.027-.019.05-.043.066-.072s.025-.061.026-.093v-3.518l9.123-5.311 10.596 6.116-15.389 8.891a.21.21 0 0 0-.074.074c-.018.031-.028.065-.029.101v5.322l-12.132 7.003c-.227.134-.32.289-.217.351.104.022.212.023.317.002s.204-.064.291-.126l12.029-6.952c.03-.018.056-.044.074-.074s.028-.066.029-.101v-5.322l15.461-8.942 7.649 4.414v3.404l-29.377 16.966c-.227.134-.33.289-.227.351a.76.76 0 0 0 .361.022.75.75 0 0 0 .33-.146l29.284-16.915c.03-.016.055-.04.073-.068s.029-.063.03-.097v-3.63a.19.19 0 0 0-.03-.096c-.018-.029-.043-.053-.073-.069l-7.545-4.363 5.545-3.208a1.2 1.2 0 0 0 .897-.093c.319-.175.319-.464 0-.649a1.26 1.26 0 0 0-1.124 0c-.247.144-.299.35-.154.526l-5.556 3.207-10.586-6.126 8.988-5.157c.304.074.625.041.907-.093.31-.186.31-.474 0-.65a1.23 1.23 0 0 0-.567-.139c-.197 0-.391.048-.566.139-.248.134-.289.341-.155.516l-8.999 5.157-1.37-.794v-3.404l7.699-4.445h6.185a.18.18 0 0 0 .103 0l4.298-2.486 4.319 2.496-13.049 7.54c-.3-.084-.621-.051-.897.093-.069.021-.13.064-.173.123a.34.34 0 0 0 .173.526c.175.092.369.139.567.139a1.22 1.22 0 0 0 .567-.139c.237-.134.288-.35.154-.515l13.008-7.55 4.319 2.496-8.802 5.085c-.304-.085-.628-.052-.907.092-.07.022-.13.065-.173.124a.34.34 0 0 0 0 .403c.043.058.103.102.173.123.175.091.369.139.566.139a1.23 1.23 0 0 0 .567-.139c.237-.144.289-.351.155-.516l8.813-5.095 7.452 4.312-2.752 1.588-3.041-1.753c-.028-.02-.063-.03-.097-.03s-.069.01-.098.03l-3.546 2.062c-.301-.074-.618-.041-.897.093-.309.186-.309.475 0 .65a1.21 1.21 0 0 0 1.124 0c.247-.134.299-.34.165-.516l3.257-1.877 3.04 1.753c.029.016.061.024.093.024a.19.19 0 0 0 .093-.024l3.041-1.753 2.752 1.588-14.647 8.458c-.304-.08-.626-.047-.907.093-.31.185-.31.474 0 .65.175.091.369.138.567.138a1.23 1.23 0 0 0 .567-.138c.237-.135.288-.351.154-.516l14.657-8.468 1.371.794v3.404l-9.276 5.373c-.031.019-.056.045-.074.075s-.028.065-.029.101v3.506l-5.742 3.322c-.299-.087-.621-.053-.897.092a.34.34 0 0 0-.172.527c.043.058.103.102.172.123a1.26 1.26 0 0 0 1.124 0c.247-.144.289-.35.155-.516l5.648-3.269c.031-.015.057-.039.075-.068s.028-.063.028-.097v-3.517l9.277-5.374c.029-.016.053-.04.069-.069a.19.19 0 0 0 .024-.096v-3.63c.001-.034-.008-.066-.024-.095s-.04-.054-.069-.07l-1.278-.733 7.555-4.362c.028-.021.051-.047.067-.077s.025-.064.026-.099v-3.506l15.266-8.819c.226-.134.329-.289.216-.351-.211-.04-.43.004-.608.124l-15.163 8.767c-.03.015-.056.039-.074.068s-.028.063-.029.097v3.517l-7.638 4.415-2.752-1.589 4.412-2.547c.029-.019.053-.045.069-.076s.024-.065.024-.1v-3.506l18.399-10.634c.237-.134.33-.289.226-.351-.105-.02-.213-.019-.317.004s-.204.068-.291.13l-18.306 10.572c-.029.016-.054.04-.07.069a.18.18 0 0 0-.023.096v3.517l-4.514 2.599-7.391-4.332 7.556-4.362c.026-.02.048-.044.064-.073s.026-.06.028-.092v-7.138l12.122-7.003c.237-.134.33-.299.227-.361a.79.79 0 0 0-.318.004.77.77 0 0 0-.29.13l-12.029 6.952c-.03.016-.054.04-.071.069s-.024.062-.022.096v7.137l-7.648 4.415-4.319-2.496 7.545-4.363a.19.19 0 0 0 .075-.068c.018-.029.028-.063.028-.097v-5.322l13.689-7.911c.226-.134.329-.289.226-.351a.77.77 0 0 0-.317-.003c-.105.022-.204.065-.291.127l-13.637 7.911c-.03.015-.056.039-.075.068s-.028.062-.028.097v5.322l-7.669 4.373-4.318-2.496 7.122-4.126c.3.087.621.053.897-.092.069-.022.13-.065.172-.124a.34.34 0 0 0 .067-.201.34.34 0 0 0-.067-.202c-.042-.058-.103-.102-.172-.123a1.26 1.26 0 0 0-1.124 0c-.247.144-.299.35-.154.515l-7.123 4.126-1.381-.794v-3.404l23.109-13.346c.227-.124.33-.289.217-.351a.81.81 0 0 0-.318.005c-.104.023-.203.067-.29.129l-23.007 13.285c-.027.02-.05.046-.066.077s-.025.064-.026.098v3.62a.19.19 0 0 0 .113.165zm57.506 2.661l-16.729 9.665a.21.21 0 0 0-.074.074c-.018.031-.028.065-.03.101v3.569l-15.306 8.839a1.33 1.33 0 0 0-.897.092c-.309.186-.309.475 0 .65a1.23 1.23 0 0 0 1.134 0c.237-.134.288-.34.154-.516l15.204-8.787c.031-.015.057-.039.075-.068s.028-.063.028-.097v-3.517l16.822-9.757c.227-.134.33-.289.217-.351a.77.77 0 0 0-.31-.009c-.103.017-.201.056-.288.112zm-18.811-10.85L299.554 126a1.25 1.25 0 0 0-.896.083c-.068.024-.127.069-.169.128s-.063.13-.063.202.022.143.063.202.101.103.169.128c.174.086.366.131.561.131s.387-.045.562-.131c.247-.145.299-.351.155-.526l3.762-2.166c.227-.134.33-.289.227-.351a.77.77 0 0 0-.317-.003c-.105.022-.204.065-.291.127h0zm-86.285 39.42l5.752-3.321a.21.21 0 0 0 .072-.07c.018-.028.029-.061.031-.095v-3.517l4.174-2.414c.3.087.621.053.897-.092.309-.176.309-.465 0-.65a1.26 1.26 0 0 0-.562-.132c-.194 0-.387.045-.561.132-.248.144-.299.35-.155.516l-4.123 2.361c-.03.017-.055.04-.073.069s-.029.062-.03.096v3.517l-5.855 3.383c-.227.135-.33.289-.216.351a.79.79 0 0 0 .649-.134zm-6.277-3.62l3.762-2.176a1.26 1.26 0 0 0 .897-.083.35.35 0 0 0 0-.66c-.175-.086-.367-.131-.562-.131s-.387.045-.562.131c-.247.144-.299.351-.154.526l-3.763 2.166c-.237.134-.329.299-.226.361a.84.84 0 0 0 .608-.134h0zm3.133 1.867l5.762-3.332c.031-.015.057-.038.075-.068s.028-.062.028-.097v-3.517l5.742-3.311c.3.075.617.042.896-.092.31-.186.31-.475 0-.65-.173-.091-.366-.139-.561-.139a1.21 1.21 0 0 0-.562.139c-.248.134-.299.34-.165.516l-5.669 3.207c-.028.02-.051.047-.067.077s-.025.064-.026.099v3.506l-5.855 3.383c-.226.134-.33.289-.226.351.103.034.213.045.322.032a.76.76 0 0 0 .306-.104h0z"/><path d="M259.829 127.455v3.403l-2.196 1.269c-.303-.08-.625-.047-.907.093-.069.021-.129.064-.172.123a.34.34 0 0 0 0 .403c.043.059.103.102.172.123a1.22 1.22 0 0 0 .567.139c.198 0 .392-.047.567-.139.237-.134.289-.35.155-.515l2.061-1.217c.03-.016.054-.04.071-.069a.17.17 0 0 0 .022-.096v-3.734l-.34.217zm54.434 2.712l-13.596 7.859c-.028.018-.051.042-.067.071s-.025.061-.025.094v7.138l-17.152 9.901c-.029.019-.053.045-.069.076s-.024.065-.024.099v5.322l-5.442 3.095a1.26 1.26 0 0 0-.897.092c-.069.022-.13.065-.173.124a.34.34 0 0 0 .173.526 1.21 1.21 0 0 0 1.124 0c.247-.134.299-.35.154-.515l5.35-3.095c.026-.019.048-.044.064-.072a.23.23 0 0 0 .029-.093v-5.28l17.151-9.902c.029-.019.053-.045.069-.076s.025-.065.024-.099v-7.127l13.699-7.911c.227-.134.33-.299.227-.361a.8.8 0 0 0-.323.005c-.106.023-.207.067-.296.129h0zm3.165 1.815l-4.196 2.414c-.026.019-.048.044-.064.072s-.026.06-.028.093v1.702l-5.742 3.321a1.24 1.24 0 0 0-.907.093c-.069.021-.129.064-.172.123a.34.34 0 0 0-.067.202.34.34 0 0 0 .067.201c.043.059.103.102.172.123.177.087.371.132.567.132a1.28 1.28 0 0 0 .567-.132c.247-.144.289-.35.155-.515l5.648-3.27c.03-.016.054-.039.071-.069a.17.17 0 0 0 .022-.096v-1.702l4.288-2.475c.227-.134.33-.289.227-.351a.79.79 0 0 0-.318.004c-.105.023-.204.068-.29.13h0zm-69.844 34.903l-12.122 6.982c-.237.135-.33.289-.227.351.105.021.214.019.318-.004a.77.77 0 0 0 .29-.13l12.029-6.952c.031-.015.057-.038.075-.068s.028-.062.028-.097v-3.506l8.875-5.157a1.25 1.25 0 0 0 .907-.093c.309-.175.309-.464 0-.65a1.29 1.29 0 0 0-.567-.131 1.3 1.3 0 0 0-.567.131c-.237.144-.288.351-.154.526l-8.782 5.075a.18.18 0 0 0-.075.067c-.018.03-.028.063-.028.098v3.558zm-6.267-3.62l-12.132 7.003c-.227.134-.33.299-.217.35.105.023.213.024.317.002a.77.77 0 0 0 .291-.125l12.029-6.942c.03-.015.054-.039.071-.069a.17.17 0 0 0 .022-.096v-7.137l5.752-3.321c.299.084.62.051.896-.093.31-.175.31-.464 0-.65a1.29 1.29 0 0 0-1.133 0c-.237.145-.289.351-.155.526l-5.649 3.26a.19.19 0 0 0-.069.069c-.016.029-.024.062-.023.096v7.127z"/></g><path d="M226.793 163.636a.74.74 0 0 0 .134.35c.074.103.174.185.289.238l14.029 8.107a2.11 2.11 0 0 0 1.03.247v2.228c-.359.009-.714-.076-1.03-.248l-13.4-7.756c-.567-.33-1.031-.526-1.031-1.175l-.021-1.991z" class="F"/><path d="M243.306 172.331l14.018-8.107c.123-.044.229-.124.304-.23a.63.63 0 0 0 0-.726c-.075-.106-.181-.187-.304-.23l-14.028-8.097c-.319-.164-.672-.25-1.031-.25s-.712.086-1.031.25l-14.028 8.097c-.123.043-.229.124-.304.23a.63.63 0 0 0 0 .726c.075.106.181.186.304.23l14.028 8.107c.321.164.676.25 1.036.25s.716-.086 1.036-.25h0z" class="G"/><path d="M257.747 163.667v1.949c0 .65-.454.846-1.031 1.176l-13.4 7.756c-.316.171-.671.256-1.03.248v-2.228c.359.006.713-.079 1.03-.248l14.019-8.106c.108-.05.203-.126.275-.222s.119-.207.137-.325z" class="E"/><path d="M254.181 163.399c.048.069.073.152.072.237-.007.106-.043.207-.102.294a.58.58 0 0 1-.238.201l-10.916 6.312a1.55 1.55 0 0 1-1.443 0l-10.926-6.312c-.096-.044-.178-.114-.238-.201s-.095-.188-.102-.294a.62.62 0 0 1 .103-.297.61.61 0 0 1 .237-.208l10.926-6.302a1.55 1.55 0 0 1 1.443 0l10.916 6.302c.113.061.206.154.268.268h0zm-23.584.33c.04.069.102.123.175.155l10.926 6.312c.179.091.377.139.577.139a1.28 1.28 0 0 0 .578-.139l10.915-6.312a.26.26 0 0 0 .149-.09c.037-.046.058-.104.058-.163a.26.26 0 0 0-.207-.253l-10.915-6.312c-.182-.089-.381-.136-.583-.136a1.32 1.32 0 0 0-.582.136l-10.916 6.312c-.134.072-.206.165-.206.258.001.033.011.066.031.093h0zm19.337-.176a.34.34 0 0 1 0 .135c-.004.06-.023.118-.055.168a.35.35 0 0 1-.131.12l-7.215 4.126a.89.89 0 0 1-.345.069c-.119 0-.236-.023-.346-.069l-7.215-4.126c-.055-.024-.102-.063-.135-.114a.31.31 0 0 1 0-.339c.033-.05.08-.09.135-.114l7.215-4.126c.108-.053.226-.081.346-.081s.238.028.345.081l7.215 4.126c.073.032.137.082.186.144h0zm-15.142.135l7.215 4.125a.67.67 0 0 0 .402 0l7.216-4.125-7.216-4.126c-.062-.03-.131-.046-.201-.046a.47.47 0 0 0-.201.046l-7.215 4.126z" fill="#f5f5f5"/><use xlink:href="#C" class="B"/><use xlink:href="#C" class="C D"/><path d="M228.711 138.676l-33.119-19.163a3.88 3.88 0 0 1-1.422-1.442c-.339-.598-.513-1.275-.505-1.962v-.206c-.001-.69-.185-1.368-.533-1.964s-.846-1.089-1.446-1.429l-25.254-14.388 11.679-6.766 25.284 14.604a3.92 3.92 0 0 1 1.425 1.432c.342.593.522 1.266.523 1.951h0c.001.685.182 1.358.523 1.952s.834 1.087 1.425 1.431l33.16 19.153-11.74 6.797z" class="B"/><path d="M205.56 113.758a3.92 3.92 0 0 1-1.425-1.432c-.342-.593-.522-1.266-.523-1.951v-.217c-.002-.689-.184-1.365-.53-1.961s-.842-1.09-1.439-1.432l-25.264-14.378-.794.454 25.295 14.388a3.91 3.91 0 0 1 1.447 1.43c.347.596.531 1.273.532 1.963v.217c0 .684.18 1.356.522 1.948a3.89 3.89 0 0 0 1.426 1.424l33.16 19.164.793-.464-33.2-19.153zm-3.711 2.145a3.92 3.92 0 0 1-1.425-1.431c-.342-.594-.522-1.267-.523-1.952v-.217c-.001-.69-.185-1.367-.533-1.963s-.846-1.089-1.446-1.43l-25.254-14.377-.803.454 25.263 14.388a3.91 3.91 0 0 1 1.441 1.432c.346.596.528 1.272.528 1.962v.247c0 .684.18 1.356.522 1.948a3.89 3.89 0 0 0 1.426 1.425l33.159 19.163.804-.464-33.159-19.184zm-3.721 2.145a3.92 3.92 0 0 1-1.425-1.431c-.342-.594-.522-1.267-.523-1.952v-.216c-.001-.689-.184-1.365-.529-1.961a3.92 3.92 0 0 0-1.44-1.433l-25.284-14.377-.794.464 25.254 14.378a3.88 3.88 0 0 1 1.449 1.428c.348.596.531 1.274.53 1.965v.216c.001.685.181 1.358.523 1.952a3.92 3.92 0 0 0 1.425 1.431l33.159 19.153.794-.464-33.139-19.153z" class="H"/><path d="M223.371 137.707c.012.128.057.25.132.355a.73.73 0 0 0 .291.243l8.339 4.817a2.22 2.22 0 0 0 1.03.237v2.228c-.359.008-.714-.077-1.03-.248l-7.731-4.466c-.567-.32-1.031-.516-1.031-1.176v-1.99z" class="F"/><path d="M234.194 143.111l14.018-8.096a.62.62 0 0 0 .314-.229.63.63 0 0 0 0-.739.62.62 0 0 0-.314-.229l-8.338-4.806a2.24 2.24 0 0 0-2.062 0l-14.028 8.107c-.123.043-.229.124-.304.23a.63.63 0 0 0 0 .726c.075.106.181.186.304.23l8.338 4.806c.321.165.676.251 1.036.251a2.26 2.26 0 0 0 1.036-.251h0z" class="G"/><path d="M248.635 134.448v1.959c0 .66-.454.856-1.031 1.176l-13.4 7.756c-.316.171-.671.256-1.03.248v-2.228a2.06 2.06 0 0 0 1.03-.237l14.019-8.107a.74.74 0 0 0 .277-.232c.072-.099.118-.214.135-.335z" class="E"/><path d="M245.069 134.179c.043.072.068.154.072.238-.008.106-.044.208-.104.297a.62.62 0 0 1-.236.208l-10.937 6.302a1.56 1.56 0 0 1-.721.177c-.251 0-.499-.061-.722-.177l-5.236-3.012c-.095-.048-.177-.119-.236-.208a.61.61 0 0 1-.104-.297.59.59 0 0 1 .102-.295c.06-.087.142-.156.238-.2l10.926-6.313c.224-.111.471-.169.722-.169a1.62 1.62 0 0 1 .721.169l5.226 3.022c.12.055.221.145.289.258h0zm-17.863 3.631c.046.064.106.116.175.155l5.236 3.022a1.34 1.34 0 0 0 .577.131c.2 0 .398-.045.578-.131l10.884-6.313c.059-.011.111-.043.149-.089s.058-.104.058-.163a.26.26 0 0 0-.058-.163c-.038-.047-.09-.078-.149-.09l-5.226-3.022a1.28 1.28 0 0 0-1.164 0l-10.916 6.312c-.134.072-.206.165-.206.248a.19.19 0 0 0 .031.062l.031.041zm13.616-3.497c.01.048.01.097 0 .145a.34.34 0 0 1-.056.163c-.033.049-.077.089-.13.115l-7.215 4.126a.91.91 0 0 1-.345.069c-.119 0-.236-.024-.345-.069l-1.547-.856c-.052-.027-.096-.066-.129-.115s-.052-.105-.056-.164c.003-.058.022-.115.055-.164s.078-.089.13-.114l7.216-4.126a.74.74 0 0 1 .69 0l1.485.856a.37.37 0 0 1 .137.042c.042.023.08.055.11.092zm-9.452 3.456l1.536.856c.132.051.28.051.412 0l7.215-4.126-1.484-.846c-.063-.03-.131-.046-.201-.046s-.138.016-.201.046h0l-7.215 4.126-.062-.01z" fill="#f5f5f5"/><use xlink:href="#D" class="B"/><g class="C"><use xlink:href="#D" class="D"/><path opacity=".15" d="M184.388 98.142l-58.516-33.799a1.48 1.48 0 0 1-.608-1.351v-1.96c.021-.67.205-1.325.536-1.908l58.516 33.799a4.18 4.18 0 0 0-.536 1.918v1.96c-.033.258.007.52.114.757a1.41 1.41 0 0 0 .494.584h0z"/><path opacity=".25" d="M183.759 96.771v-1.949c.038-.721.244-1.423.602-2.05s.858-1.161 1.46-1.56l38.756-22.381c1.144-.67 2.062-.124 2.062 1.196v1.96c-.039.719-.245 1.42-.604 2.045s-.857 1.157-1.458 1.555l-38.756 22.392c-1.134.66-2.062.124-2.062-1.207z"/></g><use xlink:href="#E" class="B"/><use xlink:href="#E" class="C D"/><use xlink:href="#F" class="B"/><use xlink:href="#F" class="C D"/><use xlink:href="#G" class="B"/><use xlink:href="#G" class="C D"/><use xlink:href="#H" class="B"/><use xlink:href="#H" class="C D"/><path d="M189.016 90.933v3.094a1.37 1.37 0 0 1-.185.617c-.109.188-.261.348-.444.466l-.474.268a.73.73 0 0 1-.196.082.52.52 0 0 1-.061-.268v-3.094c.018-.209.084-.41.193-.589a1.36 1.36 0 0 1 .435-.442l.464-.268a.78.78 0 0 1 .206-.082.5.5 0 0 1 .062.217zm2.783-1.64v3.094c-.011.216-.072.427-.18.615a1.39 1.39 0 0 1-.438.468l-.464.278c-.069.032-.142.056-.216.072-.044-.079-.065-.168-.062-.258v-3.094a1.41 1.41 0 0 1 .197-.587 1.42 1.42 0 0 1 .431-.445l.475-.268c.064-.036.133-.061.206-.072a.46.46 0 0 1 .051.196h0zm2.773-1.578v3.094c-.012.217-.076.429-.185.617s-.261.348-.444.466l-.464.268a.48.48 0 0 1-.216.072.6.6 0 0 1-.052-.258V88.88a1.36 1.36 0 0 1 .191-.587c.107-.179.253-.331.428-.444l.474-.268a.48.48 0 0 1 .206-.082.5.5 0 0 1 .062.217h0zm2.773-1.599v3.094c-.011.216-.073.427-.181.615a1.39 1.39 0 0 1-.438.468l-.474.268c-.061.037-.127.065-.196.082-.043-.079-.064-.168-.062-.258v-3.094a1.4 1.4 0 0 1 .193-.586c.107-.178.252-.331.426-.446l.474-.268a.49.49 0 0 1 .206-.072.56.56 0 0 1 .052.196h0z" class="B"/><path d="M129.604 93.047a1.43 1.43 0 0 0-.262-.717c-.151-.211-.356-.377-.594-.479l-6.205-3.651c-.639-.324-1.345-.492-2.062-.492a4.56 4.56 0 0 0-2.061.492l-6.772 3.888c-.235.105-.439.269-.591.478s-.247.452-.275.709v2.878a1.49 1.49 0 0 0 .267.718 1.48 1.48 0 0 0 .589.489l6.246 3.651a4.54 4.54 0 0 0 2.061.494c.717 0 1.423-.169 2.062-.494l6.793-3.899c.239-.106.445-.275.596-.49s.24-.466.259-.727l-.051-2.847z" class="E"/><path d="M117.801 98.153l-6.246-3.703a1.27 1.27 0 0 1-.861-1.201 1.27 1.27 0 0 1 .861-1.202l6.772-3.888c.639-.324 1.345-.492 2.062-.492a4.56 4.56 0 0 1 2.061.492l6.247 3.651c.251.085.469.247.623.462s.238.474.238.739-.083.524-.238.739-.372.377-.623.462l-6.793 3.899c-.634.323-1.335.496-2.046.503a4.61 4.61 0 0 1-2.057-.461h0z" class="G"/><path d="M119.884 98.658v2.847a4.29 4.29 0 0 1-2.062-.495l-6.246-3.651a1.47 1.47 0 0 1-.856-1.207v-2.867a.8.8 0 0 1 0-.155 1.4 1.4 0 0 0 .207.815c.152.244.374.435.638.547l6.247 3.661c.635.345 1.349.519 2.072.505h0z" class="F"/><use xlink:href="#I" class="B"/><use xlink:href="#I" class="C D"/><path d="M116.276 92.738c1.221.616 2.57.936 3.937.936s2.717-.321 3.938-.936c2.164-1.258 2.164-3.29 0-4.548-1.218-.62-2.566-.944-3.932-.944s-2.715.323-3.933.944c-2.185 1.258-2.175 3.29-.01 4.548z" class="B"/><path d="M124.275 90.84c0 .051 0 .113-.073.175-.24.418-.599.755-1.03.969-.918.413-1.912.626-2.917.626s-2-.213-2.917-.626a2.38 2.38 0 0 1-1.031-.969c0-.062-.052-.124-.072-.175-.227-.67.154-1.382 1.144-1.898.916-.418 1.91-.634 2.917-.634a7.03 7.03 0 0 1 2.917.634c.907.516 1.288 1.227 1.062 1.898z" class="E"/><path d="M124.202 91.015a2.44 2.44 0 0 1-1.03.97 7.11 7.11 0 0 1-2.917.626c-1.006 0-2-.213-2.917-.626a2.38 2.38 0 0 1-1.031-.97 2.33 2.33 0 0 1 1.031-.969 7.02 7.02 0 0 1 2.917-.634 7.03 7.03 0 0 1 2.917.634c.434.211.793.549 1.03.969h0z" class="G"/><g fill="#fff"><path opacity=".1" d="M124.202 91.015c-.24.418-.599.755-1.03.969a7.11 7.11 0 0 1-2.917.626c-1.006 0-2-.213-2.917-.626a2.38 2.38 0 0 1-1.031-.969c0-1.207 1.783-2.166 3.979-2.166s3.916.959 3.916 2.166z"/><path d="M117.698 91.552c.314.228.662.406 1.031.526a3.85 3.85 0 0 0 1.278.237 2.64 2.64 0 0 0 .691-.082c.217-.044.409-.17.536-.351.042-.096.052-.204.028-.306a.49.49 0 0 0-.162-.261.77.77 0 0 0-.546-.165h-.578a3.68 3.68 0 0 1-1.783-.371c-.281-.126-.551-.277-.804-.454-.35-.237-.35.237-.278.474a1.71 1.71 0 0 0 .587.753zm4.092-.372a.49.49 0 0 0-.195.299c-.003.083.017.165.059.236a.43.43 0 0 0 .178.166.77.77 0 0 0 .484 0c.111-.023.216-.069.309-.134.045-.033.083-.075.111-.122a.41.41 0 0 0 .054-.156c.001-.101-.032-.2-.093-.28s-.149-.138-.247-.163c-.114-.025-.233-.023-.347.003s-.221.078-.313.151h0z" class="D"/></g><path d="M117.987 83.476a1.49 1.49 0 0 0-.271-.719 1.48 1.48 0 0 0-.595-.487l-8.431-4.868c-.64-.32-1.346-.487-2.062-.487a4.6 4.6 0 0 0-2.061.487l-11.442 6.601c-.234.105-.436.27-.586.478s-.243.452-.269.708v2.878c.026.26.119.508.271.719s.357.38.594.487l8.432 4.879c.64.32 1.346.487 2.062.487s1.421-.167 2.061-.487l11.441-6.611a1.46 1.46 0 0 0 .6-.49 1.47 1.47 0 0 0 .266-.727l-.01-2.847z" class="E"/><path d="M101.526 91.284l-8.432-4.879a1.27 1.27 0 0 1-.861-1.202 1.27 1.27 0 0 1 .237-.739c.155-.216.373-.377.624-.462l11.442-6.601c.64-.32 1.346-.487 2.061-.487s1.422.167 2.062.487l8.431 4.868a1.27 1.27 0 0 1 .861 1.202 1.27 1.27 0 0 1-.861 1.202l-11.441 6.621c-.64.321-1.347.488-2.063.486a4.57 4.57 0 0 1-2.06-.496z" class="G"/><path d="M103.608 91.789v2.857a4.18 4.18 0 0 1-2.061-.505l-8.453-4.848c-.237-.107-.443-.275-.595-.487s-.246-.46-.271-.719v-2.919a.8.8 0 0 1 0-.155c-.018.287.054.572.205.816a1.38 1.38 0 0 0 .64.546l8.431 4.879c.642.361 1.367.546 2.103.536h0z" class="F"/><use xlink:href="#J" class="B"/><use xlink:href="#J" class="C D"/><path d="M99.547 84.538c1.607.814 3.383 1.238 5.185 1.238s3.577-.424 5.184-1.238c2.866-1.661 2.866-4.342 0-5.993-1.606-.819-3.382-1.245-5.184-1.245s-3.579.427-5.185 1.245c-2.866 1.65-2.866 4.332 0 5.993z" class="B"/><g class="E"><use xlink:href="#K"/><use xlink:href="#K"/></g><path d="M110.514 82.073c-.31.731-.89 1.314-1.618 1.63a10.12 10.12 0 0 1-8.329 0c-.732-.313-1.315-.897-1.628-1.63.313-.727.892-1.306 1.618-1.619 1.309-.597 2.731-.905 4.169-.905s2.861.309 4.17.905c.726.313 1.305.892 1.618 1.619h0z" class="G"/><g fill="#fff"><path opacity=".1" d="M110.514 82.073c-.31.731-.89 1.314-1.618 1.63a10.12 10.12 0 0 1-8.329 0c-.732-.313-1.315-.897-1.628-1.63 0-1.733 2.597-3.094 5.782-3.094s5.793 1.372 5.793 3.094z"/><path d="M101.083 82.867a5.15 5.15 0 0 0 1.453.774 5.89 5.89 0 0 0 1.845.33c.348.007.695-.034 1.031-.124.156-.029.304-.089.437-.176a1.21 1.21 0 0 0 .336-.33c.058-.14.071-.294.038-.442a.73.73 0 0 0-.224-.383c-.228-.169-.51-.25-.793-.227a7.27 7.27 0 0 0-.835 0c-.898.032-1.789-.155-2.598-.547a7.97 7.97 0 0 1-1.113-.732c-.495-.351-.495.34-.392.681a2.47 2.47 0 0 0 .815 1.176h0zm5.937-.536a.7.7 0 0 0-.289.433.61.61 0 0 0 .086.343.6.6 0 0 0 .265.235 1.03 1.03 0 0 0 .701.062 1.2 1.2 0 0 0 .443-.186.6.6 0 0 0 .237-.402.65.65 0 0 0-.485-.65 1.13 1.13 0 0 0-.958.165z" class="D"/></g><path d="M130.707 65.365L108.03 52.286c-1.933-.981-4.069-1.493-6.236-1.493s-4.304.511-6.236 1.493l-3.092 1.805c-1.711 1.031-2.567 2.279-2.577 3.579v2.259c0 1.32.845 2.63 2.577 3.631l22.676 13.068c1.933.981 4.069 1.493 6.236 1.493s4.304-.511 6.236-1.493l3.093-1.805c1.721-1.031 2.576-2.3 2.576-3.61v-2.269c-.01-1.31-.865-2.589-2.576-3.579zm-20.791-2.97c-1.606.819-3.382 1.245-5.184 1.245s-3.579-.427-5.185-1.245c-.8-.418-1.454-1.069-1.876-1.867.417-.798 1.068-1.449 1.866-1.867a11.48 11.48 0 0 1 5.185-1.238c1.802 0 3.578.424 5.185 1.238.804.415 1.463 1.066 1.886 1.867a4.4 4.4 0 0 1-1.876 1.867zm6.36 5.91a8.66 8.66 0 0 1 3.932-.944c1.367 0 2.715.323 3.933.944.507.276.941.668 1.267 1.145-.319.479-.751.872-1.257 1.145-1.22.621-2.569.944-3.938.944s-2.717-.323-3.937-.944a3.61 3.61 0 0 1-1.258-1.145c.325-.474.756-.866 1.258-1.145h0z" class="B"/><path d="M130.707 72.574l-3.093 1.805c-1.932.981-4.069 1.493-6.236 1.493s-4.303-.511-6.236-1.493L92.466 61.301c-.67-.308-1.256-.776-1.705-1.362a4.54 4.54 0 0 1-.872-2.001v2.001c0 1.3.845 2.609 2.577 3.61l22.676 13.078a13.78 13.78 0 0 0 6.236 1.493c2.167 0 4.304-.511 6.236-1.493l3.093-1.805c1.721-1.031 2.576-2.3 2.576-3.6v-2.248c0 1.289-.855 2.599-2.576 3.6zm-14.431-4.27a8.66 8.66 0 0 1 3.932-.944 8.67 8.67 0 0 1 3.933.944c.506.276.941.669 1.267 1.145.743-1.145.33-2.475-1.267-3.404a8.73 8.73 0 0 0-7.865 0c-1.587.928-2 2.259-1.258 3.393a3.7 3.7 0 0 1 1.258-1.135h0zM99.547 58.66a11.45 11.45 0 0 1 5.179-1.238 11.46 11.46 0 0 1 5.18 1.238 4.44 4.44 0 0 1 1.886 1.877c.691-1.423.052-3.012-1.886-4.126a11.39 11.39 0 0 0-5.18-1.245 11.4 11.4 0 0 0-5.179 1.245c-1.927 1.114-2.556 2.702-1.886 4.126.422-.804 1.08-1.459 1.886-1.877h0z" class="D C"/><g class="B"><use xlink:href="#L"/><use xlink:href="#L"/><use xlink:href="#M"/></g><use xlink:href="#M" opacity=".5" class="C"/><path d="M34.197 30.287l10.874-6.281c.129-.066.272-.101.418-.101a.9.9 0 0 1 .417.101l.526.309c.237.134.237.351 0 .485l-10.864 6.281a.92.92 0 0 1-.835 0l-.536-.309c-.05-.018-.093-.051-.123-.094a.26.26 0 0 1-.047-.148c0-.053.016-.105.047-.148a.26.26 0 0 1 .123-.094zm-2.597-1.65l7.813-4.528c.129-.066.272-.101.417-.101s.288.034.417.101l.536.309c.05.018.093.051.123.094a.26.26 0 0 1 .047.148c0 .053-.016.105-.047.148a.26.26 0 0 1-.123.094l-7.823 4.569c-.127.066-.269.101-.412.101s-.285-.035-.412-.101l-.536-.309c-.237-.175-.237-.392 0-.526z" class="H"/><g class="C"><path opacity=".15" d="M35.001 40.611L.698 20.777c-.21-.153-.376-.358-.483-.595s-.15-.498-.125-.756v-1.96a4.21 4.21 0 0 1 .536-1.908l34.304 19.823c-.331.583-.515 1.238-.536 1.908v1.96c-.037.261.001.527.108.768s.281.446.5.593h0z"/><path opacity=".25" d="M34.352 39.25v-1.96a4.62 4.62 0 0 1 2.062-3.61l22.409-12.913c1.154-.67 2.061-.134 2.061 1.196v1.96a4.58 4.58 0 0 1-2.061 3.6L36.434 40.446c-1.154.66-2.082.124-2.082-1.196z"/></g><use xlink:href="#N" class="B"/><use xlink:href="#N" class="C D"/><path d="M65.656 51.812l-8.174-4.755c-.59-.346-1.079-.84-1.419-1.433a3.92 3.92 0 0 1-.519-1.95v-.217a3.92 3.92 0 0 0-1.969-3.393l-11.431-6.467 11.709-6.766 11.431 6.756c.595.339 1.09.83 1.434 1.422a3.88 3.88 0 0 1 .525 1.951h0a3.89 3.89 0 0 0 .519 1.954c.342.594.835 1.087 1.429 1.429l8.164 4.755-11.699 6.714z" class="B"/><path d="M67.46 41.292c-.594-.342-1.087-.835-1.429-1.429a3.89 3.89 0 0 1-.519-1.954v-.186a3.89 3.89 0 0 0-.53-1.965c-.348-.596-.848-1.089-1.449-1.428l-11.41-6.529-.804.464 11.441 6.498a3.92 3.92 0 0 1 1.968 3.393v.217a3.92 3.92 0 0 0 .523 1.952 3.91 3.91 0 0 0 1.425 1.431l8.174 4.755.794-.464-8.184-4.755zm-3.67 2.145a3.87 3.87 0 0 1-1.436-1.427 3.88 3.88 0 0 1-.522-1.956v-.206a3.91 3.91 0 0 0-1.969-3.393l-11.421-6.529-.794.464 11.421 6.529a3.89 3.89 0 0 1 1.969 3.383v.217a3.92 3.92 0 0 0 1.907 3.393l8.174 4.755.794-.454-8.122-4.775zm-3.762 2.145a3.88 3.88 0 0 1-1.427-1.425 3.89 3.89 0 0 1-.521-1.948v-.217a3.91 3.91 0 0 0-1.969-3.393L44.69 32.071l-.794.464 11.41 6.529a3.94 3.94 0 0 1 1.442 1.432c.347.596.532 1.272.537 1.961v.206a3.92 3.92 0 0 0 1.948 3.383l8.164 4.755.804-.454-8.174-4.765z" class="H"/><path d="M77.355 46.16l-11.699 6.756v-1.104l11.699-6.766v1.114z" class="B"/><path opacity=".15" d="M77.355 46.16l-11.699 6.756v-1.104l11.699-6.766v1.114z" class="C"/><path d="M64.584 52.163l13.4-7.777c.494-.249 1.039-.379 1.593-.379s1.099.13 1.593.379l4.34 2.506a1.03 1.03 0 0 1 .66.897v.784c-.019.195-.091.381-.207.539s-.272.282-.453.358l-13.451 7.777c-.494.249-1.039.379-1.593.379s-1.099-.13-1.593-.379l-4.34-2.506c-.177-.078-.331-.201-.446-.357s-.189-.338-.213-.53v-.815c.026-.197.107-.384.232-.538s.291-.272.479-.338z" class="F"/><path d="M85.56 48.708l-13.451 7.777c-.494.249-1.039.379-1.592.379s-1.099-.13-1.593-.379l-4.34-2.506a.97.97 0 0 1-.657-.918.97.97 0 0 1 .657-.918l13.4-7.777c.494-.249 1.039-.379 1.593-.379s1.099.13 1.593.379l4.339 2.506a.97.97 0 0 1 .684.899.97.97 0 0 1-.632.937h0z" class="E"/><path d="M84.034 47.315l-3.577-2.063a1.4 1.4 0 0 0-1.278 0l-.433.248c-.35.206-.35.536 0 .732l3.587 2.063a1.38 1.38 0 0 0 1.268 0l.433-.248c.371-.196.371-.526 0-.732zm-3.154 1.826l-3.587-2.063a1.38 1.38 0 0 0-1.268 0l-.443.248c-.35.206-.35.536 0 .732l3.587 2.063a1.4 1.4 0 0 0 1.278 0l.433-.248c.074-.028.138-.078.183-.144s.069-.143.069-.222a.39.39 0 0 0-.252-.366h0zm-3.165 1.836l-3.577-2.063a1.4 1.4 0 0 0-1.278 0l-.433.247c-.361.206-.361.536 0 .732l3.587 2.063a1.38 1.38 0 0 0 1.268 0l.433-.248c.35-.206.35-.577 0-.732zm-3.154 1.825l-3.587-2.063a1.4 1.4 0 0 0-1.278 0l-.433.248a.39.39 0 0 0-.193.143c-.048.067-.074.147-.074.229s.026.162.074.229.115.117.193.143l3.587 2.063a1.4 1.4 0 0 0 1.278 0l.433-.248c.35-.217.35-.547 0-.743zm-3.164 1.826l-3.587-2.063a1.38 1.38 0 0 0-1.268 0l-.443.248a.39.39 0 0 0-.266.371.39.39 0 0 0 .266.371l3.587 2.063a1.4 1.4 0 0 0 1.278 0l.433-.248c.35-.217.35-.547 0-.743z" class="B"/><defs ><path id="B" d="M256.056 186.079l77.791-44.917c.252-.085.47-.247.624-.462s.238-.474.238-.74-.083-.523-.238-.739a1.26 1.26 0 0 0-.624-.462l-46.59-26.899c-.64-.32-1.345-.487-2.061-.487a4.61 4.61 0 0 0-2.062.487l-77.76 44.928a1.26 1.26 0 0 0-.623.462c-.155.215-.238.474-.238.739s.083.524.238.739.372.378.623.463l46.549 26.888a4.57 4.57 0 0 0 2.067.495c.718 0 1.426-.17 2.066-.495h0z"/><path id="C" d="M195.592 119.513a3.88 3.88 0 0 1-1.422-1.442c-.339-.598-.513-1.275-.505-1.962v-.206a3.94 3.94 0 0 0-.537-1.961 3.93 3.93 0 0 0-1.442-1.432l-25.254-14.388v1.114l24.738 14.109c.452.256.828.628 1.089 1.078s.397.96.396 1.48v.206a4.89 4.89 0 0 0 .655 2.433 4.9 4.9 0 0 0 1.777 1.786l33.624 19.503v-1.103l-33.119-19.215z"/><path id="D" d="M225.794 68.583l-58.279-33.665c-.237-.108-.498-.152-.757-.127a1.47 1.47 0 0 0-.717.271l-38.757 22.392a4.58 4.58 0 0 0-2.061 3.6v1.96c-.028.258.013.518.12.754s.276.439.488.587l58.557 33.768c.235.108.494.152.752.127s.503-.119.712-.271l38.736-22.392c.6-.397 1.1-.93 1.458-1.555s.564-1.326.603-2.045v-1.96c0-.804-.33-1.31-.855-1.444z"/><path id="E" d="M189.377 91.108v3.094a1.39 1.39 0 0 1-.629 1.093l-.464.268c-.257.155-.484.093-.567-.103a.52.52 0 0 1-.061-.268v-3.094c.018-.209.084-.41.193-.589a1.36 1.36 0 0 1 .435-.442l.464-.268c.065-.037.134-.065.206-.082.248-.082.423.082.423.392z"/><path id="F" d="M192.15 89.51v3.094c-.019.207-.084.408-.192.587a1.38 1.38 0 0 1-.427.445l-.474.268c-.258.155-.484.103-.567-.103-.043-.079-.064-.168-.062-.258v-3.094a1.41 1.41 0 0 1 .198-.587c.109-.178.256-.33.431-.444l.474-.268c.064-.036.134-.061.206-.072.237-.041.413.124.413.433z"/><path id="G" d="M194.933 87.901v3.094c-.012.219-.075.432-.184.622s-.262.352-.445.471l-.474.268c-.258.155-.474.093-.567-.113-.036-.081-.054-.169-.052-.258v-3.094a1.36 1.36 0 0 1 .191-.587c.107-.179.253-.331.428-.444l.474-.268a.48.48 0 0 1 .206-.082c.247-.083.423.082.423.392z"/><path id="H" d="M197.716 86.292v3.094c-.016.217-.08.427-.189.614a1.43 1.43 0 0 1-.44.469l-.474.268c-.258.155-.474.093-.557-.103-.043-.079-.064-.168-.062-.258v-3.094a1.4 1.4 0 0 1 .193-.586c.107-.178.252-.331.426-.445l.474-.268c.062-.039.133-.064.206-.072.247-.093.423.083.423.382z"/><path id="I" d="M125.779 90.458h-2.329c-2.086-.804-4.397-.804-6.483 0h-2.32v2.599c.046.49.221.959.507 1.36a2.78 2.78 0 0 0 1.122.92c1.221.616 2.57.936 3.937.936s2.717-.321 3.938-.936c.448-.202.835-.519 1.122-.92s.461-.87.506-1.36h0v-2.599z"/><path id="J" d="M112.06 84.064v-2.527h-1.546a5.59 5.59 0 0 0-.608-.392c-1.606-.819-3.383-1.246-5.185-1.246s-3.579.427-5.184 1.246c-.206.12-.406.251-.598.392h-1.546v2.527a3.62 3.62 0 0 0 2.144 3.094c1.608.814 3.383 1.238 5.185 1.238s3.578-.424 5.185-1.238a3.62 3.62 0 0 0 1.511-1.244 3.61 3.61 0 0 0 .643-1.85h0z"/><path id="K" d="M110.576 81.908a.52.52 0 0 1-.062.175c-.31.731-.89 1.314-1.618 1.63a10.12 10.12 0 0 1-8.329 0c-.734-.316-1.318-.903-1.628-1.64a.87.87 0 0 1 0-.175c-.227-.908.34-1.846 1.67-2.537a10.05 10.05 0 0 1 4.169-.905c1.438 0 2.86.309 4.169.905 1.278.701 1.835 1.681 1.629 2.547z"/><path id="L" d="M130.707 65.365L108.03 52.286c-1.933-.981-4.069-1.493-6.236-1.493s-4.304.511-6.236 1.493l-3.092 1.805c-3.443 1.991-3.443 5.219 0 7.22l22.676 13.078c1.933.981 4.069 1.493 6.236 1.493a13.77 13.77 0 0 0 6.236-1.493l3.093-1.805c3.442-2.001 3.442-5.229 0-7.22zm-20.791-2.97c-1.606.819-3.382 1.245-5.184 1.245s-3.579-.427-5.185-1.245c-2.865-1.65-2.865-4.332 0-5.992 1.607-.814 3.383-1.238 5.185-1.238s3.577.424 5.184 1.238c2.866 1.66 2.866 4.342 0 5.992h0zm14.235 8.251c-1.22.62-2.569.944-3.938.944s-2.717-.323-3.937-.944c-2.165-1.248-2.175-3.29 0-4.538 1.218-.62 2.566-.944 3.932-.944s2.715.323 3.933.944c2.175 1.196 2.175 3.239.01 4.487v.052z"/><path id="M" d="M60.038 20.52L26.023.84a1.45 1.45 0 0 0-.751-.127c-.257.025-.503.119-.712.271L2.172 13.867A4.58 4.58 0 0 0 .11 17.467v1.96c-.028.258.013.518.12.754s.275.439.488.587L34.929 40.59c.236.108.498.152.756.127a1.47 1.47 0 0 0 .718-.271l22.398-12.923a4.58 4.58 0 0 0 2.062-3.599v-1.96c.052-.805-.299-1.32-.825-1.444z"/><path id="N" d="M57.482 47.057a3.92 3.92 0 0 1-1.938-3.383v-.217a3.92 3.92 0 0 0-.529-1.961c-.346-.596-.842-1.09-1.439-1.432l-11.431-6.467v1.031l10.947 6.25a2.95 2.95 0 0 1 1.484 2.558v.217a4.86 4.86 0 0 0 .652 2.431c.427.739 1.041 1.352 1.78 1.778l8.648 5.044v-1.114l-8.174-4.734z"/></defs></svg>