<?xml version="1.0" encoding="utf-8"?>
<!-- Generator: Adobe Illustrator 13.0.0, SVG Export Plug-In . SVG Version: 6.00 Build 14948)  -->
<!DOCTYPE svg PUBLIC "-//W3C//DTD SVG 1.1//EN" "http://www.w3.org/Graphics/SVG/1.1/DTD/svg11.dtd">
<svg version="1.1" id="Layer_1" xmlns="http://www.w3.org/2000/svg" xmlns:xlink="http://www.w3.org/1999/xlink" x="0px" y="0px"
	 width="128px" height="128px" viewBox="0 0 128 128" enable-background="new 0 0 128 128" xml:space="preserve">
<path fill="none" stroke="#414B5E" stroke-width="3" stroke-linecap="round" stroke-linejoin="round" stroke-miterlimit="22.9256" d="
	M86.7,31c-4.8-1.4-10.2-0.3-13.9,3.5c-3.6,3.6-4.8,8.7-3.7,13.3L35.4,81.5c-2.8,2.8-2.8,7.4,0,10.2l0,0c2.8,2.8,7.4,2.8,10.2,0
	L79.3,58c4.6,1.1,9.7-0.1,13.3-3.7c3.8-3.8,4.9-9.2,3.5-13.9l-4.4,4.4L89,47.5l-3.7-1l-3.7-1l-1-3.7l-1-3.7l2.7-2.7L86.7,31L86.7,31
	z"/>
<path fill="none" stroke="#414B5E" stroke-width="3" stroke-linecap="round" stroke-linejoin="round" stroke-miterlimit="22.9256" d="
	M80.2,70.1l11.4,11.4c2.8,2.8,2.8,7.4,0,10.2l0,0c-2.8,2.8-7.4,2.8-10.2,0L69.9,80.4L80.2,70.1L80.2,70.1z"/>
<line fill="none" stroke="#414B5E" stroke-width="3" stroke-linecap="round" stroke-linejoin="round" stroke-miterlimit="22.9256" x1="44" y1="44.2" x2="58" y2="58.2"/>
<line fill="none" stroke="#414B5E" stroke-width="3" stroke-linecap="round" stroke-linejoin="round" stroke-miterlimit="22.9256" x1="68.6" y1="68.8" x2="75.1" y2="75.3"/>
<polygon fill="none" stroke="#414B5E" stroke-width="3" stroke-linecap="round" stroke-linejoin="round" stroke-miterlimit="22.9256" points="
	32.6,36.5 37,32 47.5,38.4 38.9,47 "/>
</svg>
