<?xml version="1.0" encoding="utf-8"?>
<!-- Generator: Adobe Illustrator 16.0.0, SVG Export Plug-In . SVG Version: 6.00 Build 0)  -->
<!DOCTYPE svg PUBLIC "-//W3C//DTD SVG 1.1//EN" "http://www.w3.org/Graphics/SVG/1.1/DTD/svg11.dtd">
<svg version="1.1" id="Layer_1" xmlns="http://www.w3.org/2000/svg" xmlns:xlink="http://www.w3.org/1999/xlink" x="0px" y="0px"
	 width="256px" height="256px" viewBox="0 0 256 256" enable-background="new 0 0 256 256" xml:space="preserve">
<g>
	<polygon fill="#EDEDED" points="148.987,0 37.67,0 37.67,256 218.33,256 218.33,69.344 148.987,69.344 	"/>
	<polygon fill="#406270" points="148.987,69.344 218.33,69.344 148.987,0 	"/>
	<g>
		<g>
			<path fill="#95CEB4" d="M73.58,107.623c-0.837,0-1.675-0.317-2.312-0.958L57.02,92.421c-1.275-1.277-1.275-3.344,0-4.625
				c1.279-1.275,3.348-1.275,4.625,0L73.58,99.731l22.064-22.065c1.276-1.278,3.349-1.278,4.625,0c1.278,1.275,1.278,3.345,0,4.624
				l-24.377,24.375C75.253,107.306,74.415,107.623,73.58,107.623z"/>
		</g>
		<g>
			<path fill="#95CEB4" d="M73.58,154.625c-0.837,0-1.675-0.318-2.312-0.956L57.02,139.421c-1.275-1.276-1.275-3.349,0-4.624
				c1.279-1.275,3.348-1.275,4.625,0l11.936,11.937l22.064-22.066c1.276-1.276,3.349-1.276,4.625,0c1.278,1.278,1.278,3.349,0,4.624
				l-24.377,24.378C75.253,154.307,74.415,154.625,73.58,154.625z"/>
		</g>
		<g>
			<path fill="#95CEB4" d="M73.58,201.632c-0.837,0-1.675-0.318-2.312-0.961L57.02,186.422c-1.275-1.275-1.275-3.344,0-4.623
				c1.279-1.276,3.348-1.276,4.625,0l11.936,11.936l22.064-22.061c1.276-1.28,3.349-1.28,4.625,0c1.278,1.275,1.278,3.344,0,4.625
				l-24.377,24.372C75.253,201.313,74.415,201.632,73.58,201.632z"/>
		</g>
		<g>
			<path fill="#95CEB4" d="M73.58,248.634c-0.837,0-1.675-0.318-2.312-0.957L57.02,233.429c-1.275-1.275-1.275-3.348,0-4.624
				c1.279-1.274,3.348-1.274,4.625,0l11.936,11.937l22.064-22.065c1.276-1.276,3.349-1.276,4.625,0c1.278,1.275,1.278,3.349,0,4.624
				l-24.377,24.377C75.253,248.315,74.415,248.634,73.58,248.634z"/>
		</g>
	</g>
	<g>
		<g>
			<rect x="92.372" y="101.084" fill="#C6C6C6" width="106.746" height="6.539"/>
		</g>
		<g>
			<rect x="92.372" y="148.089" fill="#C6C6C6" width="106.746" height="6.536"/>
		</g>
		<g>
			<rect x="92.372" y="195.091" fill="#C6C6C6" width="106.746" height="6.541"/>
		</g>
		<g>
			<rect x="92.372" y="242.097" fill="#C6C6C6" width="106.746" height="6.537"/>
		</g>
	</g>
	<polygon opacity="0.15" points="218.33,69.344 148.987,0 127.998,0 127.998,256 218.33,256 	"/>
</g>
</svg>
