<?xml version="1.0" encoding="utf-8"?>
<!-- Generator: Adobe Illustrator 24.0.3, SVG Export Plug-In . SVG Version: 6.00 Build 0)  -->
<svg version="1.1" id="Calque_1" xmlns="http://www.w3.org/2000/svg" xmlns:xlink="http://www.w3.org/1999/xlink" x="0px" y="0px"
	 viewBox="0 0 17.3 17.7" style="enable-background:new 0 0 17.3 17.7;" xml:space="preserve">
<style type="text/css">
	.st0{fill:none;stroke:#70706F;stroke-width:0.5;stroke-miterlimit:10;}
	.st1{fill:#70706F;}
	.st2{fill:#F28D00;}
</style>
<g>
	<path class="st2" d="M8.6,1.4c-4.1,0-7.5,3.3-7.5,7.5s3.3,7.5,7.5,7.5s7.5-3.3,7.5-7.5S12.8,1.4,8.6,1.4z M2.5,8.9
		c0-1.4,0.5-2.8,1.3-3.8l1.6,1.6C5.7,6.3,6,5.9,6.3,5.6L4.8,4.1c1-0.8,2.4-1.3,3.8-1.3c3.4,0,6.1,2.7,6.1,6.1c0,1.4-0.5,2.8-1.3,3.8
		L12,11.3c0,0.1,0,0.1,0,0.2c0,0.3-0.1,0.5-0.3,0.7c-0.1,0.1-0.3,0.3-0.4,0.4l1.2,1.2c-1.1,0.8-2.4,1.3-3.8,1.3
		C5.3,15,2.5,12.2,2.5,8.9z"/>
	<path class="st2" d="M9,6.5c0.5,0,0.9,0.2,1.3,0.6c0.1,0.1,0.2,0.1,0.3,0l0.7-0.6c0,0,0.1-0.1,0.1-0.1c0,0,0-0.1-0.1-0.1
		c-0.6-0.6-1.4-1-2.2-1c-1.4,0-2.6,0.9-3.1,2.3H5.2C5.1,7.5,5,7.6,5,7.7v0.6c0,0.1,0.1,0.2,0.2,0.2h0.5c0,0.1,0,0.2,0,0.3
		c0,0.1,0,0.2,0,0.3H5.2C5.1,9.2,5,9.3,5,9.4V10c0,0.1,0.1,0.2,0.2,0.2h0.7c0.5,1.4,1.7,2.3,3.1,2.3c0.8,0,1.6-0.3,2.2-1
		c0,0,0.1-0.1,0.1-0.1c0,0,0-0.1-0.1-0.1l-0.7-0.6c-0.1-0.1-0.2-0.1-0.3,0C9.9,11,9.5,11.2,9,11.2c-0.7,0-1.3-0.4-1.7-1.1h1.7
		c0.1,0,0.2-0.1,0.2-0.2V9.4c0-0.1-0.1-0.2-0.2-0.2H7C7,9.1,7,9,7,8.9s0-0.2,0-0.3h2c0.1,0,0.2-0.1,0.2-0.2V7.8
		c0-0.1-0.1-0.2-0.2-0.2H7.4C7.7,6.9,8.3,6.5,9,6.5z"/>
</g>
</svg>
