<?xml version="1.0" encoding="utf-8"?>
<!-- Generator: Adobe Illustrator 24.3.0, SVG Export Plug-In . SVG Version: 6.00 Build 0)  -->
<svg version="1.1" id="Calque_1" xmlns="http://www.w3.org/2000/svg" xmlns:xlink="http://www.w3.org/1999/xlink" x="0px" y="0px"
	 viewBox="0 0 255.86 178.73" style="enable-background:new 0 0 255.86 178.73;" xml:space="preserve">
<style type="text/css">
	.st0{fill:#E4E6E6;}
	.st1{fill:#C8CBCB;}
	.st2{fill:#37444F;}
	.st3{fill:#475866;}
	.st4{fill:#E6E7E8;}
	.st5{fill:#B22332;}
</style>
<path class="st0" d="M244.19,153.36v3.62c0,5.98-4.89,10.87-10.87,10.87H23.23c-5.98,0-10.87-4.89-10.87-10.87v-3.62H244.19
	L244.19,153.36z"/>
<path class="st1" d="M111.97,149.74h32.6c3.08,0,5.43,2.35,5.43,5.43s-2.35,5.43-5.43,5.43h-32.6c-3.08,0-5.43-2.35-5.43-5.43
	C106.54,152.27,108.9,149.74,111.97,149.74z"/>
<path class="st2" d="M41.34,19.33h173.87c3.98,0,7.24,3.26,7.24,7.24v126.78H34.09V26.58C34.09,22.59,37.35,19.33,41.34,19.33z"/>
<path class="st3" d="M44.96,30.2h166.63v112.29H44.96V30.2z"/>
<path class="st4" d="M99.77,46.54c-0.11,0.02-0.23,0.05-0.34,0.08c-1.46,0.26-2.43,1.66-2.16,3.12c0.1,0.57,0.39,1.1,0.82,1.49
	l14.27,14.19l2.69,2.69l26.86,26.86l2.69,2.69l5.37,5.37l12.59,12.68c1.07,1.07,2.8,1.07,3.86,0c1.07-1.07,1.07-2.8,0-3.86
	l-8.81-8.81h1.51c4.57,0,8.06-3.49,8.06-8.06V68.12c0-4.57-3.49-8.06-8.06-8.06h-44.49l-12.68-12.68
	C101.4,46.79,100.59,46.48,99.77,46.54z M103.8,64.34c-0.81,1.07-1.09,2.43-1.09,3.78v2.69h-2.69c-1.61,0-2.69,1.07-2.69,2.69v16.12
	c0,1.61,1.07,2.69,2.69,2.69h2.69v2.69c0,4.57,3.49,8.06,8.06,8.06h31.73l-5.37-5.37h-26.36c-1.61,0-2.69-1.07-2.69-2.69V92.3v-5.37
	h-5.37V76.18h5.37v-5.37v-2.18L103.8,64.34z M120.01,65.43h39.12c1.61,0,2.69,1.07,2.69,2.69v26.86c0,1.61-1.07,2.69-2.69,2.69
	h-6.88l-2.69-2.69h6.88c1.61,0,2.69-1.07,2.69-2.69V70.81c0-1.61-1.07-2.69-2.69-2.69h-33.75L120.01,65.43z M110.77,71.31V92.3
	c0,1.61,1.07,2.69,2.69,2.69h20.99L110.77,71.31z"/>
<path class="st5" d="M172.61,122.86l-0.38,0.38c-1.33,1.33-3.49,1.33-4.82,0l-77.8-77.8c-1.33-1.33-1.33-3.49,0-4.82l0.38-0.38
	c1.33-1.33,3.49-1.33,4.82,0l77.8,77.8C173.95,119.37,173.95,121.53,172.61,122.86z"/>
</svg>
