<?xml version="1.0" encoding="utf-8"?>
<!-- Generator: Adobe Illustrator 19.1.0, SVG Export Plug-In . SVG Version: 6.00 Build 0)  -->
<svg version="1.1" xmlns="http://www.w3.org/2000/svg" xmlns:xlink="http://www.w3.org/1999/xlink" x="0px" y="0px"
	 viewBox="0 0 1025 537" style="enable-background:new 0 0 1025 537;" xml:space="preserve">
<style type="text/css">
	.st0{display:none;}
	.st1{display:inline;fill:#010101;}
	.st2{opacity:0.7;fill:#E2E43F;}
	.st3{fill:#E2E43F;}
	.st4{fill:#A3A7C6;stroke:#2A3751;stroke-width:5;stroke-miterlimit:10;}
	.st5{fill:#C5C9D1;stroke:#2A3751;stroke-width:5;stroke-miterlimit:10;}
	.st6{fill:#4E5D77;stroke:#2A3751;stroke-width:5;stroke-miterlimit:10;}
	.st7{fill:none;stroke:#2A3751;stroke-width:5;stroke-miterlimit:10;}
	.st8{fill:#FFFFFF;stroke:#2A3751;stroke-width:5;stroke-miterlimit:10;}
	.st9{fill:#2A3751;}
	.st10{fill:#E0A041;}
	.st11{fill:#E0A041;stroke:#2A3751;stroke-width:5;stroke-miterlimit:10;}
	.st12{fill:#2D3E56;stroke:#2A3751;stroke-width:5;stroke-miterlimit:10;}
	.st13{fill:#575C92;stroke:#2A3751;stroke-width:5;stroke-linecap:round;stroke-linejoin:round;stroke-miterlimit:10;}
	.st14{fill:#C5CAD2;stroke:#2A3751;stroke-width:5;stroke-miterlimit:10;}
	.st15{fill:#7799D0;stroke:#2A3751;stroke-width:5;stroke-miterlimit:10;}
	.st16{fill:#3CB54C;stroke:#2A3751;stroke-width:3;stroke-miterlimit:10;}
	.st17{fill:#E2E541;stroke:#2A3751;stroke-width:3;stroke-miterlimit:10;}
	.st18{fill:#CC2E2E;stroke:#2A3751;stroke-width:3;stroke-miterlimit:10;}
	.st19{fill:#FFFFFF;}
	.st20{fill:#2D3E56;stroke:#2A3751;stroke-width:3;stroke-miterlimit:10;}
	.st21{fill:#3BB54D;stroke:#2A3751;stroke-width:3;stroke-linejoin:round;stroke-miterlimit:10;}
	.st22{fill:none;stroke:#2A3751;stroke-width:10;stroke-miterlimit:10;}
	.st23{fill:#E0A041;stroke:#2A3751;stroke-width:5;stroke-linecap:round;stroke-linejoin:round;stroke-miterlimit:10;}
	.st24{fill:#575C92;}
	.st25{fill:#3BB54D;stroke:#2A3751;stroke-width:5;stroke-linejoin:round;stroke-miterlimit:10;}
	.st26{fill:#BCC0C4;stroke:#2A3751;stroke-width:5;stroke-linecap:round;stroke-linejoin:round;stroke-miterlimit:10;}
	.st27{fill:#FFFFFF;stroke:#2A3751;stroke-width:5;stroke-linecap:round;stroke-linejoin:round;stroke-miterlimit:10;}
	.st28{fill:#CC2E2E;stroke:#2A3751;stroke-width:5;stroke-miterlimit:10;}
	.st29{fill:#045786;stroke:#2A3751;stroke-width:5;stroke-miterlimit:10;}
	.st30{fill:#4E5D77;stroke:#2A3751;stroke-width:5;stroke-linecap:round;stroke-linejoin:round;stroke-miterlimit:10;}
	.st31{fill:#3BB54D;stroke:#2A3751;stroke-width:3;stroke-miterlimit:10;}
	.st32{fill:#FEFEFF;}
	.st33{fill:#A3A7C6;}
	.st34{fill:#E2E541;stroke:#2A3751;stroke-width:2;stroke-miterlimit:10;}
	.st35{fill:none;stroke:#2A3751;stroke-width:2;stroke-linecap:round;stroke-linejoin:round;stroke-miterlimit:10;}
	.st36{fill:#E2E541;stroke:#2A3751;stroke-width:5;stroke-miterlimit:10;}
	.st37{fill:#CC2E2E;stroke:#2A3751;stroke-width:5;stroke-linejoin:round;stroke-miterlimit:10;}
	.st38{opacity:0.2;fill:#FFFFFF;}
	.st39{fill:#FFFFFF;stroke:#2A3751;stroke-width:3;stroke-linecap:round;stroke-linejoin:round;stroke-miterlimit:10;}
	.st40{fill:#A3A7C6;stroke:#2A3751;stroke-width:3;stroke-miterlimit:10;}
	.st41{fill:#A3A7C6;stroke:#2A3751;stroke-width:2;stroke-linecap:round;stroke-linejoin:bevel;stroke-miterlimit:10;}
	.st42{fill:#A3A7C6;stroke:#2A3751;stroke-width:2;stroke-miterlimit:10;}
	.st43{fill:#A3A7C6;stroke:#2A3751;stroke-width:2;stroke-linecap:square;stroke-linejoin:bevel;stroke-miterlimit:10;}
	.st44{fill:#E2E541;stroke:#2A3751;stroke-width:3;stroke-linecap:round;stroke-linejoin:round;stroke-miterlimit:10;}
	.st45{fill:#E2E541;stroke:#2A3751;stroke-width:2;stroke-linecap:round;stroke-linejoin:round;stroke-miterlimit:10;}
	.st46{fill:#FFFFFF;stroke:#2A3751;stroke-width:2;stroke-linecap:round;stroke-linejoin:round;stroke-miterlimit:10;}
	.st47{fill:none;stroke:#010101;stroke-width:3;stroke-miterlimit:10;}
	.st48{fill:#C5CAD2;stroke:#2A3751;stroke-width:3;stroke-miterlimit:10;}
	.st49{fill:#C5CAD2;}
	.st50{fill:none;stroke:#2A3751;stroke-width:2;stroke-miterlimit:10;}
	.st51{fill:none;stroke:#010101;stroke-width:2;stroke-miterlimit:10;}
	.st52{fill:#E0A041;stroke:#2A3751;stroke-width:2;stroke-linecap:round;stroke-linejoin:round;stroke-miterlimit:10;}
	.st53{fill:#E0A041;stroke:#2A3751;stroke-width:3;stroke-miterlimit:10;}
	.st54{fill:#E2E541;stroke:#2A3751;stroke-width:3;stroke-linejoin:round;stroke-miterlimit:10;}
	
		.st55{fill:none;stroke:#2A3751;stroke-width:5;stroke-linecap:round;stroke-linejoin:round;stroke-miterlimit:10;stroke-dasharray:1,8,1,8,1,8;}
	.st56{fill:none;stroke:#2A3751;stroke-width:5;stroke-linecap:round;stroke-linejoin:round;stroke-miterlimit:10;}
	.st57{fill:#4E5D77;stroke:#2A3751;stroke-width:3;stroke-miterlimit:10;}
	.st58{fill:#FFFFFF;stroke:#2A3751;stroke-width:3;stroke-miterlimit:10;}
	.st59{fill:#CC2E2E;stroke:#2A3751;stroke-width:3;stroke-linejoin:round;stroke-miterlimit:10;}
	.st60{fill:#7799D0;stroke:#2A3751;stroke-width:3;stroke-miterlimit:10;}
	.st61{fill:#575C92;stroke:#2A3751;stroke-width:3;stroke-linecap:round;stroke-linejoin:round;stroke-miterlimit:10;}
	.st62{fill:none;}
	.st63{fill:#F7F07D;stroke:#2A3751;stroke-width:5;stroke-miterlimit:10;}
	.st64{fill:#3BB54D;}
	.st65{fill:#0072BC;}
	.st66{fill:#FFFFFF;stroke:#FFFFFF;stroke-width:3;stroke-miterlimit:10;}
	.st67{fill:#2D3E56;}
	.st68{fill:#4E5D77;}
	.st69{fill:#7799D0;}
	.st70{fill:#C5C9D1;}
	.st71{fill:#3CB54C;}
	.st72{fill:#E2E541;}
	.st73{fill:#CC2E2E;}
</style>
<g id="Layer_2" class="st0">
</g>
<g id="Layer_3">
</g>
<g id="Layer_1">
	<g>
		<rect x="0" y="0" class="st3" width="1025" height="537"/>
	</g>
	<g>
		<g>
			<g>
				<path class="st19" d="M327.4,156.9h-29.9c-4.3,0-7.8-3.5-7.8-7.8V78c0-4.3,3.5-7.8,7.8-7.8h29.9c4.3,0,7.8,3.5,7.8,7.8v71.1
					C335.2,153.4,331.7,156.9,327.4,156.9z"/>
				<path class="st9" d="M327.4,159h-29.9c-5.5,0-9.9-4.4-9.9-9.9V78c0-5.5,4.4-9.9,9.9-9.9h29.9c5.5,0,9.9,4.4,9.9,9.9v71.1
					C337.3,154.6,332.9,159,327.4,159z M297.5,72.3c-3.1,0-5.7,2.5-5.7,5.7v71.1c0,3.1,2.5,5.7,5.7,5.7h29.9c3.1,0,5.7-2.5,5.7-5.7
					V78c0-3.1-2.5-5.7-5.7-5.7H297.5z"/>
			</g>
			<g>
				<rect x="293.2" y="79.5" class="st9" width="38.5" height="65.3"/>
			</g>
			<g>
				<circle class="st19" cx="312.5" cy="150" r="2.8"/>
				<path class="st9" d="M312.5,154.9c-2.7,0-4.9-2.2-4.9-4.9c0-2.7,2.2-4.9,4.9-4.9s4.9,2.2,4.9,4.9
					C317.3,152.7,315.2,154.9,312.5,154.9z M312.5,149.4c-0.4,0-0.6,0.3-0.6,0.6c0,0.4,0.3,0.6,0.6,0.6s0.6-0.3,0.6-0.6
					C313.1,149.7,312.8,149.4,312.5,149.4z"/>
			</g>
			<g>
				<circle class="st9" cx="305.1" cy="75.1" r="1"/>
			</g>
			<g>
				<path class="st9" d="M316.3,74.8h-7.6c-0.2,0-0.3,0.1-0.3,0.3v0.2c0,0.2,0.1,0.3,0.3,0.3h7.6c0.2,0,0.3-0.1,0.3-0.3v-0.2
					C316.6,75,316.4,74.8,316.3,74.8z"/>
			</g>
		</g>
		<g>
			<g>
				<path class="st24" d="M261.6,126.5l-3.1,0.7c-1.1,0.3-2.3-0.5-2.6-1.6l-3.6-15.6c-0.3-1.1,0.5-2.3,1.6-2.6l3.1-0.7
					c1.1-0.3,2.3,0.5,2.6,1.6l3.6,15.6C263.5,125.1,262.8,126.2,261.6,126.5z"/>
				<path class="st9" d="M258,129.4c-1.9,0-3.7-1.3-4.1-3.3l-3.6-15.6c-0.3-1.1-0.1-2.2,0.5-3.2c0.6-1,1.5-1.6,2.6-1.9l3.1-0.7
					c2.3-0.5,4.6,0.9,5.1,3.2l3.6,15.6c0.3,1.1,0.1,2.2-0.5,3.2c-0.6,1-1.5,1.6-2.6,1.9h0l-3.1,0.7
					C258.7,129.4,258.3,129.4,258,129.4z M261.6,126.5L261.6,126.5L261.6,126.5z M257.6,108.8l-3.2,0.7l3.6,15.7l3.2-0.7
					c0,0,0,0,0,0L257.6,108.8z"/>
			</g>
			<g>
				<path class="st24" d="M280.8,185.6l-31,7.2c-1.1,0.3-2.3-0.5-2.6-1.6l-15.8-68.3c-0.3-1.1,0.5-2.3,1.6-2.6l31-7.2
					c1.1-0.3,2.3,0.5,2.6,1.6l15.8,68.3C282.7,184.2,282,185.3,280.8,185.6z"/>
				<path class="st9" d="M249.3,194.9c-0.8,0-1.6-0.2-2.2-0.6c-1-0.6-1.6-1.5-1.9-2.6l-15.8-68.3c-0.3-1.1-0.1-2.2,0.5-3.2
					c0.6-1,1.5-1.6,2.6-1.9l31-7.2c2.3-0.5,4.6,0.9,5.1,3.2l15.8,68.3c0.5,2.3-0.9,4.6-3.2,5.1l-31,7.2
					C250,194.9,249.6,194.9,249.3,194.9z M264.6,115.2l-31.1,7.2l15.8,68.4l31.1-7.2l0,0c0,0,0,0,0,0L264.6,115.2z"/>
			</g>
			<g>
				<path class="st49" d="M264.9,140.6l-20.5,4.8c-1.1,0.3-2.3-0.5-2.6-1.6l-3.8-16.3c-0.3-1.1,0.5-2.3,1.6-2.6l20.5-4.8
					c1.1-0.3,2.3,0.5,2.6,1.6l3.8,16.3C266.7,139.2,266,140.3,264.9,140.6z"/>
				<path class="st9" d="M243.9,147.5c-1.9,0-3.7-1.3-4.1-3.3l-3.8-16.3c-0.3-1.1-0.1-2.2,0.5-3.2c0.6-1,1.5-1.6,2.6-1.9l20.5-4.8
					c2.3-0.5,4.6,0.9,5.1,3.2l3.8,16.3c0.3,1.1,0.1,2.2-0.5,3.2c-0.6,1-1.5,1.6-2.6,1.9h0l-20.5,4.8
					C244.5,147.5,244.2,147.5,243.9,147.5z M260.6,122.2l-20.6,4.7l3.8,16.4l20.6-4.7h0c0,0,0,0,0,0L260.6,122.2z"/>
			</g>
			<g>
				<g>
					<path class="st13" d="M249.5,156.1l-2.2,0.5c-0.8,0.2-1.6-0.3-1.8-1.1l-0.5-2.2c-0.2-0.8,0.3-1.6,1.1-1.8l2.2-0.5
						c0.8-0.2,1.6,0.3,1.8,1.1l0.5,2.2C250.8,155,250.3,155.9,249.5,156.1z"/>
					<path class="st13" d="M258.4,154l-2.2,0.5c-0.8,0.2-1.6-0.3-1.8-1.1l-0.5-2.2c-0.2-0.8,0.3-1.6,1.1-1.8l2.2-0.5
						c0.8-0.2,1.6,0.3,1.8,1.1l0.5,2.2C259.7,153,259.2,153.8,258.4,154z"/>
					<path class="st13" d="M267.2,152l-2.2,0.5c-0.8,0.2-1.6-0.3-1.8-1.1l-0.5-2.2c-0.2-0.8,0.3-1.6,1.1-1.8l2.2-0.5
						c0.8-0.2,1.6,0.3,1.8,1.1l0.5,2.2C268.6,150.9,268,151.8,267.2,152z"/>
				</g>
				<g>
					<path class="st13" d="M251.6,165.3l-2.2,0.5c-0.8,0.2-1.6-0.3-1.8-1.1l-0.5-2.2c-0.2-0.8,0.3-1.6,1.1-1.8l2.2-0.5
						c0.8-0.2,1.6,0.3,1.8,1.1l0.5,2.2C253,164.3,252.4,165.1,251.6,165.3z"/>
					<path class="st13" d="M260.5,163.2l-2.2,0.5c-0.8,0.2-1.6-0.3-1.8-1.1l-0.5-2.2c-0.2-0.8,0.3-1.6,1.1-1.8l2.2-0.5
						c0.8-0.2,1.6,0.3,1.8,1.1l0.5,2.2C261.8,162.2,261.3,163,260.5,163.2z"/>
					<path class="st13" d="M269.4,161.2l-2.2,0.5c-0.8,0.2-1.6-0.3-1.8-1.1l-0.5-2.2c-0.2-0.8,0.3-1.6,1.1-1.8l2.2-0.5
						c0.8-0.2,1.6,0.3,1.8,1.1l0.5,2.2C270.7,160.2,270.2,161,269.4,161.2z"/>
				</g>
				<g>
					<path class="st13" d="M253.8,174.5l-2.2,0.5c-0.8,0.2-1.6-0.3-1.8-1.1l-0.5-2.2c-0.2-0.8,0.3-1.6,1.1-1.8l2.2-0.5
						c0.8-0.2,1.6,0.3,1.8,1.1l0.5,2.2C255.1,173.5,254.6,174.3,253.8,174.5z"/>
					<path class="st13" d="M262.6,172.4l-2.2,0.5c-0.8,0.2-1.6-0.3-1.8-1.1l-0.5-2.2c-0.2-0.8,0.3-1.6,1.1-1.8l2.2-0.5
						c0.8-0.2,1.6,0.3,1.8,1.1l0.5,2.2C264,171.4,263.4,172.3,262.6,172.4z"/>
					<path class="st13" d="M271.5,170.4l-2.2,0.5c-0.8,0.2-1.6-0.3-1.8-1.1l-0.5-2.2c-0.2-0.8,0.3-1.6,1.1-1.8l2.2-0.5
						c0.8-0.2,1.6,0.3,1.8,1.1l0.5,2.2C272.8,169.4,272.3,170.2,271.5,170.4z"/>
				</g>
				<g>
					<path class="st13" d="M255.9,183.7l-2.2,0.5c-0.8,0.2-1.6-0.3-1.8-1.1l-0.5-2.2c-0.2-0.8,0.3-1.6,1.1-1.8l2.2-0.5
						c0.8-0.2,1.6,0.3,1.8,1.1l0.5,2.2C257.2,182.7,256.7,183.5,255.9,183.7z"/>
					<path class="st13" d="M264.8,181.7l-2.2,0.5c-0.8,0.2-1.6-0.3-1.8-1.1l-0.5-2.2c-0.2-0.8,0.3-1.6,1.1-1.8l2.2-0.5
						c0.8-0.2,1.6,0.3,1.8,1.1l0.5,2.2C266.1,180.6,265.6,181.5,264.8,181.7z"/>
					<path class="st13" d="M273.6,179.6l-2.2,0.5c-0.8,0.2-1.6-0.3-1.8-1.1l-0.5-2.2c-0.2-0.8,0.3-1.6,1.1-1.8l2.2-0.5
						c0.8-0.2,1.6,0.3,1.8,1.1l0.5,2.2C275,178.6,274.4,179.4,273.6,179.6z"/>
				</g>
			</g>
		</g>
	</g>
	<g>
		<g>
			<polygon class="st9" points="842.8,178.7 812.2,148.1 815.2,145.1 842.8,172.7 870.4,145.1 873.4,148.1 			"/>
		</g>
		<g>
			<circle class="st67" cx="842.8" cy="196.7" r="27.2"/>
			<path class="st9" d="M842.8,226.1c-16.2,0-29.3-13.2-29.3-29.3s13.2-29.3,29.3-29.3c16.2,0,29.3,13.2,29.3,29.3
				S859,226.1,842.8,226.1z M842.8,171.6c-13.9,0-25.1,11.3-25.1,25.1c0,13.9,11.3,25.1,25.1,25.1c13.9,0,25.1-11.3,25.1-25.1
				C867.9,182.9,856.6,171.6,842.8,171.6z"/>
		</g>
		<g>
			<rect x="760.6" y="181.7" class="st10" width="210.5" height="138.3"/>
			<path class="st9" d="M973.2,322.1H758.5V179.5h214.7V322.1z M762.7,317.9h206.2V183.8H762.7V317.9z"/>
		</g>
		<g>
			<rect x="770.9" y="192.3" class="st68" width="189.2" height="115.7"/>
			<path class="st9" d="M962.2,310.1H768.8V190.2h193.5V310.1z M773,305.9h185V194.4H773V305.9z"/>
		</g>
		<g>
			<g>
				<polygon class="st67" points="788.5,328.7 778,328.7 774.9,320 791.6,320 				"/>
				<path class="st9" d="M790,330.9h-13.5l-4.6-13h22.6L790,330.9z M779.5,326.6h7.5l1.6-4.5h-10.7L779.5,326.6z"/>
			</g>
			<g>
				<polygon class="st67" points="953.6,328.7 943.2,328.7 940.1,320 956.7,320 				"/>
				<path class="st9" d="M955.1,330.9h-13.5l-4.6-13h22.6L955.1,330.9z M944.7,326.6h7.5l1.6-4.5h-10.7L944.7,326.6z"/>
			</g>
		</g>
		<g>
			<path class="st69" d="M891.3,284.2h-97c-6.4,0-11.7-5.2-11.7-11.7v-57.8c0-6.4,5.2-11.7,11.7-11.7h97c6.4,0,11.7,5.2,11.7,11.7
				v57.8C902.9,279,897.7,284.2,891.3,284.2z"/>
			<path class="st9" d="M891.3,286.3h-97c-7.6,0-13.8-6.2-13.8-13.8v-57.8c0-7.6,6.2-13.8,13.8-13.8h97c7.6,0,13.8,6.2,13.8,13.8
				v57.8C905.1,280.1,898.9,286.3,891.3,286.3z M794.3,205.1c-5.3,0-9.6,4.3-9.6,9.6v57.8c0,5.3,4.3,9.6,9.6,9.6h97
				c5.3,0,9.6-4.3,9.6-9.6v-57.8c0-5.3-4.3-9.6-9.6-9.6H794.3z"/>
		</g>
		<g>
			<rect x="914.7" y="203.2" class="st33" width="35.4" height="94.9"/>
			<path class="st9" d="M952.2,300.3h-39.6v-99.2h39.6V300.3z M916.8,296H948v-90.7h-31.2V296z"/>
		</g>
		<g>
			<circle class="st70" cx="932.2" cy="280.2" r="7.1"/>
			<path class="st9" d="M932.2,289.4c-5.1,0-9.2-4.1-9.2-9.2c0-5.1,4.1-9.2,9.2-9.2c5.1,0,9.2,4.1,9.2,9.2
				C941.4,285.2,937.2,289.4,932.2,289.4z M932.2,275.2c-2.7,0-5,2.2-5,5s2.2,5,5,5s5-2.2,5-5S934.9,275.2,932.2,275.2z"/>
		</g>
		<g>
			<circle class="st70" cx="932.2" cy="257.3" r="7.1"/>
			<path class="st9" d="M932.2,266.5c-5.1,0-9.2-4.1-9.2-9.2c0-5.1,4.1-9.2,9.2-9.2c5.1,0,9.2,4.1,9.2,9.2
				C941.4,262.4,937.2,266.5,932.2,266.5z M932.2,252.4c-2.7,0-5,2.2-5,5c0,2.7,2.2,5,5,5s5-2.2,5-5
				C937.1,254.6,934.9,252.4,932.2,252.4z"/>
		</g>
		<g>
			<circle class="st71" cx="799.6" cy="294.9" r="3.8"/>
			<path class="st9" d="M799.6,300c-2.8,0-5.1-2.3-5.1-5.1c0-2.8,2.3-5.1,5.1-5.1c2.8,0,5.1,2.3,5.1,5.1
				C804.7,297.8,802.4,300,799.6,300z M799.6,292.4c-1.4,0-2.6,1.2-2.6,2.6s1.2,2.6,2.6,2.6c1.4,0,2.6-1.2,2.6-2.6
				S801,292.4,799.6,292.4z"/>
		</g>
		<g>
			<circle class="st72" cx="898.6" cy="294.9" r="3.8"/>
			<path class="st9" d="M898.6,300c-2.8,0-5.1-2.3-5.1-5.1c0-2.8,2.3-5.1,5.1-5.1c2.8,0,5.1,2.3,5.1,5.1
				C903.7,297.8,901.4,300,898.6,300z M898.6,292.4c-1.4,0-2.6,1.2-2.6,2.6s1.2,2.6,2.6,2.6s2.6-1.2,2.6-2.6S900,292.4,898.6,292.4z
				"/>
		</g>
		<g>
			<circle class="st73" cx="788.2" cy="294.9" r="3.8"/>
			<path class="st9" d="M788.2,300c-2.8,0-5.1-2.3-5.1-5.1c0-2.8,2.3-5.1,5.1-5.1s5.1,2.3,5.1,5.1C793.3,297.8,791,300,788.2,300z
				 M788.2,292.4c-1.4,0-2.6,1.2-2.6,2.6s1.2,2.6,2.6,2.6s2.6-1.2,2.6-2.6S789.6,292.4,788.2,292.4z"/>
		</g>
		<g>
			<g>
				<circle class="st9" cx="921.7" cy="210.4" r="1.5"/>
				<circle class="st9" cx="926" cy="210.4" r="1.5"/>
				<circle class="st9" cx="930.2" cy="210.4" r="1.5"/>
				<circle class="st9" cx="934.5" cy="210.4" r="1.5"/>
				<circle class="st9" cx="938.8" cy="210.4" r="1.5"/>
				<circle class="st9" cx="943" cy="210.4" r="1.5"/>
			</g>
			<g>
				<circle class="st9" cx="921.7" cy="214.9" r="1.5"/>
				<circle class="st9" cx="926" cy="214.9" r="1.5"/>
				<circle class="st9" cx="930.2" cy="214.9" r="1.5"/>
				<circle class="st9" cx="934.5" cy="214.9" r="1.5"/>
				<circle class="st9" cx="938.8" cy="214.9" r="1.5"/>
				<circle class="st9" cx="943" cy="214.9" r="1.5"/>
			</g>
			<g>
				<circle class="st9" cx="921.7" cy="219.3" r="1.5"/>
				<circle class="st9" cx="926" cy="219.3" r="1.5"/>
				<circle class="st9" cx="930.2" cy="219.3" r="1.5"/>
				<circle class="st9" cx="934.5" cy="219.3" r="1.5"/>
				<circle class="st9" cx="938.8" cy="219.3" r="1.5"/>
				<circle class="st9" cx="943" cy="219.3" r="1.5"/>
			</g>
			<g>
				<circle class="st9" cx="921.7" cy="223.8" r="1.5"/>
				<circle class="st9" cx="926" cy="223.8" r="1.5"/>
				<circle class="st9" cx="930.2" cy="223.8" r="1.5"/>
				<circle class="st9" cx="934.5" cy="223.8" r="1.5"/>
				<circle class="st9" cx="938.8" cy="223.8" r="1.5"/>
				<circle class="st9" cx="943" cy="223.8" r="1.5"/>
			</g>
			<g>
				<circle class="st9" cx="921.7" cy="228.2" r="1.5"/>
				<circle class="st9" cx="926" cy="228.2" r="1.5"/>
				<circle class="st9" cx="930.2" cy="228.2" r="1.5"/>
				<circle class="st9" cx="934.5" cy="228.2" r="1.5"/>
				<circle class="st9" cx="938.8" cy="228.2" r="1.5"/>
				<circle class="st9" cx="943" cy="228.2" r="1.5"/>
			</g>
			<g>
				<circle class="st9" cx="921.7" cy="232.7" r="1.5"/>
				<circle class="st9" cx="926" cy="232.7" r="1.5"/>
				<circle class="st9" cx="930.2" cy="232.7" r="1.5"/>
				<circle class="st9" cx="934.5" cy="232.7" r="1.5"/>
				<circle class="st9" cx="938.8" cy="232.7" r="1.5"/>
				<circle class="st9" cx="943" cy="232.7" r="1.5"/>
			</g>
			<g>
				<circle class="st9" cx="921.7" cy="237.2" r="1.5"/>
				<circle class="st9" cx="926" cy="237.2" r="1.5"/>
				<circle class="st9" cx="930.2" cy="237.2" r="1.5"/>
				<circle class="st9" cx="934.5" cy="237.2" r="1.5"/>
				<circle class="st9" cx="938.8" cy="237.2" r="1.5"/>
				<circle class="st9" cx="943" cy="237.2" r="1.5"/>
			</g>
			<g>
				<circle class="st9" cx="921.7" cy="241.6" r="1.5"/>
				<circle class="st9" cx="926" cy="241.6" r="1.5"/>
				<circle class="st9" cx="930.2" cy="241.6" r="1.5"/>
				<circle class="st9" cx="934.5" cy="241.6" r="1.5"/>
				<circle class="st9" cx="938.8" cy="241.6" r="1.5"/>
				<circle class="st9" cx="943" cy="241.6" r="1.5"/>
			</g>
		</g>
	</g>
	<g>
		<g>
			<path class="st19" d="M217.6,402.8H59.4c-7,0-11.8-5.4-10.6-11.8l7.2-38.8c1-5.3,6.8-9.5,13-9.5h139.2c6.2,0,12,4.2,13,9.5
				l7.2,38.8C229.4,397.5,224.7,402.8,217.6,402.8z"/>
		</g>
		<g>
			<path class="st33" d="M217.6,402.8H59.4c-7,0-11.8-5.4-10.6-11.8l7.2-38.8c1-5.3,6.8-9.5,13-9.5h139.2c6.2,0,12,4.2,13,9.5
				l7.2,38.8C229.4,397.5,224.7,402.8,217.6,402.8z"/>
			<path class="st9" d="M217.6,405H59.4c-4.1,0-7.8-1.6-10.2-4.5c-2.2-2.7-3.1-6.2-2.5-9.8l7.2-38.8c1.2-6.3,7.8-11.3,15.1-11.3
				h139.2c7.3,0,13.9,5,15.1,11.3l7.2,38.8c0.7,3.6-0.2,7.1-2.5,9.8C225.5,403.3,221.8,405,217.6,405z M68.9,344.8
				c-5.1,0-10.1,3.6-10.9,7.8l-7.2,38.8c-0.4,2.3,0.1,4.6,1.5,6.3c1.6,1.9,4.1,3,7,3h158.3c2.9,0,5.4-1.1,7-3c1.4-1.7,2-4,1.5-6.3
				l-7.2-38.8c-0.8-4.2-5.8-7.8-10.9-7.8H68.9z"/>
		</g>
		<g>
			<path class="st19" d="M214.7,468.2H62.3c-7.6,0-13.8-6.2-13.8-13.8v-58.2c0-7.6,6.2-13.8,13.8-13.8h152.4
				c7.6,0,13.8,6.2,13.8,13.8v58.2C228.5,462,222.3,468.2,214.7,468.2z"/>
			<path class="st9" d="M214.7,470.3H62.3c-8.8,0-15.9-7.1-15.9-15.9v-58.2c0-8.8,7.1-15.9,15.9-15.9h152.4
				c8.8,0,15.9,7.1,15.9,15.9v58.2C230.6,463.2,223.5,470.3,214.7,470.3z M62.3,384.6c-6.4,0-11.6,5.2-11.6,11.6v58.2
				c0,6.4,5.2,11.6,11.6,11.6h152.4c6.4,0,11.6-5.2,11.6-11.6v-58.2c0-6.4-5.2-11.6-11.6-11.6H62.3z"/>
		</g>
		<g>
			<path class="st33" d="M205.2,468.2v-54.7c0-5.7-4.7-10.4-10.4-10.4H82.1c-5.7,0-10.4,4.7-10.4,10.4v54.7H205.2z"/>
			<path class="st9" d="M207.3,470.3H69.7v-56.8c0-6.9,5.6-12.5,12.5-12.5h112.7c6.9,0,12.5,5.6,12.5,12.5V470.3z M73.9,466.1h129.2
				v-52.6c0-4.5-3.7-8.2-8.2-8.2H82.1c-4.5,0-8.2,3.7-8.2,8.2V466.1z"/>
		</g>
		<g>
			<rect x="71.8" y="428.2" class="st9" width="133.4" height="40.1"/>
		</g>
		<g>
			<path class="st19" d="M204.2,342.6l5.7,30.4c0.9,5-2.8,9.2-8.4,9.2H75.6c-5.6,0-9.4-4.2-8.4-9.2l5.7-30.4H204.2z"/>
			<path class="st9" d="M201.4,384.4H75.6c-3.4,0-6.5-1.4-8.5-3.7c-1.8-2.2-2.6-5.1-2-8l6-32.2h134.8l6,32.2c0.6,2.9-0.2,5.8-2,8
				C208,383.1,204.9,384.4,201.4,384.4z M74.6,344.7l-5.4,28.7c-0.3,1.7,0.1,3.3,1.1,4.5c1.2,1.4,3.1,2.2,5.3,2.2h125.9
				c2.2,0,4.1-0.8,5.3-2.2c1-1.2,1.4-2.8,1.1-4.5l-5.4-28.7H74.6z"/>
		</g>
		<g>
			<path class="st9" d="M185,373H92c-4.1,0-7.1-2.2-6.6-4.9l3.2-16.4c0.4-2.3,3.9-4.1,7.6-4.1h84.5c3.8,0,7.2,1.8,7.6,4.1l3.2,16.4
				C192.1,370.8,189.1,373,185,373z"/>
		</g>
		<g>
			<g>
				<path class="st33" d="M159.4,363.2h-15.3c0,0.2,0,0.4,0,0.6c-0.1,3.4-2.6,6.1-5.5,6.1s-5.4-2.7-5.5-6.1c0-0.2,0-0.4,0-0.6h-15.5
					c-2.8,0-4.6,2.6-4,5.6L116,382h45l2.5-13.2C164,365.7,162.2,363.2,159.4,363.2z"/>
				<path class="st9" d="M162.7,384.1h-48.5l-2.8-15c-0.4-2.2,0.1-4.4,1.4-5.9c1.2-1.4,2.8-2.2,4.7-2.2h17.7l-0.1,2.2
					c0,0.1,0,0.3,0,0.4c0.1,2.2,1.6,4.1,3.4,4.1c1.8,0,3.3-1.8,3.4-4.1c0-0.1,0-0.3,0-0.4l-0.1-2.2h17.5c1.8,0,3.5,0.8,4.7,2.2
					c1.3,1.6,1.8,3.7,1.4,5.9L162.7,384.1z M117.8,379.9h41.5l2.2-11.5c0.2-0.9,0-1.8-0.5-2.4c-0.4-0.4-0.9-0.7-1.4-0.7h-13.3
					c-0.7,3.8-3.8,6.7-7.5,6.7s-6.7-2.8-7.5-6.7h-13.6c-0.6,0-1.1,0.2-1.4,0.7c-0.5,0.6-0.7,1.5-0.5,2.4L117.8,379.9z"/>
			</g>
		</g>
		<g>
			<path class="st33" d="M184.6,482.9H92.4c-4.1,0-7.4-2-7.3-4.5l0.4-16.3c0.1-2.4,3.4-4.4,7.5-4.4h91.1c4,0,7.4,2,7.5,4.4l0.4,16.3
				C192,480.9,188.7,482.9,184.6,482.9z"/>
			<path class="st9" d="M184.6,485H92.4c-3.2,0-6.1-1.1-7.8-2.8c-1.1-1.1-1.6-2.4-1.6-3.8l0.4-16.3c0.1-3.6,4.3-6.5,9.6-6.5h91.1
				c5.3,0,9.5,2.8,9.6,6.5l0.4,16.3c0,1.4-0.5,2.7-1.6,3.8C190.7,484,187.8,485,184.6,485z M92.9,459.8c-3.3,0-5.3,1.5-5.3,2.3
				l-0.4,16.3c0,0.3,0.2,0.6,0.4,0.8c0.7,0.7,2.4,1.5,4.8,1.5h92.2c2.4,0,4.1-0.8,4.8-1.5c0.2-0.2,0.4-0.5,0.4-0.8l-0.4-16.3
				c0-0.8-2.1-2.3-5.3-2.3H92.9z"/>
		</g>
		<g>
			<path class="st19" d="M147.8,485.8V479c0-1.9-1.4-3.4-3-3.4h-12.6c-1.7,0-3,1.5-3,3.4v6.8H147.8z"/>
			<path class="st9" d="M149.9,488h-22.8v-9c0-3,2.3-5.5,5.1-5.5h12.6c2.8,0,5.1,2.5,5.1,5.5V488z M131.3,483.7h14.4V479
				c0-0.7-0.5-1.3-0.9-1.3h-12.6c-0.4,0-0.9,0.5-0.9,1.3V483.7z"/>
		</g>
		<g>
			<polygon class="st33" points="181.3,427.3 95.7,427.3 87.8,467.9 189.2,467.9 			"/>
			<path class="st9" d="M191.8,470H85.2l8.8-44.8h89L191.8,470z M90.4,465.8h96.3l-7.1-36.3h-82L90.4,465.8z"/>
		</g>
		<g>
			<polygon class="st19" points="172.8,456.8 104.2,456.8 109.1,427.1 167.9,427.1 			"/>
			<path class="st9" d="M175.3,458.9h-73.5l5.6-34h62.3L175.3,458.9z M106.7,454.7h63.6l-4.2-25.6h-55.1L106.7,454.7z"/>
		</g>
		<g>
			<rect x="72.2" y="424.6" class="st9" width="132.7" height="4.2"/>
		</g>
	</g>
	<g>
		<g>
			<circle class="st67" cx="432.1" cy="37.3" r="2.6"/>
			<path class="st9" d="M432.1,41.1c-2.1,0-3.8-1.7-3.8-3.8c0-2.1,1.7-3.8,3.8-3.8c2.1,0,3.8,1.7,3.8,3.8
				C435.9,39.4,434.2,41.1,432.1,41.1z M432.1,36c-0.7,0-1.3,0.6-1.3,1.3s0.6,1.3,1.3,1.3s1.3-0.6,1.3-1.3S432.8,36,432.1,36z"/>
		</g>
		<g>
			<circle class="st67" cx="432.1" cy="37.3" r="2.6"/>
			<path class="st9" d="M432.1,41.1c-2.1,0-3.8-1.7-3.8-3.8c0-2.1,1.7-3.8,3.8-3.8c2.1,0,3.8,1.7,3.8,3.8
				C435.9,39.4,434.2,41.1,432.1,41.1z M432.1,36c-0.7,0-1.3,0.6-1.3,1.3s0.6,1.3,1.3,1.3s1.3-0.6,1.3-1.3S432.8,36,432.1,36z"/>
		</g>
		<g>
			<path class="st68" d="M444.8,29.8h-69.7c-1.2,0-2.2,1-2.2,2.2V140c0,1.2,1,2.2,2.2,2.2h69.7c1.2,0,2.2-1,2.2-2.2V32
				C447,30.7,446,29.8,444.8,29.8z"/>
			<path class="st9" d="M444.8,144.3h-69.7c-2.4,0-4.3-1.9-4.3-4.3V32c0-2.4,1.9-4.3,4.3-4.3h69.7c2.4,0,4.3,1.9,4.3,4.3V140
				C449.1,142.4,447.2,144.3,444.8,144.3z M375.1,31.9C375.1,31.9,375,31.9,375.1,31.9L375,140c0,0.1,0,0.1,0.1,0.1h69.7
				c0.1,0,0.1,0,0.1-0.1V32c0-0.1,0-0.1-0.1-0.1H375.1z"/>
		</g>
		<g>
			<g>
				<g>
					<circle class="st33" cx="409.9" cy="106.1" r="20.1"/>
					<path class="st9" d="M409.9,128.3c-12.3,0-22.2-10-22.2-22.2s10-22.2,22.2-22.2c12.3,0,22.2,10,22.2,22.2
						S422.2,128.3,409.9,128.3z M409.9,88.1c-9.9,0-18,8.1-18,18c0,9.9,8.1,18,18,18c9.9,0,18-8.1,18-18
						C428,96.1,419.9,88.1,409.9,88.1z"/>
				</g>
				<g>
					<circle class="st67" cx="409.9" cy="106.1" r="12.7"/>
					<path class="st9" d="M409.9,120.9c-8.2,0-14.8-6.6-14.8-14.8c0-8.2,6.6-14.8,14.8-14.8c8.2,0,14.8,6.6,14.8,14.8
						C424.7,114.2,418.1,120.9,409.9,120.9z M409.9,95.5c-5.8,0-10.6,4.7-10.6,10.6s4.7,10.6,10.6,10.6c5.8,0,10.6-4.7,10.6-10.6
						S415.8,95.5,409.9,95.5z"/>
				</g>
			</g>
			<g>
				<g>
					<circle class="st33" cx="409.9" cy="61.9" r="16.1"/>
					<path class="st9" d="M409.9,80.1c-10,0-18.2-8.2-18.2-18.2c0-10,8.2-18.2,18.2-18.2c10,0,18.2,8.2,18.2,18.2
						C428.2,71.9,420,80.1,409.9,80.1z M409.9,47.9c-7.7,0-14,6.3-14,14c0,7.7,6.3,14,14,14c7.7,0,14-6.3,14-14
						C423.9,54.2,417.7,47.9,409.9,47.9z"/>
				</g>
				<g>
					<circle class="st67" cx="409.9" cy="62.1" r="9.2"/>
					<path class="st9" d="M409.9,73.4c-6.3,0-11.3-5.1-11.3-11.3c0-6.3,5.1-11.3,11.3-11.3c6.3,0,11.3,5.1,11.3,11.3
						C421.3,68.3,416.2,73.4,409.9,73.4z M409.9,54.9c-3.9,0-7.1,3.2-7.1,7.1s3.2,7.1,7.1,7.1s7.1-3.2,7.1-7.1
						S413.9,54.9,409.9,54.9z"/>
				</g>
			</g>
		</g>
		<g>
			<circle class="st67" cx="381" cy="134.2" r="2.6"/>
			<path class="st9" d="M381,138c-2.1,0-3.8-1.7-3.8-3.8c0-2.1,1.7-3.8,3.8-3.8c2.1,0,3.8,1.7,3.8,3.8
				C384.9,136.3,383.2,138,381,138z M381,132.9c-0.7,0-1.3,0.6-1.3,1.3s0.6,1.3,1.3,1.3c0.7,0,1.3-0.6,1.3-1.3
				S381.8,132.9,381,132.9z"/>
		</g>
		<g>
			<circle class="st67" cx="439.5" cy="134.2" r="2.6"/>
			<path class="st9" d="M439.5,138c-2.1,0-3.8-1.7-3.8-3.8c0-2.1,1.7-3.8,3.8-3.8s3.8,1.7,3.8,3.8C443.4,136.3,441.7,138,439.5,138z
				 M439.5,132.9c-0.7,0-1.3,0.6-1.3,1.3s0.6,1.3,1.3,1.3s1.3-0.6,1.3-1.3S440.3,132.9,439.5,132.9z"/>
		</g>
		<g>
			<circle class="st67" cx="381" cy="37" r="2.6"/>
			<path class="st9" d="M381,40.9c-2.1,0-3.8-1.7-3.8-3.8c0-2.1,1.7-3.8,3.8-3.8c2.1,0,3.8,1.7,3.8,3.8
				C384.9,39.1,383.2,40.9,381,40.9z M381,35.7c-0.7,0-1.3,0.6-1.3,1.3s0.6,1.3,1.3,1.3c0.7,0,1.3-0.6,1.3-1.3S381.8,35.7,381,35.7z
				"/>
		</g>
		<g>
			<circle class="st67" cx="439.5" cy="37" r="2.6"/>
			<path class="st9" d="M439.5,40.9c-2.1,0-3.8-1.7-3.8-3.8c0-2.1,1.7-3.8,3.8-3.8s3.8,1.7,3.8,3.8
				C443.4,39.1,441.7,40.9,439.5,40.9z M439.5,35.7c-0.7,0-1.3,0.6-1.3,1.3s0.6,1.3,1.3,1.3s1.3-0.6,1.3-1.3S440.3,35.7,439.5,35.7z
				"/>
		</g>
	</g>
	<g>
		<g>
			<rect x="288.2" y="453.3" class="st68" width="128.2" height="7.7"/>
			<path class="st9" d="M418.4,463.1H286.1v-12h132.4V463.1z M290.3,458.9h123.9v-3.5H290.3V458.9z"/>
		</g>
		<g>
			<path class="st68" d="M334.2,385.9v67.1h36.2v-67.1H334.2z M352.3,437.3c-4.4,0-8-3.6-8-8c0-4.4,3.6-8,8-8c4.4,0,8,3.6,8,8
				C360.2,433.8,356.7,437.3,352.3,437.3z"/>
			<path class="st9" d="M372.4,455.2h-40.4v-71.4h40.4V455.2z M336.3,450.9h31.9V388h-31.9V450.9z M352.3,439.5
				c-5.6,0-10.1-4.5-10.1-10.1c0-5.6,4.5-10.1,10.1-10.1c5.6,0,10.1,4.5,10.1,10.1C362.3,434.9,357.8,439.5,352.3,439.5z
				 M352.3,423.5c-3.2,0-5.8,2.6-5.8,5.8c0,3.2,2.6,5.8,5.8,5.8c3.2,0,5.8-2.6,5.8-5.8C358.1,426.2,355.5,423.5,352.3,423.5z"/>
		</g>
		<g>
			<rect x="260.6" y="298.8" class="st68" width="183.4" height="130.4"/>
			<path class="st9" d="M446,431.3H258.5V296.6H446V431.3z M262.7,427.1h179.1V300.9H262.7V427.1z"/>
		</g>
		<g>
			<rect x="267.7" y="306.4" class="st33" width="169" height="104.1"/>
			<path class="st9" d="M438.9,412.6H265.6V304.3h173.3V412.6z M269.9,408.4h164.8v-99.8H269.9V408.4z"/>
		</g>
		<g>
			<circle class="st72" cx="433.1" cy="419.5" r="3"/>
			<path class="st9" d="M433.1,423.8c-2.4,0-4.3-1.9-4.3-4.3c0-2.4,1.9-4.3,4.3-4.3c2.4,0,4.3,1.9,4.3,4.3
				C437.4,421.8,435.5,423.8,433.1,423.8z M433.1,417.7c-1,0-1.7,0.8-1.7,1.7c0,1,0.8,1.7,1.7,1.7c1,0,1.7-0.8,1.7-1.7
				C434.9,418.5,434.1,417.7,433.1,417.7z"/>
		</g>
		<g>
			<circle class="st64" cx="420.2" cy="419.5" r="3"/>
			<path class="st9" d="M420.2,423.8c-2.4,0-4.3-1.9-4.3-4.3c0-2.4,1.9-4.3,4.3-4.3c2.4,0,4.3,1.9,4.3,4.3
				C424.5,421.8,422.6,423.8,420.2,423.8z M420.2,417.7c-1,0-1.7,0.8-1.7,1.7c0,1,0.8,1.7,1.7,1.7s1.7-0.8,1.7-1.7
				C422,418.5,421.2,417.7,420.2,417.7z"/>
		</g>
	</g>
	<g>
		<g>
			<path class="st9" d="M207.1,266.2h-44.6c-6.4,0-11.6-5.2-11.6-11.6c0-6.4,5.2-11.6,11.6-11.6l20.6,0c1.7,0,3.1-1.4,3.1-3.1
				s-1.4-3.1-3.1-3.1h-15v-8.5h15c6.4,0,11.6,5.2,11.6,11.6c0,6.4-5.2,11.6-11.6,11.6l-20.6,0c-1.7,0-3.1,1.4-3.1,3.1
				c0,1.7,1.4,3.1,3.1,3.1h44.6V266.2z"/>
		</g>
		<g>
			<path class="st9" d="M177.6,236.7h-15c-6.4,0-11.6-5.2-11.6-11.6v-10.3h8.5v10.3c0,1.7,1.4,3.1,3.1,3.1h15V236.7z"/>
		</g>
		<g>
			<g>
				<path class="st67" d="M195.9,261.7L195.9,261.7c0-7.7,6.2-13.9,13.9-13.9h20.1c3.4,0,6.2,2.8,6.2,6.2v15.3
					c0,3.4-2.8,6.2-6.2,6.2h-20.1C202.1,275.6,195.9,269.4,195.9,261.7z"/>
				<path class="st9" d="M229.9,277.7h-20.1c-8.8,0-16-7.2-16-16c0-8.8,7.2-16,16-16h20.1c4.6,0,8.3,3.7,8.3,8.3v15.3
					C238.2,274,234.5,277.7,229.9,277.7z M209.8,249.9c-6.5,0-11.8,5.3-11.8,11.8s5.3,11.8,11.8,11.8h20.1c2.3,0,4.1-1.8,4.1-4.1
					v-15.3c0-2.3-1.8-4.1-4.1-4.1H209.8z"/>
			</g>
			<g>
				<rect x="221.9" y="248.5" class="st9" width="4.2" height="26.6"/>
			</g>
			<g>
				<path class="st33" d="M222.5,261.7L222.5,261.7c0-1.9,1.6-3.5,3.5-3.5h9.3c1.9,0,3.5,1.6,3.5,3.5l0,0c0,1.9-1.6,3.5-3.5,3.5H226
					C224.1,265.2,222.5,263.7,222.5,261.7z"/>
				<path class="st9" d="M235.3,267.3H226c-3.1,0-5.6-2.5-5.6-5.6s2.5-5.6,5.6-5.6h9.3c3.1,0,5.6,2.5,5.6,5.6
					S238.4,267.3,235.3,267.3z M226,260.4c-0.8,0-1.4,0.6-1.4,1.4s0.6,1.4,1.4,1.4h9.3c0.8,0,1.4-0.6,1.4-1.4s-0.6-1.4-1.4-1.4H226z
					"/>
			</g>
		</g>
		<g>
			<path class="st19" d="M257,221.6v1.6c0,6.6-5.4,12-12,12h-22.3c-6.6,0-12-5.4-12-12v-1.6c0-6.6,5.4-12,12-12H245
				C251.6,209.6,257,215,257,221.6z"/>
			<path class="st9" d="M245,237.4h-22.3c-7.8,0-14.1-6.3-14.1-14.1v-1.6c0-7.8,6.3-14.1,14.1-14.1H245c7.8,0,14.1,6.3,14.1,14.1
				v1.6C259.1,231,252.7,237.4,245,237.4z M222.6,211.7c-5.5,0-9.9,4.4-9.9,9.9v1.6c0,5.5,4.4,9.9,9.9,9.9H245
				c5.5,0,9.9-4.4,9.9-9.9v-1.6c0-5.5-4.4-9.9-9.9-9.9H222.6z"/>
		</g>
	</g>
	<g>
		<g>
			<path class="st67" d="M112.1,266L112.1,266c-1.9,0-3.4-1.5-3.4-3.4V240c0-1.9,1.5-3.4,3.4-3.4h0c1.9,0,3.4,1.5,3.4,3.4v22.6
				C115.5,264.4,114,266,112.1,266z"/>
			<path class="st9" d="M112.1,268.1c-3,0-5.5-2.5-5.5-5.5V240c0-3,2.5-5.5,5.5-5.5c3,0,5.5,2.5,5.5,5.5v22.6
				C117.6,265.6,115.2,268.1,112.1,268.1z M112.1,238.8c-0.7,0-1.3,0.6-1.3,1.3v22.6c0,0.7,0.6,1.3,1.3,1.3s1.3-0.6,1.3-1.3V240
				C113.4,239.3,112.8,238.8,112.1,238.8z"/>
		</g>
		<g>
			<path class="st67" d="M115.8,301.1H58.6c-3.5,0-6.3-2.8-6.3-6.3v-18.7h69.9v18.7C122.2,298.3,119.3,301.1,115.8,301.1z"/>
			<path class="st9" d="M115.8,303.3H58.6c-4.7,0-8.4-3.8-8.4-8.4V274h74.1v20.8C124.3,299.5,120.5,303.3,115.8,303.3z M54.4,278.3
				v16.5c0,2.3,1.9,4.2,4.2,4.2h57.2c2.3,0,4.2-1.9,4.2-4.2v-16.5H54.4z"/>
		</g>
		<g>
			<rect x="51" y="259.3" class="st68" width="72.6" height="32.1"/>
			<path class="st9" d="M125.6,293.6H48.8v-36.4h76.8V293.6z M53.1,289.3h68.3v-27.9H53.1V289.3z"/>
		</g>
		<g>
			<rect x="57.3" y="291.7" class="st10" width="7.8" height="4.4"/>
			<path class="st9" d="M65.1,298.2h-7.8c-1.2,0-2.1-0.9-2.1-2.1v-4.4c0-1.2,0.9-2.1,2.1-2.1h7.8c1.2,0,2.1,0.9,2.1,2.1v4.4
				C67.3,297.3,66.3,298.2,65.1,298.2z M59.4,294H63v-0.2h-3.6V294z"/>
		</g>
		<g>
			<rect x="70.6" y="291.7" class="st10" width="7.8" height="4.4"/>
			<path class="st9" d="M78.4,298.2h-7.8c-1.2,0-2.1-0.9-2.1-2.1v-4.4c0-1.2,0.9-2.1,2.1-2.1h7.8c1.2,0,2.1,0.9,2.1,2.1v4.4
				C80.5,297.3,79.6,298.2,78.4,298.2z M72.7,294h3.6v-0.2h-3.6V294z"/>
		</g>
		<g>
			<rect x="83.8" y="291.7" class="st10" width="7.8" height="4.4"/>
			<path class="st9" d="M91.7,298.2h-7.8c-1.2,0-2.1-0.9-2.1-2.1v-4.4c0-1.2,0.9-2.1,2.1-2.1h7.8c1.2,0,2.1,0.9,2.1,2.1v4.4
				C93.8,297.3,92.8,298.2,91.7,298.2z M86,294h3.6v-0.2H86V294z"/>
		</g>
		<g>
			<path class="st9" d="M112,211.8c-5.2,0-10.2,2-13.9,5.7c-0.6,0.6-0.6,1.5,0,2.1c0.6,0.6,1.5,0.6,2.1,0c3.1-3.1,7.3-4.9,11.7-4.9
				c4.4,0,8.6,1.7,11.7,4.9c0.3,0.3,0.7,0.4,1.1,0.4c0.4,0,0.8-0.1,1.1-0.4c0.6-0.6,0.6-1.5,0-2.1
				C122.1,213.9,117.2,211.8,112,211.8z M112,200.7c-8.2,0-15.9,3.2-21.7,9c-0.6,0.6-0.6,1.5,0,2.1s1.5,0.6,2.1,0
				c5.2-5.2,12.2-8.1,19.6-8.1c7.4,0,14.4,2.9,19.6,8.1c0.3,0.3,0.7,0.4,1.1,0.4s0.8-0.1,1.1-0.4c0.6-0.6,0.6-1.5,0-2.1
				C127.9,203.9,120.2,200.7,112,200.7z M141.8,201.7c-8-8-18.5-12.3-29.8-12.3c-11.3,0-21.8,4.4-29.8,12.3c-0.6,0.6-0.6,1.5,0,2.1
				c0.3,0.3,0.7,0.4,1.1,0.4c0.4,0,0.8-0.1,1.1-0.4c7.4-7.4,17.2-11.5,27.7-11.5s20.3,4.1,27.7,11.5c0.6,0.6,1.5,0.6,2.1,0
				S142.4,202.2,141.8,201.7z M106.9,226.4c-0.6,0.6-0.6,1.5,0,2.1c0.6,0.6,1.5,0.6,2.1,0c1.6-1.6,4.3-1.6,5.9,0
				c0.3,0.3,0.7,0.4,1.1,0.4c0.4,0,0.8-0.1,1.1-0.4c0.6-0.6,0.6-1.5,0-2.1C114.3,223.5,109.7,223.5,106.9,226.4z"/>
		</g>
	</g>
	<g>
		<g>
			<path class="st33" d="M652.2,332.7h-47.4c-6.2,0-11.2-5-11.2-11.2v-17.2c0-6.2,5-11.2,11.2-11.2h47.4c6.2,0,11.2,5,11.2,11.2
				v17.2C663.4,327.6,658.3,332.7,652.2,332.7z"/>
			<path class="st9" d="M652.2,334.8h-47.4c-7.3,0-13.3-6-13.3-13.3v-17.2c0-7.3,6-13.3,13.3-13.3h47.4c7.3,0,13.3,6,13.3,13.3v17.2
				C665.5,328.8,659.5,334.8,652.2,334.8z M604.7,295.2c-5,0-9.1,4.1-9.1,9.1v17.2c0,5,4.1,9.1,9.1,9.1h47.4c5,0,9.1-4.1,9.1-9.1
				v-17.2c0-5-4.1-9.1-9.1-9.1H604.7z"/>
		</g>
		<g>
			<path class="st19" d="M719.5,260.8H609c-8.5,0-15.4,6.9-15.4,15.4V305H735v-28.7C735,267.7,728,260.8,719.5,260.8z"/>
			<path class="st9" d="M737.1,307.1H591.4v-30.9c0-9.7,7.9-17.5,17.5-17.5h110.6c9.7,0,17.5,7.9,17.5,17.5V307.1z M595.7,302.9
				h137.2v-26.6c0-7.3-6-13.3-13.3-13.3H609c-7.3,0-13.3,6-13.3,13.3V302.9z"/>
		</g>
		<g>
			<g>
				<circle class="st67" cx="566.3" cy="483.5" r="7.8"/>
				<path class="st9" d="M566.3,493.4c-5.5,0-9.9-4.4-9.9-9.9c0-5.5,4.4-9.9,9.9-9.9c5.5,0,9.9,4.4,9.9,9.9
					C576.2,489,571.7,493.4,566.3,493.4z M566.3,477.8c-3.1,0-5.7,2.6-5.7,5.7s2.6,5.7,5.7,5.7s5.7-2.6,5.7-5.7
					S569.4,477.8,566.3,477.8z"/>
			</g>
			<g>
				<circle class="st67" cx="523.3" cy="483.5" r="7.8"/>
				<path class="st9" d="M523.3,493.4c-5.5,0-9.9-4.4-9.9-9.9c0-5.5,4.4-9.9,9.9-9.9c5.5,0,9.9,4.4,9.9,9.9
					C533.2,489,528.8,493.4,523.3,493.4z M523.3,477.8c-3.1,0-5.7,2.6-5.7,5.7s2.6,5.7,5.7,5.7s5.7-2.6,5.7-5.7
					S526.5,477.8,523.3,477.8z"/>
			</g>
		</g>
		<g>
			<rect x="472.2" y="447.4" class="st19" width="65.2" height="12"/>
			<path class="st9" d="M539.6,461.5h-69.5v-16.2h69.5V461.5z M474.3,457.2h61v-7.7h-61V457.2z"/>
		</g>
		<g>
			<path class="st19" d="M569.6,434.4l-93.4-59.4c-2.4-1.5-3.1-4.6-1.7-7.1l1.1-1.9c1.5-2.6,4.9-3.4,7.4-1.8l93,59.1L569.6,434.4z"
				/>
			<path class="st9" d="M570.3,437.4L475,376.8c-3.3-2.1-4.4-6.5-2.4-9.9l1.1-1.9c1-1.8,2.7-3,4.6-3.5c2-0.5,4-0.1,5.7,0.9
				l94.7,60.2L570.3,437.4z M480.1,365.6c-0.3,0-0.5,0-0.8,0.1c-0.8,0.2-1.5,0.7-2,1.5l-1.1,1.9c-0.8,1.5-0.4,3.3,1,4.2l91.5,58.2
				l4.2-7.3l-91.3-58.1C481.2,365.7,480.7,365.6,480.1,365.6z"/>
		</g>
		<g>
			<path class="st67" d="M560.5,359.7l-78.3-63c-2-2-2.1-5.2-0.2-7.3l1.5-1.6c2-2.2,5.5-2.3,7.6-0.2l77.9,62.7L560.5,359.7z"/>
			<path class="st9" d="M560.8,362.6l-80-64.4c-2.8-2.8-2.9-7.3-0.2-10.2l1.5-1.6c1.4-1.5,3.2-2.3,5.3-2.4c2,0,3.9,0.7,5.3,2.1
				l79.6,64.1L560.8,362.6z M483.7,295.1l76.6,61.7l5.7-6.2l-76.3-61.4l-0.1-0.1c-0.6-0.6-1.4-0.9-2.3-0.9c-0.9,0-1.7,0.4-2.3,1
				l-1.5,1.6C482.6,292,482.6,293.9,483.7,295.1z"/>
		</g>
		<g>
			<path class="st19" d="M552.4,302.9h-37.8c-5.4,0-9.7,4.4-9.7,9.7v161.5c0,5.4,4.4,9.7,9.7,9.7H575c5.4,0,9.7-4.4,9.7-9.7V335.2
				L552.4,302.9z"/>
			<path class="st9" d="M575,486h-60.3c-6.5,0-11.9-5.3-11.9-11.9V312.7c0-6.5,5.3-11.9,11.9-11.9h38.7l33.5,33.5v139.8
				C586.8,480.7,581.5,486,575,486z M514.6,305c-4.2,0-7.6,3.4-7.6,7.6v161.5c0,4.2,3.4,7.6,7.6,7.6H575c4.2,0,7.6-3.4,7.6-7.6
				V336.1l-31-31H514.6z"/>
		</g>
		<g>
			<g>
				<circle class="st67" cx="712.5" cy="483.5" r="7.8"/>
				<path class="st9" d="M712.5,493.4c-5.5,0-9.9-4.4-9.9-9.9c0-5.5,4.4-9.9,9.9-9.9c5.5,0,9.9,4.4,9.9,9.9
					C722.4,489,718,493.4,712.5,493.4z M712.5,477.8c-3.1,0-5.7,2.6-5.7,5.7s2.6,5.7,5.7,5.7c3.1,0,5.7-2.6,5.7-5.7
					S715.6,477.8,712.5,477.8z"/>
			</g>
			<g>
				<circle class="st67" cx="616.2" cy="483.5" r="7.8"/>
				<path class="st9" d="M616.2,493.4c-5.5,0-9.9-4.4-9.9-9.9c0-5.5,4.4-9.9,9.9-9.9s9.9,4.4,9.9,9.9
					C626.1,489,621.7,493.4,616.2,493.4z M616.2,477.8c-3.1,0-5.7,2.6-5.7,5.7s2.6,5.7,5.7,5.7s5.7-2.6,5.7-5.7
					S619.4,477.8,616.2,477.8z"/>
			</g>
		</g>
		<g>
			<path class="st19" d="M721.3,484.6H607.4c-7.1,0-12.9-5.8-12.9-12.9V362.3c0-7.1,5.8-12.9,12.9-12.9h113.9
				c7.1,0,12.9,5.8,12.9,12.9v109.5C734.2,478.8,728.4,484.6,721.3,484.6z"/>
			<path class="st9" d="M721.3,486.8H607.4c-8.3,0-15-6.7-15-15V362.3c0-8.3,6.7-15,15-15h113.9c8.3,0,15,6.7,15,15v109.5
				C736.3,480,729.6,486.8,721.3,486.8z M607.4,351.5c-5.9,0-10.8,4.8-10.8,10.8v109.5c0,5.9,4.8,10.8,10.8,10.8h113.9
				c5.9,0,10.8-4.8,10.8-10.8V362.3c0-5.9-4.8-10.8-10.8-10.8H607.4z"/>
		</g>
		<g>
			<rect x="595.6" y="425.3" class="st9" width="137.5" height="4.2"/>
		</g>
		<g>
			<g>
				<rect x="595.6" y="393.4" class="st9" width="137.5" height="4.2"/>
			</g>
			<g>
				<rect x="595.6" y="457.2" class="st9" width="137.5" height="4.2"/>
			</g>
		</g>
		<g>
			<path class="st33" d="M672,469.5h-15.2c-4.3,0-7.7-3.5-7.7-7.7v-1.9h30.7v1.9C679.7,466,676.2,469.5,672,469.5z"/>
			<path class="st9" d="M672,471.6h-15.2c-5.4,0-9.9-4.4-9.9-9.9v-4h34.9v4C681.8,467.2,677.4,471.6,672,471.6z M651.1,462
				c0.1,3,2.6,5.4,5.6,5.4H672c3,0,5.5-2.4,5.6-5.4H651.1z"/>
		</g>
		<g>
			<path class="st33" d="M672,436.7h-15.2c-4.3,0-7.7-3.5-7.7-7.7v-1.9h30.7v1.9C679.7,433.2,676.2,436.7,672,436.7z"/>
			<path class="st9" d="M672,438.8h-15.2c-5.4,0-9.9-4.4-9.9-9.9v-4h34.9v4C681.8,434.4,677.4,438.8,672,438.8z M651.1,429.2
				c0.1,3,2.6,5.4,5.6,5.4H672c3,0,5.5-2.4,5.6-5.4H651.1z"/>
		</g>
		<g>
			<path class="st33" d="M672,405.5h-15.2c-4.3,0-7.7-3.5-7.7-7.7v-1.9h30.7v1.9C679.7,402,676.2,405.5,672,405.5z"/>
			<path class="st9" d="M672,407.6h-15.2c-5.4,0-9.9-4.4-9.9-9.9v-4h34.9v4C681.8,403.2,677.4,407.6,672,407.6z M651.1,398
				c0.1,3,2.6,5.4,5.6,5.4H672c3,0,5.5-2.4,5.6-5.4H651.1z"/>
		</g>
		<g>
			<path class="st67" d="M734.2,361.6c-0.4-6.8-6-12.2-12.9-12.2H607.4c-6.9,0-12.5,5.4-12.9,12.2H734.2z"/>
			<path class="st9" d="M736.4,363.7H592.3l0.1-2.2c0.4-8,7-14.2,15-14.2h113.9c8,0,14.5,6.2,15,14.2L736.4,363.7z M597,359.5h134.7
				c-1.2-4.6-5.4-8-10.4-8H607.4C602.4,351.5,598.2,354.9,597,359.5z"/>
		</g>
		<g>
			<rect x="692.2" y="320.6" class="st19" width="42" height="40.9"/>
			<path class="st9" d="M736.3,363.6h-46.3v-45.1h46.3V363.6z M694.3,359.4h37.8v-36.7h-37.8V359.4z"/>
		</g>
		<g>
			<path class="st67" d="M552.4,302.9h-37.8c-5.4,0-9.7,4.4-9.7,9.7v7.8H570L552.4,302.9z"/>
			<path class="st9" d="M575.1,322.6h-72.3v-9.9c0-6.5,5.3-11.9,11.9-11.9h38.7L575.1,322.6z M507,318.4h57.9L551.6,305h-36.9
				c-4.2,0-7.6,3.4-7.6,7.6V318.4z"/>
		</g>
		<g>
			<rect x="567.9" y="320.5" class="st9" width="4.2" height="162"/>
		</g>
		<g>
			<path class="st19" d="M731.4,275.3H620.2c-1.9,0-3.4,1.6-3.4,3.4v22.4c0,1.9,1.6,3.4,3.4,3.4h111.1c1.9,0,3.4-1.6,3.4-3.4v-22.4
				C734.8,276.9,733.3,275.3,731.4,275.3z"/>
			<path class="st9" d="M731.4,306.7H620.2c-3.1,0-5.6-2.5-5.6-5.6v-22.4c0-3.1,2.5-5.6,5.6-5.6h111.1c3.1,0,5.6,2.5,5.6,5.6v22.4
				C736.9,304.2,734.4,306.7,731.4,306.7z M620.2,277.4c-0.7,0-1.3,0.6-1.3,1.3v22.4c0,0.7,0.6,1.3,1.3,1.3h111.1
				c0.7,0,1.3-0.6,1.3-1.3v-22.4c0-0.7-0.6-1.3-1.3-1.3H620.2z"/>
		</g>
		<g>
			<g>
				<path class="st33" d="M725.5,298.6h-73.4c-5.2,0-9.5,4.3-9.5,9.5v15c0,5.2,4.3,9.5,9.5,9.5h73.4c5.2,0,9.5-4.3,9.5-9.5v-15
					C735,302.9,730.7,298.6,725.5,298.6z"/>
				<path class="st9" d="M725.5,334.8h-73.4c-6.4,0-11.6-5.2-11.6-11.6v-15c0-6.4,5.2-11.6,11.6-11.6h73.4c6.4,0,11.6,5.2,11.6,11.6
					v15C737.1,329.6,731.9,334.8,725.5,334.8z M652.1,300.7c-4.1,0-7.4,3.3-7.4,7.4v15c0,4.1,3.3,7.4,7.4,7.4h73.4
					c4.1,0,7.4-3.3,7.4-7.4v-15c0-4.1-3.3-7.4-7.4-7.4H652.1z"/>
			</g>
			<g>
				<path class="st67" d="M725.5,288.2h-73.4c-5.2,0-9.5,4.3-9.5,9.5v15c0,5.2,4.3,9.5,9.5,9.5h73.4c5.2,0,9.5-4.3,9.5-9.5v-15
					C735,292.5,730.7,288.2,725.5,288.2z"/>
				<path class="st9" d="M725.5,324.4h-73.4c-6.4,0-11.6-5.2-11.6-11.6v-15c0-6.4,5.2-11.6,11.6-11.6h73.4c6.4,0,11.6,5.2,11.6,11.6
					v15C737.1,319.2,731.9,324.4,725.5,324.4z M652.1,290.3c-4.1,0-7.4,3.3-7.4,7.4v15c0,4.1,3.3,7.4,7.4,7.4h73.4
					c4.1,0,7.4-3.3,7.4-7.4v-15c0-4.1-3.3-7.4-7.4-7.4H652.1z"/>
			</g>
			<g>
				<path class="st19" d="M680.6,316.3h-25.8c-1.9,0-3.4-1.5-3.4-3.4v-15.4c0-1.9,1.5-3.4,3.4-3.4h25.8c1.9,0,3.4,1.5,3.4,3.4v15.4
					C684,314.8,682.4,316.3,680.6,316.3z"/>
				<path class="st9" d="M680.6,318.4h-25.8c-3,0-5.5-2.5-5.5-5.5v-15.4c0-3,2.5-5.5,5.5-5.5h25.8c3,0,5.5,2.5,5.5,5.5v15.4
					C686.1,316,683.6,318.4,680.6,318.4z M654.8,296.3c-0.7,0-1.3,0.6-1.3,1.3v15.4c0,0.7,0.6,1.3,1.3,1.3h25.8
					c0.7,0,1.3-0.6,1.3-1.3v-15.4c0-0.7-0.6-1.3-1.3-1.3H654.8z"/>
			</g>
			<g>
				<circle class="st21" cx="693" cy="299.9" r="2.7"/>
				<circle class="st21" cx="703.4" cy="299.9" r="2.7"/>
				<circle class="st21" cx="713.8" cy="299.9" r="2.7"/>
			</g>
			<g>
				<circle class="st54" cx="693" cy="309.1" r="2.7"/>
				<circle class="st54" cx="703.4" cy="309.1" r="2.7"/>
				<circle class="st54" cx="713.8" cy="309.1" r="2.7"/>
			</g>
		</g>
	</g>
	<g>
		<g>
			<g>
				<rect x="504.1" y="195.6" class="st68" width="108.7" height="6.6"/>
				<path class="st9" d="M615,204.3H502v-10.8h113V204.3z M506.2,200.1h104.5v-2.3H506.2V200.1z"/>
			</g>
			<g>
				<path class="st68" d="M543.2,138.5v57h30.7v-57H543.2z M558.5,182.1c-3.7,0-6.8-3-6.8-6.8c0-3.7,3-6.8,6.8-6.8
					c3.7,0,6.8,3,6.8,6.8C565.2,179.1,562.2,182.1,558.5,182.1z"/>
				<path class="st9" d="M575.9,197.5H541v-61.2h34.9V197.5z M545.3,193.3h26.4v-52.7h-26.4V193.3z M558.5,184.2
					c-4.9,0-8.9-4-8.9-8.9s4-8.9,8.9-8.9c4.9,0,8.9,4,8.9,8.9S563.4,184.2,558.5,184.2z M558.5,170.7c-2.6,0-4.6,2.1-4.6,4.6
					c0,2.6,2.1,4.6,4.6,4.6s4.6-2.1,4.6-4.6C563.1,172.8,561,170.7,558.5,170.7z"/>
			</g>
			<g>
				<rect x="480.7" y="64.5" class="st68" width="155.6" height="110.7"/>
				<path class="st9" d="M638.4,177.3H478.6V62.4h159.8V177.3z M482.8,173h151.3V66.6H482.8V173z"/>
			</g>
			<g>
				<rect x="486.8" y="71" class="st69" width="143.4" height="88.3"/>
				<path class="st9" d="M632.3,161.4H484.7V68.9h147.6V161.4z M488.9,157.2h139.2V73.1H488.9V157.2z"/>
			</g>
			<g>
				<circle class="st72" cx="627.1" cy="166.9" r="2.6"/>
				<path class="st9" d="M627.1,170.8c-2.1,0-3.8-1.7-3.8-3.8s1.7-3.8,3.8-3.8s3.8,1.7,3.8,3.8S629.2,170.8,627.1,170.8z
					 M627.1,165.7c-0.7,0-1.3,0.6-1.3,1.3s0.6,1.3,1.3,1.3s1.3-0.6,1.3-1.3S627.8,165.7,627.1,165.7z"/>
			</g>
			<g>
				<circle class="st64" cx="616.2" cy="166.9" r="2.6"/>
				<path class="st9" d="M616.2,170.8c-2.1,0-3.8-1.7-3.8-3.8s1.7-3.8,3.8-3.8s3.8,1.7,3.8,3.8S618.3,170.8,616.2,170.8z
					 M616.2,165.7c-0.7,0-1.3,0.6-1.3,1.3s0.6,1.3,1.3,1.3c0.7,0,1.3-0.6,1.3-1.3S616.9,165.7,616.2,165.7z"/>
			</g>
		</g>
		<g>
			<rect x="655.1" y="51.9" class="st68" width="80.2" height="150.3"/>
			<path class="st9" d="M737.3,204.4h-84.4V49.8h84.4V204.4z M657.2,200.2h75.9V54.1h-75.9V200.2z"/>
		</g>
		<g>
			<rect x="665" y="64.5" class="st68" width="60.3" height="12.4"/>
			<path class="st9" d="M727.4,79.1h-64.5V62.4h64.5V79.1z M667.1,74.8h56v-8.2h-56V74.8z"/>
		</g>
		<g>
			<rect x="665" y="87" class="st68" width="60.3" height="12.4"/>
			<path class="st9" d="M727.4,101.5h-64.5V84.9h64.5V101.5z M667.1,97.3h56v-8.2h-56V97.3z"/>
		</g>
		<g>
			<rect x="665" y="109.5" class="st68" width="60.3" height="12.4"/>
			<path class="st9" d="M727.4,124h-64.5v-16.7h64.5V124z M667.1,119.8h56v-8.2h-56V119.8z"/>
		</g>
		<g>
			<circle class="st19" cx="695.1" cy="180.3" r="6.5"/>
			<path class="st9" d="M695.1,188.9c-4.8,0-8.6-3.9-8.6-8.6s3.9-8.6,8.6-8.6c4.8,0,8.6,3.9,8.6,8.6S699.9,188.9,695.1,188.9z
				 M695.1,175.9c-2.4,0-4.4,2-4.4,4.4s2,4.4,4.4,4.4s4.4-2,4.4-4.4S697.6,175.9,695.1,175.9z"/>
		</g>
	</g>
	<g>
		<g>
			<path class="st33" d="M485.3,225.5h-5.5c-0.8,0-1.5-0.7-1.5-1.5v-4c0-0.8,0.7-1.5,1.5-1.5h5.5c0.8,0,1.5,0.7,1.5,1.5v4
				C486.8,224.8,486.1,225.5,485.3,225.5z"/>
			<path class="st9" d="M485.3,227.6h-5.5c-2,0-3.6-1.6-3.6-3.6v-4c0-2,1.6-3.6,3.6-3.6h5.5c2,0,3.6,1.6,3.6,3.6v4
				C488.9,226,487.3,227.6,485.3,227.6z M480.5,223.4h4.2v-2.7h-4.2V223.4z"/>
		</g>
		<g>
			<rect x="447.8" y="217" class="st19" width="33.9" height="10.9"/>
			<path class="st9" d="M483.9,230h-38.1v-15.2h38.1V230z M450,225.8h29.7v-6.7H450V225.8z"/>
		</g>
		<g>
			<rect x="455.7" y="218.8" class="st10" width="11.7" height="7.3"/>
		</g>
		<g>
			<path class="st33" d="M457.7,249.7l5.3-1.2c0.8-0.2,1.3-1,1.1-1.7l-0.9-3.9c-0.2-0.8-1-1.3-1.7-1.1l-5.3,1.2
				c-0.8,0.2-1.3,1-1.1,1.7l0.9,3.9C456.1,249.4,456.9,249.9,457.7,249.7z"/>
			<path class="st9" d="M457.4,251.8c-1.6,0-3.1-1.1-3.5-2.8l-0.9-3.9c-0.2-0.9,0-1.9,0.5-2.7c0.5-0.8,1.3-1.4,2.2-1.6l5.3-1.2
				c0.9-0.2,1.9,0,2.7,0.5c0.8,0.5,1.4,1.3,1.6,2.2l0.9,3.9c0.2,0.9,0,1.9-0.5,2.7c-0.5,0.8-1.3,1.4-2.2,1.6l-5.3,1.2
				C457.9,251.8,457.6,251.8,457.4,251.8z M457.3,244.9l0.6,2.6l4.1-0.9l-0.6-2.6L457.3,244.9z"/>
		</g>
		<g>
			
				<rect x="460.1" y="236.8" transform="matrix(-0.9766 0.2149 -0.2149 -0.9766 995.068 376.4303)" class="st19" width="33.9" height="10.9"/>
			<path class="st9" d="M460.1,253.8l-3.3-14.8l37.2-8.2l3.3,14.8L460.1,253.8z M461.9,242.2l1.4,6.6l29-6.4l-1.4-6.6L461.9,242.2z"
				/>
		</g>
		<g>
			
				<rect x="474.5" y="238" transform="matrix(-0.9766 0.2149 -0.2149 -0.9766 1001.2757 374.3816)" class="st10" width="11.7" height="7.3"/>
		</g>
	</g>
	<g>
		<rect x="259.5" y="488.3" class="st68" width="186.6" height="24.3"/>
		<path class="st9" d="M448.2,514.7H257.4v-28.6h190.8V514.7z M261.7,510.5H444v-20.1H261.7V510.5z"/>
	</g>
	<g>
		<g>
			<circle class="st70" cx="274.2" cy="500.5" r="6.4"/>
			<path class="st9" d="M274.2,508.9c-4.7,0-8.5-3.8-8.5-8.5c0-4.7,3.8-8.5,8.5-8.5s8.5,3.8,8.5,8.5
				C282.7,505.1,278.9,508.9,274.2,508.9z M274.2,496.2c-2.3,0-4.3,1.9-4.3,4.3c0,2.3,1.9,4.3,4.3,4.3s4.3-1.9,4.3-4.3
				C278.5,498.1,276.6,496.2,274.2,496.2z"/>
		</g>
		<g>
			<circle class="st71" cx="434" cy="499.9" r="3.8"/>
			<path class="st9" d="M434,505c-2.8,0-5.1-2.3-5.1-5.1c0-2.8,2.3-5.1,5.1-5.1s5.1,2.3,5.1,5.1C439.1,502.7,436.8,505,434,505z
				 M434,497.3c-1.4,0-2.6,1.2-2.6,2.6s1.2,2.6,2.6,2.6c1.4,0,2.6-1.2,2.6-2.6S435.4,497.3,434,497.3z"/>
		</g>
		<g>
			<circle class="st73" cx="422.6" cy="499.9" r="3.8"/>
			<path class="st9" d="M422.6,505c-2.8,0-5.1-2.3-5.1-5.1c0-2.8,2.3-5.1,5.1-5.1s5.1,2.3,5.1,5.1C427.7,502.7,425.4,505,422.6,505z
				 M422.6,497.3c-1.4,0-2.6,1.2-2.6,2.6s1.2,2.6,2.6,2.6c1.4,0,2.6-1.2,2.6-2.6S424,497.3,422.6,497.3z"/>
		</g>
	</g>
	<g>
		<rect x="299.9" y="498.1" class="st9" width="95" height="4.2"/>
	</g>
	<g>
		<g>
			<path class="st10" d="M534.1,262.5l15.2,0c0.1-4.6,1.8-9.2,5.4-12.7c3.3-3.3,5.4-7.9,5.4-13c0-10.1-8.2-18.3-18.3-18.3h0
				c-10.1,0-18.3,8.2-18.3,18.3c0,5.1,2.1,9.6,5.4,13C532.2,253.3,534,257.9,534.1,262.5z"/>
			<path class="st9" d="M551.3,264.6l-19.4,0l0-2.1c-0.1-4.2-1.7-8.2-4.7-11.2c-3.9-3.9-6-9-6-14.5c0-5.5,2.1-10.6,6-14.5
				c3.9-3.9,9-6,14.5-6h0c5.5,0,10.6,2.1,14.5,6c3.9,3.9,6,9,6,14.5c0,5.5-2.1,10.6-6,14.5c-3,3-4.7,7-4.7,11.2L551.3,264.6z
				 M536,260.4l11.2,0c0.5-4.6,2.6-8.8,5.8-12.1c3.1-3.1,4.8-7.1,4.7-11.5c0-4.3-1.7-8.4-4.7-11.5c-3.1-3.1-7.1-4.7-11.5-4.7
				c-4.3,0-8.4,1.7-11.5,4.7c-3.1,3.1-4.7,7.1-4.7,11.5c0,4.3,1.7,8.4,4.7,11.5C533.5,251.6,535.5,255.8,536,260.4z"/>
		</g>
		<g>
			<path class="st33" d="M548.1,275.2h-12.9c-1,0-1.8-0.8-1.8-1.8v-9.4c0-1,0.8-1.8,1.8-1.8h12.9c1,0,1.8,0.8,1.8,1.8v9.4
				C550,274.4,549.1,275.2,548.1,275.2z"/>
			<path class="st9" d="M548.1,277.3h-12.9c-2.2,0-3.9-1.8-3.9-3.9v-9.4c0-2.2,1.8-3.9,3.9-3.9h12.9c2.2,0,3.9,1.8,3.9,3.9v9.4
				C552.1,275.5,550.3,277.3,548.1,277.3z M535.5,273.1h12.4v-8.9h-12.4V273.1z"/>
		</g>
		<g>
			<rect x="533.4" y="266.5" class="st9" width="16.5" height="4.2"/>
		</g>
	</g>
	<g>
		<g>
			<path class="st64" d="M316.6,259.4c2.2,3.8,6.2,6.1,10.6,6.1l0,0H351l-4.1-5c-3.4-4.1-3.4-10.1,0-14.2l4.5-5.4h-14.8l0,0
				c-2.2,0-3.9-1.8-3.9-3.9c0-0.7,0.2-1.4,0.5-2l7.7-13.5l8.6,4.9c0.5,0.3,1.2,0.1,1.5-0.4c0.2-0.3,0.2-0.6,0.1-1l-10-26.3
				c-0.3-0.7-0.9-1.2-1.7-1.2h-0.3l-27.8,4.8c-0.6,0.1-1,0.7-0.8,1.3c0.1,0.3,0.2,0.5,0.5,0.7l8.6,4.9l-12.4,21.7
				c-2.2,3.8-2.2,8.5,0,12.3L316.6,259.4z"/>
			<path class="st9" d="M351,267.6h-23.8c-5.1,0-9.8-2.8-12.4-7.2l-9.5-16.2c-2.6-4.5-2.6-10,0-14.4l11.3-19.9l-6.8-3.9
				c0,0-0.1,0-0.1-0.1c-0.7-0.5-1.2-1.2-1.4-2c-0.4-1.7,0.7-3.5,2.4-3.9c0,0,0.1,0,0.1,0l27.8-4.8c0.1,0,0.2,0,0.4,0h0.3
				c1.6,0,3.1,1,3.7,2.6l10,26.3c0.4,0.9,0.3,1.9-0.2,2.8c-0.9,1.5-2.9,2.1-4.4,1.2l-6.7-3.8L335,236c-0.2,0.3-0.3,0.6-0.3,0.9
				c0,0.5,0.2,0.9,0.5,1.3c0.3,0.3,0.8,0.5,1.3,0.5h14.8c0.8,0,1.6,0.5,1.9,1.2c0.3,0.7,0.2,1.6-0.3,2.2l-4.5,5.4
				c-2.7,3.3-2.7,8.2,0,11.5l4.1,5c0.5,0.6,0.6,1.5,0.3,2.2C352.6,267.1,351.9,267.6,351,267.6z M314.5,203.8l6.1,3.5
				c1,0.6,1.4,1.9,0.8,2.9L309,231.9c-1.8,3.2-1.8,7.1,0,10.2l9.5,16.2c0,0,0,0,0,0c1.8,3.1,5.2,5,8.8,5.1h19.4l-1.3-1.6
				c-4-4.9-4-12,0-16.9l1.6-1.9h-10.3c-1.6,0-3.1-0.6-4.3-1.8c-1.1-1.1-1.8-2.7-1.8-4.3c0-1.1,0.3-2.1,0.8-3l7.7-13.5
				c0.6-1,1.9-1.4,2.9-0.8l6.1,3.5l-9-23.5L314.5,203.8z M349.1,225.7C349.1,225.7,349.1,225.7,349.1,225.7L349.1,225.7z
				 M350.5,224.5L350.5,224.5C350.6,224.5,350.5,224.5,350.5,224.5z"/>
		</g>
		<g>
			<path class="st64" d="M366,209.5l27.8,4.6h0.3c0.8,0,1.4-0.5,1.7-1.2l9.9-26.4c0.2-0.6-0.1-1.2-0.6-1.4c-0.3-0.1-0.7-0.1-1,0.1
				l-8.6,5L383,168.6c-2.2-3.8-6.3-6.1-10.6-6.1h-18.7c-4.4,0-8.5,2.4-10.6,6.2l-11.9,20.7l6.4-1.1c5.3-0.9,10.5,2.1,12.4,7.1
				l2.4,6.4l7.3-12.7c0.7-1.2,2-2,3.4-2l0,0c1.4,0,2.7,0.7,3.4,1.9l7.8,13.5l-8.6,5c-0.6,0.3-0.8,0.9-0.5,1.5
				C365.2,209.2,365.6,209.5,366,209.5z"/>
			<path class="st9" d="M394.1,216.2C394.1,216.2,394.1,216.2,394.1,216.2h-0.3c-0.1,0-0.2,0-0.3,0l-27.7-4.6
				c-1.1-0.1-2.1-0.8-2.6-1.8c-0.4-0.8-0.4-1.7-0.1-2.5c0.3-0.8,0.8-1.4,1.6-1.8l6.7-3.9l-6.8-11.7c-0.3-0.5-0.9-0.8-1.5-0.8
				c0,0,0,0,0,0c-0.6,0-1.2,0.3-1.6,0.9l-7.3,12.7c-0.4,0.7-1.2,1.1-2,1.1c-0.8-0.1-1.5-0.6-1.8-1.4l-2.4-6.4c-1.5-4-5.8-6.5-10-5.7
				l-6.4,1.1c-0.8,0.1-1.6-0.2-2.1-0.9c-0.5-0.7-0.5-1.6-0.1-2.3l11.9-20.7c2.6-4.5,7.3-7.2,12.5-7.2h18.7c5.1,0,9.9,2.8,12.5,7.2
				l11.5,19.8l6.8-3.9c0.8-0.5,1.9-0.6,2.8-0.2c1.7,0.6,2.5,2.5,1.9,4.2l-9.9,26.4C397.2,215.2,395.7,216.2,394.1,216.2z M394.1,212
				L394.1,212L394.1,212L394.1,212z M369,207.9l24.9,4.1l8.8-23.5l-6.1,3.6c-0.5,0.3-1.1,0.4-1.6,0.2c-0.5-0.1-1-0.5-1.3-1
				l-12.5-21.6c-1.8-3.1-5.2-5.1-8.8-5.1h-18.7c-3.6,0-7,2-8.8,5.1l-9.7,16.8l2-0.3c6.3-1.1,12.4,2.5,14.7,8.4l0.9,2.3l5.1-8.8
				c1.1-1.9,3.1-3,5.2-3c0,0,0,0,0,0c2.1,0,4.1,1.1,5.2,2.9l7.8,13.6c0.6,1,0.2,2.3-0.8,2.9L369,207.9z M366.2,207.4L366.2,207.4
				L366.2,207.4z M405.2,187L405.2,187C405.2,187,405.2,187,405.2,187z M403.7,185.8C403.7,185.8,403.7,185.8,403.7,185.8
				L403.7,185.8z"/>
		</g>
		<g>
			<path class="st64" d="M403.5,217.4c-1.4,3.9-5.5,6.3-9.6,5.6l-8.5-1.4l7.8,13.5c1.1,1.9,0.5,4.3-1.4,5.3
				c-0.6,0.4-1.3,0.6-2.1,0.5h-15.5V231c0-0.6-0.5-1.1-1.1-1.1c0,0,0,0-0.1,0c-0.3,0-0.6,0.2-0.8,0.4l-17.8,21.8
				c-0.6,0.7-0.6,1.6,0,2.3l17.9,21.8c0.2,0.3,0.5,0.4,0.8,0.4c0.6,0,1.1-0.4,1.2-1c0,0,0,0,0-0.1v-9.9h24.9c4.4,0,8.5-2.3,10.7-6.2
				l9.4-16.2c2.2-3.8,2.2-8.5,0-12.3l-12.6-21.8L403.5,217.4z"/>
			<path class="st9" d="M373.1,278.7c0,0-0.1,0-0.1,0c-1,0-1.8-0.5-2.4-1.2l-17.9-21.8c-1.2-1.4-1.2-3.5,0-5l17.8-21.8
				c0.6-0.7,1.5-1.2,2.4-1.2c0,0,0.1,0,0.1,0c1.8,0,3.2,1.5,3.2,3.2v7.8h13.4c0.4,0,0.7-0.1,1-0.2c0.4-0.2,0.7-0.6,0.8-1.1
				c0.1-0.5,0.1-0.9-0.2-1.4l-7.8-13.5c-0.4-0.7-0.4-1.6,0.1-2.3c0.5-0.7,1.3-1,2.1-0.9l8.5,1.4c3.1,0.5,6.2-1.3,7.3-4.3
				c0,0,0,0,0,0l3.1-8.3c0.3-0.8,1-1.3,1.8-1.4c0.8-0.1,1.6,0.3,2,1l12.6,21.8c2.6,4.4,2.6,10,0,14.4l-9.4,16.2
				c-2.6,4.4-7.3,7.2-12.5,7.2h0h-22.8v7.8c0,0,0,0.2,0,0.2c-0.1,0.8-0.4,1.6-1.1,2.2C374.6,278.4,373.9,278.7,373.1,278.7z
				 M373.8,274.8L373.8,274.8C373.8,274.8,373.8,274.8,373.8,274.8z M356.1,253.2l16,19.5l0-7.2c0-1.2,0.9-2.1,2.1-2.1h24.9h0
				c3.6,0,7-2,8.8-5.1l9.4-16.2c1.8-3.1,1.8-7,0-10.2L407,214l-1.5,4.1c-1.8,4.9-6.8,7.8-11.9,7l-4.1-0.7l5.5,9.6
				c0.8,1.4,1,3,0.6,4.5c-0.4,1.6-1.4,2.9-2.8,3.7c-1,0.6-2.1,0.9-3.2,0.8l-15.5,0c-1.2,0-2.1-0.9-2.1-2.1v-7.2L356.1,253.2z
				 M355.9,253.4L355.9,253.4C355.9,253.4,355.9,253.4,355.9,253.4z M373.8,231.6L373.8,231.6C373.8,231.7,373.8,231.6,373.8,231.6z
				"/>
		</g>
		<g>
			<rect x="372" y="235.6" class="st9" width="4.2" height="33.4"/>
		</g>
		<g>
			<line class="st64" x1="365.6" y1="207.4" x2="404.1" y2="185.2"/>
			
				<rect x="382.7" y="174.1" transform="matrix(0.4997 0.8662 -0.8662 0.4997 362.6054 -235.154)" class="st9" width="4.2" height="44.4"/>
		</g>
		<g>
			<line class="st64" x1="310.5" y1="203.5" x2="349.5" y2="226.3"/>
			
				<rect x="307.4" y="212.8" transform="matrix(0.8637 0.5039 -0.5039 0.8637 153.2688 -137.0038)" class="st9" width="45.2" height="4.2"/>
		</g>
	</g>
	<g>
		<g>
			<rect x="96.5" y="126.9" class="st33" width="49.2" height="44.5"/>
			<path class="st9" d="M147.8,173.5H94.3v-48.7h53.5V173.5z M98.6,169.3h45V129h-45V169.3z"/>
		</g>
		<g>
			<path class="st70" d="M198.8,154.9H43.3c-6.6,0-11.9-5.3-11.9-11.9V39.3c0-6.6,5.3-11.9,11.9-11.9h155.5
				c6.6,0,11.9,5.3,11.9,11.9V143C210.7,149.5,205.4,154.9,198.8,154.9z"/>
			<path class="st9" d="M198.8,157H43.3c-7.7,0-14-6.3-14-14V39.3c0-7.7,6.3-14,14-14h155.5c7.7,0,14,6.3,14,14V143
				C212.8,150.7,206.5,157,198.8,157z M43.3,29.5c-5.4,0-9.8,4.4-9.8,9.8V143c0,5.4,4.4,9.8,9.8,9.8h155.5c5.4,0,9.8-4.4,9.8-9.8
				V39.3c0-5.4-4.4-9.8-9.8-9.8H43.3z"/>
		</g>
		<g>
			<path class="st68" d="M210.7,137.6V39.3c0-6.6-5.3-11.9-11.9-11.9H43.3c-6.6,0-11.9,5.3-11.9,11.9v98.4H210.7z"/>
			<path class="st9" d="M212.8,139.7H29.3V39.3c0-7.7,6.3-14,14-14h155.5c7.7,0,14,6.3,14,14V139.7z M33.6,135.5h175V39.3
				c0-5.4-4.4-9.8-9.8-9.8H43.3c-5.4,0-9.8,4.4-9.8,9.8V135.5z"/>
		</g>
		<g>
			<rect x="38.5" y="36.5" class="st33" width="165.2" height="92.7"/>
			<path class="st9" d="M205.8,131.3H36.3V34.3h169.5V131.3z M40.6,127.1h161V38.6h-161V127.1z"/>
		</g>
		<g>
			<path class="st70" d="M152.2,176.1H90c-1.4,0-2.5-1.1-2.5-2.5v-4.4c0-1.4,1.1-2.5,2.5-2.5h62.2c1.4,0,2.5,1.1,2.5,2.5v4.4
				C154.7,175,153.6,176.1,152.2,176.1z"/>
			<path class="st9" d="M152.2,178.2H90c-2.6,0-4.6-2.1-4.6-4.6v-4.4c0-2.6,2.1-4.6,4.6-4.6h62.2c2.6,0,4.6,2.1,4.6,4.6v4.4
				C156.8,176.2,154.7,178.2,152.2,178.2z M90,168.8c-0.2,0-0.4,0.2-0.4,0.4v4.4c0,0.2,0.2,0.4,0.4,0.4h62.2c0.2,0,0.4-0.2,0.4-0.4
				v-4.4c0-0.2-0.2-0.4-0.4-0.4H90z"/>
		</g>
	</g>
	<g>
		<g>
			<path class="st68" d="M903.6,460.6h-125c-5.2,0-9.4-4.2-9.4-9.4v-81.3c0-5.2,4.2-9.4,9.4-9.4h125c5.2,0,9.4,4.2,9.4,9.4v81.3
				C913,456.3,908.8,460.6,903.6,460.6z"/>
			<path class="st9" d="M903.6,462.7h-125c-6.4,0-11.6-5.2-11.6-11.6v-81.3c0-6.4,5.2-11.6,11.6-11.6h125c6.4,0,11.6,5.2,11.6,11.6
				v81.3C915.1,457.5,909.9,462.7,903.6,462.7z M778.6,362.5c-4,0-7.3,3.3-7.3,7.3v81.3c0,4,3.3,7.3,7.3,7.3h125
				c4,0,7.3-3.3,7.3-7.3v-81.3c0-4-3.3-7.3-7.3-7.3H778.6z"/>
		</g>
		<g>
			<rect x="775.6" y="369.2" class="st69" width="131" height="82.6"/>
			<path class="st9" d="M908.7,453.9H773.5v-86.8h135.2V453.9z M777.7,449.7h126.8v-78.3H777.7V449.7z"/>
		</g>
		<g>
			<path class="st33" d="M918.9,471.4H763.2c-1.3,0-2.4-1.1-2.4-2.4v-6c0-1.3,1.1-2.4,2.4-2.4h155.7c1.3,0,2.4,1.1,2.4,2.4v6
				C921.4,470.3,920.3,471.4,918.9,471.4z"/>
			<path class="st9" d="M918.9,473.6H763.2c-2.5,0-4.6-2-4.6-4.6v-6c0-2.5,2-4.6,4.6-4.6h155.7c2.5,0,4.6,2,4.6,4.6v6
				C923.5,471.5,921.4,473.6,918.9,473.6z M763.2,462.7c-0.2,0-0.3,0.2-0.3,0.3v6c0,0.2,0.2,0.3,0.3,0.3h155.7
				c0.2,0,0.3-0.2,0.3-0.3v-6c0-0.2-0.2-0.3-0.3-0.3H763.2z"/>
		</g>
	</g>
	<g>
		<g>
			<path class="st33" d="M965.7,386.3v-5.5c0-0.8,0.7-1.5,1.5-1.5h4c0.8,0,1.5,0.7,1.5,1.5v5.5c0,0.8-0.7,1.5-1.5,1.5h-4
				C966.4,387.7,965.7,387.1,965.7,386.3z"/>
			<path class="st9" d="M971.2,389.9h-4c-2,0-3.6-1.6-3.6-3.6v-5.5c0-2,1.6-3.6,3.6-3.6h4c2,0,3.6,1.6,3.6,3.6v5.5
				C974.7,388.3,973.1,389.9,971.2,389.9z M967.8,385.6h2.7v-4.2h-2.7V385.6z"/>
		</g>
		<g>
			<rect x="963.3" y="348.8" class="st19" width="10.9" height="33.9"/>
			<path class="st9" d="M976.3,384.8h-15.2v-38.1h15.2V384.8z M965.4,380.6h6.7v-29.7h-6.7V380.6z"/>
		</g>
		<g>
			<rect x="965.1" y="356.6" class="st10" width="7.3" height="11.7"/>
		</g>
		<g>
			<path class="st33" d="M941.5,358.6l1.2,5.3c0.2,0.8,1,1.3,1.7,1.1l3.9-0.9c0.8-0.2,1.3-1,1.1-1.7l-1.2-5.3
				c-0.2-0.8-1-1.3-1.7-1.1l-3.9,0.9C941.8,357.1,941.3,357.8,941.5,358.6z"/>
			<path class="st9" d="M944.1,367.2c-1.6,0-3.1-1.1-3.5-2.8l-1.2-5.3c-0.2-0.9,0-1.9,0.5-2.7c0.5-0.8,1.3-1.4,2.2-1.6l3.9-0.9
				c0.9-0.2,1.9,0,2.7,0.5c0.8,0.5,1.4,1.3,1.6,2.2l1.2,5.3c0.4,1.9-0.8,3.8-2.7,4.3l-3.9,0.9C944.6,367.2,944.3,367.2,944.1,367.2z
				 M943.7,358.8l0.9,4.1l2.6-0.6l-0.9-4.1L943.7,358.8z M943.5,358.2L943.5,358.2C943.5,358.2,943.5,358.2,943.5,358.2z"/>
		</g>
		<g>
			
				<rect x="931.9" y="372.6" transform="matrix(-0.2149 -0.9766 0.9766 -0.2149 783.5922 1385.9664)" class="st19" width="33.9" height="10.9"/>
			<path class="st9" d="M945.6,398.3l-8.2-37.2l14.8-3.3l8.2,37.2L945.6,398.3z M942.4,364.2l6.4,29l6.6-1.4l-6.4-29L942.4,364.2z"
				/>
		</g>
		<g>
			
				<rect x="943.7" y="377.6" transform="matrix(-0.2149 -0.9766 0.9766 -0.2149 781.2866 1390.5435)" class="st10" width="11.7" height="7.3"/>
		</g>
	</g>
	<g>
		<g>
			<path class="st10" d="M958.2,458.7l15.2,0c0.1-4.6,1.8-9.2,5.4-12.7c3.3-3.3,5.4-7.9,5.4-13c0-10.1-8.2-18.3-18.3-18.3h0
				c-10.1,0-18.3,8.2-18.3,18.3c0,5.1,2.1,9.6,5.4,13C956.3,449.5,958.1,454.1,958.2,458.7z"/>
			<path class="st9" d="M975.5,460.8l-19.4,0l0-2.1c-0.1-4.2-1.7-8.2-4.7-11.2c-3.9-3.9-6-9-6-14.5c0-5.5,2.1-10.6,6-14.5
				c3.9-3.9,9-6,14.5-6h0c5.5,0,10.6,2.1,14.5,6c3.9,3.9,6,9,6,14.5c0,5.5-2.1,10.6-6,14.5c-3,3-4.7,7-4.7,11.2L975.5,460.8z
				 M960.2,456.6l11.2,0c0.5-4.6,2.6-8.8,5.8-12.1c3.1-3.1,4.8-7.1,4.8-11.5c0-4.3-1.7-8.4-4.7-11.5c-3.1-3.1-7.1-4.7-11.5-4.7h0
				c-4.3,0-8.4,1.7-11.5,4.7c-3.1,3.1-4.7,7.1-4.7,11.5c0,4.3,1.7,8.4,4.7,11.5C957.6,447.8,959.6,452,960.2,456.6z"/>
		</g>
		<g>
			<path class="st33" d="M972.3,471.4h-12.9c-1,0-1.8-0.8-1.8-1.8v-9.4c0-1,0.8-1.8,1.8-1.8h12.9c1,0,1.8,0.8,1.8,1.8v9.4
				C974.1,470.6,973.3,471.4,972.3,471.4z"/>
			<path class="st9" d="M972.3,473.5h-12.9c-2.2,0-3.9-1.8-3.9-3.9v-9.4c0-2.2,1.8-3.9,3.9-3.9h12.9c2.2,0,3.9,1.8,3.9,3.9v9.4
				C976.2,471.8,974.4,473.5,972.3,473.5z M959.6,469.3H972v-8.9h-12.4V469.3z"/>
		</g>
		<g>
			<rect x="957.6" y="462.7" class="st9" width="16.5" height="4.2"/>
		</g>
	</g>
	<g>
		<g>
			<path class="st33" d="M180.3,290.4h-5.5c-0.8,0-1.5-0.7-1.5-1.5v-4c0-0.8,0.7-1.5,1.5-1.5h5.5c0.8,0,1.5,0.7,1.5,1.5v4
				C181.7,289.8,181.1,290.4,180.3,290.4z"/>
			<path class="st9" d="M180.3,292.5h-5.5c-2,0-3.6-1.6-3.6-3.6v-4c0-2,1.6-3.6,3.6-3.6h5.5c2,0,3.6,1.6,3.6,3.6v4
				C183.8,290.9,182.2,292.5,180.3,292.5z M175.5,288.3h4.2v-2.7h-4.2V288.3z"/>
		</g>
		<g>
			<rect x="142.8" y="281.9" class="st19" width="33.9" height="10.9"/>
			<path class="st9" d="M178.8,294.9h-38.1v-15.2h38.1V294.9z M144.9,290.7h29.7V284h-29.7V290.7z"/>
		</g>
		<g>
			<rect x="150.6" y="283.7" class="st10" width="11.7" height="7.3"/>
		</g>
		<g>
			<path class="st33" d="M152.6,314.6l5.3-1.2c0.8-0.2,1.3-1,1.1-1.7l-0.9-3.9c-0.2-0.8-1-1.3-1.7-1.1l-5.3,1.2
				c-0.8,0.2-1.3,1-1.1,1.7l0.9,3.9C151,314.3,151.8,314.8,152.6,314.6z"/>
			<path class="st9" d="M152.3,316.8c-1.6,0-3.1-1.1-3.5-2.8l-0.9-3.9c-0.2-0.9,0-1.9,0.5-2.7c0.5-0.8,1.3-1.4,2.2-1.6l5.3-1.2
				c1.9-0.4,3.8,0.8,4.3,2.7l0.9,3.9c0.2,0.9,0,1.9-0.5,2.7c-0.5,0.8-1.3,1.4-2.2,1.6l-5.3,1.2C152.8,316.8,152.5,316.8,152.3,316.8
				z M152.2,309.8l0.6,2.6l4.1-0.9l-0.6-2.6L152.2,309.8z"/>
		</g>
		<g>
			
				<rect x="155" y="301.8" transform="matrix(-0.9766 0.2149 -0.2149 -0.9766 406.0097 570.3386)" class="st19" width="33.9" height="10.9"/>
			<path class="st9" d="M155,318.7l-3.3-14.8l37.2-8.2l3.3,14.8L155,318.7z M156.8,307.2l1.4,6.6l29-6.4l-1.4-6.6L156.8,307.2z"/>
		</g>
		<g>
			
				<rect x="169.4" y="302.9" transform="matrix(-0.9766 0.2149 -0.2149 -0.9766 412.2174 568.2899)" class="st10" width="11.7" height="7.3"/>
		</g>
	</g>
	<g>
		<g>
			<g>
				<rect x="769" y="48.8" class="st10" width="9.2" height="14.5"/>
				<path class="st9" d="M780.3,65.4h-13.5V46.6h13.5V65.4z M771.1,61.2h5V50.9h-5V61.2z"/>
			</g>
			<g>
				<rect x="861.5" y="48.8" class="st10" width="9.2" height="14.5"/>
				<path class="st9" d="M872.8,65.4h-13.5V46.6h13.5V65.4z M863.6,61.2h5V50.9h-5V61.2z"/>
			</g>
		</g>
		<g>
			<rect x="764.3" y="60" class="st68" width="111" height="64.7"/>
			<path class="st9" d="M877.4,126.8H762.2v-69h115.2V126.8z M766.5,122.6h106.8V62.1H766.5V122.6z"/>
		</g>
		<g>
			<rect x="760.9" y="58.7" class="st67" width="117.8" height="10.6"/>
			<path class="st9" d="M880.8,71.3h-122V56.5h122V71.3z M763.1,67.1h113.5v-6.3H763.1V67.1z"/>
		</g>
		<g>
			<rect x="776.9" y="69.9" class="st70" width="85.9" height="35.7"/>
			<path class="st9" d="M864.9,107.7h-90.1V67.8h90.1V107.7z M779,103.5h81.7V72H779V103.5z"/>
		</g>
	</g>
	<g>
		<g>
			<path class="st19" d="M947.2,151.8h-29.9c-4.3,0-7.8-3.5-7.8-7.8V72.9c0-4.3,3.5-7.8,7.8-7.8h29.9c4.3,0,7.8,3.5,7.8,7.8V144
				C955,148.3,951.5,151.8,947.2,151.8z"/>
			<path class="st9" d="M947.2,153.9h-29.9c-5.5,0-9.9-4.4-9.9-9.9V72.9c0-5.5,4.4-9.9,9.9-9.9h29.9c5.5,0,9.9,4.4,9.9,9.9V144
				C957.1,149.5,952.7,153.9,947.2,153.9z M917.3,67.2c-3.1,0-5.7,2.5-5.7,5.7V144c0,3.1,2.5,5.7,5.7,5.7h29.9
				c3.1,0,5.7-2.5,5.7-5.7V72.9c0-3.1-2.5-5.7-5.7-5.7H917.3z"/>
		</g>
		<g>
			<rect x="913" y="74.4" class="st9" width="38.5" height="65.3"/>
		</g>
		<g>
			<circle class="st19" cx="932.3" cy="145" r="2.8"/>
			<path class="st9" d="M932.3,149.8c-2.7,0-4.9-2.2-4.9-4.9c0-2.7,2.2-4.9,4.9-4.9c2.7,0,4.9,2.2,4.9,4.9
				C937.2,147.7,935,149.8,932.3,149.8z M932.3,144.3c-0.4,0-0.6,0.3-0.6,0.6s0.3,0.6,0.6,0.6c0.4,0,0.6-0.3,0.6-0.6
				S932.6,144.3,932.3,144.3z"/>
		</g>
		<g>
			<circle class="st9" cx="924.9" cy="70" r="1"/>
		</g>
		<g>
			<path class="st9" d="M936.1,69.7h-7.6c-0.2,0-0.3,0.1-0.3,0.3v0.2c0,0.2,0.1,0.3,0.3,0.3h7.6c0.2,0,0.3-0.1,0.3-0.3V70
				C936.4,69.9,936.2,69.7,936.1,69.7z"/>
		</g>
	</g>
</g>
</svg>
