<?xml version="1.0" encoding="utf-8"?>
<svg xmlns="http://www.w3.org/2000/svg" width="128" height="128" viewBox="0 0 128 128">
  <defs>
    <style>
      .cls-1 {
        fill: #1787fc;
      }

      .cls-2 {
        fill: none;
      }
    </style>
  </defs>
  <g id="icon-maintenance" transform="translate(-2437.709 -505)">
    <path id="Path_825-inner" data-name="Path 825-inner" class="cls-1" d="M76.489,215.89H53.16v5.3H76.489Zm6.271,5.231a26.2,26.2,0,0,1,3.928-.3,25.7,25.7,0,0,1,4.271.357V197.6a4.1,4.1,0,0,0-4.1-4.1h-8.69v8.2H82.76ZM53.16,242.65h7.926a25.874,25.874,0,0,1,1.443-5.3H53.16Zm17.209-16.029H53.16v5.3H65.437A26.263,26.263,0,0,1,70.369,226.621ZM48.9,205.326H70.137a2.914,2.914,0,0,0,2.907-2.907v-9.642a3.511,3.511,0,0,0-2.872-3.35L62.6,188.262a23.056,23.056,0,0,0-5.745-.014l-7.987,1.194A3.486,3.486,0,0,0,46,192.776v9.642A2.916,2.916,0,0,0,48.9,205.326ZM47.854,215.89h-5.3v5.3h5.3Zm16.478,43.986H36.28V201.7H40.87v-8.2H32.179a4.1,4.1,0,0,0-4.1,4.1v66.378a4.1,4.1,0,0,0,4.1,4.1h39.77A26.119,26.119,0,0,1,64.332,259.875ZM47.854,226.621h-5.3v5.3h5.3Zm0,10.731h-5.3v5.3h5.3Zm38.834-11.4A20.809,20.809,0,1,0,107.5,246.758,20.808,20.808,0,0,0,86.688,225.947Zm.367,33.558H81.176l-9.7-13.859,5.879-4.115,6.764,9.66,10.756-15.362,5.879,4.117Z" transform="translate(2435.922 344.925)"/>
    <rect id="Path_825-area" data-name="Path 825-area" class="cls-2" width="128" height="128" transform="translate(2437.709 505)"/>
  </g>
</svg>
