<?xml version="1.0" encoding="utf-8"?>
<!-- Generator: Adobe Illustrator 24.3.0, SVG Export Plug-In . SVG Version: 6.00 Build 0)  -->
<svg version="1.1" id="Calque_1" xmlns="http://www.w3.org/2000/svg" xmlns:xlink="http://www.w3.org/1999/xlink" x="0px" y="0px"
	 viewBox="0 0 255.86 178.73" style="enable-background:new 0 0 255.86 178.73;" xml:space="preserve">
<style type="text/css">
	.st0{fill:#E4E6E6;}
	.st1{fill:#C8CBCB;}
	.st2{fill:#37444F;}
	.st3{fill:#475866;}
	.st4{fill:#BCBEC0;}
	.st5{fill:#58595B;}
	.st6{fill:#F69931;}
	.st7{fill:#FDDC33;}
	.st8{fill:#EB212E;}
	.st9{fill:#EE512F;}
	.st10{fill:#543F2A;}
</style>
<path class="st0" d="M244.19,153.36v3.62c0,5.98-4.89,10.87-10.87,10.87H23.23c-5.98,0-10.87-4.89-10.87-10.87v-3.62H244.19
	L244.19,153.36z"/>
<path class="st1" d="M111.97,149.74h32.6c3.08,0,5.43,2.35,5.43,5.43s-2.35,5.43-5.43,5.43h-32.6c-3.08,0-5.43-2.35-5.43-5.43
	C106.54,152.27,108.9,149.74,111.97,149.74z"/>
<path class="st2" d="M41.34,19.33h173.87c3.98,0,7.24,3.26,7.24,7.24v126.78H34.09V26.58C34.09,22.59,37.35,19.33,41.34,19.33z"/>
<path class="st3" d="M44.96,30.2h166.63v112.29H44.96V30.2z"/>
<g>
	<g transform="translate(0.000000,512.000000) scale(0.100000,-0.100000)">
		<path class="st4" d="M1504.36,4001.18h-470.5c-43.12,0-78.07,34.95-78.07,78.07v422.48c0,43.12,34.95,78.07,78.07,78.07h470.5
			c43.12,0,78.07-34.95,78.07-78.07v-422.48C1582.43,4036.14,1547.47,4001.18,1504.36,4001.18z"/>
		<path class="st5" d="M1264.12,4520.15c-3.03-1.33-6.13-5.1-6.65-8.05c-0.22-1.33-0.37-14.04-0.22-28.37
			c0.22-24.89,0.3-26.08,1.77-28c2.88-3.92,5.24-5.1,9.9-5.1s7.01,1.18,9.9,5.1c1.48,1.99,1.55,2.88,1.55,29.99s-0.07,28-1.55,29.99
			c-0.81,1.11-2.36,2.73-3.4,3.47C1272.98,4521.04,1267.08,4521.56,1264.12,4520.15z"/>
		<path class="st5" d="M1139.92,4468.67c-3.25-0.96-6.65-4.58-7.68-8.27c-1.63-6.13-0.96-7.09,19.86-28
			c15.73-15.73,19.49-19.06,21.93-19.72c8.42-2.29,16.61,5.91,14.33,14.33c-0.66,2.44-4.06,6.21-18.98,21.35
			C1148.41,4469.48,1146.72,4470.66,1139.92,4468.67z"/>
		<path class="st5" d="M1389.65,4468.07c-1.85-0.89-9.75-8.27-21.19-19.72c-15.14-15.36-18.31-18.91-18.98-21.35
			c-2.22-8.42,5.91-16.62,14.33-14.33c2.44,0.66,6.2,4.06,21.34,18.98c19.64,19.57,21.71,22.23,20.75,27.41
			C1404.49,4466.89,1396.45,4471.4,1389.65,4468.07z"/>
		<path class="st5" d="M1258.58,4426.19c-15.36-1.99-30.05-7.46-42.83-16.03c-7.09-4.73-20.16-17.8-24.88-24.89
			c-7.02-10.49-12.04-22.31-14.7-34.72c-1.92-8.79-1.92-28.14,0-36.94c4.13-19.13,12.33-34.2,26.21-48.09
			c13.88-13.89,28.95-22.09,48.07-26.22c8.79-1.92,28.13-1.92,36.92,0c18.98,4.06,34.41,12.49,48.07,26.22
			c13.74,13.67,22.15,29.1,26.21,48.09c1.92,8.79,1.92,28.14,0,36.94c-4.13,19.13-12.33,34.2-26.21,48.09
			c-13.66,13.67-27.99,21.64-46.59,25.85C1282.73,4425.9,1264.42,4426.93,1258.58,4426.19z M1285.98,4400.85
			c13.44-3.47,23.63-9.46,33.52-19.57c21.27-21.79,26.36-53.56,12.77-80.52c-4.13-8.35-6.65-11.82-13.44-18.61
			c-6.79-6.8-10.26-9.31-18.61-13.45c-11.3-5.69-22.74-8.05-35.3-7.31c-18.09,1.11-32.56,7.61-45.49,20.46
			c-10.26,10.12-16.24,20.68-19.72,34.42c-1.77,7.02-1.77,24.6,0,31.62c3.32,13.22,9.45,24.16,18.98,33.76
			c10.85,11.08,22.81,17.44,37.88,20.31C1263.97,4403.36,1278.67,4402.85,1285.98,4400.85z"/>
		<path class="st5" d="M1086.9,4342.86c-4.95-2.14-7.75-7.83-6.72-13.37c0.66-3.47,4.36-7.54,7.68-8.5
			c1.77-0.52,11.81-0.74,29.09-0.59c25.25,0.22,26.43,0.3,28.36,1.77c3.91,2.88,5.1,5.24,5.1,9.9c0,4.65-1.18,7.02-5.09,9.9
			c-1.92,1.48-3.03,1.55-29.09,1.7C1094.81,4343.82,1088.68,4343.68,1086.9,4342.86z"/>
		<path class="st5" d="M1394.08,4342.86c-4.95-2.14-7.75-7.83-6.72-13.37c0.66-3.47,4.36-7.54,7.68-8.5
			c1.77-0.52,11.81-0.74,29.09-0.59c25.25,0.22,26.44,0.3,28.36,1.77c3.91,2.88,5.1,5.24,5.1,9.9c0,4.65-1.18,7.02-5.09,9.9
			c-1.92,1.48-3.03,1.55-29.09,1.7C1401.98,4343.82,1395.85,4343.68,1394.08,4342.86z"/>
		<path class="st5" d="M1173.3,4251.19c-2.22-0.81-7.46-5.61-21.49-19.72c-15.21-15.29-18.76-19.21-19.49-21.64
			c-2.51-8.57,5.83-16.91,14.4-14.41c2.44,0.74,6.35,4.29,21.93,19.8c15.73,15.73,19.05,19.5,19.72,21.94
			C1190.72,4246.02,1181.94,4254.29,1173.3,4251.19z"/>
		<path class="st5" d="M1357.16,4251.19c-5.83-2.07-9.23-8.27-7.68-14.03c0.67-2.44,4.06-6.21,18.98-21.35
			c19.79-19.87,22.15-21.64,27.62-20.76c3.99,0.74,8.42,4.73,9.53,8.72c1.63,6.06,0.81,7.24-19.12,27.33
			c-10.04,10.12-19.05,18.77-20.08,19.35C1363.29,4252.08,1360.26,4252.3,1357.16,4251.19z"/>
		<path class="st5" d="M1264.12,4212.85c-3.03-1.33-6.13-5.1-6.65-8.05c-0.22-1.33-0.37-14.04-0.22-28.37
			c0.22-24.89,0.3-26.08,1.77-28c2.88-3.92,5.24-5.1,9.9-5.1s7.01,1.18,9.9,5.1c1.48,1.99,1.55,2.88,1.55,29.99s-0.07,28-1.55,29.99
			c-0.81,1.11-2.36,2.73-3.4,3.47C1272.98,4213.74,1267.08,4214.26,1264.12,4212.85z"/>
		<g>
			<path class="st5" d="M1076.78,4073.74c-1.98-0.65-4.01-2.48-4.34-3.92c-0.14-0.65-0.24-6.82-0.14-13.79
				c0.14-12.11,0.19-12.68,1.16-13.61c1.88-1.9,3.43-2.48,6.47-2.48c3.04,0,4.58,0.58,6.47,2.48c0.96,0.97,1.01,1.4,1.01,14.58
				s-0.05,13.61-1.01,14.58c-0.53,0.54-1.54,1.33-2.22,1.69C1082.56,4074.18,1078.7,4074.43,1076.78,4073.74z"/>
			<path class="st5" d="M1076.78,4073.74c-1.98-0.65-4.01-2.48-4.34-3.92c-0.14-0.65-0.24-6.82-0.14-13.79
				c0.14-12.11,0.19-12.68,1.16-13.61c1.88-1.9,3.43-2.48,6.47-2.48c3.04,0,4.58,0.58,6.47,2.48c0.96,0.97,1.01,1.4,1.01,14.58
				s-0.05,13.61-1.01,14.58c-0.53,0.54-1.54,1.33-2.22,1.69C1082.56,4074.18,1078.7,4074.43,1076.78,4073.74z"/>
			<path class="st5" d="M1076.78,4073.74c-1.98-0.65-4.01-2.48-4.34-3.92c-0.14-0.65-0.24-6.82-0.14-13.79
				c0.14-12.11,0.19-12.68,1.16-13.61c1.88-1.9,3.43-2.48,6.47-2.48c3.04,0,4.58,0.58,6.47,2.48c0.96,0.97,1.01,1.4,1.01,14.58
				s-0.05,13.61-1.01,14.58c-0.53,0.54-1.54,1.33-2.22,1.69C1082.56,4074.18,1078.7,4074.43,1076.78,4073.74z"/>
		</g>
		<g>
			<path class="st5" d="M1129.22,4073.74c-1.98-0.65-4.01-2.48-4.34-3.92c-0.14-0.65-0.24-6.82-0.14-13.79
				c0.14-12.11,0.19-12.68,1.16-13.61c1.88-1.9,3.43-2.48,6.47-2.48c3.04,0,4.58,0.58,6.47,2.48c0.96,0.97,1.01,1.4,1.01,14.58
				s-0.05,13.61-1.01,14.58c-0.53,0.54-1.54,1.33-2.22,1.69C1135,4074.18,1131.15,4074.43,1129.22,4073.74z"/>
			<path class="st5" d="M1129.22,4073.74c-1.98-0.65-4.01-2.48-4.34-3.92c-0.14-0.65-0.24-6.82-0.14-13.79
				c0.14-12.11,0.19-12.68,1.16-13.61c1.88-1.9,3.43-2.48,6.47-2.48c3.04,0,4.58,0.58,6.47,2.48c0.96,0.97,1.01,1.4,1.01,14.58
				s-0.05,13.61-1.01,14.58c-0.53,0.54-1.54,1.33-2.22,1.69C1135,4074.18,1131.15,4074.43,1129.22,4073.74z"/>
			<path class="st5" d="M1129.22,4073.74c-1.98-0.65-4.01-2.48-4.34-3.92c-0.14-0.65-0.24-6.82-0.14-13.79
				c0.14-12.11,0.19-12.68,1.16-13.61c1.88-1.9,3.43-2.48,6.47-2.48c3.04,0,4.58,0.58,6.47,2.48c0.96,0.97,1.01,1.4,1.01,14.58
				s-0.05,13.61-1.01,14.58c-0.53,0.54-1.54,1.33-2.22,1.69C1135,4074.18,1131.15,4074.43,1129.22,4073.74z"/>
		</g>
		<g>
			<path class="st5" d="M1076.78,4073.74c-1.98-0.65-4.01-2.48-4.34-3.92c-0.14-0.65-0.24-6.82-0.14-13.79
				c0.14-12.11,0.19-12.68,1.16-13.61c1.88-1.9,3.43-2.48,6.47-2.48c3.04,0,4.58,0.58,6.47,2.48c0.96,0.97,1.01,1.4,1.01,14.58
				s-0.05,13.61-1.01,14.58c-0.53,0.54-1.54,1.33-2.22,1.69C1082.56,4074.18,1078.7,4074.43,1076.78,4073.74z"/>
			<path class="st5" d="M1076.78,4073.74c-1.98-0.65-4.01-2.48-4.34-3.92c-0.14-0.65-0.24-6.82-0.14-13.79
				c0.14-12.11,0.19-12.68,1.16-13.61c1.88-1.9,3.43-2.48,6.47-2.48c3.04,0,4.58,0.58,6.47,2.48c0.96,0.97,1.01,1.4,1.01,14.58
				s-0.05,13.61-1.01,14.58c-0.53,0.54-1.54,1.33-2.22,1.69C1082.56,4074.18,1078.7,4074.43,1076.78,4073.74z"/>
			<path class="st5" d="M1076.78,4073.74c-1.98-0.65-4.01-2.48-4.34-3.92c-0.14-0.65-0.24-6.82-0.14-13.79
				c0.14-12.11,0.19-12.68,1.16-13.61c1.88-1.9,3.43-2.48,6.47-2.48c3.04,0,4.58,0.58,6.47,2.48c0.96,0.97,1.01,1.4,1.01,14.58
				s-0.05,13.61-1.01,14.58c-0.53,0.54-1.54,1.33-2.22,1.69C1082.56,4074.18,1078.7,4074.43,1076.78,4073.74z"/>
		</g>
		<g>
			<path class="st5" d="M1155.73,4073.74c-1.98-0.65-4.01-2.48-4.34-3.92c-0.14-0.65-0.24-6.82-0.14-13.79
				c0.14-12.11,0.19-12.68,1.16-13.61c1.88-1.9,3.43-2.48,6.47-2.48c3.04,0,4.58,0.58,6.47,2.48c0.96,0.97,1.01,1.4,1.01,14.58
				s-0.05,13.61-1.01,14.58c-0.53,0.54-1.54,1.33-2.22,1.69C1161.52,4074.18,1157.66,4074.43,1155.73,4073.74z"/>
			<path class="st5" d="M1155.73,4073.74c-1.98-0.65-4.01-2.48-4.34-3.92c-0.14-0.65-0.24-6.82-0.14-13.79
				c0.14-12.11,0.19-12.68,1.16-13.61c1.88-1.9,3.43-2.48,6.47-2.48c3.04,0,4.58,0.58,6.47,2.48c0.96,0.97,1.01,1.4,1.01,14.58
				s-0.05,13.61-1.01,14.58c-0.53,0.54-1.54,1.33-2.22,1.69C1161.52,4074.18,1157.66,4074.43,1155.73,4073.74z"/>
			<path class="st5" d="M1155.73,4073.74c-1.98-0.65-4.01-2.48-4.34-3.92c-0.14-0.65-0.24-6.82-0.14-13.79
				c0.14-12.11,0.19-12.68,1.16-13.61c1.88-1.9,3.43-2.48,6.47-2.48c3.04,0,4.58,0.58,6.47,2.48c0.96,0.97,1.01,1.4,1.01,14.58
				s-0.05,13.61-1.01,14.58c-0.53,0.54-1.54,1.33-2.22,1.69C1161.52,4074.18,1157.66,4074.43,1155.73,4073.74z"/>
		</g>
		<g>
			<path class="st5" d="M1183.71,4073.74c-1.98-0.65-4.01-2.48-4.34-3.92c-0.14-0.65-0.24-6.82-0.14-13.79
				c0.14-12.11,0.19-12.68,1.16-13.61c1.88-1.9,3.43-2.48,6.47-2.48s4.58,0.58,6.47,2.48c0.96,0.97,1.01,1.4,1.01,14.58
				s-0.05,13.61-1.01,14.58c-0.53,0.54-1.54,1.33-2.22,1.69C1189.5,4074.18,1185.64,4074.43,1183.71,4073.74z"/>
			<path class="st5" d="M1183.71,4073.74c-1.98-0.65-4.01-2.48-4.34-3.92c-0.14-0.65-0.24-6.82-0.14-13.79
				c0.14-12.11,0.19-12.68,1.16-13.61c1.88-1.9,3.43-2.48,6.47-2.48s4.58,0.58,6.47,2.48c0.96,0.97,1.01,1.4,1.01,14.58
				s-0.05,13.61-1.01,14.58c-0.53,0.54-1.54,1.33-2.22,1.69C1189.5,4074.18,1185.64,4074.43,1183.71,4073.74z"/>
			<path class="st5" d="M1183.71,4073.74c-1.98-0.65-4.01-2.48-4.34-3.92c-0.14-0.65-0.24-6.82-0.14-13.79
				c0.14-12.11,0.19-12.68,1.16-13.61c1.88-1.9,3.43-2.48,6.47-2.48s4.58,0.58,6.47,2.48c0.96,0.97,1.01,1.4,1.01,14.58
				s-0.05,13.61-1.01,14.58c-0.53,0.54-1.54,1.33-2.22,1.69C1189.5,4074.18,1185.64,4074.43,1183.71,4073.74z"/>
		</g>
		<g>
			<path class="st5" d="M1101.71,4073.74c-1.98-0.65-4.01-2.48-4.34-3.92c-0.14-0.65-0.24-6.82-0.14-13.79
				c0.14-12.11,0.19-12.68,1.16-13.61c1.88-1.9,3.43-2.48,6.47-2.48c3.04,0,4.58,0.58,6.47,2.48c0.96,0.97,1.01,1.4,1.01,14.58
				s-0.05,13.61-1.01,14.58c-0.53,0.54-1.54,1.33-2.22,1.69C1107.5,4074.18,1103.64,4074.43,1101.71,4073.74z"/>
			<path class="st5" d="M1101.71,4073.74c-1.98-0.65-4.01-2.48-4.34-3.92c-0.14-0.65-0.24-6.82-0.14-13.79
				c0.14-12.11,0.19-12.68,1.16-13.61c1.88-1.9,3.43-2.48,6.47-2.48c3.04,0,4.58,0.58,6.47,2.48c0.96,0.97,1.01,1.4,1.01,14.58
				s-0.05,13.61-1.01,14.58c-0.53,0.54-1.54,1.33-2.22,1.69C1107.5,4074.18,1103.64,4074.43,1101.71,4073.74z"/>
			<path class="st5" d="M1101.71,4073.74c-1.98-0.65-4.01-2.48-4.34-3.92c-0.14-0.65-0.24-6.82-0.14-13.79
				c0.14-12.11,0.19-12.68,1.16-13.61c1.88-1.9,3.43-2.48,6.47-2.48c3.04,0,4.58,0.58,6.47,2.48c0.96,0.97,1.01,1.4,1.01,14.58
				s-0.05,13.61-1.01,14.58c-0.53,0.54-1.54,1.33-2.22,1.69C1107.5,4074.18,1103.64,4074.43,1101.71,4073.74z"/>
		</g>
		<g>
			<path class="st5" d="M1212.51,4073.74c-1.98-0.65-4.01-2.48-4.34-3.92c-0.14-0.65-0.24-6.82-0.14-13.79
				c0.14-12.11,0.19-12.68,1.16-13.61c1.88-1.9,3.43-2.48,6.47-2.48c3.04,0,4.58,0.58,6.47,2.48c0.96,0.97,1.01,1.4,1.01,14.58
				s-0.05,13.61-1.01,14.58c-0.53,0.54-1.54,1.33-2.22,1.69C1218.29,4074.18,1214.43,4074.43,1212.51,4073.74z"/>
			<path class="st5" d="M1212.51,4073.74c-1.98-0.65-4.01-2.48-4.34-3.92c-0.14-0.65-0.24-6.82-0.14-13.79
				c0.14-12.11,0.19-12.68,1.16-13.61c1.88-1.9,3.43-2.48,6.47-2.48c3.04,0,4.58,0.58,6.47,2.48c0.96,0.97,1.01,1.4,1.01,14.58
				s-0.05,13.61-1.01,14.58c-0.53,0.54-1.54,1.33-2.22,1.69C1218.29,4074.18,1214.43,4074.43,1212.51,4073.74z"/>
			<path class="st5" d="M1212.51,4073.74c-1.98-0.65-4.01-2.48-4.34-3.92c-0.14-0.65-0.24-6.82-0.14-13.79
				c0.14-12.11,0.19-12.68,1.16-13.61c1.88-1.9,3.43-2.48,6.47-2.48c3.04,0,4.58,0.58,6.47,2.48c0.96,0.97,1.01,1.4,1.01,14.58
				s-0.05,13.61-1.01,14.58c-0.53,0.54-1.54,1.33-2.22,1.69C1218.29,4074.18,1214.43,4074.43,1212.51,4073.74z"/>
		</g>
		<g>
			<path class="st5" d="M1241.3,4073.74c-1.98-0.65-4.01-2.48-4.34-3.92c-0.14-0.65-0.24-6.82-0.14-13.79
				c0.14-12.11,0.19-12.68,1.16-13.61c1.88-1.9,3.43-2.48,6.47-2.48c3.04,0,4.58,0.58,6.47,2.48c0.96,0.97,1.01,1.4,1.01,14.58
				s-0.05,13.61-1.01,14.58c-0.53,0.54-1.54,1.33-2.22,1.69C1247.09,4074.18,1243.23,4074.43,1241.3,4073.74z"/>
			<path class="st5" d="M1241.3,4073.74c-1.98-0.65-4.01-2.48-4.34-3.92c-0.14-0.65-0.24-6.82-0.14-13.79
				c0.14-12.11,0.19-12.68,1.16-13.61c1.88-1.9,3.43-2.48,6.47-2.48c3.04,0,4.58,0.58,6.47,2.48c0.96,0.97,1.01,1.4,1.01,14.58
				s-0.05,13.61-1.01,14.58c-0.53,0.54-1.54,1.33-2.22,1.69C1247.09,4074.18,1243.23,4074.43,1241.3,4073.74z"/>
			<path class="st5" d="M1241.3,4073.74c-1.98-0.65-4.01-2.48-4.34-3.92c-0.14-0.65-0.24-6.82-0.14-13.79
				c0.14-12.11,0.19-12.68,1.16-13.61c1.88-1.9,3.43-2.48,6.47-2.48c3.04,0,4.58,0.58,6.47,2.48c0.96,0.97,1.01,1.4,1.01,14.58
				s-0.05,13.61-1.01,14.58c-0.53,0.54-1.54,1.33-2.22,1.69C1247.09,4074.18,1243.23,4074.43,1241.3,4073.74z"/>
		</g>
		<g>
			<path class="st5" d="M1269.75,4073.74c-1.98-0.65-4.01-2.48-4.34-3.92c-0.14-0.65-0.24-6.82-0.14-13.79
				c0.14-12.11,0.19-12.68,1.16-13.61c1.88-1.9,3.43-2.48,6.47-2.48c3.04,0,4.58,0.58,6.47,2.48c0.96,0.97,1.01,1.4,1.01,14.58
				s-0.05,13.61-1.01,14.58c-0.53,0.54-1.54,1.33-2.22,1.69C1275.54,4074.18,1271.68,4074.43,1269.75,4073.74z"/>
			<path class="st5" d="M1269.75,4073.74c-1.98-0.65-4.01-2.48-4.34-3.92c-0.14-0.65-0.24-6.82-0.14-13.79
				c0.14-12.11,0.19-12.68,1.16-13.61c1.88-1.9,3.43-2.48,6.47-2.48c3.04,0,4.58,0.58,6.47,2.48c0.96,0.97,1.01,1.4,1.01,14.58
				s-0.05,13.61-1.01,14.58c-0.53,0.54-1.54,1.33-2.22,1.69C1275.54,4074.18,1271.68,4074.43,1269.75,4073.74z"/>
			<path class="st5" d="M1269.75,4073.74c-1.98-0.65-4.01-2.48-4.34-3.92c-0.14-0.65-0.24-6.82-0.14-13.79
				c0.14-12.11,0.19-12.68,1.16-13.61c1.88-1.9,3.43-2.48,6.47-2.48c3.04,0,4.58,0.58,6.47,2.48c0.96,0.97,1.01,1.4,1.01,14.58
				s-0.05,13.61-1.01,14.58c-0.53,0.54-1.54,1.33-2.22,1.69C1275.54,4074.18,1271.68,4074.43,1269.75,4073.74z"/>
		</g>
		<g>
			<path class="st5" d="M1295.97,4073.74c-1.98-0.65-4.01-2.48-4.34-3.92c-0.14-0.65-0.24-6.82-0.14-13.79
				c0.14-12.11,0.19-12.68,1.16-13.61c1.88-1.9,3.43-2.48,6.47-2.48c3.04,0,4.58,0.58,6.47,2.48c0.96,0.97,1.01,1.4,1.01,14.58
				s-0.05,13.61-1.01,14.58c-0.53,0.54-1.54,1.33-2.22,1.69C1301.76,4074.18,1297.9,4074.43,1295.97,4073.74z"/>
			<path class="st5" d="M1295.97,4073.74c-1.98-0.65-4.01-2.48-4.34-3.92c-0.14-0.65-0.24-6.82-0.14-13.79
				c0.14-12.11,0.19-12.68,1.16-13.61c1.88-1.9,3.43-2.48,6.47-2.48c3.04,0,4.58,0.58,6.47,2.48c0.96,0.97,1.01,1.4,1.01,14.58
				s-0.05,13.61-1.01,14.58c-0.53,0.54-1.54,1.33-2.22,1.69C1301.76,4074.18,1297.9,4074.43,1295.97,4073.74z"/>
			<path class="st5" d="M1295.97,4073.74c-1.98-0.65-4.01-2.48-4.34-3.92c-0.14-0.65-0.24-6.82-0.14-13.79
				c0.14-12.11,0.19-12.68,1.16-13.61c1.88-1.9,3.43-2.48,6.47-2.48c3.04,0,4.58,0.58,6.47,2.48c0.96,0.97,1.01,1.4,1.01,14.58
				s-0.05,13.61-1.01,14.58c-0.53,0.54-1.54,1.33-2.22,1.69C1301.76,4074.18,1297.9,4074.43,1295.97,4073.74z"/>
		</g>
		<g>
			<path class="st5" d="M1324.2,4073.74c-1.98-0.65-4.01-2.48-4.34-3.92c-0.14-0.65-0.24-6.82-0.14-13.79
				c0.14-12.11,0.19-12.68,1.16-13.61c1.88-1.9,3.43-2.48,6.47-2.48c3.04,0,4.58,0.58,6.47,2.48c0.96,0.97,1.01,1.4,1.01,14.58
				s-0.05,13.61-1.01,14.58c-0.53,0.54-1.54,1.33-2.22,1.69C1329.99,4074.18,1326.13,4074.43,1324.2,4073.74z"/>
			<path class="st5" d="M1324.2,4073.74c-1.98-0.65-4.01-2.48-4.34-3.92c-0.14-0.65-0.24-6.82-0.14-13.79
				c0.14-12.11,0.19-12.68,1.16-13.61c1.88-1.9,3.43-2.48,6.47-2.48c3.04,0,4.58,0.58,6.47,2.48c0.96,0.97,1.01,1.4,1.01,14.58
				s-0.05,13.61-1.01,14.58c-0.53,0.54-1.54,1.33-2.22,1.69C1329.99,4074.18,1326.13,4074.43,1324.2,4073.74z"/>
			<path class="st5" d="M1324.2,4073.74c-1.98-0.65-4.01-2.48-4.34-3.92c-0.14-0.65-0.24-6.82-0.14-13.79
				c0.14-12.11,0.19-12.68,1.16-13.61c1.88-1.9,3.43-2.48,6.47-2.48c3.04,0,4.58,0.58,6.47,2.48c0.96,0.97,1.01,1.4,1.01,14.58
				s-0.05,13.61-1.01,14.58c-0.53,0.54-1.54,1.33-2.22,1.69C1329.99,4074.18,1326.13,4074.43,1324.2,4073.74z"/>
		</g>
		<g>
			<path class="st5" d="M1352.44,4073.74c-1.98-0.65-4.01-2.48-4.34-3.92c-0.14-0.65-0.24-6.82-0.14-13.79
				c0.14-12.11,0.19-12.68,1.16-13.61c1.88-1.9,3.43-2.48,6.47-2.48c3.04,0,4.58,0.58,6.47,2.48c0.96,0.97,1.01,1.4,1.01,14.58
				s-0.05,13.61-1.01,14.58c-0.53,0.54-1.54,1.33-2.22,1.69C1358.22,4074.18,1354.36,4074.43,1352.44,4073.74z"/>
			<path class="st5" d="M1352.44,4073.74c-1.98-0.65-4.01-2.48-4.34-3.92c-0.14-0.65-0.24-6.82-0.14-13.79
				c0.14-12.11,0.19-12.68,1.16-13.61c1.88-1.9,3.43-2.48,6.47-2.48c3.04,0,4.58,0.58,6.47,2.48c0.96,0.97,1.01,1.4,1.01,14.58
				s-0.05,13.61-1.01,14.58c-0.53,0.54-1.54,1.33-2.22,1.69C1358.22,4074.18,1354.36,4074.43,1352.44,4073.74z"/>
			<path class="st5" d="M1352.44,4073.74c-1.98-0.65-4.01-2.48-4.34-3.92c-0.14-0.65-0.24-6.82-0.14-13.79
				c0.14-12.11,0.19-12.68,1.16-13.61c1.88-1.9,3.43-2.48,6.47-2.48c3.04,0,4.58,0.58,6.47,2.48c0.96,0.97,1.01,1.4,1.01,14.58
				s-0.05,13.61-1.01,14.58c-0.53,0.54-1.54,1.33-2.22,1.69C1358.22,4074.18,1354.36,4074.43,1352.44,4073.74z"/>
		</g>
		<g>
			<path class="st5" d="M1380.67,4073.74c-1.98-0.65-4.01-2.48-4.34-3.92c-0.14-0.65-0.24-6.82-0.14-13.79
				c0.14-12.11,0.19-12.68,1.16-13.61c1.88-1.9,3.43-2.48,6.47-2.48c3.04,0,4.58,0.58,6.47,2.48c0.96,0.97,1.01,1.4,1.01,14.58
				s-0.05,13.61-1.01,14.58c-0.53,0.54-1.54,1.33-2.22,1.69C1386.46,4074.18,1382.6,4074.43,1380.67,4073.74z"/>
			<path class="st5" d="M1380.67,4073.74c-1.98-0.65-4.01-2.48-4.34-3.92c-0.14-0.65-0.24-6.82-0.14-13.79
				c0.14-12.11,0.19-12.68,1.16-13.61c1.88-1.9,3.43-2.48,6.47-2.48c3.04,0,4.58,0.58,6.47,2.48c0.96,0.97,1.01,1.4,1.01,14.58
				s-0.05,13.61-1.01,14.58c-0.53,0.54-1.54,1.33-2.22,1.69C1386.46,4074.18,1382.6,4074.43,1380.67,4073.74z"/>
			<path class="st5" d="M1380.67,4073.74c-1.98-0.65-4.01-2.48-4.34-3.92c-0.14-0.65-0.24-6.82-0.14-13.79
				c0.14-12.11,0.19-12.68,1.16-13.61c1.88-1.9,3.43-2.48,6.47-2.48c3.04,0,4.58,0.58,6.47,2.48c0.96,0.97,1.01,1.4,1.01,14.58
				s-0.05,13.61-1.01,14.58c-0.53,0.54-1.54,1.33-2.22,1.69C1386.46,4074.18,1382.6,4074.43,1380.67,4073.74z"/>
		</g>
		<g>
			<path class="st5" d="M1410.68,4073.74c-1.98-0.65-4.01-2.48-4.34-3.92c-0.14-0.65-0.24-6.82-0.14-13.79
				c0.14-12.11,0.19-12.68,1.16-13.61c1.88-1.9,3.43-2.48,6.47-2.48s4.58,0.58,6.47,2.48c0.96,0.97,1.01,1.4,1.01,14.58
				s-0.05,13.61-1.01,14.58c-0.53,0.54-1.54,1.33-2.22,1.69C1416.47,4074.18,1412.61,4074.43,1410.68,4073.74z"/>
			<path class="st5" d="M1410.68,4073.74c-1.98-0.65-4.01-2.48-4.34-3.92c-0.14-0.65-0.24-6.82-0.14-13.79
				c0.14-12.11,0.19-12.68,1.16-13.61c1.88-1.9,3.43-2.48,6.47-2.48s4.58,0.58,6.47,2.48c0.96,0.97,1.01,1.4,1.01,14.58
				s-0.05,13.61-1.01,14.58c-0.53,0.54-1.54,1.33-2.22,1.69C1416.47,4074.18,1412.61,4074.43,1410.68,4073.74z"/>
			<path class="st5" d="M1410.68,4073.74c-1.98-0.65-4.01-2.48-4.34-3.92c-0.14-0.65-0.24-6.82-0.14-13.79
				c0.14-12.11,0.19-12.68,1.16-13.61c1.88-1.9,3.43-2.48,6.47-2.48s4.58,0.58,6.47,2.48c0.96,0.97,1.01,1.4,1.01,14.58
				s-0.05,13.61-1.01,14.58c-0.53,0.54-1.54,1.33-2.22,1.69C1416.47,4074.18,1412.61,4074.43,1410.68,4073.74z"/>
		</g>
		<g>
			<path class="st5" d="M1442.46,4073.74c-1.98-0.65-4.01-2.48-4.34-3.92c-0.14-0.65-0.24-6.82-0.14-13.79
				c0.14-12.11,0.19-12.68,1.16-13.61c1.88-1.9,3.43-2.48,6.47-2.48c3.04,0,4.58,0.58,6.47,2.48c0.96,0.97,1.01,1.4,1.01,14.58
				s-0.05,13.61-1.01,14.58c-0.53,0.54-1.54,1.33-2.22,1.69C1448.25,4074.18,1444.39,4074.43,1442.46,4073.74z"/>
			<path class="st5" d="M1442.46,4073.74c-1.98-0.65-4.01-2.48-4.34-3.92c-0.14-0.65-0.24-6.82-0.14-13.79
				c0.14-12.11,0.19-12.68,1.16-13.61c1.88-1.9,3.43-2.48,6.47-2.48c3.04,0,4.58,0.58,6.47,2.48c0.96,0.97,1.01,1.4,1.01,14.58
				s-0.05,13.61-1.01,14.58c-0.53,0.54-1.54,1.33-2.22,1.69C1448.25,4074.18,1444.39,4074.43,1442.46,4073.74z"/>
			<path class="st5" d="M1442.46,4073.74c-1.98-0.65-4.01-2.48-4.34-3.92c-0.14-0.65-0.24-6.82-0.14-13.79
				c0.14-12.11,0.19-12.68,1.16-13.61c1.88-1.9,3.43-2.48,6.47-2.48c3.04,0,4.58,0.58,6.47,2.48c0.96,0.97,1.01,1.4,1.01,14.58
				s-0.05,13.61-1.01,14.58c-0.53,0.54-1.54,1.33-2.22,1.69C1448.25,4074.18,1444.39,4074.43,1442.46,4073.74z"/>
		</g>
		<g>
			<path class="st5" d="M1468.63,4073.74c-1.98-0.65-4.01-2.48-4.34-3.92c-0.14-0.65-0.24-6.82-0.14-13.79
				c0.14-12.11,0.19-12.68,1.16-13.61c1.88-1.9,3.43-2.48,6.47-2.48c3.04,0,4.58,0.58,6.47,2.48c0.96,0.97,1.01,1.4,1.01,14.58
				s-0.05,13.61-1.01,14.58c-0.53,0.54-1.54,1.33-2.22,1.69C1474.42,4074.18,1470.56,4074.43,1468.63,4073.74z"/>
			<path class="st5" d="M1468.63,4073.74c-1.98-0.65-4.01-2.48-4.34-3.92c-0.14-0.65-0.24-6.82-0.14-13.79
				c0.14-12.11,0.19-12.68,1.16-13.61c1.88-1.9,3.43-2.48,6.47-2.48c3.04,0,4.58,0.58,6.47,2.48c0.96,0.97,1.01,1.4,1.01,14.58
				s-0.05,13.61-1.01,14.58c-0.53,0.54-1.54,1.33-2.22,1.69C1474.42,4074.18,1470.56,4074.43,1468.63,4073.74z"/>
			<path class="st5" d="M1468.63,4073.74c-1.98-0.65-4.01-2.48-4.34-3.92c-0.14-0.65-0.24-6.82-0.14-13.79
				c0.14-12.11,0.19-12.68,1.16-13.61c1.88-1.9,3.43-2.48,6.47-2.48c3.04,0,4.58,0.58,6.47,2.48c0.96,0.97,1.01,1.4,1.01,14.58
				s-0.05,13.61-1.01,14.58c-0.53,0.54-1.54,1.33-2.22,1.69C1474.42,4074.18,1470.56,4074.43,1468.63,4073.74z"/>
		</g>
	</g>
</g>
<path class="st6" d="M182.69,62.52l-15.49-25.7c-0.39-0.65-1.09-1.05-1.85-1.05c-0.76,0-1.46,0.4-1.85,1.05l-15.49,25.7
	c-0.4,0.67-0.41,1.5-0.03,2.18c0.38,0.68,1.1,1.1,1.88,1.1h30.99c0.78,0,1.5-0.42,1.88-1.1C183.1,64.02,183.09,63.19,182.69,62.52z"
	/>
<path class="st7" d="M165.34,35.78c-0.76,0-1.46,0.4-1.85,1.05l-15.49,25.7c-0.4,0.67-0.41,1.5-0.03,2.18
	c0.38,0.68,1.1,1.1,1.88,1.1h15.49V35.78L165.34,35.78z"/>
<path class="st8" d="M178.4,62.98h-26.09c-0.25,0-0.48-0.13-0.6-0.35c-0.12-0.21-0.13-0.48,0-0.69L164.73,39
	c0.12-0.22,0.35-0.35,0.6-0.35c0,0,0,0,0,0c0.25,0,0.48,0.13,0.6,0.35L179,61.94c0.12,0.22,0.12,0.48,0,0.69
	S178.64,62.98,178.4,62.98z M153.5,61.59h23.7l-11.86-20.84L153.5,61.59z"/>
<path class="st9" d="M165.36,61.59H153.5l11.84-20.84l0-2.1h0c-0.25,0-0.48,0.13-0.6,0.35L151.7,61.94c-0.12,0.22-0.12,0.48,0,0.69
	c0.12,0.21,0.35,0.35,0.6,0.35h13.05L165.36,61.59L165.36,61.59L165.36,61.59z"/>
<path class="st10" d="M166.95,59.13c0,0.85-0.73,1.6-1.58,1.6c-0.91,0-1.6-0.75-1.6-1.6c0-0.87,0.69-1.6,1.6-1.6
	C166.22,57.53,166.95,58.25,166.95,59.13z M166.55,55.18c0,0.64-0.71,0.91-1.2,0.91c-0.66,0-1.23-0.27-1.23-0.91
	c0-2.47-0.29-6.02-0.29-8.49c0-0.81,0.66-1.27,1.52-1.27c0.81,0,1.5,0.46,1.5,1.27C166.85,49.16,166.55,52.71,166.55,55.18z"/>
</svg>
