<svg xmlns="http://www.w3.org/2000/svg" xmlns:xlink="http://www.w3.org/1999/xlink" viewBox="0 0 128 128"><defs><style>.cls-1{isolation:isolate;}.cls-12,.cls-15,.cls-2{mix-blend-mode:multiply;}.cls-3{fill:url(#linear-gradient);}.cls-4{fill:url(#linear-gradient-2);}.cls-5{fill:url(#linear-gradient-3);}.cls-6{fill:url(#linear-gradient-4);}.cls-7{fill:url(#linear-gradient-5);}.cls-8{fill:url(#linear-gradient-6);}.cls-9{fill:url(#linear-gradient-7);}.cls-10{fill:url(#linear-gradient-8);}.cls-11{fill:url(#linear-gradient-9);}.cls-12,.cls-13{opacity:0.5;}.cls-12{fill:url(#linear-gradient-10);}.cls-14{fill:#fff;}.cls-15{fill:url(#linear-gradient-11);}</style><linearGradient id="linear-gradient" x1="19" y1="62" x2="109" y2="62" gradientUnits="userSpaceOnUse"><stop offset="0" stop-color="#1c2a33"/><stop offset="1" stop-color="#435661"/></linearGradient><linearGradient id="linear-gradient-2" x1="30.5" y1="28.5" x2="97.5" y2="95.5" gradientUnits="userSpaceOnUse"><stop offset="0" stop-color="#2b53cf"/><stop offset="1" stop-color="#9e74fe"/></linearGradient><linearGradient id="linear-gradient-3" x1="20.25" y1="85.25" x2="71.61" y2="33.89" gradientUnits="userSpaceOnUse"><stop offset="0" stop-color="#12adb4"/><stop offset="1" stop-color="#d1e946"/></linearGradient><linearGradient id="linear-gradient-4" x1="54.31" y1="43.4" x2="70.19" y2="59.28" gradientTransform="translate(62.59 -27.1) rotate(45)" gradientUnits="userSpaceOnUse"><stop offset="0" stop-color="#efed58"/><stop offset="1" stop-color="#f23e2e"/></linearGradient><linearGradient id="linear-gradient-5" x1="54.31" y1="43.4" x2="70.19" y2="59.28" gradientTransform="translate(65.41 151.1) rotate(-135)" xlink:href="#linear-gradient-4"/><linearGradient id="linear-gradient-6" x1="71.07" y1="69.07" x2="56.93" y2="54.93" gradientUnits="userSpaceOnUse"><stop offset="0" stop-color="#74e6f3"/><stop offset="1" stop-color="#466be3"/></linearGradient><linearGradient id="linear-gradient-7" x1="83.47" y1="94.47" x2="112.53" y2="65.41" xlink:href="#linear-gradient-6"/><linearGradient id="linear-gradient-8" x1="91" y1="88" x2="91" y2="57.87" gradientTransform="translate(128 124) rotate(180)" xlink:href="#linear-gradient-2"/><linearGradient id="linear-gradient-9" x1="8" y1="94.5" x2="120" y2="94.5" gradientUnits="userSpaceOnUse"><stop offset="0" stop-color="#9ea8b6"/><stop offset="1" stop-color="#d7dce2"/></linearGradient><linearGradient id="linear-gradient-10" x1="8.23" y1="95.5" x2="119.8" y2="95.5" gradientUnits="userSpaceOnUse"><stop offset="0" stop-color="#9ea8b6"/><stop offset="0.5" stop-color="#d7dce2"/><stop offset="1" stop-color="#9ea8b6"/></linearGradient><linearGradient id="linear-gradient-11" x1="56" y1="93.5" x2="72" y2="93.5" xlink:href="#linear-gradient-10"/></defs><title>macbook-pro</title><g class="cls-1"><g id="icons" class="cls-2"><path class="cls-3" d="M22,31h84a3,3,0,0,1,3,3V93a0,0,0,0,1,0,0H19a0,0,0,0,1,0,0V34A3,3,0,0,1,22,31Z"/><rect class="cls-4" x="23" y="36" width="82" height="52"/><path class="cls-5" d="M84.07,46.93A25.1,25.1,0,0,0,64,36v0H23V88H64v0A25.1,25.1,0,0,1,43.93,77.07a4,4,0,0,1,2.15-6C50.51,69.69,64,61.69,64,61.69c7.48-4,13.49-7.39,17.91-8.73A4,4,0,0,0,84.07,46.93Z"/><path class="cls-6" d="M73.86,64.09a6,6,0,0,0,8-6.5,17.88,17.88,0,0,0-5.31-10.35A19,19,0,0,0,65.27,42a5.84,5.84,0,0,0-6.18,7.72c1.12,2.9,2.22,6.62,3.55,10.92C67,61.95,70.87,63,73.86,64.09Z"/><path class="cls-7" d="M54.14,59.91a6,6,0,0,0-8,6.5,17.88,17.88,0,0,0,5.31,10.35A19,19,0,0,0,62.73,82a5.84,5.84,0,0,0,6.18-7.72c-1.12-2.9-2.22-6.62-3.55-10.92C61,62.05,57.13,61,54.14,59.91Z"/><circle class="cls-8" cx="64" cy="62" r="10"/><path class="cls-9" d="M77,88c20,0,28-17.25,28-30.12V88Z"/><path class="cls-10" d="M51,36C31,36,23,53.25,23,66.13V36Z"/><path class="cls-11" d="M120,93.5v1.1a.51.51,0,0,1-.2.4.61.61,0,0,1-.2.09c-2,.38-12.63.91-54.6.91-42.4,0-54.37-.56-56.58-.92A.41.41,0,0,1,8.23,95,.48.48,0,0,1,8,94.58V93.5a.5.5,0,0,1,.5-.5h111A.5.5,0,0,1,120,93.5Z"/><path class="cls-12" d="M119.8,95a.61.61,0,0,1-.2.09c-2,.38-12.63.91-54.6.91-42.4,0-54.37-.56-56.58-.92A.41.41,0,0,1,8.23,95Z"/><g class="cls-13"><path class="cls-14" d="M61,91h-.12v-.77h0l-.32.76h-.11l-.32-.76h0V91H60V90h.14l.34.83h0l.34-.83H61Z"/><path class="cls-14" d="M61.13,90.8c0-.13.1-.2.28-.21h.21v-.06c0-.09-.06-.14-.17-.14a.15.15,0,0,0-.17.11h-.12a.26.26,0,0,1,.28-.22c.18,0,.29.09.29.24V91h-.11v-.13h0a.27.27,0,0,1-.24.14A.22.22,0,0,1,61.13,90.8Zm.49-.07v-.06h-.19c-.11,0-.17,0-.17.12s.06.11.15.11A.19.19,0,0,0,61.62,90.73Z"/><path class="cls-14" d="M62.39,90.51a.18.18,0,0,0-.19-.14c-.13,0-.22.11-.22.27s.09.27.22.27a.18.18,0,0,0,.19-.14h.12a.29.29,0,0,1-.31.25.38.38,0,0,1,0-.76.29.29,0,0,1,.31.25Z"/><path class="cls-14" d="M62.64,91V90H63a.25.25,0,0,1,.29.25.22.22,0,0,1-.17.22h0a.24.24,0,0,1,.22.25c0,.18-.13.28-.34.28Zm.12-.57H63c.15,0,.23-.06.23-.17s-.07-.15-.19-.15h-.24Zm.25.46c.15,0,.23-.06.23-.18s-.08-.17-.24-.17h-.23v.35Z"/><path class="cls-14" d="M63.46,90.64a.35.35,0,1,1,.34.38A.34.34,0,0,1,63.46,90.64Zm.56,0c0-.17-.08-.27-.22-.27s-.22.1-.22.27.08.27.22.27S64,90.82,64,90.64Z"/><path class="cls-14" d="M64.24,90.64a.35.35,0,1,1,.34.38A.34.34,0,0,1,64.24,90.64Zm.56,0c0-.17-.08-.27-.22-.27s-.22.1-.22.27.08.27.22.27S64.8,90.82,64.8,90.64Z"/><path class="cls-14" d="M65.51,90.27h.15l-.33.32.34.42h-.14l-.28-.35-.07.07V91h-.12V90h.12v.63Z"/><path class="cls-14" d="M66.49,90a.32.32,0,0,1,0,.64h-.25V91h-.12V90Zm-.25.53h.22a.21.21,0,1,0,0-.42h-.22Z"/><path class="cls-14" d="M66.94,90.27H67v.12h0a.18.18,0,0,1,.18-.13h0v.12h-.07a.16.16,0,0,0-.16.18V91h-.12Z"/><path class="cls-14" d="M67.31,90.64a.35.35,0,1,1,.34.38A.34.34,0,0,1,67.31,90.64Zm.56,0c0-.17-.08-.27-.22-.27s-.22.1-.22.27.08.27.22.27S67.88,90.82,67.88,90.64Z"/></g><path class="cls-15" d="M56,93H72a1,1,0,0,1-1,1H57a1,1,0,0,1-1-1Z"/></g></g></svg>