<svg height="512" viewBox="0 0 256 256" width="512" xmlns="http://www.w3.org/2000/svg"><rect fill="#4671c6" height="207.906" rx="9.529" width="119.546" x="30.629" y="12.699"/><path d="m137.5 21.614h-15.559v1.686a6.728 6.728 0 0 1 -6.728 6.728h-49.622a6.728 6.728 0 0 1 -6.728-6.728v-1.686h-15.563a5.047 5.047 0 0 0 -5.047 5.046v179.983a5.047 5.047 0 0 0 5.047 5.047h94.2a5.047 5.047 0 0 0 5.047-5.047v-179.983a5.047 5.047 0 0 0 -5.047-5.046z" fill="#b9befc"/><path d="m140.646 222.6h-100.488a11.541 11.541 0 0 1 -11.529-11.528v-188.844a11.542 11.542 0 0 1 11.529-11.528h100.488a11.542 11.542 0 0 1 11.529 11.529v188.847a11.541 11.541 0 0 1 -11.529 11.524zm-100.488-207.9a7.537 7.537 0 0 0 -7.529 7.529v188.847a7.537 7.537 0 0 0 7.529 7.528h100.488a7.537 7.537 0 0 0 7.529-7.528v-188.848a7.538 7.538 0 0 0 -7.529-7.529z" fill="#3762cc"/><path d="m137.5 213.689h-94.2a7.054 7.054 0 0 1 -7.047-7.045v-179.984a7.054 7.054 0 0 1 7.047-7.046h15.563a2 2 0 0 1 2 2v1.686a4.733 4.733 0 0 0 4.728 4.728h49.622a4.733 4.733 0 0 0 4.728-4.728v-1.686a2 2 0 0 1 2-2h15.559a7.054 7.054 0 0 1 7.047 7.046v179.984a7.054 7.054 0 0 1 -7.047 7.045zm-94.2-190.075a3.05 3.05 0 0 0 -3.047 3.046v179.984a3.05 3.05 0 0 0 3.047 3.045h94.2a3.05 3.05 0 0 0 3.047-3.045v-179.984a3.05 3.05 0 0 0 -3.047-3.046h-13.565a8.738 8.738 0 0 1 -8.722 8.41h-49.622a8.738 8.738 0 0 1 -8.722-8.41z" fill="#3762cc"/><g fill="#a4c9ff"><circle cx="110.937" cy="22.244" r="3.161"/><circle cx="100.845" cy="22.244" r="2.284"/><rect height="4.568" rx="2.284" width="28.595" x="65.171" y="19.961"/><rect height="79.091" rx="5.348" width="10.697" x="97.78" y="164.211"/></g><path d="m103.129 245.3a7.357 7.357 0 0 1 -7.349-7.348v-68.393a7.349 7.349 0 1 1 14.7 0v68.394a7.356 7.356 0 0 1 -7.351 7.347zm0-79.091a3.352 3.352 0 0 0 -3.349 3.349v68.394a3.349 3.349 0 0 0 6.7 0v-68.393a3.352 3.352 0 0 0 -3.351-3.349z" fill="#3762cc"/><path d="m80.565 151.2h45.128a0 0 0 0 1 0 0v20.873a17.448 17.448 0 0 1 -17.448 17.448h-10.232a17.448 17.448 0 0 1 -17.448-17.448v-20.873a0 0 0 0 1 0 0z" fill="#4671c6"/><path d="m108.245 191.52h-10.232a19.47 19.47 0 0 1 -19.448-19.448v-20.872a2 2 0 0 1 2-2h45.127a2 2 0 0 1 2 2v20.873a19.47 19.47 0 0 1 -19.447 19.447zm-25.68-38.32v18.873a15.466 15.466 0 0 0 15.448 15.447h10.232a15.465 15.465 0 0 0 15.447-15.448v-18.872z" fill="#3762cc"/><path d="m118.419 116.652a4.6 4.6 0 0 1 4.6 4.6v25.071a0 0 0 0 1 0 0h-9.2a0 0 0 0 1 0 0v-25.07a4.6 4.6 0 0 1 4.6-4.601z" fill="#e0ebfc"/><path d="m87.839 116.652a4.6 4.6 0 0 1 4.6 4.6v25.071a0 0 0 0 1 0 0h-9.2a0 0 0 0 1 0 0v-25.07a4.6 4.6 0 0 1 4.6-4.6z" fill="#e0ebfc"/><path d="m123.021 148.324h-9.2a2 2 0 0 1 -2-2v-25.071a6.6 6.6 0 0 1 13.2 0v25.071a2 2 0 0 1 -2 2zm-7.2-4h5.2v-23.071a2.6 2.6 0 0 0 -5.2 0z" fill="#3762cc"/><path d="m92.44 148.324h-9.2a2 2 0 0 1 -2-2v-25.071a6.6 6.6 0 0 1 13.2 0v25.071a2 2 0 0 1 -2 2zm-7.2-4h5.2v-23.071a2.6 2.6 0 0 0 -5.2 0z" fill="#3762cc"/><rect fill="#4671c6" height="9.75" rx="1.945" width="53.44" x="76.408" y="141.449"/><path d="m127.9 153.2h-49.546a3.949 3.949 0 0 1 -3.945-3.945v-5.86a3.949 3.949 0 0 1 3.945-3.945h49.546a3.95 3.95 0 0 1 3.945 3.945v5.86a3.949 3.949 0 0 1 -3.945 3.945zm-.055-9.805-49.495.055.055 5.8 49.44-.055z" fill="#3762cc"/><circle cx="175.371" cy="63.984" fill="#6bdddd" r="50"/><circle cx="175.371" cy="63.984" fill="#4671c6" r="38"/><path d="m175.371 115.984a52 52 0 1 1 52-52 52.059 52.059 0 0 1 -52 52zm0-100a48 48 0 1 0 48 48 48.054 48.054 0 0 0 -48-48z" fill="#3762cc"/><path d="m175.786 38.587a2.568 2.568 0 0 1 2.191 1.191l1.975 3.055c5.426 8.386 5.426 8.386 7.039 10.885l1 1.554c.019.029.045.049.065.077l-2.541 1.779a1.046 1.046 0 0 0 .217 1.831l9.274 3.646a1.046 1.046 0 0 0 1.428-1l-.254-9.962a1.046 1.046 0 0 0 -1.646-.83l-2.187 1.531-.948-1.47c-1.613-2.5-1.613-2.5-7.042-10.892l-1.977-3.055a7.855 7.855 0 0 0 -13.189 0l-4.266 6.592a2.624 2.624 0 0 0 4.405 2.851l4.265-6.592a2.566 2.566 0 0 1 2.191-1.191z" fill="#6bdddd"/><path d="m204.411 70.973-3.624-5.6a2.624 2.624 0 1 0 -4.405 2.851l3.624 5.6a2.607 2.607 0 0 1 -2.188 4.023h-16.408v-2.881a1.046 1.046 0 0 0 -1.624-.872l-8.307 5.506a1.046 1.046 0 0 0 0 1.744l8.307 5.5a1.046 1.046 0 0 0 1.624-.872v-2.872h16.408a7.854 7.854 0 0 0 6.593-12.122z" fill="#6bdddd"/><path d="m165.848 77.847h-12.105a2.607 2.607 0 0 1 -2.189-4.021l8.58-13.292 2.187 1.531a1.045 1.045 0 0 0 1.645-.83l.255-9.962a1.047 1.047 0 0 0 -1.429-1l-9.273 3.646a1.047 1.047 0 0 0 -.218 1.831l2.539 1.777c-.019.028-.044.049-.062.078l-8.634 13.376a7.855 7.855 0 0 0 6.6 12.114h12.105a2.624 2.624 0 0 0 0-5.248z" fill="#6bdddd"/></svg>