<?xml version="1.0" encoding="utf-8"?>
<!-- Generator: Adobe Illustrator 24.3.0, SVG Export Plug-In . SVG Version: 6.00 Build 0)  -->
<svg version="1.1" id="Calque_1" xmlns="http://www.w3.org/2000/svg" xmlns:xlink="http://www.w3.org/1999/xlink" x="0px" y="0px"
	 viewBox="0 0 645.57 178.73" style="enable-background:new 0 0 645.57 178.73;" xml:space="preserve">
<style type="text/css">
	.st0{fill:#E4E6E6;}
	.st1{fill:#C8CBCB;}
	.st2{fill:#37444F;}
	.st3{fill:#475866;}
	.st4{fill:#E6E7E8;}
	.st5{fill:#B22332;}
	.st6{fill:#D0DFF2;}
	.st7{fill:#AEC8E7;}
	.st8{fill:#688FC7;}
	.st9{fill:#38454F;}
	.st10{fill:#485967;}
	.st11{fill:#7E8A94;}
	.st12{fill:#F0C75F;}
	.st13{fill:#FFFFFF;}
</style>
<path class="st0" d="M244.19,153.36v3.62c0,5.98-4.89,10.87-10.87,10.87H23.23c-5.98,0-10.87-4.89-10.87-10.87v-3.62H244.19
	L244.19,153.36z"/>
<path class="st1" d="M111.97,149.74h32.6c3.08,0,5.43,2.35,5.43,5.43s-2.35,5.43-5.43,5.43h-32.6c-3.08,0-5.43-2.35-5.43-5.43
	C106.54,152.27,108.9,149.74,111.97,149.74z"/>
<path class="st2" d="M41.34,19.33h173.87c3.98,0,7.24,3.26,7.24,7.24v126.78H34.09V26.58C34.09,22.59,37.35,19.33,41.34,19.33z"/>
<path class="st3" d="M44.96,30.2h166.63v112.29H44.96V30.2z"/>
<path class="st4" d="M99.77,46.54c-0.11,0.02-0.23,0.05-0.34,0.08c-1.46,0.26-2.43,1.66-2.16,3.12c0.1,0.57,0.39,1.1,0.82,1.49
	l14.27,14.19l2.69,2.69l26.86,26.86l2.69,2.69l5.37,5.37l12.59,12.68c1.07,1.07,2.8,1.07,3.86,0c1.07-1.07,1.07-2.8,0-3.86
	l-8.81-8.81h1.51c4.57,0,8.06-3.49,8.06-8.06V68.12c0-4.57-3.49-8.06-8.06-8.06h-44.49l-12.68-12.68
	C101.4,46.79,100.59,46.48,99.77,46.54z M103.8,64.34c-0.81,1.07-1.09,2.43-1.09,3.78v2.69h-2.69c-1.61,0-2.69,1.07-2.69,2.69v16.12
	c0,1.61,1.07,2.69,2.69,2.69h2.69v2.69c0,4.57,3.49,8.06,8.06,8.06h31.73l-5.37-5.37h-26.36c-1.61,0-2.69-1.07-2.69-2.69V92.3v-5.37
	h-5.37V76.18h5.37v-5.37v-2.18L103.8,64.34z M120.01,65.43h39.12c1.61,0,2.69,1.07,2.69,2.69v26.86c0,1.61-1.07,2.69-2.69,2.69
	h-6.88l-2.69-2.69h6.88c1.61,0,2.69-1.07,2.69-2.69V70.81c0-1.61-1.07-2.69-2.69-2.69h-33.75L120.01,65.43z M110.77,71.31V92.3
	c0,1.61,1.07,2.69,2.69,2.69h20.99L110.77,71.31z"/>
<path class="st5" d="M172.61,122.86l-0.38,0.38c-1.33,1.33-3.49,1.33-4.82,0l-77.8-77.8c-1.33-1.33-1.33-3.49,0-4.82l0.38-0.38
	c1.33-1.33,3.49-1.33,4.82,0l77.8,77.8C173.95,119.37,173.95,121.53,172.61,122.86z"/>
<g id="layer1" transform="translate(-640.44 -2771.7)">
	<g id="g3063" transform="matrix(.48764 0 0 .48764 692.26 1721)">
		<path class="st6" d="M487.01,2234.61c-0.24-1.89-0.89-7.03,2.13-10.59c1.27-1.5,3.97-3.64,16.97-3.42
			c3.42,0.06,13.6,0.37,32.81,4.56c2.3,0.5,4.79,1.07,6.43,1.47c31.02,7.6,58.63,25.41,58.63,25.41
			c19.23,12.41,48.28,31.15,44.73,42.39c-4.3,13.61-55.53,13.45-96.26-1.78C508.93,2276.36,488.59,2247.07,487.01,2234.61z"/>
		<path id="path3065" class="st7" d="M484.09,2223.85l-61.86,212.12l1.63,4.32c1.89,4.01,4.43,7.68,7.24,11.05l0,0
			c4.78,5.73,10.41,10.65,16.39,14.97l0,0c9.04,6.53,18.92,11.72,29.09,16.08s20.69,7.91,31.52,9.9l0,0
			c7.17,1.32,14.49,1.95,21.75,1.38l0,0c4.28-0.34,8.55-1.08,12.6-2.55l0,0c1.04-0.38,2.07-0.8,3.06-1.31l1.01-0.57l102.21-194.82
			c-1.61,1.46-3.57,2.47-5.59,3.18c-2.48,0.87-5.08,1.32-7.69,1.55l0,0c-3.15,0.29-6.32,0.26-9.47,0.06l0,0
			c-3.67-0.23-7.31-0.7-10.94-1.3c-8.47-1.42-16.81-3.6-25.02-6.17l0,0c-9.19-2.87-18.22-6.26-27.1-10.04
			c-9.07-3.86-17.98-8.14-26.67-12.86c-8.15-4.43-16.11-9.24-23.7-14.63l0,0c-6.47-4.58-12.71-9.56-18.22-15.34
			c-2.26-2.37-4.4-4.89-6.27-7.61C486.46,2228.94,485.06,2226.49,484.09,2223.85L484.09,2223.85z"/>
		<path id="path3067" class="st8" d="M635.1,2196.7c-7.37-1.63-10.43,7.36-8.07,17.25c3.75,15.73-0.46,31.83-4.42,22.39
			c-1.17-2.79-10.15-46.29-18.23-41.52c-4.74,2.8-1.82,22.83-4.7,27.92c-9.51,16.81-8.58-28.99-17.84-16.67
			c-8.65,11.51,31.96,46.67,11.63,64.27c0,0-4.65-17.1-16.99-33.77c-14.29-19.31-33.39-14.61-30.61-6.07
			c5.92,18.15,34.31,12.54,43.36,42.07c9.05,29.54-4.26,50.97-9.84,53.76c-1.86,0.96,1.76-17.75-7.45-15.66
			c-9.22,2.09,2.89,10.58-3.81,19.01c-4.64,5.84-21.92,7.19-35.75,5.72c-41.96-5.64-77.01-1.84-78.28,8.48
			c-1.27,10.33,31.71,23.27,73.67,28.91c41.96,5.64,74.52-1.72,78.27-8.49s18.75-33.56,36.99-73.02
			c14.21-30.74,2.99-69.16,0.45-79.84C642.1,2205.64,640.08,2197.8,635.1,2196.7L635.1,2196.7z"/>
		<path id="path3069" class="st7" d="M545.35,2226.62c0,0-56.62-14.57-61.26-2.77c-4.67,11.86,28.39,37.27,73.85,56.76
			c45.46,19.49,86.11,25.67,90.78,13.81c0.08-0.19,0.14-0.39,0.19-0.6c-7.18,8.66-45.27,2.93-84.6-13.93
			c-50.32-21.57-74.56-43.59-70.3-54.4c3.66-9.3,51.06,1.77,51.06,1.77L545.35,2226.62z"/>
	</g>
</g>
<path class="st0" d="M622.83,153.43v3.62c0,5.98-4.89,10.87-10.87,10.87h-210.1c-5.98,0-10.87-4.89-10.87-10.87v-3.62H622.83
	L622.83,153.43z"/>
<path class="st1" d="M490.61,149.81h32.6c3.08,0,5.43,2.35,5.43,5.43s-2.35,5.43-5.43,5.43h-32.6c-3.08,0-5.43-2.35-5.43-5.43
	C485.18,152.34,487.53,149.81,490.61,149.81z"/>
<path class="st9" d="M419.97,19.4h173.87c3.98,0,7.24,3.26,7.24,7.24v126.78H412.73V26.65C412.73,22.66,415.99,19.4,419.97,19.4z"/>
<path class="st10" d="M423.59,30.27h166.63v112.29H423.59V30.27z"/>
<path class="st11" d="M463.44,128.07h86.94c5.98,0,10.87,4.89,10.87,10.87v3.62H452.57v-3.62
	C452.57,132.96,457.46,128.07,463.44,128.07z"/>
<path class="st0" d="M474.31,120.83c3.98,0,7.24,3.26,7.24,7.24c0,3.98-3.26,7.24-7.24,7.24s-7.24-3.26-7.24-7.24
	C467.06,124.09,470.32,120.83,474.31,120.83z"/>
<path class="st12" d="M496.04,120.83c3.98,0,7.24,3.26,7.24,7.24c0,3.98-3.26,7.24-7.24,7.24s-7.24-3.26-7.24-7.24
	S492.06,120.83,496.04,120.83z"/>
<path class="st0" d="M517.78,120.83c3.98,0,7.24,3.26,7.24,7.24c0,3.98-3.26,7.24-7.24,7.24c-3.98,0-7.24-3.26-7.24-7.24
	C510.53,124.09,513.79,120.83,517.78,120.83z M539.51,120.83c3.98,0,7.24,3.26,7.24,7.24c0,3.98-3.26,7.24-7.24,7.24
	c-3.98,0-7.24-3.26-7.24-7.24S535.53,120.83,539.51,120.83z"/>
<path class="st13" d="M307.84,38.32"/>
</svg>
