<?xml version="1.0" encoding="utf-8"?>
<!-- Generator: Adobe Illustrator 24.3.0, SVG Export Plug-In . SVG Version: 6.00 Build 0)  -->
<svg version="1.1" id="Layer_1" xmlns="http://www.w3.org/2000/svg" xmlns:xlink="http://www.w3.org/1999/xlink" x="0px" y="0px"
	 viewBox="0 0 512 512" style="enable-background:new 0 0 512 512;" xml:space="preserve">
<style type="text/css">
	.st0{fill:#1787FC;}
	.st1{fill:#67B86D;}
	.st2{fill:#231F20;}
	.st3{opacity:0.2;}
</style>
<circle class="st0" cx="256" cy="256" r="247.9"/>
<g>
	<path class="st1" d="M103,270.3c-30.4-32.7-3.5-49.1-3.5-49.1s56.1-29.2,72.4-32.7c16.4-3.5,17.5-36.2,11.7-52.6
		c-5.8-16.3-134.2-16-134.9-16C23,159,8.1,205.8,8.1,256c0,82.5,40.3,155.6,102.4,200.7c6.9-3.8,10.2-10.8,7.4-21.7
		c-13.2-51.4,64.6-86.4,68.9-127.3S133.4,303,103,270.3z"/>
	<path class="st1" d="M205.8,369.6c0,0-25.8,28-18.8,49.1c7.1,21,32.8,30.4,45.6,0C245.5,388.3,231.5,352.1,205.8,369.6z"/>
	<path class="st1" d="M346.1,381.6c15.4,28.9,35.6,63,53.8,76.3c15.9-11.3,30.4-24.5,43.1-39.2c19.3-55.8,26.6-111,11.6-130.4
		c-17.5-22.7-33.9-58.9-10.5-67.1c14.9-5.2,36.8,29.7,59.3,51.8c0.4-5.6,0.6-11.3,0.6-17.1c0-82.3-40.1-155.2-101.8-200.3l0,0
		c0,0-15.3,24.2-32.8,24.2s-66.6,0-60.7,32.7c5.8,32.7,40.9,39.7,33.9,67.7s-121.5,28-86.4,96.9s53,31.5,69.7,64.2
		c2.3,4.4,5.4,10.8,9.2,18.3"/>
</g>
<g>
	<path class="st2" d="M218.5,356.9c-5.6,0-11.5,2-17.3,6c-0.5,0.3-1,0.8-1.4,1.2c-3,3.2-28.8,32.3-20.5,57.1
		c5,14.9,17.4,24.9,30.7,24.9c12.5,0,23.5-8.9,30-24.4c7.9-18.6,7.3-40.1-1.5-53.4C233.6,361,226.5,356.9,218.5,356.9z M225.2,415.5
		c-4,9.3-9.3,14.5-15.1,14.5c-6.2,0-12.7-5.9-15.4-13.9c-4.4-12.9,10.1-33.2,16.4-40.3c2.8-1.8,5.3-2.7,7.4-2.7c0.9,0,3.7,0,6.6,4.3
		C230,384.8,231.6,400.3,225.2,415.5z"/>
	<path class="st2" d="M439.5,434.5c1.4-1.4,2.8-2.9,4.1-4.3c0.3-0.3,0.5-0.6,0.8-0.9c41.5-45,65.1-102.4,67.4-163.6
		c0-0.6,0-1.2,0.1-1.8c0-0.9,0.1-1.8,0.1-2.7c0-1.8,0.1-3.5,0.1-5.3c0-2.4,0-4.9-0.1-7.3c0-0.5,0-0.9-0.1-1.4
		c-0.1-2.1-0.2-4.2-0.3-6.3c0-0.2,0-0.5,0-0.7C507.8,177.8,481.7,119.6,437,75C388.7,26.6,324.4,0,256,0S123.3,26.6,75,75
		C33.4,116.6,7.9,170,1.6,227.6c0,0.2,0,0.4-0.1,0.6c-0.1,1.3-0.3,2.7-0.4,4C1,232.8,1,233.4,0.9,234c-0.1,1.5-0.2,3-0.3,4.6
		c-0.1,1.3-0.2,2.6-0.2,3.9c0,0.7-0.1,1.5-0.1,2.2c-0.1,1.3-0.1,2.5-0.1,3.8c0,0.6,0,1.2-0.1,1.9c0,1.9-0.1,3.8-0.1,5.7
		c0,2.4,0,4.9,0.1,7.3c0,0.5,0,0.9,0.1,1.4c0.1,2.1,0.2,4.2,0.3,6.3c0,0.2,0,0.5,0,0.7C4.3,334.2,30.4,392.4,75,437
		c48.4,48.4,112.6,75,181,75c66.7,0,129.4-25.3,177.3-71.4c0.2-0.2,0.5-0.4,0.7-0.7c1-1,2-1.9,3-2.9c0.5-0.5,0.9-0.9,1.4-1.4
		C438.8,435.2,439.1,434.9,439.5,434.5z M461,283.4c-14.4-18.7-22.8-39.3-19.9-49c0.8-2.8,2.5-4.4,5.6-5.5c0.1,0,2.7-0.8,10.1,5.6
		c6.3,5.4,13.3,13.6,20.7,22.2c5.7,6.6,11.5,13.3,17.4,19.4c-3,36-14,69.8-31.2,99.5C472.4,337.7,474.5,300.9,461,283.4z
		 M97.1,275.8c16.7,18,39.5,18.1,57.7,18.2c9.6,0,19.6,0.1,22.6,3.4c1.8,2,1.7,6.2,1.4,9.4c-1.6,14.8-15.7,30-30.7,46.2
		c-21.9,23.6-46.6,50.3-38,84c1.1,4.5,0.8,7.3,0,9.2c-15.6-12-29.7-25.9-41.9-41.3c-0.3-0.4-0.7-0.9-1-1.3c-0.6-0.8-1.2-1.6-1.9-2.4
		c-0.9-1.2-1.8-2.3-2.6-3.5c-0.2-0.3-0.5-0.6-0.7-0.9C35.4,360,19.4,316.2,16.6,270.5c0-0.3,0-0.6-0.1-0.9c-0.1-1.9-0.2-3.7-0.2-5.6
		c0-0.4,0-0.9,0-1.3c-0.1-2.2-0.1-4.5-0.1-6.7c0-1.8,0-3.7,0.1-5.5c0-0.5,0-1,0-1.5c0-1.6,0.1-3.2,0.2-4.8c0-0.3,0-0.5,0-0.8
		c0.1-1.8,0.2-3.6,0.3-5.4c0-0.4,0.1-0.9,0.1-1.3c0.1-1.5,0.3-3,0.4-4.5c0-0.3,0.1-0.7,0.1-1c0.2-1.8,0.4-3.7,0.6-5.5
		c0-0.2,0.1-0.5,0.1-0.7c0.2-1.7,0.5-3.4,0.7-5c0-0.2,0.1-0.5,0.1-0.7c5.1-33.1,17-64,34.2-91.2c10.1,0.1,34.7,0.3,60,1.8
		c50.1,2.9,61,8.3,63.1,9.7c3.4,10.4,3.5,28-1.4,36.9c-2,3.7-4,4.1-4.6,4.2c-16.9,3.6-68.6,30.4-74.5,33.4c-0.2,0.1-0.3,0.2-0.5,0.3
		c-1.3,0.8-12.5,8-14.5,22.6C79,249.2,84.5,262.3,97.1,275.8z M123.2,455.6c3.8-6,4.7-13.8,2.5-22.6c-6.5-25.2,13.3-46.5,34.2-69
		c16.9-18.2,32.8-35.4,35-55.4c1-9.6-0.7-16.7-5.4-21.9c-7.7-8.7-20.8-8.7-34.5-8.8c-16-0.1-34-0.2-46-13
		c-8.9-9.6-13.1-18.4-12.2-25.5c0.8-6.7,5.9-10.5,6.8-11.1c15.6-8.1,57.6-29.1,70-31.8c6.4-1.4,11.7-5.6,15.4-12.1
		c7.7-13.8,7.2-37.2,2.2-51c-2.6-7.2-10.5-15.2-72.8-19.2c-20.3-1.3-40.6-1.8-54.1-2C108.1,53.9,177.7,16.2,256,16.2
		c49.9,0,96.2,15.3,134.6,41.5c-5.3,6.4-13.7,14.2-21.3,14.2c-15.7,0-48.4,0-62.7,17.1c-5.6,6.7-7.7,15.4-6,25.1
		c3.1,17.5,13.5,28.6,21.9,37.6c9.7,10.5,14.7,16.4,12.1,26.7c-1.5,6-18.3,12.7-31.8,18.1c-23.7,9.5-50.5,20.2-58.9,42.6
		c-4.6,12.2-2.9,26.3,5,41.8c20.8,40.8,36.2,47.4,52.9,51.4c7.6,1.8,11.7,2.8,16.8,12.8c1.3,2.5,2.9,5.7,4.7,9.3
		c1.4,2.7,2.9,5.7,4.5,9c2,4,6.9,5.6,10.9,3.6c4-2,5.6-6.9,3.6-10.9c-1.6-3.2-3.1-6.2-4.5-8.9c-1.8-3.7-3.4-6.9-4.7-9.5
		c-8.5-16.7-18.6-19.1-27.5-21.2c-10.9-2.6-23.2-5.6-42.2-43c-5.8-11.5-7.2-20.9-4.3-28.8c5.9-15.8,29.3-25.1,49.8-33.3
		c20.4-8.2,38-15.2,41.5-29.2c4.8-19.3-6.2-31.2-16-41.7c-7.6-8.2-15.5-16.7-17.8-29.5c-1.2-6.6,0.8-10,2.4-11.9
		C328.4,88,358.1,88,369.3,88c15,0,27.6-12.4,34.4-20.8c13.7,10.7,26.2,22.9,37.3,36.3c0,0,0,0,0,0c0.9,1.1,1.8,2.2,2.6,3.3
		c0.6,0.8,1.3,1.6,1.9,2.4c0.4,0.6,0.9,1.2,1.3,1.7c28,37,45.1,81.7,48.4,128.5c0,0.2,0,0.4,0,0.6c0.1,1.8,0.2,3.7,0.3,5.5
		c0,0.7,0.1,1.3,0.1,2c0.1,1.4,0.1,2.8,0.1,4.2c0,0.4,0,0.9,0,1.3c-2-2.3-4-4.6-6-6.9c-17.6-20.4-32.8-38-48.4-32.5
		c-8,2.8-13.5,8.4-15.8,16.2c-7,23.6,17.6,57,22.6,63.5c11.9,15.5,6.9,65.1-12.2,121c-10.8,12.3-22.8,23.4-35.9,33.3
		c-12.7-11.7-28.4-35.1-46.9-69.8c-2.1-3.9-7-5.4-10.9-3.4c-3.9,2.1-5.4,7-3.4,10.9c18.3,34.4,33.9,58,47.7,71.6
		c-37.6,24.5-82.5,38.8-130.6,38.8C206.9,495.8,161.3,481,123.2,455.6z"/>
</g>
<g class="st3">
	<path class="st2" d="M33.8,256c0-132.6,104.1-240.9,235.1-247.6c-4.3-0.2-8.5-0.3-12.8-0.3C119.1,8.1,8.1,119.1,8.1,256
		c0,136.9,111,247.9,247.9,247.9c4.3,0,8.6-0.1,12.8-0.3C137.9,496.9,33.8,388.6,33.8,256z"/>
</g>
</svg>
