<?xml version="1.0" encoding="utf-8"?>
<!-- Generator: Adobe Illustrator 24.3.0, SVG Export Plug-In . SVG Version: 6.00 Build 0)  -->
<svg version="1.1" id="Calque_1" xmlns="http://www.w3.org/2000/svg" xmlns:xlink="http://www.w3.org/1999/xlink" x="0px" y="0px"
	 viewBox="0 0 20 12.9" style="enable-background:new 0 0 20 12.9;" xml:space="preserve">
<style type="text/css">
	.st0{fill:#1787FC;}
</style>
<g>
	<path class="st0" d="M14.5,1.7c-0.9,0-1.6-1.3-3.1-1.3C10.3,0.4,6,3,6,4.1c0,0.4,0.2,0.7,0.6,0.7c0.7,0,3.5-1.6,3.6-1.7
		c0.2-0.1,0.3-0.2,0.5,0s5,5.5,5,5.5c0.8-0.5,2-2,2-2.3l-2.5-4.9C15.3,1.4,14.8,1.7,14.5,1.7z"/>
	<path class="st0" d="M19.9,4.9l-2.3-4.4c-0.2-0.4-0.6-0.5-1-0.3l-0.4,0.2c-0.4,0.2-0.5,0.6-0.3,1l2.3,4.4c0.2,0.4,0.6,0.5,1,0.3
		l0.4-0.2C20,5.7,20.1,5.3,19.9,4.9z"/>
	<path class="st0" d="M3.1,0.2L2.7,0c-0.4-0.1-0.8,0.1-1,0.4L0,5.1c-0.1,0.4,0.1,0.8,0.4,1l0.4,0.1c0.4,0.1,0.8-0.1,1-0.4l1.7-4.6
		C3.7,0.8,3.5,0.3,3.1,0.2z"/>
	<path class="st0" d="M15.9,9c0,0.2-0.1,0.4-0.3,0.6c-0.3,0.3-0.8,0.3-1.1-0.1l-0.2-0.3l0,0l-1.6-1.8c-0.1-0.1-0.2-0.1-0.3,0
		s-0.1,0.2,0,0.3l1.3,1.4l0,0L14,9.6c0.1,0.2,0.2,0.3,0.2,0.5s-0.1,0.4-0.3,0.5s-0.4,0.2-0.6,0.2c-0.2,0-0.4-0.1-0.5-0.3l-1.7-1.9
		c-0.1-0.1-0.2-0.1-0.3,0s-0.1,0.2,0,0.3l1.3,1.5l0,0l0.1,0.2c0.1,0.2,0.2,0.4,0.2,0.6c0,0.2-0.1,0.4-0.3,0.5s-0.4,0.2-0.6,0.2
		c-0.1,0-0.2,0-0.2,0c0,0.1-0.1,0.2-0.1,0.2l-0.1,0.1c0.1,0.1,0.3,0.1,0.5,0.1c0,0,0,0,0.1,0c0.3,0,0.6-0.1,0.8-0.3s0.4-0.5,0.4-0.8
		l0,0c0.1,0.1,0.3,0.1,0.5,0.1c0,0,0,0,0.1,0c0.3,0,0.6-0.1,0.8-0.3s0.4-0.5,0.4-0.8l0,0c0.2,0.1,0.3,0.1,0.5,0.1
		c0.3,0,0.6-0.1,0.8-0.3c0.3-0.3,0.5-0.8,0.4-1.2L15.9,9z"/>
	<path class="st0" d="M11,10.9l-0.2-0.2c-0.2-0.2-0.6-0.2-0.8,0l-0.9,1c-0.2,0.2-0.2,0.6,0,0.8l0.2,0.2c0.2,0.2,0.6,0.2,0.8,0l0.9-1
		C11.2,11.5,11.2,11.1,11,10.9z"/>
	<path class="st0" d="M10,9.3L9.8,9.1C9.6,8.8,9.2,8.8,9,9l-1.7,1.6c-0.2,0.2-0.3,0.6,0,0.8l0.2,0.2c0.2,0.2,0.6,0.3,0.8,0L10,10
		C10.2,9.9,10.2,9.6,10,9.3z"/>
	<path class="st0" d="M8.3,8.4L8.1,8.1c-0.2-0.2-0.6-0.3-0.8,0L5.9,9.4c-0.2,0.2-0.3,0.6,0,0.8L6,10.5c0.2,0.2,0.6,0.3,0.8,0
		l1.4-1.3C8.5,9,8.6,8.6,8.3,8.4z"/>
	<path class="st0" d="M5.8,8.2L5.6,8C5.3,7.7,5,7.7,4.7,7.9L4.2,8.4C4,8.6,4,9,4.2,9.2l0.2,0.2c0.2,0.2,0.6,0.3,0.8,0L5.7,9
		C6,8.8,6,8.5,5.8,8.2z"/>
	<path class="st0" d="M2.8,6.1c0.1-0.5,1.5-4.2,1.8-5l0.1,0.1C5,1.4,5.4,1.7,5.8,1.7c0.5,0,1.1-0.3,1.6-0.6c0.4-0.2,0.9-0.5,1.2-0.5
		c0.2,0,0.4,0.1,0.6,0.2c0.1-0.1,0.3-0.2,0.4-0.2c-0.3-0.3-0.7-0.4-1-0.4c-0.4,0-0.9,0.3-1.4,0.5C6.7,1,6.2,1.3,5.8,1.3
		C5.6,1.3,5.2,1,5,0.8C4.8,0.7,4.7,0.6,4.5,0.6s-0.3,0-1.3,2.7c0,0.1-0.9,2.6-0.9,2.8c0,0.1,0,0.3,1.6,1.9l0.3-0.3
		C3.6,7.1,2.9,6.3,2.8,6.1z"/>
</g>
</svg>
