<?xml version="1.0" encoding="utf-8"?>
<!-- Generator: Adobe Illustrator 24.3.0, SVG Export Plug-In . SVG Version: 6.00 Build 0)  -->
<svg version="1.1" id="Calque_1" xmlns="http://www.w3.org/2000/svg" xmlns:xlink="http://www.w3.org/1999/xlink" x="0px" y="0px"
	 viewBox="0 0 262 305" style="enable-background:new 0 0 262 305;" xml:space="preserve">
<style type="text/css">
	.st0{fill:#4671C6;}
	.st1{fill:#B9BEFC;}
	.st2{fill:#3762CC;}
	.st3{fill:#A4C9FF;}
	.st4{fill:#E0EBFC;}
	.st5{fill:#6BDDDD;}
</style>
<path class="st0" d="M20.5,10h126.4c6.6,0,12,5.4,12,12v237.6c0,6.6-5.4,12-12,12H20.5c-6.6,0-12-5.4-12-12V21.9
	C8.5,15.3,13.9,10,20.5,10z"/>
<path class="st1" d="M143,21.2h-19.6v2.1c0,4.7-3.8,8.5-8.5,8.5H52.5c-4.7,0-8.5-3.8-8.5-8.5l0,0v-2.1H24.5c-3.5,0-6.3,2.8-6.3,6.3
	v226.4c0,3.5,2.8,6.3,6.3,6.3H143c3.5,0,6.3-2.8,6.3-6.3V27.5C149.3,24,146.5,21.2,143,21.2z"/>
<path class="st2" d="M146.9,274H20.5c-8,0-14.5-6.5-14.5-14.5V21.9c0-8,6.5-14.5,14.5-14.5h126.4c8,0,14.5,6.5,14.5,14.5v237.6
	C161.4,267.5,154.9,274,146.9,274L146.9,274z M20.5,12.5c-5.2,0-9.5,4.2-9.5,9.5v237.6c0,5.2,4.2,9.5,9.5,9.5h126.4
	c5.2,0,9.5-4.2,9.5-9.5V21.9c0-5.2-4.2-9.5-9.5-9.5L20.5,12.5z"/>
<path class="st2" d="M143,262.8H24.5c-4.9,0-8.9-4-8.9-8.9V27.5c0-4.9,4-8.9,8.9-8.9H44c1.4,0,2.5,1.1,2.5,2.5v2.1
	c0,3.3,2.7,5.9,5.9,5.9h62.4c3.3,0,5.9-2.7,5.9-5.9v-2.1c0-1.4,1.1-2.5,2.5-2.5H143c4.9,0,8.9,4,8.9,8.9v226.4
	C151.8,258.8,147.8,262.8,143,262.8z M24.5,23.7c-2.1,0-3.8,1.7-3.8,3.8v226.4c0,2.1,1.7,3.8,3.8,3.8H143c2.1,0,3.8-1.7,3.8-3.8
	V27.5c0-2.1-1.7-3.8-3.8-3.8h-17.1c-0.2,5.9-5.1,10.6-11,10.6H52.5c-5.9,0-10.7-4.7-11-10.6L24.5,23.7z"/>
<g>
	<circle class="st3" cx="109.5" cy="22" r="4"/>
	<circle class="st3" cx="96.8" cy="22" r="2.9"/>
	<path class="st3" d="M54.8,19.1h30.2c1.6,0,2.9,1.3,2.9,2.9v0c0,1.6-1.3,2.9-2.9,2.9H54.8c-1.6,0-2.9-1.3-2.9-2.9v0
		C52,20.4,53.3,19.1,54.8,19.1z"/>
	<path class="st3" d="M99.7,200.6L99.7,200.6c3.7,0,6.7,3,6.7,6.7v86c0,3.7-3,6.7-6.7,6.7h0c-3.7,0-6.7-3-6.7-6.7v-86
		C93,203.6,96,200.6,99.7,200.6z"/>
</g>
<path class="st2" d="M99.7,302.6c-5.1,0-9.2-4.1-9.2-9.2v-86c0-5.1,4.1-9.2,9.2-9.2s9.2,4.1,9.2,9.2v86
	C109,298.4,104.8,302.5,99.7,302.6L99.7,302.6z M99.7,203.1c-2.3,0-4.2,1.9-4.2,4.2v86c0,2.3,1.9,4.2,4.2,4.2c2.3,0,4.2-1.9,4.2-4.2
	v-86C103.9,205,102,203.1,99.7,203.1L99.7,203.1z"/>
<path class="st0" d="M71.3,184.2h56.8l0,0v26.3c0,12.1-9.8,21.9-21.9,21.9H93.3c-12.1,0-21.9-9.8-21.9-21.9V184.2L71.3,184.2z"/>
<path class="st2" d="M106.1,234.9H93.3c-13.5,0-24.4-11-24.5-24.5v-26.3c0-1.4,1.1-2.5,2.5-2.5h56.8c1.4,0,2.5,1.1,2.5,2.5v26.3
	C130.6,223.9,119.7,234.9,106.1,234.9L106.1,234.9z M73.8,186.7v23.7c0,10.7,8.7,19.4,19.4,19.4h12.9c10.7,0,19.4-8.7,19.4-19.4
	v-23.7L73.8,186.7z"/>
<path class="st4" d="M118.9,140.7c3.2,0,5.8,2.6,5.8,5.8V178l0,0h-11.6l0,0v-31.5C113.2,143.3,115.8,140.7,118.9,140.7
	C118.9,140.7,118.9,140.7,118.9,140.7z"/>
<path class="st4" d="M80.5,140.7c3.2,0,5.8,2.6,5.8,5.8V178l0,0H74.7l0,0v-31.5C74.7,143.3,77.3,140.7,80.5,140.7L80.5,140.7z"/>
<path class="st2" d="M124.7,180.6h-11.6c-1.4,0-2.5-1.1-2.5-2.5v-31.5c0-4.6,3.7-8.3,8.3-8.3c4.6,0,8.3,3.7,8.3,8.3v31.5
	C127.3,179.4,126.1,180.6,124.7,180.6z M115.7,175.5h6.5v-29c0-1.8-1.5-3.3-3.3-3.3c-1.8,0-3.3,1.5-3.3,3.3V175.5z"/>
<path class="st2" d="M86.3,180.6H74.7c-1.4,0-2.5-1.1-2.5-2.5v-31.5c0-4.6,3.7-8.3,8.3-8.3c4.6,0,8.3,3.7,8.3,8.3v31.5
	C88.8,179.4,87.7,180.6,86.3,180.6z M77.2,175.5h6.5v-29c0-1.8-1.5-3.3-3.3-3.3c-1.8,0-3.3,1.5-3.3,3.3V175.5z"/>
<path class="st0" d="M68.5,171.9h62.3c1.4,0,2.4,1.1,2.4,2.4v7.4c0,1.4-1.1,2.4-2.4,2.4H68.5c-1.4,0-2.4-1.1-2.4-2.4v-7.4
	C66.1,173,67.2,171.9,68.5,171.9z"/>
<path class="st2" d="M130.9,186.7H68.5c-2.7,0-5-2.2-5-5v-7.4c0-2.7,2.2-5,5-5h62.3c2.7,0,5,2.2,5,5v7.4
	C135.8,184.5,133.6,186.7,130.9,186.7L130.9,186.7z M130.8,174.4l-62.3,0.1l0.1,7.3l62.2-0.1V174.4z"/>
<circle class="st5" cx="190.6" cy="74.5" r="62.9"/>
<circle class="st0" cx="190.6" cy="74.5" r="47.8"/>
<path class="st2" d="M190.6,139.9c-36.1,0-65.4-29.3-65.4-65.4s29.3-65.4,65.4-65.4S256,38.3,256,74.5
	C256,110.6,226.7,139.8,190.6,139.9z M190.6,14.1c-33.3,0-60.4,27-60.4,60.4s27,60.4,60.4,60.4s60.4-27,60.4-60.4
	C250.9,41.1,223.9,14.1,190.6,14.1z"/>
<path class="st5" d="M191.1,42.5c1.1,0,2.2,0.6,2.8,1.5l2.5,3.8c6.8,10.5,6.8,10.5,8.9,13.7l1.3,2c0,0,0.1,0.1,0.1,0.1l-3.2,2.2
	c-0.6,0.4-0.7,1.2-0.3,1.8c0.1,0.2,0.4,0.4,0.6,0.5l11.7,4.6c0.7,0.3,1.4-0.1,1.7-0.7c0.1-0.2,0.1-0.3,0.1-0.5l-0.3-12.5
	c0-0.7-0.6-1.3-1.3-1.3c-0.3,0-0.5,0.1-0.7,0.2l-2.8,1.9l-1.2-1.8c-2-3.1-2-3.1-8.9-13.7l-2.5-3.8c-3-4.6-9.1-5.9-13.7-2.9
	c-1.2,0.8-2.2,1.8-2.9,2.9l-5.4,8.3c-1,1.5-0.5,3.6,1.1,4.5c1.5,0.9,3.5,0.5,4.5-1l5.4-8.3C189,43.1,190,42.5,191.1,42.5L191.1,42.5
	z"/>
<path class="st5" d="M227.1,83.3l-4.6-7c-1-1.5-3-2-4.5-1.1c-1.5,1-2,3-1.1,4.5c0,0,0,0.1,0.1,0.1l4.6,7c1,1.5,0.5,3.6-1,4.5
	c-0.5,0.3-1.1,0.5-1.8,0.5h-20.6v-3.6c0-0.7-0.6-1.3-1.3-1.3c-0.3,0-0.5,0.1-0.7,0.2l-10.4,6.9c-0.6,0.4-0.8,1.2-0.4,1.8
	c0.1,0.1,0.2,0.3,0.4,0.4l10.4,6.9c0.6,0.4,1.4,0.2,1.8-0.4c0.1-0.2,0.2-0.5,0.2-0.7v-3.6h20.6c5.5,0,9.9-4.4,9.9-9.9
	C228.7,86.7,228.2,84.9,227.1,83.3L227.1,83.3z"/>
<path class="st5" d="M178.6,91.9h-15.2c-1.8,0-3.3-1.5-3.3-3.3c0-0.6,0.2-1.2,0.5-1.8l10.8-16.7l2.8,1.9c0.6,0.4,1.4,0.3,1.8-0.3
	c0.1-0.2,0.2-0.5,0.2-0.7l0.3-12.5c0-0.7-0.6-1.3-1.3-1.3c-0.2,0-0.3,0-0.5,0.1l-11.7,4.6c-0.7,0.3-1,1-0.7,1.7
	c0.1,0.2,0.3,0.4,0.5,0.6l3.2,2.2c0,0-0.1,0.1-0.1,0.1l-10.9,16.8c-3,4.6-1.6,10.7,2.9,13.7c1.6,1,3.5,1.6,5.4,1.6h15.2
	c1.8,0,3.3-1.5,3.3-3.3C181.9,93.4,180.4,91.9,178.6,91.9L178.6,91.9z"/>
</svg>
