<svg xmlns="http://www.w3.org/2000/svg" xmlns:xlink="http://www.w3.org/1999/xlink" width="1096" height="762" viewBox="0 0 1096 762">
    <defs>
        <path id="prefix__a" d="M0 0.237L1095.914 0.237 1095.914 17.644 0 17.644z"/>
        <path id="prefix__c" d="M0 0.143L1095.914 0.143 1095.914 130.69 0 130.69z"/>
        <path id="prefix__e" d="M0.048 0.368L581.033 0.406 581.031 56.518 0.044 56.48z"/>
        <linearGradient id="prefix__f" x1="50%" x2="50%" y1="-8.822%" y2="102.939%">
            <stop offset="0%" stop-color="#FFF"/>
            <stop offset="100%" stop-color="#70756E"/>
        </linearGradient>
    </defs>
    <g fill="none" fill-rule="evenodd">
        <path fill="#1A1A1A" d="M938.997 57H156.001C141.09 57 129 69.109 129 84.047V613h837V84.047C966 69.109 953.911 57 938.997 57"/>
        <path fill="#3A4D63" d="M173 541.154L173 576 925 576 925 541.154 925 95 173 95z"/>
        <path fill="#CCC" d="M5 749.087C5 756.218 10.643 762 17.602 762h1058.792c6.962 0 12.606-5.782 12.606-12.913V736H5v13.087z"/>
        <g transform="translate(0 734)">
            <mask id="prefix__b" fill="#fff">
                <use xlink:href="#prefix__a"/>
            </mask>
            <path fill="#B3B3B3" d="M0 14.934c0 1.496 1.224 2.71 2.735 2.71H1093.18c1.51 0 2.735-1.214 2.735-2.71V.237H0v14.697z" mask="url(#prefix__b)"/>
        </g>
        <path fill="#CCC" d="M485 736.54c0 3.568 2.843 6.46 6.349 6.46H604.65c3.507 0 6.349-2.892 6.349-6.46V734H485v2.54z"/>
        <g transform="translate(0 603)">
            <mask id="prefix__d" fill="#fff">
                <use xlink:href="#prefix__c"/>
            </mask>
            <path fill="#F3F3F3" d="M129.823 0.143L0 130.69 1095.916 130.69 966.09 0.143z" mask="url(#prefix__d)"/>
        </g>
        <path fill="#D1D1D1" d="M86 682L161.122 682 214 613 149.193 613zM882 613L934.879 682 1010 682 946.808 613z"/>
        <path fill="#D8D8D8" d="M659.075 697.552c-1.344-6.443-8.08-11.552-15.073-11.552H451.998c-6.994 0-13.73 5.109-15.075 11.552l-3.662 17.554c-1.472 7.046 3.435 12.894 10.991 12.894h207.496c7.556 0 12.463-5.848 10.991-12.894l-3.664-17.554z"/>
        <path fill="#313946" d="M183 681L225.806 681 234 669 192.263 669zM223 628L260.562 628 267 618 230.278 618zM231 617L284.919 617 287 614 233.514 614zM294 617L330.264 617 332 614 296.028 614zM338 617L373.645 617 375 614 339.641 614zM383 617L418.982 617 420 614 384.307 614zM428 617L464.33 617 465 614 428.962 614zM473 617L509.679 617 510 614 473.616 614zM516.248 614L516 617 552 617 551.96 614zM561 614L561.102 617 597 617 596.61 614zM603 614L603.45 617 640 617 639.258 614zM647 614L647.794 617 684 617 682.915 614zM693 614L694.149 617 730 617 728.565 614zM738 614L739.529 617 776 617 774.178 614zM781 614L782.866 617 819 617 816.846 614zM826 614L828.201 617 864 617 861.509 614zM203 654L274.519 654 281 643 211.168 643zM214 641L273.749 641 280 630 221.623 630zM195 667L298.896 667 305 655 203.628 655zM808 643L814.217 654 891 654 882.97 643zM791 655L797.102 667 901 667 892.375 655zM234 681L275.324 681 282 669 241.708 669zM305 667L346.082 667 351 655 310.914 655zM356 667L397.289 667 401 655 360.713 655zM404 667L445.462 667 448 655 407.546 655zM453 667L494.692 667 496 655 455.322 655zM504 667L544.908 667 545 655 505.086 655zM553 655L553.134 667 594 667 592.873 655zM600 655L601.333 667 643 667 640.656 655zM649 655L651.561 667 693 667 689.433 655zM696 655L699.729 667 741 667 736.27 655zM745 655L749.935 667 791 667 785.068 655zM285 654L324.71 654 330 643 291.227 643zM333 654L372.848 654 377 643 338.092 643zM380 654L419.95 654 423 643 383.993 643zM428 654L467.149 654 469 643 430.777 643zM476 654L516.236 654 517 643 477.713 643zM526.531 643L526 654 565 654 564.609 643zM573 643L573.549 654 612 654 610.543 643zM620 643L621.701 654 661 654 658.37 643zM665 643L667.853 654 708 654 704.2 643zM712 643L716.001 654 756 654 751.054 643zM761 643L766.148 654 806 654 799.913 643zM282 641L320.772 641 326 630 288.119 630zM331 641L369.856 641 374 630 336.037 630zM375 641L414.833 641 418 630 379.083 630zM423 641L462.001 641 464 630 425.896 630zM469 641L507.098 641 508 630 470.778 630zM517.702 630L517 641 555 641 554.827 630zM563 630L563.326 641 601 641 599.807 630zM609 630L610.388 641 648 641 645.747 630zM656 630L658.504 641 697 641 693.611 630zM699 630L702.628 641 742 641 737.467 630zM746 630L750.73 641 790 641 784.367 630zM790 630L795.806 641 835 641 828.294 630zM836 630L842.882 641 882 641 874.221 630zM267 628L305.439 628 311 618 273.421 618zM314 628L352.49 628 357 618 319.37 618zM359 628L396.589 628 400 618 363.253 618zM405 628L441.679 628 444 618 408.141 618zM449 628L485.665 628 487 618 451.155 618zM496 628L532.673 628 533 618 497.146 618zM540.18 618L540 628 577 628 576.351 618zM585 618L585.839 628 623 628 621.328 618zM628 618L629.817 628 667 628 664.35 618zM674 618L676.91 628 715 628 711.239 618zM720 618L723.862 628 761 628 756.308 618zM763 618L767.979 628 806 628 800.171 618zM808 618L813.948 628 874 628 866.708 618zM285 681L326.547 681 332 669 291.491 669zM713 669L717.203 681 759 681 753.751 669zM763 669L768.439 681 810 681 803.523 669zM862 669L870.022 681 912 681 902.93 669zM812 667L815.022 673 857 673 853.507 667zM816 676L819.066 682 861 682 857.459 676zM335 681L390.978 681 395 669 340.422 669zM653 669L655.641 681 710 681 706 669zM405.665 669L402 681 646 681 643.567 669z"/>
        <path fill="#333" d="M854.253 605H238.745l-.023.024c-1.606 1.637-.446 2.976 2.608 2.976h610.339c3.053 0 4.215-1.339 2.61-2.976l-.026-.024z"/>
        <g transform="translate(258 519)">
            <mask id="prefix__g" fill="#fff">
                <use xlink:href="#prefix__e"/>
            </mask>
            <path fill="url(#prefix__f)" d="M0.044 56.48L581.031 56.518 581.033 0.406 0.048 0.368z" mask="url(#prefix__g)"/>
        </g>
        <path fill="#FFF" d="M835.72 0H261.281C245.661 0 233 12.68 233 28.322V499.406C233 512.988 243.995 524 257.557 524h581.886C853.005 524 864 512.988 864 499.406V28.322C864 12.68 851.34 0 835.72 0"/>
        <path fill="#3A4D63" d="M864 74V15.871C864 7.106 858.93 0 847.644 0H253.439C242.151 0 233 7.106 233 15.873V74h631z"/>
        <path fill="#FF585D" d="M259 37.5c0 8.008 6.492 14.5 14.5 14.5 8.006 0 14.5-6.492 14.5-14.5S281.506 23 273.5 23c-8.008 0-14.5 6.492-14.5 14.5"/>
        <path fill="#FFC700" d="M298 37.5c0 8.008 6.492 14.5 14.5 14.5S327 45.508 327 37.5 320.508 23 312.5 23 298 29.492 298 37.5"/>
        <path fill="#7CB342" d="M337 37.5c0 8.008 6.492 14.5 14.5 14.5S366 45.508 366 37.5 359.508 23 351.5 23 337 29.492 337 37.5"/>
        <path fill="#F2F2F2" d="M431 135.932L799.998 136 800 124.066 431.002 124zM431 159.944L735.996 160 736 148.054 431.002 148zM430 182.937L771.998 183 772 171.063 430.002 171zM430 206.957L664.998 207 665 195.045 430.002 195zM302.853 206.06l80.28.014.014-81.132-80.28-.016-.014 81.133zm87.13 6.94L296 212.982l.016-94.982 93.984.018-.018 94.982z"/>
        <path fill="#7CB342" d="M339.134 173.243L307.227 140.951 294 154.326 339.129 200 405 133.381 391.779 120z"/>
        <path fill="#F2F2F2" d="M431 269.943L745.998 270 746 258.057 431.002 258zM431 294.932L800.998 295 801 283.068 431.002 283zM430 316.937L772.998 317 773 305.063 430.002 305zM431 341.948L712.998 342 713 330.052 431.002 330zM302.853 340.06l80.28.014.014-81.132-80.28-.016-.014 81.133zm87.131 6.94L296 346.982l.018-94.982 93.982.018-.016 94.982z"/>
        <path fill="#7CB342" d="M339.133 309.243L307.226 276.95 294 290.326 339.13 336 405 269.381 391.779 256z"/>
        <path fill="#F2F2F2" d="M431 405.939L757.996 406 758 394.059 431.002 394zM431 428.953L682.998 429 683 417.045 431.002 417zM430 451.934L799.998 452 800 440.068 430.002 440zM430 475.944L729.998 476 730 464.054 430.002 464zM302.853 475.06l80.28.014.014-81.133-80.28-.015-.014 81.133zm87.131 6.94L296 481.982l.018-94.982 93.982.018-.016 94.982z"/>
        <path fill="#7CB342" d="M339.134 442.242L307.227 409.95 294 423.326 339.129 469 405 402.38 391.78 389z"/>
    </g>
</svg>
