<?xml version="1.0" encoding="UTF-8"?>
<svg xmlns="http://www.w3.org/2000/svg" xmlns:xlink="http://www.w3.org/1999/xlink" width="190pt" height="190pt" viewBox="0 0 190 190" version="1.1">
<defs>
<filter id="alpha" filterUnits="objectBoundingBox" x="0%" y="0%" width="100%" height="100%">
  <feColorMatrix type="matrix" in="SourceGraphic" values="0 0 0 0 1 0 0 0 0 1 0 0 0 0 1 0 0 0 1 0"/>
</filter>
<mask id="mask0">
  <g filter="url(#alpha)">
<rect x="0" y="0" width="190" height="190" style="fill:rgb(0%,0%,0%);fill-opacity:0.14902;stroke:none;"/>
  </g>
</mask>
<clipPath id="clip1">
  <rect x="0" y="0" width="190" height="190"/>
</clipPath>
<g id="surface5" clip-path="url(#clip1)">
<path style=" stroke:none;fill-rule:nonzero;fill:rgb(0%,0%,0%);fill-opacity:1;" d="M 162.042969 51.464844 L 110.578125 0 L 95 0 L 95 190 L 162.042969 190 Z M 162.042969 51.464844 "/>
</g>
</defs>
<g id="surface1">
<path style=" stroke:none;fill-rule:nonzero;fill:rgb(92.941176%,92.941176%,92.941176%);fill-opacity:1;" d="M 110.578125 0 L 27.957031 0 L 27.957031 190 L 162.042969 190 L 162.042969 51.464844 L 110.578125 51.464844 Z M 110.578125 0 "/>
<path style=" stroke:none;fill-rule:nonzero;fill:rgb(25.098039%,38.431373%,43.921569%);fill-opacity:1;" d="M 110.578125 51.464844 L 162.042969 51.464844 L 110.578125 0 Z M 110.578125 51.464844 "/>
<path style=" stroke:none;fill-rule:nonzero;fill:rgb(58.431373%,80.784314%,70.588235%);fill-opacity:1;" d="M 54.609375 79.875 C 53.988281 79.875 53.367188 79.640625 52.894531 79.164062 L 42.320312 68.59375 C 41.375 67.644531 41.375 66.113281 42.320312 65.160156 C 43.269531 64.214844 44.804688 64.214844 45.753906 65.160156 L 54.609375 74.019531 L 70.984375 57.644531 C 71.933594 56.695312 73.472656 56.695312 74.417969 57.644531 C 75.367188 58.589844 75.367188 60.125 74.417969 61.074219 L 56.324219 79.164062 C 55.851562 79.640625 55.230469 79.875 54.609375 79.875 Z M 54.609375 79.875 "/>
<path style=" stroke:none;fill-rule:nonzero;fill:rgb(58.431373%,80.784314%,70.588235%);fill-opacity:1;" d="M 54.609375 114.761719 C 53.988281 114.761719 53.367188 114.523438 52.894531 114.050781 L 42.320312 103.476562 C 41.375 102.53125 41.375 100.992188 42.320312 100.042969 C 43.269531 99.097656 44.804688 99.097656 45.753906 100.042969 L 54.609375 108.902344 L 70.988281 92.527344 C 71.933594 91.578125 73.472656 91.578125 74.417969 92.527344 C 75.367188 93.476562 75.367188 95.011719 74.417969 95.957031 L 56.328125 114.050781 C 55.851562 114.523438 55.230469 114.761719 54.609375 114.761719 Z M 54.609375 114.761719 "/>
<path style=" stroke:none;fill-rule:nonzero;fill:rgb(58.431373%,80.784314%,70.588235%);fill-opacity:1;" d="M 54.609375 149.648438 C 53.988281 149.648438 53.367188 149.414062 52.894531 148.933594 L 42.320312 138.359375 C 41.375 137.414062 41.375 135.878906 42.320312 134.929688 C 43.269531 133.980469 44.804688 133.980469 45.753906 134.929688 L 54.609375 143.789062 L 70.988281 127.414062 C 71.933594 126.464844 73.472656 126.464844 74.417969 127.414062 C 75.367188 128.359375 75.367188 129.894531 74.417969 130.847656 L 56.328125 148.933594 C 55.851562 149.410156 55.230469 149.648438 54.609375 149.648438 Z M 54.609375 149.648438 "/>
<path style=" stroke:none;fill-rule:nonzero;fill:rgb(58.431373%,80.784314%,70.588235%);fill-opacity:1;" d="M 54.609375 184.53125 C 53.988281 184.53125 53.367188 184.296875 52.894531 183.824219 L 42.320312 173.25 C 41.375 172.300781 41.375 170.761719 42.320312 169.816406 C 43.269531 168.871094 44.804688 168.871094 45.753906 169.816406 L 54.609375 178.675781 L 70.988281 162.300781 C 71.933594 161.351562 73.472656 161.351562 74.417969 162.300781 C 75.367188 163.246094 75.367188 164.785156 74.417969 165.730469 L 56.328125 183.824219 C 55.851562 184.296875 55.230469 184.53125 54.609375 184.53125 Z M 54.609375 184.53125 "/>
<path style=" stroke:none;fill-rule:nonzero;fill:rgb(77.647059%,77.647059%,77.647059%);fill-opacity:1;" d="M 68.558594 75.023438 L 147.78125 75.023438 L 147.78125 79.875 L 68.558594 79.875 Z M 68.558594 75.023438 "/>
<path style=" stroke:none;fill-rule:nonzero;fill:rgb(77.647059%,77.647059%,77.647059%);fill-opacity:1;" d="M 68.558594 109.910156 L 147.78125 109.910156 L 147.78125 114.761719 L 68.558594 114.761719 Z M 68.558594 109.910156 "/>
<path style=" stroke:none;fill-rule:nonzero;fill:rgb(77.647059%,77.647059%,77.647059%);fill-opacity:1;" d="M 68.558594 144.792969 L 147.78125 144.792969 L 147.78125 149.648438 L 68.558594 149.648438 Z M 68.558594 144.792969 "/>
<path style=" stroke:none;fill-rule:nonzero;fill:rgb(77.647059%,77.647059%,77.647059%);fill-opacity:1;" d="M 68.558594 179.679688 L 147.78125 179.679688 L 147.78125 184.53125 L 68.558594 184.53125 Z M 68.558594 179.679688 "/>
<use xlink:href="#surface5" mask="url(#mask0)"/>
</g>
</svg>
