<?xml version="1.0" encoding="utf-8"?>
<!-- Generator: Adobe Illustrator 24.3.0, SVG Export Plug-In . SVG Version: 6.00 Build 0)  -->
<svg version="1.1" id="Calque_1" xmlns="http://www.w3.org/2000/svg" xmlns:xlink="http://www.w3.org/1999/xlink" x="0px" y="0px"
	 viewBox="0 0 512 512" style="enable-background:new 0 0 512 512;" xml:space="preserve">
<style type="text/css">
	.st0{fill:#4671C6;}
	.st1{fill:#B9BEFC;}
	.st2{fill:#3762CC;}
	.st3{fill:#A4C9FF;}
	.st4{fill:#E0EBFC;}
	.st5{fill:#6BDDDD;}
</style>
<path class="st0" d="M145.5,111h126.4c6.6,0,12,5.4,12,12v237.6c0,6.6-5.4,12-12,12H145.5c-6.6,0-12-5.4-12-12V122.9
	C133.5,116.3,138.9,111,145.5,111z"/>
<path class="st1" d="M268,122.2h-19.6v2.1c0,4.7-3.8,8.5-8.5,8.5h-62.4c-4.7,0-8.5-3.8-8.5-8.5l0,0v-2.1h-19.6
	c-3.5,0-6.3,2.8-6.3,6.3v226.4c0,3.5,2.8,6.3,6.3,6.3H268c3.5,0,6.3-2.8,6.3-6.3V128.5C274.3,125,271.5,122.2,268,122.2z"/>
<path class="st2" d="M271.9,375H145.5c-8,0-14.5-6.5-14.5-14.5V122.9c0-8,6.5-14.5,14.5-14.5h126.4c8,0,14.5,6.5,14.5,14.5v237.6
	C286.4,368.5,279.9,375,271.9,375L271.9,375z M145.5,113.5c-5.2,0-9.5,4.2-9.5,9.5v237.6c0,5.2,4.2,9.5,9.5,9.5h126.4
	c5.2,0,9.5-4.2,9.5-9.5V122.9c0-5.2-4.2-9.5-9.5-9.5L145.5,113.5z"/>
<path class="st2" d="M268,363.8H149.5c-4.9,0-8.9-4-8.9-8.9V128.5c0-4.9,4-8.9,8.9-8.9H169c1.4,0,2.5,1.1,2.5,2.5v2.1
	c0,3.3,2.7,5.9,5.9,5.9h62.4c3.3,0,5.9-2.7,5.9-5.9v-2.1c0-1.4,1.1-2.5,2.5-2.5H268c4.9,0,8.9,4,8.9,8.9v226.4
	C276.8,359.8,272.8,363.8,268,363.8z M149.5,124.7c-2.1,0-3.8,1.7-3.8,3.8v226.4c0,2.1,1.7,3.8,3.8,3.8H268c2.1,0,3.8-1.7,3.8-3.8
	V128.5c0-2.1-1.7-3.8-3.8-3.8h-17.1c-0.2,5.9-5.1,10.6-11,10.6h-62.4c-5.9,0-10.7-4.7-11-10.6L149.5,124.7z"/>
<g>
	<circle class="st3" cx="234.5" cy="123" r="4"/>
	<circle class="st3" cx="221.8" cy="123" r="2.9"/>
	<path class="st3" d="M179.8,120.1h30.2c1.6,0,2.9,1.3,2.9,2.9l0,0c0,1.6-1.3,2.9-2.9,2.9h-30.2c-1.6,0-2.9-1.3-2.9-2.9l0,0
		C177,121.4,178.3,120.1,179.8,120.1z"/>
	<path class="st3" d="M224.7,301.6L224.7,301.6c3.7,0,6.7,3,6.7,6.7v86c0,3.7-3,6.7-6.7,6.7h0c-3.7,0-6.7-3-6.7-6.7v-86
		C218,304.6,221,301.6,224.7,301.6z"/>
</g>
<path class="st2" d="M224.7,403.6c-5.1,0-9.2-4.1-9.2-9.2v-86c0-5.1,4.1-9.2,9.2-9.2c5.1,0,9.2,4.1,9.2,9.2v86
	C234,399.4,229.8,403.5,224.7,403.6L224.7,403.6z M224.7,304.1c-2.3,0-4.2,1.9-4.2,4.2v86c0,2.3,1.9,4.2,4.2,4.2
	c2.3,0,4.2-1.9,4.2-4.2v-86C228.9,306,227,304.1,224.7,304.1L224.7,304.1z"/>
<path class="st0" d="M196.3,285.2h56.8l0,0v26.3c0,12.1-9.8,21.9-21.9,21.9h-12.9c-12.1,0-21.9-9.8-21.9-21.9V285.2L196.3,285.2z"/>
<path class="st2" d="M231.1,335.9h-12.9c-13.5,0-24.4-11-24.5-24.5v-26.3c0-1.4,1.1-2.5,2.5-2.5h56.8c1.4,0,2.5,1.1,2.5,2.5v26.3
	C255.6,324.9,244.7,335.9,231.1,335.9L231.1,335.9z M198.8,287.7v23.7c0,10.7,8.7,19.4,19.4,19.4h12.9c10.7,0,19.4-8.7,19.4-19.4
	v-23.7L198.8,287.7z"/>
<path class="st4" d="M243.9,241.7c3.2,0,5.8,2.6,5.8,5.8V279l0,0h-11.6l0,0v-31.5C238.2,244.3,240.8,241.7,243.9,241.7
	C243.9,241.7,243.9,241.7,243.9,241.7z"/>
<path class="st4" d="M205.5,241.7c3.2,0,5.8,2.6,5.8,5.8V279l0,0h-11.6l0,0v-31.5C199.7,244.3,202.3,241.7,205.5,241.7L205.5,241.7z
	"/>
<path class="st2" d="M249.7,281.6h-11.6c-1.4,0-2.5-1.1-2.5-2.5v-31.5c0-4.6,3.7-8.3,8.3-8.3c4.6,0,8.3,3.7,8.3,8.3V279
	C252.3,280.4,251.1,281.6,249.7,281.6z M240.7,276.5h6.5v-29c0-1.8-1.5-3.3-3.3-3.3c-1.8,0-3.3,1.5-3.3,3.3V276.5z"/>
<path class="st2" d="M211.3,281.6h-11.6c-1.4,0-2.5-1.1-2.5-2.5v-31.5c0-4.6,3.7-8.3,8.3-8.3c4.6,0,8.3,3.7,8.3,8.3V279
	C213.8,280.4,212.7,281.6,211.3,281.6z M202.2,276.5h6.5v-29c0-1.8-1.5-3.3-3.3-3.3c-1.8,0-3.3,1.5-3.3,3.3V276.5z"/>
<path class="st0" d="M193.5,272.9h62.3c1.4,0,2.4,1.1,2.4,2.4v7.4c0,1.4-1.1,2.4-2.4,2.4h-62.3c-1.4,0-2.4-1.1-2.4-2.4v-7.4
	C191.1,274,192.2,272.9,193.5,272.9z"/>
<path class="st2" d="M255.9,287.7h-62.3c-2.7,0-5-2.2-5-5v-7.4c0-2.7,2.2-5,5-5h62.3c2.7,0,5,2.2,5,5v7.4
	C260.8,285.5,258.6,287.7,255.9,287.7L255.9,287.7z M255.8,275.4l-62.3,0.1l0.1,7.3l62.2-0.1V275.4z"/>
<circle class="st5" cx="315.6" cy="175.5" r="62.9"/>
<circle class="st0" cx="315.6" cy="175.5" r="47.8"/>
<path class="st2" d="M315.6,240.9c-36.1,0-65.4-29.3-65.4-65.4s29.3-65.4,65.4-65.4s65.4,29.3,65.4,65.4
	C381,211.6,351.7,240.8,315.6,240.9z M315.6,115.1c-33.3,0-60.4,27-60.4,60.4s27,60.4,60.4,60.4s60.4-27,60.4-60.4
	C375.9,142.1,348.9,115.1,315.6,115.1z"/>
<path class="st5" d="M316.1,143.5c1.1,0,2.2,0.6,2.8,1.5l2.5,3.8c6.8,10.5,6.8,10.5,8.9,13.7l1.3,2c0,0,0.1,0.1,0.1,0.1l-3.2,2.2
	c-0.6,0.4-0.7,1.2-0.3,1.8c0.1,0.2,0.4,0.4,0.6,0.5l11.7,4.6c0.7,0.3,1.4-0.1,1.7-0.7c0.1-0.2,0.1-0.3,0.1-0.5l-0.3-12.5
	c0-0.7-0.6-1.3-1.3-1.3c-0.3,0-0.5,0.1-0.7,0.2l-2.8,1.9l-1.2-1.8c-2-3.1-2-3.1-8.9-13.7l-2.5-3.8c-3-4.6-9.1-5.9-13.7-2.9
	c-1.2,0.8-2.2,1.8-2.9,2.9l-5.4,8.3c-1,1.5-0.5,3.6,1.1,4.5c1.5,0.9,3.5,0.5,4.5-1l5.4-8.3C314,144.1,315,143.5,316.1,143.5
	L316.1,143.5z"/>
<path class="st5" d="M352.1,184.3l-4.6-7c-1-1.5-3-2-4.5-1.1c-1.5,1-2,3-1.1,4.5c0,0,0,0.1,0.1,0.1l4.6,7c1,1.5,0.5,3.6-1,4.5
	c-0.5,0.3-1.1,0.5-1.8,0.5h-20.6v-3.6c0-0.7-0.6-1.3-1.3-1.3c-0.3,0-0.5,0.1-0.7,0.2l-10.4,6.9c-0.6,0.4-0.8,1.2-0.4,1.8
	c0.1,0.1,0.2,0.3,0.4,0.4l10.4,6.9c0.6,0.4,1.4,0.2,1.8-0.4c0.1-0.2,0.2-0.5,0.2-0.7v-3.6h20.6c5.5,0,9.9-4.4,9.9-9.9
	C353.7,187.7,353.2,185.9,352.1,184.3L352.1,184.3z"/>
<path class="st5" d="M303.6,192.9h-15.2c-1.8,0-3.3-1.5-3.3-3.3c0-0.6,0.2-1.2,0.5-1.8l10.8-16.7l2.8,1.9c0.6,0.4,1.4,0.3,1.8-0.3
	c0.1-0.2,0.2-0.5,0.2-0.7l0.3-12.5c0-0.7-0.6-1.3-1.3-1.3c-0.2,0-0.3,0-0.5,0.1l-11.7,4.6c-0.7,0.3-1,1-0.7,1.7
	c0.1,0.2,0.3,0.4,0.5,0.6l3.2,2.2c0,0-0.1,0.1-0.1,0.1l-10.9,16.8c-3,4.6-1.6,10.7,2.9,13.7c1.6,1,3.5,1.6,5.4,1.6h15.2
	c1.8,0,3.3-1.5,3.3-3.3C306.9,194.4,305.4,192.9,303.6,192.9L303.6,192.9z"/>
</svg>
