<?xml version="1.0" encoding="UTF-8"?>
<svg xmlns="http://www.w3.org/2000/svg" xmlns:xlink="http://www.w3.org/1999/xlink" width="180pt" height="180pt" viewBox="0 0 180 180" version="1.1">
<defs>
<filter id="alpha" filterUnits="objectBoundingBox" x="0%" y="0%" width="100%" height="100%">
  <feColorMatrix type="matrix" in="SourceGraphic" values="0 0 0 0 1 0 0 0 0 1 0 0 0 0 1 0 0 0 1 0"/>
</filter>
<mask id="mask0">
  <g filter="url(#alpha)">
<rect x="0" y="0" width="180" height="180" style="fill:rgb(0%,0%,0%);fill-opacity:0.14902;stroke:none;"/>
  </g>
</mask>
<clipPath id="clip1">
  <rect x="0" y="0" width="180" height="180"/>
</clipPath>
<g id="surface5" clip-path="url(#clip1)">
<path style=" stroke:none;fill-rule:nonzero;fill:rgb(0%,0%,0%);fill-opacity:1;" d="M 153.511719 48.757812 L 104.757812 0 L 90 0 L 90 180 L 153.511719 180 Z M 153.511719 48.757812 "/>
</g>
</defs>
<g id="surface1">
<path style=" stroke:none;fill-rule:nonzero;fill:rgb(92.941176%,92.941176%,92.941176%);fill-opacity:1;" d="M 104.757812 0 L 26.488281 0 L 26.488281 180 L 153.511719 180 L 153.511719 48.757812 L 104.757812 48.757812 Z M 104.757812 0 "/>
<path style=" stroke:none;fill-rule:nonzero;fill:rgb(25.098039%,38.431373%,43.921569%);fill-opacity:1;" d="M 104.757812 48.757812 L 153.511719 48.757812 L 104.757812 0 Z M 104.757812 48.757812 "/>
<path style=" stroke:none;fill-rule:nonzero;fill:rgb(58.431373%,80.784314%,70.588235%);fill-opacity:1;" d="M 51.734375 75.671875 C 51.148438 75.671875 50.558594 75.449219 50.109375 75 L 40.09375 64.984375 C 39.195312 64.085938 39.195312 62.632812 40.09375 61.730469 C 40.992188 60.835938 42.445312 60.835938 43.34375 61.730469 L 51.734375 70.125 L 67.25 54.609375 C 68.148438 53.710938 69.605469 53.710938 70.5 54.609375 C 71.398438 55.503906 71.398438 56.960938 70.5 57.859375 L 53.363281 75 C 52.914062 75.449219 52.324219 75.671875 51.734375 75.671875 Z M 51.734375 75.671875 "/>
<path style=" stroke:none;fill-rule:nonzero;fill:rgb(58.431373%,80.784314%,70.588235%);fill-opacity:1;" d="M 51.734375 108.71875 C 51.148438 108.71875 50.558594 108.496094 50.109375 108.046875 L 40.09375 98.03125 C 39.195312 97.132812 39.195312 95.675781 40.09375 94.777344 C 40.992188 93.882812 42.445312 93.882812 43.34375 94.777344 L 51.738281 103.171875 L 67.25 87.65625 C 68.148438 86.761719 69.605469 86.761719 70.503906 87.65625 C 71.402344 88.554688 71.402344 90.011719 70.503906 90.910156 L 53.363281 108.050781 C 52.914062 108.496094 52.324219 108.71875 51.734375 108.71875 Z M 51.734375 108.71875 "/>
<path style=" stroke:none;fill-rule:nonzero;fill:rgb(58.431373%,80.784314%,70.588235%);fill-opacity:1;" d="M 51.734375 141.773438 C 51.148438 141.773438 50.558594 141.550781 50.109375 141.097656 L 40.09375 131.078125 C 39.195312 130.179688 39.195312 128.726562 40.09375 127.828125 C 40.992188 126.929688 42.445312 126.929688 43.34375 127.828125 L 51.738281 136.21875 L 67.25 120.707031 C 68.148438 119.808594 69.605469 119.808594 70.503906 120.707031 C 71.402344 121.605469 71.402344 123.058594 70.503906 123.960938 L 53.363281 141.097656 C 52.914062 141.546875 52.324219 141.773438 51.734375 141.773438 Z M 51.734375 141.773438 "/>
<path style=" stroke:none;fill-rule:nonzero;fill:rgb(58.431373%,80.784314%,70.588235%);fill-opacity:1;" d="M 51.734375 174.820312 C 51.148438 174.820312 50.558594 174.597656 50.109375 174.148438 L 40.09375 164.128906 C 39.195312 163.234375 39.195312 161.777344 40.09375 160.878906 C 40.992188 159.984375 42.445312 159.984375 43.34375 160.878906 L 51.738281 169.273438 L 67.25 153.757812 C 68.148438 152.859375 69.605469 152.859375 70.503906 153.757812 C 71.402344 154.652344 71.402344 156.113281 70.503906 157.007812 L 53.363281 174.148438 C 52.914062 174.597656 52.324219 174.820312 51.734375 174.820312 Z M 51.734375 174.820312 "/>
<path style=" stroke:none;fill-rule:nonzero;fill:rgb(77.647059%,77.647059%,77.647059%);fill-opacity:1;" d="M 64.949219 71.074219 L 140.003906 71.074219 L 140.003906 75.671875 L 64.949219 75.671875 Z M 64.949219 71.074219 "/>
<path style=" stroke:none;fill-rule:nonzero;fill:rgb(77.647059%,77.647059%,77.647059%);fill-opacity:1;" d="M 64.949219 104.125 L 140.003906 104.125 L 140.003906 108.71875 L 64.949219 108.71875 Z M 64.949219 104.125 "/>
<path style=" stroke:none;fill-rule:nonzero;fill:rgb(77.647059%,77.647059%,77.647059%);fill-opacity:1;" d="M 64.949219 137.171875 L 140.003906 137.171875 L 140.003906 141.773438 L 64.949219 141.773438 Z M 64.949219 137.171875 "/>
<path style=" stroke:none;fill-rule:nonzero;fill:rgb(77.647059%,77.647059%,77.647059%);fill-opacity:1;" d="M 64.949219 170.222656 L 140.003906 170.222656 L 140.003906 174.820312 L 64.949219 174.820312 Z M 64.949219 170.222656 "/>
<use xlink:href="#surface5" mask="url(#mask0)"/>
</g>
</svg>
