<?xml version="1.0" encoding="utf-8"?>
<!-- Generator: Adobe Illustrator 24.3.0, SVG Export Plug-In . SVG Version: 6.00 Build 0)  -->
<svg version="1.1" id="Calque_1" xmlns="http://www.w3.org/2000/svg" xmlns:xlink="http://www.w3.org/1999/xlink" x="0px" y="0px"
	 viewBox="0 0 405.03 178.73" style="enable-background:new 0 0 405.03 178.73;" xml:space="preserve">
<style type="text/css">
	.st0{fill:#CFDFF2;}
	.st1{fill:#AEC8E7;}
	.st2{fill:#678FC7;}
	.st3{fill:#E4E6E6;}
	.st4{fill:#C8CBCB;}
	.st5{fill:#37444F;}
	.st6{fill:#475866;}
	.st7{fill:#7E8A94;}
	.st8{fill:#F0C75E;}
	.st9{fill:#FFFFFF;}
</style>
<g id="layer1" transform="translate(-640.44 -2771.7)">
	<g id="g3063" transform="matrix(.48764 0 0 .48764 692.26 1721)">
		<path class="st0" d="M-18.4,2238.58c-0.24-1.89-0.89-7.03,2.13-10.59c1.27-1.5,3.97-3.64,16.97-3.42
			c3.42,0.06,13.6,0.37,32.81,4.56c2.3,0.5,4.79,1.07,6.43,1.47c31.02,7.6,58.63,25.41,58.63,25.41
			c19.23,12.41,48.28,31.15,44.73,42.39c-4.3,13.61-55.53,13.45-96.26-1.78C3.52,2280.33-16.82,2251.04-18.4,2238.58z"/>
		<path id="path3065" class="st1" d="M-21.32,2227.82l-61.86,212.12l1.63,4.32c1.89,4.01,4.43,7.68,7.24,11.05h0
			c4.78,5.73,10.41,10.65,16.39,14.97c0,0,0,0,0,0c9.04,6.53,18.92,11.72,29.09,16.08c10.17,4.36,20.69,7.91,31.52,9.9h0
			c7.17,1.32,14.49,1.95,21.75,1.38h0c4.28-0.34,8.55-1.08,12.6-2.55h0c1.04-0.38,2.07-0.8,3.06-1.31l1.01-0.57l102.21-194.82
			c-1.61,1.46-3.57,2.47-5.59,3.18c-2.48,0.87-5.08,1.32-7.69,1.55h0c-3.15,0.29-6.32,0.26-9.47,0.06h0
			c-3.67-0.23-7.31-0.7-10.94-1.3c-8.47-1.42-16.81-3.6-25.02-6.17h0c-9.19-2.87-18.22-6.26-27.1-10.04
			c-9.07-3.86-17.98-8.14-26.67-12.86c-8.15-4.43-16.11-9.24-23.7-14.63c0,0,0,0,0,0c-6.47-4.58-12.71-9.56-18.22-15.34
			c-2.26-2.37-4.4-4.89-6.27-7.61C-18.95,2232.91-20.35,2230.46-21.32,2227.82L-21.32,2227.82z"/>
		<path id="path3067" class="st2" d="M129.69,2200.67c-7.37-1.63-10.43,7.36-8.07,17.25c3.75,15.73-0.46,31.83-4.42,22.39
			c-1.17-2.79-10.15-46.29-18.23-41.52c-4.74,2.8-1.82,22.83-4.7,27.92c-9.51,16.81-8.58-28.99-17.84-16.67
			c-8.65,11.51,31.96,46.67,11.63,64.27c0,0-4.65-17.1-16.99-33.77c-14.29-19.31-33.39-14.61-30.61-6.07
			c5.92,18.15,34.31,12.54,43.36,42.07c9.05,29.54-4.26,50.97-9.84,53.76c-1.86,0.96,1.76-17.75-7.45-15.66
			c-9.22,2.09,2.89,10.58-3.81,19.01c-4.64,5.84-21.92,7.19-35.75,5.72c-41.96-5.64-77.01-1.84-78.28,8.48
			c-1.27,10.33,31.71,23.27,73.67,28.91s74.52-1.72,78.27-8.49c3.75-6.77,18.75-33.56,36.99-73.02
			c14.21-30.74,2.99-69.16,0.45-79.84C136.69,2209.61,134.67,2201.77,129.69,2200.67L129.69,2200.67z"/>
		<path id="path3069" class="st1" d="M39.94,2230.59c0,0-56.62-14.57-61.26-2.77c-4.67,11.86,28.39,37.27,73.85,56.76
			c45.46,19.49,86.11,25.67,90.78,13.81c0.08-0.19,0.14-0.39,0.19-0.6c-7.18,8.66-45.27,2.93-84.6-13.93
			c-50.32-21.57-74.56-43.59-70.3-54.4c3.66-9.3,51.06,1.77,51.06,1.77L39.94,2230.59z"/>
	</g>
</g>
<path class="st3" d="M393.37,153.36v3.62c0,5.98-4.89,10.87-10.87,10.87H172.4c-5.98,0-10.87-4.89-10.87-10.87v-3.62H393.37
	L393.37,153.36z"/>
<path class="st4" d="M261.15,149.74h32.6c3.08,0,5.43,2.35,5.43,5.43s-2.35,5.43-5.43,5.43h-32.6c-3.08,0-5.43-2.35-5.43-5.43
	C255.72,152.27,258.07,149.74,261.15,149.74z"/>
<path class="st5" d="M190.51,19.33h173.87c3.98,0,7.24,3.26,7.24,7.24v126.78H183.27V26.58C183.27,22.59,186.53,19.33,190.51,19.33z
	"/>
<path class="st6" d="M194.13,30.2h166.63v112.29H194.13V30.2z"/>
<path class="st7" d="M233.98,128h86.94c5.98,0,10.87,4.89,10.87,10.87v3.62H223.11v-3.62C223.11,132.89,228,128,233.98,128z"/>
<path class="st3" d="M244.85,120.76c3.98,0,7.24,3.26,7.24,7.24c0,3.98-3.26,7.24-7.24,7.24s-7.24-3.26-7.24-7.24
	C237.6,124.02,240.86,120.76,244.85,120.76z"/>
<path class="st8" d="M266.58,120.76c3.98,0,7.24,3.26,7.24,7.24c0,3.98-3.26,7.24-7.24,7.24s-7.24-3.26-7.24-7.24
	C259.34,124.02,262.6,120.76,266.58,120.76z"/>
<path class="st3" d="M288.32,120.76c3.98,0,7.24,3.26,7.24,7.24c0,3.98-3.26,7.24-7.24,7.24c-3.98,0-7.24-3.26-7.24-7.24
	C281.07,124.02,284.33,120.76,288.32,120.76z M310.05,120.76c3.98,0,7.24,3.26,7.24,7.24c0,3.98-3.26,7.24-7.24,7.24
	c-3.98,0-7.24-3.26-7.24-7.24C302.81,124.02,306.07,120.76,310.05,120.76z"/>
<path class="st9" d="M61.38,40.25"/>
</svg>
