<svg xmlns="http://www.w3.org/2000/svg" width="1123" height="183" viewBox="0 0 1123 183">
  <defs>
    <style>
      .cls-1 {
        fill: #266fc0;
        fill-rule: evenodd;
      }
    </style>
  </defs>
  <path id="circuit_1" data-name="circuit 1" class="cls-1" d="M119.212,63.266c-0.481.756,0.276,1.418,0,2.367h-0.169c0,0.282,0,.564,0,0.845h-0.169q-0.168.507-.337,1.015h-0.168v0.338L118.035,68l-0.675.846-0.674.17v0.169l-0.675.17v0.169h-0.844v0.169h-1.181V69.526l-1.181-.168V69.189h-0.338V69.02H112.13l-0.17-.338h-0.337l-0.507-.676h-0.169V67.669l-0.338-.169q-0.084-.338-0.169-0.676h-0.169V66.317c-0.989-2.676.952-5.048,3.032-5.751l1.688-.171v0.169H116M99.823,82.388l-2.7-2.7c-0.606-.606-1.274-0.862-1.352-2.028C95.376,77.2,95.6,75.563,95.6,74.784q0-4.057-.007-8.115c0-.837.257-2.716-0.172-3.212q0-.169,0-0.338l-0.507-.169V62.78L94.068,62.1a5.867,5.867,0,0,1-.847-4.057H93.39l0.168-1.015,0.337-.169q0-.169,0-0.338l0.337-.169,0.843-1.015L96.087,55q0-.085,0-0.169h0.506q0-.084,0-0.169h0.844A4.9,4.9,0,0,1,99.8,55q0,0.085,0,.169h0.338l0.169,0.338h0.337l0.507,0.676h0.169v0.338l0.338,0.169v0.338h0.169c0.056,0.225.113,0.451,0.169,0.676h0.169q0,0.338,0,.676h0.168a4.736,4.736,0,0,1-.672,3.044V61.76l-1.855,1.692q0.006,6.509.011,13.019h0.169c0.225,0.85,1.909,2.079,2.533,2.7m17.044,0.661M87.679,88.316l-5.573-5.406q-0.008-9.552-.017-19.105H81.92a3.648,3.648,0,0,0-.169-0.676H81.582l-0.169-.338H81.076l-0.507-.676H80.4q0-.169,0-0.338l-0.338-.169V61.271H79.893l-0.17-1.014H79.555q0-.507,0-1.014a4.637,4.637,0,0,1,3.371-4.568h1.013a4.1,4.1,0,0,1,3.545,1.518l0.338,0.169q0,0.169,0,.338l0.338,0.169,0.169,0.845H88.5a6.039,6.039,0,0,1,.171,2.367H88.5q0,0.338,0,.676l-1.18,1.861-0.506.169c-0.262.24-.395,0.622-0.674,0.846q0.008,8.622.015,17.246h0.169l0.169,0.676,1.182,1.013,3.04,3.041,7.6,7.771,3.715,3.547m15.306-57.5L117,39.09V38.752h-0.169l-0.507-.676h-0.506V37.908l-26.155.023-6.412.006a9.022,9.022,0,0,0-2.868.172L78.525,39.8q0,0.169,0,.338l-2.192,2.031-1.517,1.692-0.843.677q0,0.169,0,.338H73.8l-0.337.508a38.645,38.645,0,0,0-4.215,4.4l-0.337.169a2.029,2.029,0,0,0-.842,1.522,3.783,3.783,0,0,0-.167,1.86q0,2.451,0,4.9,0.009,9.805.017,19.613l-5.732,5.922L49.719,96.127l-4.215,4.23a9.4,9.4,0,0,1-1.855,1.862l-33.156.029c-7.341.006-3.123-4.055,0-4.058l17.46-.015,10.124-.009c1.162,0,3.208.3,4.05-.173l15-15.23,6.575-6.43q0.084-1.014.167-2.029,0-2.2,0-4.4Q63.861,59.68,63.852,49.45h0.169l0.168-.676,0.843-.677,2.023-2.2,0.674-.508q0-.169,0-0.338l2.361-2.2,1.517-1.692,0.674-.508,0.168-.507,4.383-4.231q0-.169,0-0.338l1.855-1.692,27.674-.024,7.087-.006c0.717,0,2.12.187,2.531-.171a5.262,5.262,0,0,0,1.686-1.354l0.169-.338h0.337V31.819l0.675-.17V31.48h0.675c0-.056,0-0.113,0-0.169,0.683-.2.172,3.043,0,3.043v0.169a1.278,1.278,0,0,0-.674.846m-5.542,30.945h0.338l0.169,0.338a1.707,1.707,0,0,0,2.193-.847c0.479-.464.221-0.953,0.167-1.691l-0.506-.338c0-.056,0-0.113,0-0.169h-0.337V63.438a1.878,1.878,0,0,0-2.193.847h-0.169q0,0.761,0,1.522A0.509,0.509,0,0,1,113.308,66.314ZM96.558,14.592l-0.506.677H95.884q0,0.169,0,.338l-3.2,3.046c-0.642.644-.963,1.45-2.192,1.524-0.373.321-1.534,0.17-2.193,0.171l-5.568,0c-0.688,0-1.971-.169-2.362.171H80.027l-2.7,2.877-8.093,7.953c-0.469.734,0.142,2.09-.166,3.044H68.9q0,0.254,0,.507H68.733L68.4,35.92l-1.012.846-0.169.338-1.012.339q0,0.085,0,.169H65.53A3.921,3.921,0,0,1,61.141,36.1l-0.506-.338q0-.169,0-0.338H60.465q0-.169,0-0.338H60.3q0-.254,0-0.507a3.512,3.512,0,0,1-.339-2.2h0.169l0.168-1.015,1.18-1.692H61.81l0.168-.338,1.012-.339q0-.085,0-0.169H63.5q0-.084,0-0.169l2.7,0a5.193,5.193,0,0,1,1.011-1.015l2.36-2.369L76.144,18.5l1.349-1.185L78,16.637h0.338c0-.056,0-0.113,0-0.169a2.051,2.051,0,0,0,.506-0.339L89.3,16.12,95.879,9.69c0.444-.694-0.112-1.959.166-2.874m3.42,52.072H99.3q0-.254,0-0.507a3.3,3.3,0,0,0-1.013-.675,1.8,1.8,0,0,0-1.519,0l-0.337.508H96.258L96.091,59.9c0.5,0.335.117,0.241,0.338,0.507l0.506,0.169L97.1,60.918h1.181c0.192-.193,0-0.067.337-0.169A3.2,3.2,0,0,0,99.465,58.887ZM24.57,89.386l6.412-.006a9.031,9.031,0,0,0,2.868-.171,3.438,3.438,0,0,0,.843-0.846c0.791-.788,1.573-1.579,2.36-2.369L43.292,79.9l1.517-1.692,4.552-4.4,0.506-.677c0.587-.59,1.791-1.334,2.023-2.2,0.393-.455.167-2.1,0.166-2.874L52.05,60.112q-0.014-16.06-.028-32.124c0.3-.923,1.543-1.718,2.192-2.369L59.1,20.712c6.968-7.05,4.984-11.046,1.747-7.772L47.97,25.963q0.019,21.47.037,42.945c-0.316.963-2.139,2.316-2.866,3.046l-5.395,5.584L38.4,78.722,34.52,82.783l-0.506.339c-0.558.56-1.19,1.636-2.023,1.862-0.37.322-1.536,0.17-2.193,0.171l-5.568,0M85.8,58.73c-0.422-.38-0.163-0.648-0.844-0.845a1.8,1.8,0,0,0-1.519-.337,5.168,5.168,0,0,0-.674.677c-0.343.317,0,.086-0.168,0.507-0.433,1.117.193,1.63,1.014,2.028q0,0.085,0,.169h1.012a6.343,6.343,0,0,0,.843-0.846A1.793,1.793,0,0,0,85.8,58.73ZM36.152,19.21q0.011,13.271.023,26.545,0,3.3.006,6.594c0,0.718-.187,2.124.171,2.536,0.2,0.674.6,0.6,1.013,1.014l1.183,1.859V58.6h0.169q0,0.676,0,1.353H38.55q0,0.338,0,.676H38.382q0,0.253,0,.507H38.214q0,0.169,0,.338l-0.337.169q0,0.169,0,.338l-0.337.169L36.865,63H36.528l-0.168.338H36.022v0.169H35.516q0,0.084,0,.169H34.841q0,0.085,0,.169c-1.491.439-3.939-1.048-4.389-1.687q0-.169,0-0.338l-0.338-.169q0-.169,0-0.338H29.946q0-.169,0-0.338H29.776c-0.452-2.7-.4-2.029-0.171-2.029a6.963,6.963,0,0,1,.336-1.86l0.337-.169q0-.169,0-0.338h0.169a1.4,1.4,0,0,0,.337-0.676h0.337a11.692,11.692,0,0,1,.843-0.846q0-5.325-.009-10.652-0.011-13.271-.023-26.545H32.1l0.168-.846,6.238-6.092M66.2,32.371a1.055,1.055,0,0,0-.675-0.507,1.532,1.532,0,0,0-1.35-.337q0,0.085,0,.169H63.668l-0.506.677c-0.964.887,0.4,3.033,1.858,2.535a3.559,3.559,0,0,0,1.18-1.016Q66.2,33.132,66.2,32.371ZM35.849,58.943H35.681q0-.254,0-0.507a4.139,4.139,0,0,0-1.182-.844q0-.085,0-0.169H33.823q0,0.085,0,.169H33.317q0,0.085,0,.169a1.278,1.278,0,0,0-.674.846H32.474q0,0.676,0,1.353c0.507,0.333.16,0.477,0.845,0.675a1.431,1.431,0,0,0,2.193-.678h0.169ZM16.908,9.589m7.255-1.359L7.134,25.491m17.891,5.564A5.536,5.536,0,0,1,22.5,36.3q0,5.494.009,10.99c-0.9.466-2.33,0.34-3.712,0.342l-7.593.007q0,0.084,0,.169c-0.67.2-.605,0.6-1.012,1.015-0.576.589-2.793,1.869-4.386,1.357q0-.085,0-0.169L4.793,49.84,4.624,49.5H4.286l-0.169-.338H3.78q0-.084,0-0.169l-0.507-.338q0-.169,0-0.338l-0.338-.169-0.169-.676H2.6q0-.169,0-0.338H2.428q0-.338,0-0.676H2.259c-0.5-1.679.972-4.063,1.683-4.566a5.393,5.393,0,0,1,5.737-.005l0.507,0.676,0.338,0.169v0.338l0.338,0.169q0,0.084,0,.169l2.025,0.167a35.633,35.633,0,0,0,5.231-.174l0.168-.507c0.427-.5.167-2.371,0.166-3.212,0-1.051.248-2.8-.172-3.55l-1.013-.844a4.473,4.473,0,0,1-1.353-3.549q0-.507,0-1.015c0.727-2.265,3.559-4.385,6.41-2.88L23,28.013l0.338,0.507h0.337l0.169,0.507,0.506,0.338q0,0.169,0,.338h0.169a1.316,1.316,0,0,0,.338.676q0,0.338,0,.676h0.169Zm-8.74,39.74a6.789,6.789,0,0,1,2.867-2.37H20q0-.084,0-0.169h0.844q0,0.085,0,.169h1.012v0.169l1.013,0.337q0,0.084,0,.169H23.2l0.676,0.845,0.338,0.169q0,0.169,0,.338l0.338,0.169a6.4,6.4,0,0,1,.509,3.212c-0.72,2.223-2.945,4.526-5.9,3.387H18.654q0-.085,0-0.169H18.316l-1.351-1.013q0-.169,0-0.338H16.8l-0.338-.507H16.121q0-.084,0-0.169m3-44.3-0.168.676H18.783a2.9,2.9,0,0,0,.17,1.522c0.546,0.342,1.291,1.224,2.194.674l0.168-.338c0.43-.308.319,0.185,0.506-0.508H21.99l0.168-1.184H21.989q0-.254,0-0.507l-0.675-.507q0-.085,0-0.169H20.807V30.213H20.132v0.169H19.625q0,0.084,0,.169ZM22.193,72.48c-0.466-.42-0.245-0.808-1.013-1.014a2.036,2.036,0,0,0-1.687,0l-0.169.338-0.337.169-0.168.676H18.65c-0.248.887,0.889,1.849,1.689,1.858a1.544,1.544,0,0,0,1.181-.17A2.912,2.912,0,0,0,22.193,72.48ZM11.718,57.1a3.957,3.957,0,0,1,.843-0.846l0.674-.846a5.045,5.045,0,0,1,2.868-.679h1.012q0,0.085,0,.169h0.506q0,0.084,0,.169h0.337c0,0.056,0,.113,0,0.169H18.3l0.169,0.338H18.8l0.169,0.338,0.675,0.507v0.338l0.338,0.169q0,0.169,0,.338h0.169l0.17,1.014h0.169q0,0.93,0,1.86H20.326q0,0.338,0,.676c-0.635,1.573-2.821,3.666-5.228,2.879H14.423V63.526H14.086q0-.084,0-0.169H13.748V63.189H13.41l-0.169-.338H12.9q0-.085,0-0.169l-0.675-.507V61.837c-0.129-.174-0.511-0.3-0.675-0.507m6.073-2.541H17.456q0-.169,0-0.338H17.287q0-.169,0-0.338l-0.506-.169-0.169-.338h-1.35c-0.192.193,0,.067-0.337,0.169l-0.843,1.184a0.413,0.413,0,0,0,.169.507q0,0.254,0,.507l0.338,0.169L15.1,60.82H15.6a1.3,1.3,0,0,0,1.687-.678A1.793,1.793,0,0,0,17.625,58.789ZM8.67,45.44L7.994,44.257H7.657c-0.867-1.079-3.069.491-2.529,1.862H5.3q0,0.169,0,.338l0.337,0.169,0.338,0.507c0.7,0.44,1.435-.019,2.025-0.171A6.041,6.041,0,0,0,8.67,45.44Z"/>
  <path id="circuit_1-2" data-name="circuit 1" class="cls-1" d="M999.894,109.178c0.9,0.9,1.806,1.8,2.706,2.7,0.6,0.606,1.27.861,1.35,2.027,0.39,0.457.17,2.094,0.17,2.874,0,2.7.01,5.411,0.01,8.116,0,0.837-.26,2.716.17,3.212v0.338l0.51,0.168v0.169c0.28,0.226.56,0.451,0.85,0.676a5.887,5.887,0,0,1,.84,4.056h-0.16c-0.06.338-.12,0.676-0.17,1.014-0.11.057-.23,0.113-0.34,0.17v0.338c-0.11.056-.22,0.113-0.34,0.169l-0.84,1.016c-0.34.113-.67,0.226-1.01,0.339v0.169h-0.51V136.9h-0.84a4.905,4.905,0,0,1-2.363-.335V136.4h-0.338l-0.169-.338h-0.337l-0.507-.676h-0.169v-0.338l-0.338-.169v-0.338H997.9l-0.17-.677h-0.168c0-.226,0-0.451,0-0.677h-0.169a4.74,4.74,0,0,1,.671-3.045v-0.338l1.854-1.693q-0.008-6.508-.016-13.019h-0.169c-0.226-.85-1.91-2.079-2.534-2.7M1098.54,89.5c-0.75,0-1.44,3.829-2.19,3.83l-24.59.03-10.13.013c-1.16,0-3.2-.3-4.05.174l-15,15.235-6.57,6.433c-0.05.676-.11,1.353-0.16,2.029v4.4l0.03,20.458h-0.17c-0.06.226-.11,0.451-0.17,0.677l-0.84.677c-0.68.733-1.35,1.467-2.03,2.2-0.22.169-.45,0.338-0.67,0.508V146.5c-0.79.733-1.57,1.467-2.36,2.2-0.5.564-1.01,1.128-1.52,1.692-0.22.17-.45,0.339-0.67,0.508-0.06.169-.11,0.339-0.17,0.508l-4.38,4.232v0.338c14.43-20.411-17.82,22.468-25.057,2.5-0.807-2.225,16.407-3.05,14.047-3.047-0.72,0-2.12-.187-2.54.172a5.3,5.3,0,0,0-1.68,1.355c-0.06.112-.11,0.225-0.17,0.338h-0.34v0.169c-0.22.057-.45,0.114-0.67,0.17v0.169h-0.68v0.169a4.36,4.36,0,0,1-2.53-.335,1.919,1.919,0,0,1-.84-0.337v-0.169a3.872,3.872,0,0,1-2.03-3.886V152.24h0.17v-0.507h0.16c0.12-.339.23-0.677,0.34-1.015,0.34-.282.67-0.565,1.01-0.847,0.06-.113.11-0.225,0.17-0.338,0.34-.113.67-0.226,1.01-0.339v-0.17h0.51v-0.169c1.42-.456,3.6.559,4.22,1.009l0.34,0.338v0.338h0.16l0.51,0.675h0.51v0.169c7.04-.009-12.464,6.541-5.42,6.532,1.67,0,4.3-4.282,5.97-4.284l6.41-.008a9,9,0,0,0,2.87-.173l1.86-1.693V151.42l2.19-2.031c0.5-.565,1.01-1.129,1.51-1.693,0.29-.226.57-0.452,0.85-0.677V146.68h0.17l0.33-.507a38.947,38.947,0,0,0,4.22-4.4l0.33-.17a2.043,2.043,0,0,0,.85-1.523,3.866,3.866,0,0,0,.16-1.86v-4.9q-0.015-9.806-.03-19.612l5.73-5.925q6.24-6.178,12.47-12.358c1.41-1.411,2.81-2.821,4.22-4.232a9.226,9.226,0,0,1,1.85-1.862c13.22-.016,29.25.194,42.48,0.178m-86.5,13.74q2.775,2.7,5.57,5.4,0.015,9.552.02,19.105h0.17a4.176,4.176,0,0,0,.17.676h0.17c0.06,0.113.11,0.225,0.17,0.338h0.34l0.51,0.676h0.16v0.338c0.12,0.056.23,0.112,0.34,0.169v0.338h0.17c0.06,0.338.11,0.676,0.17,1.014h0.17v1.014a4.635,4.635,0,0,1-3.37,4.569l-1.01,0a4.121,4.121,0,0,1-3.55-1.518l-0.33-.168v-0.339c-0.12-.056-0.23-0.112-0.34-0.168-0.06-.282-0.12-0.564-0.17-0.845h-0.17a5.858,5.858,0,0,1-.17-2.367h0.17v-0.677l1.17-1.861,0.51-.17c0.26-.239.4-0.622,0.67-0.846q0-8.622-.02-17.245h-0.17c-0.05-.225-0.11-0.451-0.16-0.676-0.4-.338-0.79-0.675-1.19-1.013q-1.515-1.52-3.04-3.04-3.795-3.883-7.6-7.768m1.88,55.911a0.292,0.292,0,0,1,.17.169v0.169a2.453,2.453,0,0,0,1.85.674V154.94h0.51V154.77a1.262,1.262,0,0,0,.67-0.846c0.82-.851-0.92-2.706-2.19-2.2a4.256,4.256,0,0,0-1.01,1.016V154.1Zm15.64-80.617,1.86,2.027a6.691,6.691,0,0,0,2.36.166l5.4-.007,19.74-.024,6.08-.008c0.65,0,1.82.151,2.19-.172h0.34c0.17-.226.33-0.451,0.5-0.677h0.17c0.06-.169.11-0.338,0.17-0.507l0.51-.17c0.05-.113.11-0.226,0.16-0.338h0.34V73.6l0.68-.17V73.261a7.193,7.193,0,0,1,3.2,0v0.169l0.68,0.168v0.169h0.33c0.29,0.338.57,0.676,0.85,1.013,0.11,0.056.22,0.112,0.34,0.169v0.338c0.11,0.056.22,0.112,0.34,0.169,0.05,0.338.11,0.676,0.17,1.014,0.99,2.76-1.14,5.089-3.37,5.753a5.554,5.554,0,0,1-3.55-.672V81.378a1.364,1.364,0,0,0-.67-0.337V80.7c-0.4-.338-0.79-0.675-1.19-1.013l-27.67.034-7.09.009c-0.71,0-2.12.192-2.53-.166-0.86-.236-1.6-1.435-2.19-2.026M1030.5,160.2c0.47-.735-0.14-2.09.16-3.044h0.17V156.65H1031c0.11-.338.22-0.676,0.34-1.014,0.33-.283.67-0.565,1.01-0.847,0.05-.113.11-0.226,0.17-0.338,0.33-.114.67-0.227,1.01-0.34v-0.169h0.67a3.92,3.92,0,0,1,4.39,1.517l0.51,0.337v0.338h0.17v0.338h0.17v0.507a3.55,3.55,0,0,1,.34,2.2h-0.17c-0.06.338-.11,0.676-0.17,1.015-0.39.564-.78,1.128-1.18,1.692h-0.33c-0.06.113-.12,0.226-0.17,0.338l-1.02.34c0,0.056.01,0.113,0.01,0.169h-0.51V162.9l-2.7,0a5.172,5.172,0,0,1-1.01,1.016c-0.79.79-1.57,1.58-2.36,2.37m-29.91-33.609h0.17v0.507a3.345,3.345,0,0,0,1.01.675,1.8,1.8,0,0,0,1.52,0c0.11-.169.23-0.338,0.34-0.508h0.17c0.05-.563.11-1.127,0.16-1.691-0.5-.334-0.11-0.241-0.33-0.507l-0.51-.168c-0.06-.113-0.11-0.225-0.17-0.338h-1.18c-0.19.193,0,.068-0.34,0.17A3.214,3.214,0,0,0,1000.26,132.679Zm9.4-41.773c0.05-.789.11-1.578,0.16-2.367,0.67-1.666,2.82-3.718,5.4-2.881h0.68v0.169l0.67,0.168v0.169h0.34c0.05,0.113.11,0.225,0.17,0.338,0.34,0.281.67,0.563,1.01,0.844,0.11,0.338.23,0.676,0.34,1.014h0.17v0.507h0.17v2.705h0.17v0.338c0.68,0.619,1.35,1.238,2.03,1.857l5.4-.007a4.2,4.2,0,0,0,2.02-.172,7.39,7.39,0,0,0,2.19-2.032V88.851a4.568,4.568,0,0,1,6.07-3.051h0.51c0.05,0.113.11,0.225,0.17,0.338h0.33c0.06,0.113.12,0.225,0.17,0.338h0.34l0.34,0.338v0.338l0.51,0.338v0.338h0.16c0.06,0.225.12,0.451,0.17,0.676h0.17v0.676h0.17a3.993,3.993,0,0,1-.67,3.044V92.56c-0.17.113-.34,0.226-0.5,0.339-0.06.169-.12,0.338-0.17,0.507h-0.34c-0.11.169-.22,0.338-0.34,0.508l-0.67.17v0.169h-0.34v0.169c-0.75.3-2.57-.112-3.2,0.173l-3.54,3.386-7.6.009c-0.77,0-2.42.229-2.87-.166a4.623,4.623,0,0,1-2.02-1.688l-1.02-.844c-0.17-.225-0.33-0.45-0.5-0.676l-2.53,0c0-.056-0.01-0.113-0.01-0.169h-0.67V94.284l-0.68-.168V93.946h-0.33c-0.12-.169-0.23-0.338-0.34-0.507h-0.34c-0.06-.169-0.11-0.338-0.17-0.507-0.17-.112-0.34-0.225-0.5-0.338,0-.113-0.01-0.225-0.01-0.338h-0.16a1.581,1.581,0,0,0-.34-0.676V90.906h-0.17Zm5.9,0.5c0.06-.225.12-0.451,0.17-0.677h0.17c-0.06-.564-0.11-1.127-0.17-1.69a3.008,3.008,0,0,0-2.03-.674c-0.33.282-.67,0.564-1.01,0.847v0.507a1.311,1.311,0,0,0,.68,1.69c0.32,0.337.09,0.006,0.51,0.168A2.267,2.267,0,0,0,1015.56,91.406Zm90.8,13.583c0,0.225.01,0.451,0.01,0.676h-0.17v0.508h-0.17v0.338c-0.11.056-.23,0.113-0.34,0.169v0.339c-0.11.056-.22,0.113-0.34,0.169-0.22.282-.44,0.564-0.67,0.846h-0.34c-0.05.112-.11,0.225-0.16,0.338h-0.34v0.17h-0.51a3.191,3.191,0,0,1-2.02.341v-0.169h-0.85v-0.169h-0.33v-0.169h-0.34l-1.35-1.012v-0.338h-0.17c-0.12-.169-0.23-0.338-0.34-0.507h-0.34v-0.169l-22.1.028-5.57.006c-0.66,0-1.83-.151-2.2.172-0.83.226-1.46,1.3-2.02,1.862-0.17.113-.34,0.226-0.5,0.339q-1.95,2.031-3.88,4.063l-1.35,1.185c-1.8,1.862-3.59,3.724-5.39,5.586-0.73.73-2.55,2.084-2.87,3.047q0.03,19.059.05,38.123c0,1.607,0,3.215.01,4.822-7.53,7.617,1.39,1.817-6.14,9.434-2.19,2.144,5.6.136,3.41,2.28,0,0.9-1.4-6.279-1.4-5.378h-0.16c-0.06.338-.12,0.676-0.17,1.014l-1.35,1.693a5.423,5.423,0,0,1-5.74.007c-0.05-.113-0.11-0.225-0.17-0.338-0.22-.169-0.45-0.338-0.67-0.507v-0.338c-0.11-.056-0.23-0.112-0.34-0.168a1.5,1.5,0,0,0-.34-0.676v-0.676h-0.17c-0.06-3.284,1.1-4.857,3.54-5.584l2.7,0c6.96-7.053-11.1,11.546-4.13,4.494,1.63-1.637,3.25-3.273,4.88-4.909,0.65-.652,1.89-1.447,2.19-2.37v-3.325q-0.015-14.4-.04-28.8V123.49c-0.01-.777-0.23-2.419.16-2.874,0.23-.866,1.44-1.611,2.02-2.2l0.51-.677q2.265-2.2,4.55-4.4c0.5-.564,1.01-1.129,1.52-1.693q3.1-3.047,6.23-6.094c0.79-.791,1.57-1.582,2.36-2.37a3.5,3.5,0,0,1,.84-0.846,9.044,9.044,0,0,1,2.87-.173l6.41-.008,22.62-.028a7.034,7.034,0,0,1,2.86-2.37h1.01a0.445,0.445,0,0,1,.51-0.17v0.169h1.01v0.169h0.51v0.169c0.34,0.112.67,0.225,1.01,0.337,0.23,0.281.45,0.563,0.68,0.844,0.11,0.057.22,0.113,0.34,0.169v0.338l0.33,0.169m-92.09,30.885c0.42,0.379.16,0.648,0.84,0.844a1.806,1.806,0,0,0,1.52.337,5.245,5.245,0,0,0,.68-0.678c0.34-.317,0-0.085.16-0.507,0.44-1.118-.19-1.63-1.01-2.028V130.63l-1.01,0a6.467,6.467,0,0,0-.85.846A1.808,1.808,0,0,0,1013.93,132.831Zm27.47,38.591c0.42,0.379.16,0.648,0.85,0.844,0.78,0.954,2.29-.192,2.53-0.848,0-.338-0.01-0.677-0.01-1.015h-0.16v-0.339a1.066,1.066,0,0,0-.51-0.506c-0.32-.338-0.09,0-0.51-0.169-0.8-.313-0.97,0-1.69.172A3.615,3.615,0,0,0,1041.4,171.422Zm22.19,0.911c-0.01-3.762-.01-7.524-0.02-11.287q0-7.629-.02-15.257V139.2c0-.718.18-2.124-0.18-2.536-0.2-.674-0.6-0.6-1.01-1.013-0.39-.62-0.79-1.239-1.18-1.859v-0.845h-0.17v-1.353h0.16v-0.676h0.17v-0.508h0.17v-0.338c0.11-.056.22-0.113,0.34-0.169v-0.339l0.33-.169c0.23-.282.45-0.564,0.68-0.846h0.34c0.05-.112.11-0.225,0.16-0.338h0.34v-0.169h0.51v-0.169h0.67V127.7c1.49-.44,3.94,1.046,4.39,1.685v0.338c0.11,0.057.23,0.113,0.34,0.169v0.338h0.17v0.338h0.17c0.11,0.676.22,1.352,0.34,2.028h-0.17a6.689,6.689,0,0,1-.34,1.86l-0.33.169v0.338h-0.17a1.426,1.426,0,0,0-.34.676h-0.34a11.58,11.58,0,0,1-.84.846q0.015,5.325.01,10.652,0.015,6.845.02,13.689,0.015,6.429.02,12.855h-0.17m-34.11-14.5a1.088,1.088,0,0,0,.68.507,1.533,1.533,0,0,0,1.35.336v-0.169h0.51c0.17-.226.33-0.452,0.5-0.677,0.97-.888-0.4-3.033-1.86-2.534a3.57,3.57,0,0,0-1.18,1.016v1.521Zm0.26-67.8a7.732,7.732,0,0,0,1.69.336V91.55h0.5l0.51-.677c1-.924-0.5-3.143-2.03-2.534a4.258,4.258,0,0,0-1.01,1.016A6.044,6.044,0,0,0,1033.79,91.383Zm25.46-13.219a2.781,2.781,0,0,0,1.19,1.013v0.169h1.01V79.176h0.5c0.06-.113.12-0.226,0.17-0.338,0.11-.056.23-0.113,0.34-0.169,0.06-.564.11-1.127,0.17-1.691a5.421,5.421,0,0,0-.68-0.675c-0.32-.337-0.09,0-0.51-0.168-1.32-.514-1.51.431-2.19,1.017v1.014Zm4.63,54.436h0.16v0.507a4.208,4.208,0,0,0,1.19.844v0.169h0.67V133.95h0.51v-0.169a1.262,1.262,0,0,0,.67-0.846h0.17v-1.352c-0.51-.333-0.16-0.478-0.85-0.676a1.429,1.429,0,0,0-2.19.679h-0.17C1063.99,131.924,1063.93,132.262,1063.88,132.6Zm28.72,33.442,11.13-11m-9.81-13.683,1.52,0.675c0.06,0.112.11,0.225,0.17,0.338h0.34v0.169l0.51,0.338v0.338l0.33,0.168c0.06,0.226.12,0.451,0.17,0.677h0.17V144.4h0.17v0.677h0.17c0.5,1.68-.97,4.064-1.68,4.567m-18.38,14.056-0.67-.168c-0.11-.169-0.23-0.338-0.34-0.507h-0.34c-0.05-.169-0.11-0.338-0.17-0.507-0.17-.113-0.33-0.225-0.5-0.338v-0.338h-0.17m28.33-41.12-20.11.025a6.808,6.808,0,0,1-2.87,2.371h-0.84v0.169h-0.85v-0.169h-1.01v-0.169c-0.34-.112-0.68-0.225-1.01-0.337V122.44h-0.34c-0.23-.281-0.45-0.563-0.68-0.844l-0.33-.169c-0.01-.113-0.01-0.225-0.01-0.338l-0.33-.169a6.3,6.3,0,0,1-.51-3.211c0.72-2.224,2.94-4.528,5.9-3.389h0.5a0.959,0.959,0,0,0,.01.169h0.33l1.35,1.013v0.338h0.17c0.12,0.168.23,0.337,0.34,0.506h0.34v0.169l19.77-.024m-25.84,2.568c0.46,0.419.24,0.807,1.01,1.013a2.042,2.042,0,0,0,1.69,0c0.05-.113.11-0.226,0.17-0.339l0.33-.169c0.06-.226.12-0.451,0.17-0.677h0.17c0.25-.887-0.89-1.848-1.69-1.858a1.546,1.546,0,0,0-1.18.171A2.889,2.889,0,0,0,1077.53,119.058Zm27.16,15.352-16.68.02a3.924,3.924,0,0,1-.84.847c-0.23.282-.45,0.564-0.68,0.846a5.034,5.034,0,0,1-2.87.68h-1.01v-0.169h-0.51v-0.169h-0.33V136.3h-0.34c-0.06-.112-0.11-0.225-0.17-0.338h-0.34c-0.05-.113-0.11-0.226-0.17-0.338-0.22-.169-0.45-0.338-0.67-0.507v-0.338c-0.12-.056-0.23-0.112-0.34-0.168v-0.338h-0.17c-0.06-.338-0.11-0.676-0.17-1.014h-0.17V131.4h0.17v-0.677c0.63-1.573,2.82-3.667,5.23-2.88h0.67v0.169h0.34v0.17h0.34v0.169h0.33c0.06,0.112.12,0.225,0.17,0.338h0.34v0.169c0.23,0.169.45,0.338,0.68,0.507V129.7c0.12,0.174.51,0.3,0.67,0.506l16.27-.02m-22.34,2.564h0.17v0.338h0.17v0.338c0.17,0.056.34,0.112,0.5,0.168,0.06,0.113.12,0.226,0.17,0.338h1.35c0.2-.193,0-0.068.34-0.17l0.84-1.185a0.4,0.4,0,0,0-.17-0.507v-0.507l-0.33-.168-0.51-.676h-0.51a1.293,1.293,0,0,0-1.68.678A1.765,1.765,0,0,0,1082.1,132.747Zm18.02-28.089c0.69,0.582.8,1.238,2.03,1.35v-0.169l0.84-.17a3.024,3.024,0,0,0,.67-1.691h-0.17c-0.05-.282-0.11-0.564-0.16-0.845a1.758,1.758,0,0,1-.34-0.338h-0.34v-0.17c-0.56.057-1.13,0.114-1.69,0.172A3.214,3.214,0,0,0,1100.12,104.658Zm-83.5,56.108"/>
  <path id="Reset_Lab" data-name="Reset Lab" class="cls-1" d="M-0.16,180.366h27.9V102.5H74.151l38.329,77.864h31.81L101.268,98.844c21.9-6.794,35.982-22.993,35.982-47.816,0-31.616-23.988-51.213-58.145-51.213H-0.16V180.366ZM28,77.941V24.115H79.105c19.295,0,30.507,10.19,30.507,27.174,0,15.939-9.648,25.868-27.9,26.652H28Zm248.226,32.922c0-35.013-17.992-67.151-58.146-67.151-40.675,0-61.535,32.139-61.535,70.287,0,38.671,23.206,68.719,64.925,68.719,19.034,0,35.2-5.748,50.844-20.9L254.845,146.4c-10.169,9.145-20.86,12.8-32.854,12.8-23.466,0-36.5-13.326-38.329-38.149h91.781A48.408,48.408,0,0,0,276.226,110.863Zm-58.667-43.9c20.859,0,30.767,14.632,31.81,33.446l-65.707-.262C186.009,78.725,198.525,66.966,217.559,66.966ZM350.276,182.979c30.246,0,53.452-15.416,53.452-42.59,0-26.913-21.641-34.229-43.8-39.716-18.774-4.7-37.286-8.361-35.983-20.381,0.522-9.929,11.994-15.677,27.378-14.893,16.166,0.784,26.074,7.839,33.636,16.984L399.3,66.705c-9.386-11.5-25.291-22.993-50.062-22.993-28.681,0-50.583,13.326-50.583,39.977s23.466,32.923,45.369,37.887c18.512,4.442,33.635,7.577,33.374,21.426-0.26,13.064-14.08,18.551-29.463,18.029-19.3-.523-32.072-11.236-38.069-21.426l-16.426,15.677C304.125,171.221,326.549,182.979,350.276,182.979Zm192.948-72.116c0-35.013-17.991-67.151-58.146-67.151-40.675,0-61.534,32.139-61.534,70.287,0,38.671,23.206,68.719,64.924,68.719,19.034,0,35.2-5.748,50.845-20.9L521.843,146.4c-10.169,9.145-20.859,12.8-32.853,12.8-23.467,0-36.5-13.326-38.329-38.149h91.78A48.408,48.408,0,0,0,543.224,110.863Zm-58.667-43.9c20.859,0,30.767,14.632,31.81,33.446l-65.706-.262C453.007,78.725,465.523,66.966,484.557,66.966ZM608.41,180.105h24.249V158.418H618.84c-12.255,0-16.688-5.226-16.688-19.6V65.66h32.593V46.325H602.152V-0.185H575.035v46.51H555.48V65.66h19.555v79.432C575.035,168.086,586.247,180.105,608.41,180.105Zm115.243,0H828.732V155.544H751.813V-0.185h-28.16v180.29ZM902.78,43.712c-26.074,0-42.5,9.929-55.277,26.913L866.8,83.95c9.387-12.019,19.816-17.768,37.286-17.768,18.773,0,29.464,6.532,29.724,22.471-27.117,7.839-49.54,13.065-64.924,20.642s-24.51,18.813-24.51,35.8c0,23.255,17.209,37.887,44.065,37.887,14.341,0,33.9-7.839,45.369-19.074v16.2h24.771V86.3C958.579,57.3,933.287,43.712,902.78,43.712ZM890.265,159.463c-9.909,0-17.209-5.487-17.209-15.677,0-8.1,5.215-13.587,14.08-17.768,10.429-4.965,28.942-10.713,46.672-16.461v27.7C921.814,152.147,906.952,159.463,890.265,159.463Zm174.7-115.751c-20.34,0-34.68,8.623-43.81,20.119h-0.26V-0.185H993.777v180.29h26.593V163.121h0.78c8.61,11.236,23.21,19.858,43.55,19.858,38.85,0,58.14-29.526,58.14-69.764C1122.84,73.237,1103.81,43.712,1064.96,43.712Zm-8.08,115.751c-22.69,0-37.03-17.506-37.03-46.51,0-27.7,14.34-45.464,37.03-45.464,25.81,0,38.59,16.723,38.59,45.464C1095.47,143,1082.69,159.463,1056.88,159.463Z"/>
</svg>
