<?xml version="1.0" encoding="utf-8"?>
<!-- Generator: Adobe Illustrator 24.3.0, SVG Export Plug-In . SVG Version: 6.00 Build 0)  -->
<svg version="1.1" id="_x31_0" xmlns="http://www.w3.org/2000/svg" xmlns:xlink="http://www.w3.org/1999/xlink" x="0px" y="0px"
	 viewBox="0 0 512 512" style="enable-background:new 0 0 512 512;" xml:space="preserve">
<style type="text/css">
	.st0{fill:#1787FC;}
</style>
<g>
	<path class="st0" d="M238.2,263c-4.1,4.1-4.1,10.8,0.1,14.9c4.1,4.1,10.7,4.1,14.8,0c4.2-4.1,4.2-10.8,0.1-14.9
		C249,259,242.4,259,238.2,263z M243.8,268.6c1-1,2.7-1,3.8,0c1,1,1,2.7-0.1,3.7c-1,1-2.6,1-3.6,0
		C242.9,271.4,242.8,269.7,243.8,268.6z"/>
	<path class="st0" d="M290.3,216.6c-2.6,2.6-2.6,6.7,0,9.3c2.6,2.6,6.7,2.6,9.3,0c2.6-2.6,2.6-6.7,0-9.3
		C297,214.1,292.9,214.1,290.3,216.6z"/>
	<path class="st0" d="M326.1,180.8c-2.6,2.6-2.6,6.7,0,9.3c2.6,2.6,6.7,2.6,9.3,0c2.6-2.6,2.6-6.7,0-9.3
		C332.8,178.2,328.6,178.2,326.1,180.8z"/>
	<path class="st0" d="M470.6,116.4c-2.9-4.6-6-9-9.3-13.4c-13.7-18.2-29.8-34.6-47.7-48.8c-4.2-3.4-8.6-6.6-13.1-9.5
		C359.4,16.5,309.7,0,256,0C114.6,0,0,114.6,0,256c0,141.4,114.6,256,256,256c141.4,0,256-114.6,256-256
		C512,204.5,496.9,156.6,470.6,116.4z M328.3,213.8c0.5-2,0-4.3-1.7-6c-2.6-2.6-6.7-2.6-9.3,0c-2.6,2.6-2.6,6.7,0,9.3
		c0.6,0.6,1.3,0.8,2,1.2c0.1,0,0.1,0.1,0.2,0.1c0.7,0.3,1.4,0.4,2.1,0.4c0.1,0,0.2,0.1,0.2,0.1c0.3,0,0.5,0,0.8,0
		c0.2,0,0.5,0,0.7,0.1l-75.3,75.3c-1.5,1.5-4,1.5-5.5,0l-20.7-20.6c-1.4-1.4-1.4-4,0.1-5.5l75.4-75.4c-0.5,2.2,0.1,4.5,1.8,6.2
		c2.6,2.5,6.7,2.5,9.3,0c2.6-2.6,2.6-6.8,0-9.3c-0.6-0.6-1.3-0.8-1.9-1.2c-0.1,0-0.2-0.1-0.3-0.2c-0.7-0.3-1.4-0.4-2.1-0.4
		c-0.1,0-0.2-0.1-0.3-0.1c-0.3,0-0.5,0-0.8,0c-0.2,0-0.5,0-0.7-0.1l23.6-23.6l5.1-5.1c6.3,10,14.6,18.4,24.4,24.9
		c0.6,0.4,1.1,0.9,1.7,1.2l-15.4,15.4L328.3,213.8z M355.5,129.3c-0.9,0.9-2.1,1.3-3.2,1.3c-0.6,0-1.2-0.2-1.8-0.3
		c-0.5-0.2-1-0.6-1.4-1L337.8,118l6.3-6.3l11.3,11.4C357.2,124.7,357.2,127.6,355.5,129.3z M355.9,99.9l6.1-6.1
		c0.3,0.1,0.6,0.2,0.8,0.4l10.7,10.7c1.8,1.8,1.8,4.6,0,6.3c-0.9,0.9-2.1,1.3-3.2,1.3c-1.1,0-2.2-0.5-3.1-1.3L355.9,99.9z
		 M398.2,178.4L386.9,167c-0.4-0.4-0.6-1-0.9-1.4c-0.7-1.7-0.4-3.6,1-5c0.9-0.8,2-1.3,3.1-1.3c1.1,0,2.2,0.5,3.1,1.3l11.4,11.4
		L398.2,178.4z M405,142.7c0.9-0.9,2-1.4,3.1-1.3c1.2-0.1,2.3,0.4,3.1,1.3l6.5,6.4c1.4,2,2.6,4,3.8,6.1l-5.2,5.1L405,149
		C403.3,147.3,403.3,144.5,405,142.7z M70.3,312c-5.4-17.8-8.2-36.6-8.2-56c0-107,87-193.9,193.9-193.9c28.7,0,56.1,6.3,80.6,17.7
		c4.8,2.2,9.5,4.6,14.1,7.2c0.3,0.2,0.5,0.3,0.8,0.5L314,125l8.3,17.6l-113,113c-8.4,8.4-8.4,22.2,0,30.6l1.4,1.4L186.3,312
		l-5.9,5.9L165.5,339l-10.8,15.4c-0.7,1-1,2.2-0.9,3.4c0.1,1.2,0.6,2.2,1.4,3.2c1.8,1.8,4.5,1.9,6.5,0.6l32.1-22.5l3.9-2.7
		l24.4-24.3l6.6-6.6l1.4,1.4c2.5,2.5,5.4,4.2,8.5,5.2c4.4,1.5,9.2,1.5,13.6,0c3.1-1,6.1-2.7,8.6-5.2l112.9-112.9l17.6,8.3l28.4-28.4
		l8-8c2.6,4.9,5,10.1,7.3,15.3c9.7,23,15,48.2,15,74.8c0,19.4-2.9,38.2-8.2,56H278.1l-6.1,6.1c-7.1,7.1-16.6,11-26.6,11
		c-5.1,0-10.2-1-14.7-3l-7.5,7.5l-5.4,5.2l0.2,0l-0.2,0.2h86v26.3h-95v63.2l0,15.5c-27.7-7-53.1-20-74.6-37.4v-13h48v-16h-17.8
		h-10.8H134V339h11.9l12.1-17.1l7-9.7h-0.1l0.1-0.2H70.3z M319.7,420.2V339h33v85c-28.5,16.5-61.4,25.9-96.6,25.9
		c-10.6,0-21.1-0.9-31.4-2.6v-66h79v22.8h-55.4V420v0l0,0v0.2H319.7z M117.9,391.9c-15.1-15.3-27.8-33.2-37.1-52.8H118v31
		L117.9,391.9z M431.2,339.1c-3.4,7-7.1,13.8-11.2,20.2h-51.3V339h43.8L431.2,339.1z M408.6,375.5c-9.5,12.3-20.6,23.2-32.9,32.8
		c-2.3,1.8-4.6,3.6-7,5.3v-38.2h24.8L408.6,375.5z"/>
</g>
</svg>
