<?xml version="1.0" encoding="utf-8"?>
<!-- Generator: Adobe Illustrator 24.3.0, SVG Export Plug-In . SVG Version: 6.00 Build 0)  -->
<svg version="1.1" id="Calque_1" xmlns="http://www.w3.org/2000/svg" xmlns:xlink="http://www.w3.org/1999/xlink" x="0px" y="0px"
	 viewBox="0 0 209.2 176.1" style="enable-background:new 0 0 209.2 176.1;" xml:space="preserve">
<style type="text/css">
	.st0{fill:#4671C6;}
	.st1{fill:#B9BEFC;}
	.st2{fill:#3762CC;}
	.st3{fill:#A4C9FF;}
	.st4{fill:#E0EBFC;}
	.st5{fill:#6BDDDD;}
</style>
<path class="st0" d="M6.9,162.4V76.7c0-4.5,3.7-8.1,8.1-8.1h161.1c4.5,0,8.1,3.7,8.1,8.1v85.7c0,4.5-3.7,8.1-8.1,8.1H15
	C10.5,170.6,6.9,166.9,6.9,162.4z"/>
<path class="st1" d="M14.5,79.3v13.3h1.4c3.2,0,5.8,2.6,5.8,5.8v42.3c0,3.2-2.6,5.8-5.8,5.8l0,0h-1.4v13.2c0,2.4,1.9,4.3,4.3,4.3
	h153.5c2.4,0,4.3-1.9,4.3-4.3V79.3c0-2.4-1.9-4.3-4.3-4.3H18.7C16.4,75.1,14.5,77,14.5,79.3z"/>
<path class="st2" d="M185.9,76.7v85.7c0,5.4-4.4,9.8-9.8,9.8H15c-5.4,0-9.8-4.4-9.8-9.8V76.7c0-5.4,4.4-9.8,9.8-9.8h161.1
	C181.5,66.9,185.9,71.3,185.9,76.7L185.9,76.7z M8.6,162.4c0,3.5,2.8,6.4,6.4,6.4h161.1c3.5,0,6.4-2.8,6.4-6.4V76.7
	c0-3.5-2.8-6.4-6.4-6.4H15c-3.5,0-6.4,2.8-6.4,6.4L8.6,162.4z"/>
<path class="st2" d="M178.3,79.3v80.4c0,3.3-2.7,6-6,6H18.7c-3.3,0-6-2.7-6-6v-13.2c0-0.9,0.7-1.7,1.7-1.7h1.4c2.2,0,4-1.8,4-4V98.5
	c0-2.2-1.8-4-4-4h-1.4c-0.9,0-1.7-0.7-1.7-1.7V79.3c0-3.3,2.7-6,6-6h153.5C175.6,73.4,178.3,76.1,178.3,79.3z M16.2,159.7
	c0,1.4,1.2,2.6,2.6,2.6h153.5c1.4,0,2.6-1.2,2.6-2.6V79.3c0-1.4-1.2-2.6-2.6-2.6H18.7c-1.4,0-2.6,1.2-2.6,2.6v11.6
	c4,0.1,7.2,3.5,7.2,7.5v42.3c0,4-3.2,7.3-7.2,7.5L16.2,159.7z"/>
<g>
	<circle class="st3" cx="15" cy="102.1" r="2.7"/>
	<circle class="st3" cx="15" cy="110.7" r="2"/>
	<path class="st3" d="M13.1,139.2v-20.5c0-1.1,0.9-2,2-2l0,0c1.1,0,2,0.9,2,2v20.5c0,1.1-0.9,2-2,2l0,0
		C13.9,141.1,13.1,140.2,13.1,139.2z"/>
	<path class="st3" d="M136.1,108.7L136.1,108.7c0-2.5,2-4.5,4.5-4.5H199c2.5,0,4.5,2,4.5,4.5l0,0c0,2.5-2,4.5-4.5,4.5h-58.3
		C138.2,113.2,136.1,111.2,136.1,108.7z"/>
</g>
<path class="st2" d="M205.3,108.7c0,3.5-2.8,6.2-6.2,6.2h-58.3c-3.5,0-6.2-2.8-6.2-6.2s2.8-6.2,6.2-6.2h58.3
	C202.5,102.4,205.2,105.2,205.3,108.7L205.3,108.7z M137.8,108.7c0,1.6,1.3,2.8,2.8,2.8H199c1.6,0,2.8-1.3,2.8-2.8s-1.3-2.8-2.8-2.8
	h-58.3C139.1,105.9,137.8,107.1,137.8,108.7L137.8,108.7z"/>
<path class="st0" d="M125,128V89.4l0,0h17.8c8.2,0,14.9,6.6,14.9,14.9v8.7c0,8.2-6.6,14.9-14.9,14.9L125,128L125,128z"/>
<path class="st2" d="M159.4,104.4v8.7c0,9.2-7.5,16.5-16.6,16.6H125c-0.9,0-1.7-0.7-1.7-1.7V89.4c0-0.9,0.7-1.7,1.7-1.7h17.8
	C151.9,87.7,159.4,95.1,159.4,104.4L159.4,104.4z M126.7,126.3h16.1c7.3,0,13.2-5.9,13.2-13.2v-8.7c0-7.3-5.9-13.2-13.2-13.2h-16.1
	V126.3z"/>
<path class="st4" d="M95.5,95.7c0-2.2,1.8-3.9,3.9-3.9h21.4l0,0v7.9l0,0H99.5C97.3,99.5,95.5,97.8,95.5,95.7L95.5,95.7z"/>
<path class="st4" d="M95.5,121.7c0-2.2,1.8-3.9,3.9-3.9h21.4l0,0v7.9l0,0H99.5C97.3,125.7,95.5,123.9,95.5,121.7L95.5,121.7z"/>
<path class="st2" d="M122.6,91.7v7.9c0,0.9-0.7,1.7-1.7,1.7H99.5c-3.1,0-5.6-2.5-5.6-5.6c0-3.1,2.5-5.6,5.6-5.6h21.4
	C121.8,90,122.6,90.8,122.6,91.7z M119.1,97.9v-4.4H99.5c-1.2,0-2.2,1-2.2,2.2s1,2.2,2.2,2.2L119.1,97.9L119.1,97.9z"/>
<path class="st2" d="M122.6,117.8v7.9c0,0.9-0.7,1.7-1.7,1.7H99.5c-3.1,0-5.6-2.5-5.6-5.6c0-3.1,2.5-5.6,5.6-5.6h21.4
	C121.8,116.1,122.6,116.8,122.6,117.8z M119.1,124v-4.4H99.5c-1.2,0-2.2,1-2.2,2.2s1,2.2,2.2,2.2L119.1,124L119.1,124z"/>
<path class="st0" d="M116.7,129.9V87.6c0-0.9,0.7-1.6,1.6-1.6h5c0.9,0,1.6,0.7,1.6,1.6v42.3c0,0.9-0.7,1.6-1.6,1.6h-5
	C117.4,131.5,116.7,130.7,116.7,129.9z"/>
<path class="st2" d="M126.7,87.5v42.3c0,1.8-1.5,3.4-3.4,3.4h-5c-1.8,0-3.4-1.5-3.4-3.4V87.6c0-1.8,1.5-3.4,3.4-3.4h5
	C125.2,84.2,126.7,85.7,126.7,87.5L126.7,87.5z M118.4,87.6l0.1,42.3l5-0.1l-0.1-42.2H118.4z"/>
<circle class="st5" cx="50.6" cy="47.1" r="42.7"/>
<circle class="st0" cx="50.6" cy="47.1" r="32.4"/>
<path class="st2" d="M95,47.1c0,24.5-19.9,44.4-44.4,44.4S6.3,71.5,6.3,47.1S26.1,2.7,50.6,2.7C75.1,2.7,94.9,22.6,95,47.1z
	 M9.7,47.1c0,22.6,18.3,41,41,41s41-18.3,41-41s-18.3-41-41-41C28,6.2,9.7,24.5,9.7,47.1z"/>
<path class="st5" d="M28.9,46.7c0-0.7,0.4-1.5,1-1.9l2.6-1.7c7.1-4.6,7.1-4.6,9.3-6l1.4-0.9l0.1-0.1l1.5,2.2
	c0.3,0.4,0.8,0.5,1.2,0.2c0.1-0.1,0.3-0.3,0.3-0.4l3.1-7.9c0.2-0.5-0.1-0.9-0.5-1.2c-0.1-0.1-0.2-0.1-0.3-0.1l-8.5,0.2
	c-0.5,0-0.9,0.4-0.9,0.9c0,0.2,0.1,0.3,0.1,0.5l1.3,1.9l-1.2,0.8c-2.1,1.4-2.1,1.4-9.3,6L27.6,41c-3.1,2-4,6.2-2,9.3
	c0.5,0.8,1.2,1.5,2,2l5.6,3.7c1,0.7,2.4,0.3,3.1-0.7c0.6-1,0.3-2.4-0.7-3.1l-5.6-3.7C29.3,48.1,28.9,47.5,28.9,46.7L28.9,46.7z"/>
<path class="st5" d="M56.6,22.3l-4.7,3.1c-1,0.7-1.4,2-0.7,3.1c0.7,1,2,1.4,3.1,0.7c0,0,0.1,0,0.1-0.1L59,26c1-0.7,2.4-0.3,3.1,0.7
	c0.2,0.3,0.3,0.7,0.3,1.2v14h-2.4c-0.5,0-0.9,0.4-0.9,0.9c0,0.2,0.1,0.3,0.1,0.5l4.7,7.1c0.3,0.4,0.8,0.5,1.2,0.3
	c0.1-0.1,0.2-0.1,0.3-0.3l4.7-7.1c0.3-0.4,0.1-0.9-0.3-1.2c-0.1-0.1-0.3-0.1-0.5-0.1h-2.4v-14c0-3.7-3-6.7-6.7-6.7
	C58.9,21.2,57.7,21.6,56.6,22.3L56.6,22.3z"/>
<path class="st5" d="M62.4,55.2v10.3c0,1.2-1,2.2-2.2,2.2c-0.4,0-0.8-0.1-1.2-0.3l-11.3-7.3l1.3-1.9c0.3-0.4,0.2-0.9-0.2-1.2
	c-0.1-0.1-0.3-0.1-0.5-0.1l-8.5-0.2c-0.5,0-0.9,0.4-0.9,0.9c0,0.1,0,0.2,0.1,0.3l3.1,7.9c0.2,0.5,0.7,0.7,1.2,0.5
	c0.1-0.1,0.3-0.2,0.4-0.3l1.5-2.2l0.1,0.1l11.4,7.4c3.1,2,7.3,1.1,9.3-2c0.7-1.1,1.1-2.4,1.1-3.7V55.3c0-1.2-1-2.2-2.2-2.2
	C63.4,53,62.4,54,62.4,55.2L62.4,55.2z"/>
</svg>
