<svg width="356" height="207" viewBox="0 0 356 207" fill="none" xmlns="http://www.w3.org/2000/svg">
<path d="M352.69 132.808L162 22.6751C160.276 21.7611 158.354 21.2833 156.403 21.2833C154.452 21.2833 152.53 21.7611 150.806 22.6751L57.7394 76.4624C56.8228 76.9207 56.0462 77.6174 55.4913 78.4794C54.9363 79.3413 54.6234 80.3369 54.5853 81.3615V90.3244C54.6227 91.3505 54.9352 92.3478 55.4901 93.2115C56.045 94.0753 56.822 94.7738 57.7394 95.2338L248.429 205.366C250.155 206.274 252.076 206.749 254.026 206.749C255.976 206.749 257.897 206.274 259.623 205.366L352.741 151.569C353.656 151.11 354.431 150.415 354.985 149.555C355.54 148.695 355.854 147.702 355.895 146.68V137.665C355.842 136.643 355.516 135.654 354.953 134.8C354.389 133.946 353.608 133.258 352.69 132.808V132.808ZM152.29 34.1855C153.579 33.5297 155.004 33.1879 156.45 33.1879C157.895 33.1879 159.32 33.5297 160.609 34.1855L347.608 142.214L258.139 193.897C256.846 194.547 255.42 194.885 253.974 194.885C252.528 194.885 251.102 194.547 249.81 193.897L62.821 85.8687L152.29 34.1855Z" fill="#37474F"/>
<path d="M253.974 194.887C252.535 194.895 251.117 194.54 249.851 193.856L62.821 85.8687L80.3438 75.7198L70.1497 69.2736L57.6982 76.4933C56.7815 76.9516 56.005 77.6483 55.45 78.5103C54.8951 79.3723 54.5821 80.3678 54.5441 81.3925V90.3244C54.5814 91.3505 54.8939 92.3478 55.4488 93.2115C56.0038 94.0753 56.7807 94.7738 57.6982 95.2338L248.388 205.366C250.102 206.305 252.031 206.782 253.985 206.748V206.748L253.974 194.887Z" fill="#263238"/>
<path d="M352.69 132.808L162 22.6751C160.276 21.7611 158.354 21.2833 156.403 21.2833C154.452 21.2833 152.53 21.7611 150.806 22.6751L57.7395 76.4624C56.8002 76.8907 56.0039 77.5803 55.4455 78.449C54.8871 79.3176 54.5902 80.3287 54.5902 81.3615C54.5902 82.3944 54.8871 83.4054 55.4455 84.2741C56.0039 85.1427 56.8002 85.8323 57.7395 86.2607L59.935 87.5293L248.367 196.393C250.095 197.301 252.017 197.776 253.969 197.776C255.921 197.776 257.843 197.301 259.571 196.393L350.473 143.874L352.69 142.596C353.629 142.169 354.427 141.481 354.986 140.613C355.545 139.745 355.842 138.734 355.842 137.702C355.842 136.669 355.545 135.658 354.986 134.79C354.427 133.922 353.629 133.234 352.69 132.808V132.808ZM258.139 193.897C256.846 194.547 255.42 194.885 253.974 194.885C252.528 194.885 251.102 194.547 249.81 193.897L62.8211 85.8687L152.291 34.1855C153.579 33.5297 155.004 33.1879 156.45 33.1879C157.895 33.1879 159.32 33.5297 160.609 34.1855L347.608 142.214L258.139 193.897Z" fill="#455A64"/>
<path d="M351.247 140.11L347.608 142.173L160.609 34.1855C159.32 33.5297 157.895 33.1879 156.45 33.1879C155.004 33.1879 153.579 33.5297 152.291 34.1855L62.8211 85.8687L59.1826 83.7544C56.884 82.4342 56.884 80.2786 59.1826 78.9584L152.291 25.1711C153.579 24.5153 155.004 24.1735 156.45 24.1735C157.895 24.1735 159.32 24.5153 160.609 25.1711L351.298 135.304C353.545 136.634 353.545 138.8 351.247 140.11Z" fill="#263238"/>
<path d="M156.444 33.185V24.1706C155.005 24.1602 153.587 24.515 152.321 25.202L59.1826 78.979C56.884 80.2992 56.884 82.4548 59.1826 83.775L62.8211 85.8894L152.291 34.2061C153.564 33.5128 154.995 33.1611 156.444 33.185V33.185Z" fill="#37474F"/>
<path d="M334.672 139.955C334.646 139.708 334.556 139.472 334.411 139.269C334.267 139.067 334.073 138.905 333.847 138.8L287.257 111.86C286.617 111.54 285.912 111.373 285.196 111.373C284.48 111.373 283.774 111.54 283.134 111.86L205.374 156.788C205.136 156.89 204.931 157.056 204.78 157.267C204.629 157.477 204.539 157.725 204.519 157.984V160.191C204.539 160.45 204.629 160.698 204.78 160.909C204.931 161.119 205.136 161.285 205.374 161.388L251.892 188.307C252.531 188.631 253.237 188.799 253.954 188.799C254.67 188.799 255.376 188.631 256.015 188.307L333.847 143.359C334.083 143.255 334.286 143.091 334.436 142.882C334.587 142.674 334.679 142.429 334.703 142.173L334.672 139.955Z" fill="#3B55CA"/>
<path opacity="0.55" d="M253.974 186.585V188.781C253.258 188.79 252.55 188.624 251.913 188.297L205.354 161.398C205.118 161.288 204.916 161.117 204.767 160.903C204.619 160.689 204.529 160.44 204.508 160.181C204.508 159.799 204.508 158.376 204.508 157.984C204.531 158.24 204.621 158.486 204.769 158.696C204.918 158.907 205.12 159.074 205.354 159.18L251.913 186.079C252.544 186.425 253.255 186.599 253.974 186.585Z" fill="black"/>
<path d="M286.505 111.571H283.856C284.722 111.324 285.639 111.324 286.505 111.571V111.571Z" fill="#3B55CA"/>
<path opacity="0.45" d="M334.672 140.12V142.183C334.648 142.44 334.556 142.686 334.405 142.896C334.255 143.107 334.052 143.273 333.817 143.379L256.057 188.307C255.419 188.634 254.711 188.8 253.995 188.792V186.595C254.714 186.606 255.424 186.432 256.057 186.089L333.847 141.162C334.051 141.056 334.229 140.909 334.372 140.73C334.514 140.55 334.616 140.342 334.672 140.12V140.12Z" fill="black"/>
<path d="M256.056 186.079L333.847 141.162C334.099 141.077 334.317 140.915 334.471 140.7C334.626 140.484 334.709 140.226 334.709 139.96C334.709 139.695 334.626 139.437 334.471 139.221C334.317 139.005 334.099 138.844 333.847 138.759L287.257 111.86C286.617 111.54 285.912 111.373 285.196 111.373C284.48 111.373 283.774 111.54 283.134 111.86L205.374 156.788C205.123 156.873 204.905 157.034 204.751 157.25C204.596 157.465 204.513 157.724 204.513 157.989C204.513 158.254 204.596 158.513 204.751 158.728C204.905 158.944 205.123 159.106 205.374 159.191L251.923 186.079C252.564 186.404 253.272 186.574 253.99 186.574C254.708 186.574 255.416 186.404 256.056 186.079V186.079Z" fill="#3B55CA"/>
<path opacity="0.3" d="M256.056 186.079L333.847 141.162C334.099 141.077 334.317 140.915 334.471 140.7C334.626 140.484 334.709 140.226 334.709 139.96C334.709 139.695 334.626 139.437 334.471 139.221C334.317 139.005 334.099 138.844 333.847 138.759L287.257 111.86C286.617 111.54 285.912 111.373 285.196 111.373C284.48 111.373 283.774 111.54 283.134 111.86L205.374 156.788C205.123 156.873 204.905 157.034 204.751 157.25C204.596 157.465 204.513 157.724 204.513 157.989C204.513 158.254 204.596 158.513 204.751 158.728C204.905 158.944 205.123 159.106 205.374 159.191L251.923 186.079C252.564 186.404 253.272 186.574 253.99 186.574C254.708 186.574 255.416 186.404 256.056 186.079V186.079Z" fill="black"/>
<path d="M250.82 172.269L241.729 177.519C241.502 177.653 241.399 177.807 241.513 177.869C241.617 177.892 241.725 177.892 241.83 177.871C241.934 177.85 242.033 177.807 242.121 177.746L250.913 172.661L253.954 174.414C253.984 174.429 254.018 174.437 254.052 174.437C254.086 174.437 254.119 174.429 254.15 174.414L258.85 171.691C258.881 171.676 258.906 171.652 258.925 171.623C258.943 171.594 258.953 171.561 258.953 171.526V168.019L266.261 163.791C266.561 163.877 266.882 163.844 267.158 163.698C267.477 163.523 267.477 163.234 267.158 163.048C266.983 162.962 266.791 162.917 266.596 162.917C266.401 162.917 266.209 162.962 266.034 163.048C265.787 163.192 265.735 163.399 265.88 163.574L258.664 167.7C258.634 167.715 258.608 167.738 258.589 167.768C258.571 167.797 258.561 167.83 258.561 167.865V171.371L254.057 173.981L251.016 172.228C250.983 172.218 250.947 172.217 250.913 172.224C250.879 172.231 250.847 172.247 250.82 172.269Z" fill="#3B55CA"/>
<path d="M248.398 181.366L262.004 173.517C262.032 173.496 262.054 173.47 262.07 173.44C262.087 173.409 262.096 173.376 262.097 173.341V169.824L265.271 167.999C265.572 168.074 265.889 168.041 266.168 167.906C266.488 167.72 266.488 167.431 266.168 167.256C265.995 167.165 265.802 167.117 265.606 167.117C265.411 167.117 265.218 167.165 265.045 167.256C264.797 167.39 264.746 167.596 264.89 167.772L261.798 169.546C261.769 169.565 261.745 169.591 261.729 169.622C261.713 169.652 261.704 169.686 261.705 169.721V173.238L248.017 181.149C247.78 181.283 247.687 181.438 247.79 181.5C247.895 181.52 248.003 181.519 248.108 181.496C248.212 181.473 248.311 181.428 248.398 181.366V181.366Z" fill="#3B55CA"/>
<path d="M325.261 136.51L308.532 146.174C308.502 146.19 308.478 146.214 308.462 146.243C308.445 146.273 308.437 146.306 308.439 146.339V149.857L270.064 172.021C269.764 171.937 269.444 171.97 269.168 172.114C268.858 172.289 268.858 172.578 269.168 172.764C269.344 172.85 269.538 172.895 269.734 172.895C269.931 172.895 270.125 172.85 270.301 172.764C270.538 172.619 270.59 172.413 270.456 172.238L308.728 150.145C308.754 150.126 308.776 150.101 308.792 150.073C308.808 150.044 308.818 150.013 308.821 149.98V146.463L325.653 136.737C325.88 136.603 325.983 136.448 325.869 136.386C325.765 136.365 325.657 136.365 325.553 136.386C325.448 136.408 325.349 136.45 325.261 136.51V136.51Z" fill="#3B55CA"/>
<path d="M251.521 183.15L265.127 175.291C265.155 175.273 265.178 175.249 265.195 175.22C265.211 175.191 265.22 175.159 265.22 175.126V171.609L272.507 167.401C272.814 167.486 273.141 167.453 273.425 167.308C273.734 167.132 273.734 166.844 273.425 166.658C273.248 166.571 273.054 166.526 272.858 166.526C272.661 166.526 272.467 166.571 272.291 166.658C272.054 166.802 272.002 166.998 272.136 167.174L264.921 171.299C264.892 171.316 264.868 171.34 264.852 171.369C264.836 171.398 264.827 171.431 264.828 171.464V174.981L251.129 182.892C250.903 183.026 250.8 183.181 250.903 183.243C251.007 183.269 251.115 183.274 251.221 183.258C251.327 183.242 251.429 183.205 251.521 183.15V183.15Z" fill="#3B55CA"/>
<path d="M298.606 121.111L292.854 124.433C292.824 124.449 292.799 124.472 292.781 124.501C292.763 124.53 292.753 124.563 292.751 124.598V128.115L287.01 131.436C286.711 131.352 286.392 131.381 286.113 131.518C286.045 131.543 285.987 131.587 285.945 131.647C285.903 131.706 285.881 131.776 285.881 131.848C285.881 131.921 285.903 131.991 285.945 132.05C285.987 132.109 286.045 132.154 286.113 132.178C286.288 132.265 286.48 132.31 286.675 132.31C286.87 132.31 287.062 132.265 287.237 132.178C287.484 132.034 287.536 131.828 287.391 131.652L293.04 128.393C293.069 128.376 293.094 128.352 293.112 128.324C293.13 128.295 293.141 128.262 293.143 128.228V124.711L298.998 121.328C299.224 121.194 299.328 121.039 299.214 120.977C299.109 120.957 299.001 120.958 298.896 120.981C298.792 121.004 298.693 121.049 298.606 121.111V121.111Z" fill="#3B55CA"/>
<path d="M328.405 138.315L319.943 143.204C319.639 143.13 319.318 143.162 319.036 143.297C318.726 143.483 318.726 143.771 319.036 143.947C319.211 144.038 319.405 144.086 319.602 144.086C319.8 144.086 319.994 144.038 320.169 143.947C320.417 143.813 320.458 143.606 320.324 143.431L328.786 138.542C329.013 138.408 329.116 138.253 329.013 138.191C328.909 138.168 328.801 138.167 328.696 138.189C328.591 138.21 328.492 138.253 328.405 138.315V138.315Z" fill="#3B55CA"/>
<path d="M264.622 132.013L265.9 132.756L261.839 135.097H255.654C255.621 135.087 255.585 135.087 255.551 135.097L247.718 139.625C247.688 139.641 247.662 139.665 247.644 139.694C247.626 139.723 247.616 139.756 247.615 139.79V143.421C247.617 143.454 247.627 143.487 247.645 143.516C247.663 143.545 247.688 143.569 247.718 143.586L248.996 144.318L239.894 149.578C239.864 149.594 239.839 149.618 239.821 149.647C239.803 149.676 239.792 149.709 239.791 149.743V153.26L235.266 155.88L230.772 153.301V149.898L243.368 142.678C243.668 142.759 243.987 142.726 244.265 142.585C244.334 142.564 244.394 142.52 244.437 142.462C244.48 142.403 244.503 142.333 244.503 142.26C244.503 142.188 244.48 142.117 244.437 142.059C244.394 142 244.334 141.957 244.265 141.935C244.091 141.844 243.899 141.796 243.703 141.796C243.507 141.796 243.314 141.844 243.141 141.935C242.894 142.069 242.852 142.286 242.986 142.451L230.483 149.671C230.456 149.689 230.433 149.713 230.417 149.742C230.401 149.771 230.392 149.803 230.391 149.836V153.466C230.392 153.499 230.401 153.531 230.417 153.56C230.433 153.589 230.456 153.613 230.483 153.631L234.895 156.127L219.815 164.832C219.588 164.966 219.496 165.131 219.599 165.193C219.811 165.229 220.029 165.181 220.207 165.059L235.235 156.334L236.616 157.128V160.573L224.587 167.586C224.361 167.72 224.258 167.875 224.361 167.937C224.466 167.957 224.574 167.956 224.679 167.933C224.783 167.91 224.882 167.866 224.969 167.803L236.957 160.872C236.987 160.857 237.012 160.833 237.029 160.804C237.046 160.774 237.053 160.741 237.049 160.707V157.035C237.049 157.002 237.04 156.969 237.024 156.941C237.008 156.912 236.985 156.887 236.957 156.87L235.678 156.127L240.111 153.57C240.138 153.551 240.161 153.527 240.177 153.498C240.193 153.47 240.202 153.437 240.203 153.405V149.887L249.326 144.576L259.922 150.692L244.533 159.583C244.502 159.601 244.477 159.627 244.459 159.657C244.441 159.688 244.431 159.722 244.43 159.758V165.08L232.298 172.083C232.071 172.217 231.978 172.372 232.081 172.434C232.185 172.456 232.293 172.457 232.398 172.436C232.503 172.414 232.602 172.372 232.689 172.31L244.718 165.358C244.748 165.34 244.774 165.314 244.792 165.284C244.809 165.253 244.82 165.218 244.821 165.183V159.861L260.282 150.919L267.931 155.333V158.737L238.554 175.703C238.327 175.837 238.224 175.992 238.327 176.054C238.444 176.09 238.568 176.098 238.688 176.076C238.808 176.055 238.921 176.005 239.018 175.93L268.302 159.015C268.332 158.999 268.357 158.975 268.375 158.947C268.393 158.918 268.404 158.884 268.405 158.85V155.22C268.404 155.186 268.393 155.152 268.375 155.124C268.357 155.095 268.332 155.071 268.302 155.055L260.757 150.692L266.302 147.484C266.602 147.571 266.923 147.537 267.199 147.391C267.518 147.216 267.518 146.927 267.199 146.742C267.024 146.655 266.832 146.61 266.637 146.61C266.442 146.61 266.25 146.655 266.075 146.742C265.828 146.886 265.776 147.092 265.921 147.268L260.365 150.475L249.779 144.349L258.767 139.192C259.071 139.266 259.392 139.233 259.674 139.099C259.984 138.913 259.984 138.625 259.674 138.449C259.499 138.358 259.305 138.31 259.107 138.31C258.91 138.31 258.716 138.358 258.541 138.449C258.293 138.583 258.252 138.79 258.386 138.965L249.387 144.122L248.017 143.328V139.924L255.716 135.479H261.901C261.934 135.489 261.97 135.489 262.004 135.479L266.302 132.993L270.621 135.489L257.572 143.029C257.272 142.945 256.951 142.978 256.675 143.122C256.606 143.143 256.545 143.186 256.502 143.245C256.459 143.303 256.436 143.374 256.436 143.446C256.436 143.519 256.459 143.59 256.502 143.648C256.545 143.706 256.606 143.75 256.675 143.771C256.85 143.863 257.044 143.91 257.242 143.91C257.439 143.91 257.634 143.863 257.809 143.771C258.046 143.637 258.097 143.421 257.963 143.256L270.971 135.706L275.29 138.202L266.488 143.287C266.184 143.202 265.86 143.235 265.581 143.379C265.511 143.401 265.451 143.444 265.408 143.503C265.365 143.561 265.342 143.632 265.342 143.704C265.342 143.777 265.365 143.847 265.408 143.906C265.451 143.964 265.511 144.008 265.581 144.029C265.756 144.12 265.95 144.168 266.147 144.168C266.345 144.168 266.539 144.12 266.714 144.029C266.951 143.885 267.003 143.678 266.869 143.513L275.682 138.418L283.134 142.73L280.382 144.318L277.341 142.565C277.313 142.545 277.278 142.535 277.244 142.535C277.209 142.535 277.175 142.545 277.146 142.565L273.6 144.627C273.299 144.553 272.982 144.586 272.703 144.72C272.394 144.906 272.394 145.195 272.703 145.37C272.876 145.461 273.069 145.509 273.265 145.509C273.461 145.509 273.653 145.461 273.827 145.37C274.074 145.236 274.126 145.03 273.992 144.854L277.249 142.977L280.289 144.73C280.318 144.746 280.35 144.754 280.382 144.754C280.415 144.754 280.446 144.746 280.475 144.73L283.516 142.977L286.268 144.565L271.621 153.023C271.317 152.943 270.995 152.976 270.714 153.116C270.404 153.301 270.404 153.59 270.714 153.766C270.889 153.857 271.083 153.904 271.281 153.904C271.478 153.904 271.673 153.857 271.848 153.766C272.085 153.631 272.136 153.415 272.002 153.25L286.659 144.782L288.03 145.576V148.98L278.754 154.353C278.723 154.372 278.698 154.398 278.68 154.428C278.662 154.459 278.652 154.493 278.651 154.529V158.035L272.909 161.357C272.61 161.27 272.288 161.304 272.012 161.449C271.943 161.471 271.883 161.514 271.84 161.573C271.797 161.631 271.774 161.702 271.774 161.774C271.774 161.847 271.797 161.917 271.84 161.976C271.883 162.034 271.943 162.078 272.012 162.099C272.187 162.186 272.379 162.231 272.574 162.231C272.769 162.231 272.961 162.186 273.136 162.099C273.383 161.955 273.425 161.749 273.291 161.583L278.939 158.314C278.97 158.299 278.996 158.275 279.014 158.246C279.032 158.217 279.042 158.183 279.042 158.149V154.632L288.319 149.258C288.348 149.242 288.372 149.218 288.388 149.189C288.404 149.159 288.413 149.127 288.412 149.093V145.463C288.413 145.429 288.404 145.397 288.388 145.368C288.372 145.338 288.348 145.314 288.319 145.298L287.041 144.565L294.596 140.203C294.624 140.182 294.647 140.156 294.663 140.126C294.679 140.095 294.688 140.062 294.689 140.027V136.521L309.955 127.702C310.181 127.568 310.284 127.413 310.171 127.351C309.96 127.311 309.741 127.355 309.563 127.475L294.4 136.242C294.37 136.257 294.344 136.281 294.326 136.31C294.307 136.339 294.298 136.373 294.297 136.407V139.924L286.659 144.339L283.907 142.75L288.319 140.203C288.348 140.184 288.372 140.158 288.388 140.127C288.404 140.096 288.412 140.062 288.412 140.027V136.521L306.811 125.887C307.048 125.753 307.141 125.598 307.037 125.536C306.932 125.516 306.824 125.517 306.72 125.54C306.615 125.563 306.516 125.608 306.429 125.67L288.123 136.242C288.094 136.258 288.069 136.282 288.053 136.311C288.036 136.34 288.028 136.374 288.03 136.407V139.924L283.516 142.523L276.125 138.191L283.681 133.829C283.707 133.809 283.729 133.785 283.745 133.756C283.761 133.728 283.771 133.696 283.773 133.664V126.526L295.895 119.523C296.132 119.389 296.225 119.224 296.122 119.162C296.017 119.142 295.908 119.143 295.804 119.166C295.699 119.189 295.6 119.233 295.514 119.296L283.485 126.248C283.455 126.264 283.431 126.288 283.414 126.317C283.398 126.346 283.39 126.379 283.392 126.413V133.55L275.744 137.965L271.425 135.469L278.97 131.106C279.001 131.09 279.027 131.067 279.045 131.038C279.063 131.009 279.073 130.975 279.073 130.941V125.619L292.762 117.708C292.988 117.574 293.091 117.419 292.988 117.357C292.884 117.334 292.776 117.333 292.671 117.354C292.566 117.376 292.467 117.419 292.38 117.481L278.743 125.392C278.713 125.407 278.687 125.431 278.668 125.46C278.65 125.489 278.64 125.522 278.64 125.557V130.879L270.971 135.252L266.653 132.756L273.775 128.63C274.075 128.717 274.396 128.683 274.672 128.538C274.741 128.516 274.802 128.473 274.844 128.414C274.887 128.356 274.911 128.285 274.911 128.213C274.911 128.14 274.887 128.069 274.844 128.011C274.802 127.953 274.741 127.909 274.672 127.888C274.497 127.801 274.305 127.756 274.11 127.756C273.915 127.756 273.723 127.801 273.548 127.888C273.301 128.032 273.249 128.238 273.394 128.403L266.271 132.529L264.89 131.735V128.331L287.999 114.985C288.226 114.861 288.329 114.696 288.216 114.634C288.111 114.615 288.003 114.616 287.898 114.639C287.794 114.662 287.695 114.706 287.608 114.768L264.601 128.053C264.574 128.073 264.551 128.099 264.535 128.13C264.519 128.16 264.51 128.194 264.509 128.228V131.848C264.511 131.884 264.523 131.917 264.543 131.946C264.563 131.975 264.59 131.999 264.622 132.013Z" fill="#3B55CA"/>
<path d="M322.128 134.674L305.399 144.339C305.368 144.357 305.343 144.383 305.325 144.413C305.307 144.444 305.297 144.478 305.295 144.514V148.083L289.989 156.922C289.688 156.847 289.371 156.88 289.092 157.014C288.783 157.2 288.783 157.489 289.092 157.664C289.267 157.755 289.462 157.803 289.659 157.803C289.856 157.803 290.051 157.755 290.226 157.664C290.463 157.53 290.514 157.324 290.38 157.148L305.584 148.361C305.615 148.346 305.641 148.322 305.659 148.293C305.677 148.264 305.687 148.23 305.687 148.196V144.679L322.509 134.922C322.736 134.788 322.839 134.633 322.726 134.571C322.624 134.547 322.519 134.544 322.416 134.562C322.313 134.579 322.215 134.618 322.128 134.674Z" fill="#3B55CA"/>
<path d="M303.317 123.824L299.554 126C299.255 125.916 298.936 125.945 298.658 126.083C298.59 126.107 298.531 126.152 298.489 126.211C298.448 126.27 298.426 126.341 298.426 126.413C298.426 126.485 298.448 126.556 298.489 126.615C298.531 126.674 298.59 126.718 298.658 126.743C298.832 126.829 299.024 126.874 299.219 126.874C299.414 126.874 299.606 126.829 299.781 126.743C300.028 126.598 300.08 126.392 299.936 126.217L303.698 124.051C303.925 123.917 304.028 123.762 303.925 123.7C303.82 123.677 303.712 123.676 303.608 123.697C303.503 123.719 303.404 123.762 303.317 123.824V123.824Z" fill="#3B55CA"/>
<path d="M217.032 163.244L222.784 159.923C222.813 159.906 222.838 159.882 222.856 159.853C222.874 159.825 222.885 159.792 222.887 159.758V156.241L227.061 153.827C227.361 153.914 227.682 153.88 227.958 153.735C228.267 153.559 228.267 153.27 227.958 153.085C227.783 152.998 227.591 152.953 227.396 152.953C227.202 152.953 227.009 152.998 226.835 153.085C226.587 153.229 226.536 153.435 226.68 153.601L222.557 155.962C222.527 155.979 222.502 156.002 222.484 156.031C222.465 156.06 222.455 156.093 222.454 156.127V159.644L216.599 163.027C216.372 163.162 216.269 163.316 216.383 163.378C216.494 163.404 216.61 163.405 216.722 163.382C216.834 163.359 216.94 163.312 217.032 163.244Z" fill="#3B55CA"/>
<path d="M210.755 159.624L214.517 157.448C214.816 157.532 215.135 157.502 215.414 157.365C215.482 157.341 215.54 157.296 215.582 157.237C215.624 157.178 215.646 157.107 215.646 157.035C215.646 156.963 215.624 156.892 215.582 156.833C215.54 156.774 215.482 156.729 215.414 156.705C215.239 156.619 215.047 156.574 214.852 156.574C214.657 156.574 214.465 156.619 214.29 156.705C214.043 156.849 213.991 157.056 214.136 157.231L210.373 159.397C210.136 159.531 210.044 159.696 210.147 159.758C210.359 159.793 210.577 159.745 210.755 159.624V159.624Z" fill="#3B55CA"/>
<path d="M213.888 161.491L219.65 158.159C219.681 158.144 219.707 158.121 219.725 158.091C219.743 158.062 219.753 158.029 219.753 157.994V154.477L225.495 151.166C225.795 151.241 226.112 151.208 226.391 151.074C226.701 150.888 226.701 150.599 226.391 150.424C226.218 150.333 226.025 150.285 225.83 150.285C225.634 150.285 225.441 150.333 225.268 150.424C225.02 150.558 224.969 150.764 225.103 150.94L219.434 154.147C219.406 154.167 219.383 154.194 219.367 154.224C219.351 154.255 219.342 154.288 219.341 154.323V157.829L213.486 161.212C213.26 161.346 213.156 161.501 213.26 161.563C213.363 161.597 213.473 161.608 213.582 161.595C213.69 161.583 213.795 161.547 213.888 161.491V161.491Z" fill="#3B55CA"/>
<path d="M259.829 127.455V130.858L257.633 132.127C257.33 132.047 257.008 132.08 256.726 132.22C256.657 132.241 256.597 132.284 256.554 132.343C256.511 132.401 256.488 132.472 256.488 132.545C256.488 132.617 256.511 132.688 256.554 132.746C256.597 132.805 256.657 132.848 256.726 132.869C256.901 132.961 257.096 133.008 257.293 133.008C257.491 133.008 257.685 132.961 257.86 132.869C258.097 132.735 258.149 132.519 258.015 132.354L260.076 131.137C260.106 131.121 260.13 131.097 260.147 131.068C260.163 131.039 260.171 131.005 260.169 130.972V127.238L259.829 127.455Z" fill="#3B55CA"/>
<path d="M314.263 130.167L300.667 138.026C300.639 138.044 300.616 138.068 300.6 138.097C300.584 138.126 300.575 138.158 300.575 138.191V145.329L283.423 155.23C283.394 155.249 283.37 155.275 283.354 155.306C283.338 155.336 283.33 155.371 283.33 155.405V160.727L277.888 163.822C277.588 163.741 277.268 163.774 276.991 163.914C276.922 163.936 276.861 163.979 276.818 164.038C276.775 164.096 276.752 164.167 276.752 164.239C276.752 164.312 276.775 164.383 276.818 164.441C276.861 164.499 276.922 164.543 276.991 164.564C277.164 164.655 277.357 164.703 277.553 164.703C277.749 164.703 277.941 164.655 278.115 164.564C278.362 164.43 278.414 164.214 278.269 164.049L283.619 160.954C283.645 160.935 283.667 160.91 283.683 160.882C283.699 160.853 283.709 160.822 283.712 160.789V155.509L300.863 145.607C300.892 145.588 300.916 145.562 300.932 145.531C300.948 145.501 300.957 145.466 300.956 145.432V138.305L314.655 130.394C314.882 130.26 314.985 130.095 314.882 130.033C314.775 130.013 314.665 130.014 314.559 130.038C314.453 130.061 314.352 130.105 314.263 130.167V130.167Z" fill="#3B55CA"/>
<path d="M317.428 131.982L313.232 134.396C313.206 134.415 313.184 134.44 313.168 134.468C313.152 134.497 313.142 134.528 313.14 134.561V136.263L307.398 139.584C307.095 139.499 306.771 139.532 306.491 139.677C306.422 139.698 306.362 139.741 306.319 139.8C306.276 139.858 306.252 139.929 306.252 140.002C306.252 140.074 306.276 140.145 306.319 140.203C306.362 140.262 306.422 140.305 306.491 140.326C306.668 140.413 306.862 140.458 307.058 140.458C307.255 140.458 307.449 140.413 307.625 140.326C307.872 140.182 307.914 139.976 307.78 139.811L313.428 136.541C313.458 136.525 313.482 136.502 313.499 136.472C313.515 136.443 313.523 136.41 313.521 136.376V134.674L317.809 132.199C318.036 132.065 318.139 131.91 318.036 131.848C317.931 131.828 317.822 131.829 317.718 131.852C317.613 131.875 317.514 131.92 317.428 131.982V131.982Z" fill="#3B55CA"/>
<path d="M247.584 166.885L235.462 173.867C235.225 174.002 235.132 174.156 235.235 174.218C235.34 174.239 235.449 174.237 235.553 174.214C235.658 174.191 235.757 174.147 235.843 174.084L247.872 167.132C247.903 167.117 247.929 167.094 247.947 167.064C247.965 167.035 247.975 167.002 247.975 166.967V163.461L256.85 158.304C257.153 158.388 257.477 158.355 257.757 158.211C258.066 158.036 258.066 157.747 257.757 157.561C257.581 157.475 257.387 157.43 257.19 157.43C256.994 157.43 256.8 157.475 256.623 157.561C256.386 157.705 256.335 157.912 256.469 158.087L247.687 163.162C247.656 163.177 247.63 163.2 247.612 163.229C247.594 163.259 247.584 163.292 247.584 163.327V166.885Z" fill="#3B55CA"/>
<path d="M241.317 163.265L229.185 170.268C228.958 170.402 228.855 170.567 228.968 170.618C229.073 170.641 229.181 170.642 229.285 170.62C229.39 170.599 229.489 170.556 229.576 170.495L241.605 163.553C241.635 163.538 241.659 163.514 241.676 163.484C241.692 163.455 241.7 163.422 241.698 163.388V156.251L247.45 152.93C247.749 153.014 248.07 152.981 248.346 152.837C248.656 152.662 248.656 152.373 248.346 152.187C248.17 152.101 247.976 152.056 247.779 152.056C247.583 152.056 247.389 152.101 247.213 152.187C246.976 152.332 246.924 152.538 247.058 152.713L241.409 155.973C241.381 155.989 241.357 156.013 241.34 156.042C241.324 156.071 241.316 156.104 241.317 156.138V163.265Z" fill="#3B55CA"/>
<path d="M226.793 163.636C226.807 163.762 226.853 163.883 226.927 163.986C227.001 164.089 227.101 164.171 227.216 164.224L241.245 172.331C241.562 172.499 241.916 172.585 242.275 172.578V174.806C241.916 174.815 241.561 174.73 241.245 174.558L227.845 166.802C227.278 166.472 226.814 166.276 226.814 165.627L226.793 163.636Z" fill="#263238"/>
<path d="M243.306 172.331L257.324 164.224C257.447 164.18 257.553 164.1 257.628 163.994C257.703 163.888 257.743 163.761 257.743 163.631C257.743 163.501 257.703 163.374 257.628 163.268C257.553 163.162 257.447 163.081 257.324 163.038L243.296 154.941C242.977 154.777 242.624 154.691 242.265 154.691C241.906 154.691 241.553 154.777 241.234 154.941L227.206 163.038C227.083 163.081 226.977 163.162 226.902 163.268C226.827 163.374 226.787 163.501 226.787 163.631C226.787 163.761 226.827 163.888 226.902 163.994C226.977 164.1 227.083 164.18 227.206 164.224L241.234 172.331C241.555 172.495 241.91 172.581 242.27 172.581C242.63 172.581 242.986 172.495 243.306 172.331V172.331Z" fill="#455A64"/>
<path d="M257.747 163.667V165.616C257.747 166.266 257.293 166.462 256.716 166.792L243.316 174.548C243 174.719 242.645 174.804 242.286 174.796V172.568C242.645 172.574 242.999 172.489 243.316 172.32L257.335 164.214C257.443 164.164 257.538 164.088 257.61 163.992C257.682 163.897 257.729 163.785 257.747 163.667Z" fill="#37474F"/>
<path d="M254.181 163.399C254.229 163.468 254.254 163.551 254.253 163.636C254.246 163.742 254.21 163.843 254.151 163.93C254.091 164.017 254.009 164.087 253.913 164.131L242.997 170.443C242.774 170.56 242.527 170.621 242.275 170.621C242.024 170.621 241.777 170.56 241.554 170.443L230.628 164.131C230.532 164.087 230.45 164.017 230.39 163.93C230.33 163.843 230.295 163.742 230.288 163.636C230.296 163.53 230.332 163.427 230.391 163.339C230.451 163.25 230.532 163.178 230.628 163.131L241.554 156.829C241.777 156.712 242.024 156.651 242.275 156.651C242.527 156.651 242.774 156.712 242.997 156.829L253.913 163.131C254.026 163.192 254.119 163.285 254.181 163.399V163.399ZM230.597 163.729C230.637 163.798 230.699 163.852 230.772 163.884L241.698 170.196C241.877 170.287 242.075 170.335 242.275 170.335C242.476 170.335 242.674 170.287 242.853 170.196L253.768 163.884C253.827 163.872 253.879 163.84 253.917 163.794C253.954 163.748 253.975 163.69 253.975 163.631C253.975 163.571 253.954 163.514 253.917 163.468C253.879 163.422 253.827 163.39 253.768 163.378L242.853 157.066C242.671 156.977 242.472 156.93 242.27 156.93C242.068 156.93 241.869 156.977 241.688 157.066L230.772 163.378C230.638 163.45 230.566 163.543 230.566 163.636C230.567 163.669 230.577 163.702 230.597 163.729V163.729Z" fill="#F5F5F5"/>
<path d="M249.934 163.553C249.943 163.598 249.943 163.643 249.934 163.688C249.93 163.748 249.911 163.806 249.879 163.856C249.846 163.907 249.801 163.948 249.748 163.976L242.533 168.102C242.424 168.148 242.306 168.171 242.188 168.171C242.069 168.171 241.952 168.148 241.842 168.102L234.627 163.976C234.572 163.952 234.525 163.913 234.492 163.862C234.459 163.812 234.442 163.753 234.442 163.693C234.442 163.632 234.459 163.574 234.492 163.523C234.525 163.473 234.572 163.433 234.627 163.409L241.842 159.283C241.95 159.23 242.068 159.202 242.188 159.202C242.308 159.202 242.426 159.23 242.533 159.283L249.748 163.409C249.821 163.441 249.885 163.491 249.934 163.553V163.553ZM234.792 163.688L242.007 167.813C242.138 167.854 242.279 167.854 242.409 167.813L249.625 163.688L242.409 159.562C242.347 159.532 242.278 159.516 242.208 159.516C242.139 159.516 242.07 159.532 242.007 159.562L234.792 163.688Z" fill="#F5F5F5"/>
<path d="M195.592 119.513C194.999 119.167 194.508 118.669 194.17 118.071C193.831 117.473 193.657 116.796 193.665 116.109V115.903C193.661 115.214 193.475 114.537 193.128 113.942C192.781 113.346 192.284 112.853 191.686 112.51L166.432 98.1217V99.2356L191.17 113.345C191.622 113.601 191.998 113.973 192.259 114.423C192.52 114.872 192.656 115.383 192.655 115.903V116.109C192.657 116.964 192.883 117.802 193.31 118.542C193.737 119.282 194.349 119.898 195.087 120.328L228.711 139.831V138.728L195.592 119.513Z" fill="#3B55CA"/>
<path opacity="0.3" d="M195.592 119.513C194.999 119.167 194.508 118.669 194.17 118.071C193.831 117.473 193.657 116.796 193.665 116.109V115.903C193.661 115.214 193.475 114.537 193.128 113.942C192.781 113.346 192.284 112.853 191.686 112.51L166.432 98.1217V99.2356L191.17 113.345C191.622 113.601 191.998 113.973 192.259 114.423C192.52 114.872 192.656 115.383 192.655 115.903V116.109C192.657 116.964 192.883 117.802 193.31 118.542C193.737 119.282 194.349 119.898 195.087 120.328L228.711 139.831V138.728L195.592 119.513Z" fill="black"/>
<path d="M228.711 138.676L195.592 119.513C194.999 119.167 194.508 118.669 194.17 118.071C193.831 117.473 193.657 116.796 193.665 116.109V115.903C193.664 115.213 193.48 114.535 193.132 113.939C192.785 113.343 192.286 112.85 191.686 112.51L166.432 98.1217L178.111 91.3557L203.395 105.96C203.987 106.305 204.478 106.798 204.82 107.392C205.162 107.985 205.342 108.658 205.343 109.343V109.343C205.344 110.028 205.525 110.701 205.866 111.295C206.208 111.888 206.7 112.382 207.291 112.726L240.451 131.879L228.711 138.676Z" fill="#3B55CA"/>
<path d="M205.56 113.758C204.968 113.413 204.477 112.92 204.135 112.326C203.793 111.733 203.613 111.06 203.612 110.375V110.158C203.61 109.469 203.428 108.793 203.082 108.197C202.737 107.601 202.24 107.107 201.643 106.765L176.379 92.3871L175.585 92.8409L200.88 107.229C201.48 107.569 201.979 108.063 202.327 108.659C202.674 109.255 202.858 109.932 202.859 110.622V110.839C202.859 111.523 203.039 112.195 203.381 112.787C203.723 113.379 204.215 113.87 204.807 114.211L237.967 133.375L238.76 132.911L205.56 113.758Z" fill="#FAFAFA"/>
<path d="M201.849 115.903C201.257 115.559 200.766 115.065 200.424 114.472C200.082 113.878 199.902 113.205 199.901 112.52V112.303C199.9 111.613 199.716 110.936 199.368 110.34C199.021 109.744 198.522 109.251 197.922 108.91L172.668 94.5325L171.865 94.9863L197.128 109.374C197.726 109.716 198.223 110.21 198.569 110.806C198.915 111.402 199.097 112.078 199.097 112.768V113.015C199.097 113.699 199.277 114.371 199.619 114.963C199.961 115.555 200.453 116.047 201.045 116.388L234.204 135.551L235.008 135.087L201.849 115.903Z" fill="#FAFAFA"/>
<path d="M198.128 118.048C197.536 117.704 197.045 117.21 196.703 116.617C196.361 116.023 196.181 115.35 196.18 114.665V114.449C196.179 113.76 195.996 113.084 195.651 112.488C195.305 111.892 194.808 111.398 194.211 111.055L168.927 96.6777L168.133 97.1419L193.387 111.52C193.988 111.858 194.488 112.351 194.836 112.948C195.184 113.544 195.367 114.222 195.366 114.913V115.129C195.367 115.814 195.547 116.487 195.889 117.081C196.231 117.674 196.722 118.168 197.314 118.512L230.473 137.665L231.267 137.201L198.128 118.048Z" fill="#FAFAFA"/>
<path d="M223.371 137.707C223.383 137.835 223.428 137.957 223.503 138.062C223.577 138.167 223.677 138.251 223.794 138.305L232.133 143.122C232.452 143.283 232.806 143.364 233.163 143.359V145.587C232.804 145.595 232.449 145.51 232.133 145.339L224.402 140.873C223.835 140.553 223.371 140.357 223.371 139.697V137.707Z" fill="#263238"/>
<path d="M234.194 143.111L248.212 135.015C248.339 134.974 248.449 134.894 248.526 134.786C248.604 134.679 248.646 134.549 248.646 134.417C248.646 134.284 248.604 134.154 248.526 134.047C248.449 133.939 248.339 133.859 248.212 133.818L239.874 129.012C239.555 128.847 239.202 128.761 238.843 128.761C238.484 128.761 238.131 128.847 237.812 129.012L223.784 137.119C223.661 137.162 223.555 137.243 223.48 137.349C223.405 137.455 223.365 137.582 223.365 137.712C223.365 137.842 223.405 137.969 223.48 138.075C223.555 138.181 223.661 138.261 223.784 138.305L232.122 143.111C232.443 143.276 232.798 143.362 233.158 143.362C233.519 143.362 233.874 143.276 234.194 143.111V143.111Z" fill="#455A64"/>
<path d="M248.635 134.448V136.407C248.635 137.067 248.181 137.263 247.604 137.583L234.204 145.339C233.888 145.51 233.533 145.595 233.174 145.587V143.359C233.532 143.371 233.887 143.289 234.204 143.122L248.223 135.015C248.333 134.962 248.428 134.882 248.5 134.783C248.572 134.684 248.618 134.569 248.635 134.448Z" fill="#37474F"/>
<path d="M245.069 134.179C245.112 134.251 245.137 134.333 245.141 134.417C245.133 134.523 245.097 134.625 245.037 134.714C244.978 134.803 244.896 134.874 244.801 134.922L233.864 141.224C233.642 141.34 233.394 141.401 233.143 141.401C232.892 141.401 232.644 141.34 232.421 141.224L227.185 138.212C227.09 138.164 227.008 138.093 226.949 138.004C226.889 137.916 226.853 137.813 226.845 137.707C226.852 137.601 226.887 137.5 226.947 137.412C227.007 137.325 227.089 137.256 227.185 137.212L238.111 130.899C238.335 130.788 238.582 130.73 238.833 130.73C239.083 130.73 239.33 130.788 239.554 130.899L244.78 133.921C244.9 133.976 245.001 134.066 245.069 134.179V134.179ZM227.206 137.81C227.252 137.874 227.312 137.926 227.381 137.965L232.617 140.987C232.797 141.073 232.995 141.118 233.194 141.118C233.394 141.118 233.592 141.073 233.772 140.987L244.656 134.674C244.715 134.663 244.767 134.631 244.805 134.585C244.842 134.539 244.863 134.481 244.863 134.422C244.863 134.362 244.842 134.305 244.805 134.259C244.767 134.212 244.715 134.181 244.656 134.169L239.43 131.147C239.25 131.055 239.05 131.008 238.848 131.008C238.646 131.008 238.446 131.055 238.266 131.147L227.35 137.459C227.216 137.531 227.144 137.624 227.144 137.707C227.15 137.729 227.161 137.75 227.175 137.769L227.206 137.81Z" fill="#F5F5F5"/>
<path d="M240.822 134.313C240.832 134.361 240.832 134.41 240.822 134.458C240.818 134.516 240.798 134.573 240.766 134.621C240.733 134.67 240.689 134.71 240.636 134.736L233.421 138.862C233.312 138.907 233.194 138.931 233.076 138.931C232.957 138.931 232.84 138.907 232.731 138.862L231.184 138.006C231.132 137.979 231.088 137.94 231.055 137.891C231.023 137.842 231.003 137.786 230.999 137.727C231.002 137.669 231.021 137.612 231.054 137.563C231.086 137.514 231.132 137.474 231.184 137.449L238.4 133.323C238.506 133.267 238.625 133.238 238.745 133.238C238.865 133.238 238.984 133.267 239.09 133.323L240.575 134.179C240.623 134.184 240.669 134.198 240.712 134.221C240.754 134.244 240.792 134.276 240.822 134.313ZM231.37 137.769L232.906 138.625C233.038 138.676 233.186 138.676 233.318 138.625L240.533 134.499L239.049 133.653C238.986 133.623 238.918 133.607 238.848 133.607C238.778 133.607 238.71 133.623 238.647 133.653V133.653L231.432 137.779L231.37 137.769Z" fill="#F5F5F5"/>
<path d="M225.794 68.5825L167.515 34.9177C167.278 34.8095 167.017 34.7658 166.758 34.7912C166.499 34.8166 166.252 34.91 166.041 35.0621L127.284 57.4537C126.682 57.849 126.181 58.381 125.823 59.0065C125.465 59.632 125.259 60.3333 125.223 61.0533V63.0129C125.195 63.2705 125.236 63.5308 125.343 63.7667C125.45 64.0026 125.619 64.2054 125.831 64.3537L184.388 98.1216C184.623 98.23 184.882 98.2738 185.14 98.2484C185.397 98.223 185.643 98.1294 185.852 97.9773L224.588 75.5856C225.188 75.1886 225.688 74.6561 226.046 74.031C226.404 73.4059 226.61 72.7055 226.649 71.9861V70.0264C226.649 69.2219 226.319 68.7165 225.794 68.5825Z" fill="#3B55CA"/>
<path opacity="0.3" d="M225.794 68.5825L167.515 34.9177C167.278 34.8095 167.017 34.7658 166.758 34.7912C166.499 34.8166 166.252 34.91 166.041 35.0621L127.284 57.4537C126.682 57.849 126.181 58.381 125.823 59.0065C125.465 59.632 125.259 60.3333 125.223 61.0533V63.0129C125.195 63.2705 125.236 63.5308 125.343 63.7667C125.45 64.0026 125.619 64.2054 125.831 64.3537L184.388 98.1216C184.623 98.23 184.882 98.2738 185.14 98.2484C185.397 98.223 185.643 98.1294 185.852 97.9773L224.588 75.5856C225.188 75.1886 225.688 74.6561 226.046 74.031C226.404 73.4059 226.61 72.7055 226.649 71.9861V70.0264C226.649 69.2219 226.319 68.7165 225.794 68.5825Z" fill="black"/>
<path opacity="0.15" d="M184.388 98.1424L125.872 64.3435C125.661 64.192 125.493 63.9872 125.386 63.7499C125.28 63.5126 125.237 63.2512 125.264 62.9924V61.0327C125.285 60.3626 125.469 59.7076 125.8 59.1246L184.316 92.9235C183.985 93.5104 183.802 94.1685 183.78 94.8419V96.8015C183.747 97.0595 183.787 97.3215 183.894 97.5582C184.002 97.795 184.173 97.9972 184.388 98.1424V98.1424Z" fill="black"/>
<path opacity="0.25" d="M183.759 96.7705V94.8212C183.797 94.1001 184.003 93.398 184.361 92.7711C184.719 92.1442 185.219 91.61 185.821 91.2113L224.577 68.83C225.721 68.1596 226.639 68.7062 226.639 70.0264V71.986C226.6 72.7055 226.394 73.4059 226.035 74.031C225.677 74.6561 225.178 75.1885 224.577 75.5856L185.821 97.9772C184.687 98.6373 183.759 98.101 183.759 96.7705Z" fill="black"/>
<path d="M189.377 91.1081V94.2023C189.366 94.4214 189.304 94.6348 189.195 94.8249C189.085 95.015 188.932 95.1764 188.748 95.2956L188.284 95.5638C188.027 95.7185 187.8 95.6566 187.717 95.4606C187.673 95.3785 187.652 95.2858 187.656 95.1924V92.0983C187.674 91.8895 187.74 91.6879 187.849 91.509C187.958 91.3301 188.107 91.1788 188.284 91.0669L188.748 90.7987C188.813 90.7614 188.882 90.7336 188.954 90.7162C189.202 90.6337 189.377 90.7987 189.377 91.1081Z" fill="#3B55CA"/>
<path opacity="0.3" d="M189.377 91.1081V94.2023C189.366 94.4214 189.304 94.6348 189.195 94.8249C189.085 95.015 188.932 95.1764 188.748 95.2956L188.284 95.5638C188.027 95.7185 187.8 95.6566 187.717 95.4606C187.673 95.3785 187.652 95.2858 187.656 95.1924V92.0983C187.674 91.8895 187.74 91.6879 187.849 91.509C187.958 91.3301 188.107 91.1788 188.284 91.0669L188.748 90.7987C188.813 90.7614 188.882 90.7336 188.954 90.7162C189.202 90.6337 189.377 90.7987 189.377 91.1081Z" fill="black"/>
<path d="M192.15 89.5095V92.6037C192.131 92.8112 192.066 93.0117 191.958 93.1903C191.851 93.3689 191.705 93.5209 191.531 93.6351L191.057 93.9033C190.799 94.058 190.573 94.0064 190.49 93.8001C190.447 93.7212 190.426 93.6322 190.428 93.5423V90.4481C190.45 90.2401 190.517 90.0396 190.626 89.8612C190.735 89.6827 190.882 89.5309 191.057 89.4167L191.531 89.1485C191.595 89.1124 191.665 89.088 191.737 89.0763C191.974 89.0351 192.15 89.2001 192.15 89.5095Z" fill="#3B55CA"/>
<path opacity="0.3" d="M192.15 89.5095V92.6037C192.131 92.8112 192.066 93.0117 191.958 93.1903C191.851 93.3689 191.705 93.5209 191.531 93.6351L191.057 93.9033C190.799 94.058 190.573 94.0064 190.49 93.8001C190.447 93.7212 190.426 93.6322 190.428 93.5423V90.4481C190.45 90.2401 190.517 90.0396 190.626 89.8612C190.735 89.6827 190.882 89.5309 191.057 89.4167L191.531 89.1485C191.595 89.1124 191.665 89.088 191.737 89.0763C191.974 89.0351 192.15 89.2001 192.15 89.5095Z" fill="black"/>
<path d="M194.933 87.9006V90.9948C194.921 91.2137 194.858 91.4268 194.749 91.6167C194.64 91.8067 194.487 91.9682 194.304 92.0881L193.83 92.3562C193.572 92.5109 193.356 92.449 193.263 92.2428C193.227 92.1617 193.209 92.0736 193.211 91.9849V88.8907C193.229 88.6831 193.294 88.4823 193.402 88.3036C193.509 88.1249 193.655 87.973 193.83 87.8594L194.304 87.5912C194.365 87.5481 194.436 87.5198 194.51 87.5087C194.757 87.4262 194.933 87.5912 194.933 87.9006Z" fill="#3B55CA"/>
<path opacity="0.3" d="M194.933 87.9006V90.9948C194.921 91.2137 194.858 91.4268 194.749 91.6167C194.64 91.8067 194.487 91.9682 194.304 92.0881L193.83 92.3562C193.572 92.5109 193.356 92.449 193.263 92.2428C193.227 92.1617 193.209 92.0736 193.211 91.9849V88.8907C193.229 88.6831 193.294 88.4823 193.402 88.3036C193.509 88.1249 193.655 87.973 193.83 87.8594L194.304 87.5912C194.365 87.5481 194.436 87.5198 194.51 87.5087C194.757 87.4262 194.933 87.5912 194.933 87.9006Z" fill="black"/>
<path d="M197.716 86.2915V89.3857C197.7 89.6023 197.636 89.8124 197.527 90.0001C197.418 90.1878 197.267 90.3481 197.087 90.4687L196.613 90.7368C196.355 90.8916 196.139 90.8297 196.056 90.6337C196.013 90.5548 195.992 90.4658 195.994 90.3759V87.2817C196.014 87.0744 196.08 86.8742 196.187 86.6957C196.294 86.5172 196.439 86.365 196.613 86.2503L197.087 85.9821C197.149 85.943 197.22 85.9183 197.293 85.9099C197.54 85.8171 197.716 85.9924 197.716 86.2915Z" fill="#3B55CA"/>
<path opacity="0.3" d="M197.716 86.2915V89.3857C197.7 89.6023 197.636 89.8124 197.527 90.0001C197.418 90.1878 197.267 90.3481 197.087 90.4687L196.613 90.7368C196.355 90.8916 196.139 90.8297 196.056 90.6337C196.013 90.5548 195.992 90.4658 195.994 90.3759V87.2817C196.014 87.0744 196.08 86.8742 196.187 86.6957C196.294 86.5172 196.439 86.365 196.613 86.2503L197.087 85.9821C197.149 85.943 197.22 85.9183 197.293 85.9099C197.54 85.8171 197.716 85.9924 197.716 86.2915Z" fill="black"/>
<path d="M189.016 90.9329V94.0271C189.004 94.2444 188.941 94.4557 188.831 94.6439C188.722 94.8321 188.57 94.9918 188.387 95.1101L187.913 95.3782C187.852 95.4151 187.786 95.4429 187.717 95.4607C187.673 95.3786 187.652 95.2859 187.656 95.1926V92.0984C187.674 91.8896 187.74 91.688 187.849 91.5091C187.958 91.3302 188.107 91.1789 188.284 91.067L188.748 90.7988C188.813 90.7615 188.882 90.7337 188.954 90.7163C188.991 90.7829 189.012 90.857 189.016 90.9329Z" fill="#3B55CA"/>
<path d="M191.799 89.2929V92.3871C191.788 92.6035 191.727 92.8142 191.619 93.0024C191.512 93.1905 191.362 93.3507 191.181 93.4701L190.717 93.7485C190.648 93.7805 190.575 93.8047 190.501 93.8207C190.457 93.7418 190.436 93.6528 190.439 93.5629V90.4687C190.46 90.2608 190.528 90.0602 190.636 89.8818C190.745 89.7033 190.892 89.5515 191.067 89.4373L191.542 89.1691C191.606 89.133 191.675 89.1086 191.748 89.0969C191.779 89.1576 191.797 89.2246 191.799 89.2929V89.2929Z" fill="#3B55CA"/>
<path d="M194.572 87.7149V90.8091C194.56 91.0264 194.496 91.2377 194.387 91.4259C194.278 91.6141 194.126 91.7738 193.943 91.8921L193.479 92.1602C193.414 92.2012 193.34 92.2259 193.263 92.2324C193.227 92.1514 193.209 92.0633 193.211 91.9746V88.8804C193.229 88.6727 193.294 88.4719 193.402 88.2932C193.509 88.1145 193.655 87.9626 193.83 87.849L194.304 87.5808C194.365 87.5377 194.436 87.5095 194.51 87.4983C194.547 87.5648 194.568 87.6389 194.572 87.7149V87.7149Z" fill="#3B55CA"/>
<path d="M197.345 86.1163V89.2104C197.334 89.4268 197.272 89.6376 197.164 89.8257C197.057 90.0138 196.907 90.174 196.726 90.2934L196.252 90.5616C196.191 90.5985 196.125 90.6262 196.056 90.6441C196.013 90.5652 195.992 90.4762 195.994 90.3862V87.292C196.014 87.0848 196.08 86.8846 196.187 86.7061C196.294 86.5276 196.439 86.3754 196.613 86.2606L197.087 85.9925C197.149 85.9534 197.22 85.9287 197.293 85.9203C197.322 85.9819 197.34 86.0483 197.345 86.1163V86.1163Z" fill="#3B55CA"/>
<path d="M129.604 93.0472C129.583 92.7887 129.493 92.5407 129.342 92.3299C129.191 92.119 128.986 91.9533 128.748 91.8508L122.543 88.1997C121.904 87.8761 121.198 87.7075 120.481 87.7075C119.765 87.7075 119.059 87.8761 118.42 88.1997L111.648 92.088C111.413 92.1928 111.209 92.3574 111.057 92.5656C110.905 92.7737 110.81 93.018 110.782 93.2741C110.782 93.7176 110.782 95.7185 110.782 96.1517C110.807 96.4101 110.899 96.6575 111.049 96.8693C111.199 97.081 111.402 97.2497 111.638 97.3585L117.884 101.01C118.522 101.335 119.229 101.504 119.945 101.504C120.662 101.504 121.368 101.335 122.007 101.01L128.8 97.1109C129.039 97.0049 129.245 96.8356 129.396 96.6212C129.547 96.4068 129.636 96.1553 129.655 95.8939L129.604 93.0472Z" fill="#37474F"/>
<path d="M117.801 98.1526L111.555 94.4499C111.304 94.3648 111.086 94.2032 110.931 93.9877C110.777 93.7721 110.694 93.5136 110.694 93.2484C110.694 92.9831 110.777 92.7246 110.931 92.5091C111.086 92.2935 111.304 92.1318 111.555 92.0468L118.327 88.1584C118.966 87.8348 119.672 87.6663 120.389 87.6663C121.105 87.6663 121.811 87.8348 122.45 88.1584L128.697 91.8096C128.948 91.8946 129.166 92.0563 129.32 92.2718C129.475 92.4873 129.558 92.7459 129.558 93.0111C129.558 93.2763 129.475 93.5349 129.32 93.7504C129.166 93.966 128.948 94.1276 128.697 94.2127L121.904 98.1114C121.27 98.4349 120.569 98.607 119.858 98.6141C119.146 98.6213 118.442 98.4633 117.801 98.1526V98.1526Z" fill="#455A64"/>
<path d="M119.884 98.6581V101.505C119.166 101.515 118.457 101.345 117.822 101.01L111.576 97.3585C111.339 97.2515 111.135 97.0833 110.984 96.8712C110.834 96.6591 110.743 96.4108 110.72 96.1517V93.2845C110.715 93.233 110.715 93.1812 110.72 93.1298C110.704 93.4162 110.776 93.7007 110.927 93.9444C111.079 94.1881 111.301 94.379 111.565 94.4912L117.812 98.1527C118.447 98.4973 119.161 98.6714 119.884 98.6581V98.6581Z" fill="#263238"/>
<path d="M125.779 90.4584H123.45C121.364 89.6543 119.053 89.6543 116.967 90.4584H114.647V93.0576C114.693 93.5476 114.868 94.0167 115.154 94.4171C115.44 94.8175 115.827 95.1349 116.276 95.3369C117.497 95.9527 118.846 96.2734 120.213 96.2734C121.581 96.2734 122.93 95.9527 124.151 95.3369C124.599 95.1349 124.986 94.8175 125.273 94.4171C125.559 94.0167 125.734 93.5476 125.779 93.0576V93.0576V90.4584Z" fill="#3B55CA"/>
<path opacity="0.3" d="M125.779 90.4584H123.45C121.364 89.6543 119.053 89.6543 116.967 90.4584H114.647V93.0576C114.693 93.5476 114.868 94.0167 115.154 94.4171C115.44 94.8175 115.827 95.1349 116.276 95.3369C117.497 95.9527 118.846 96.2734 120.213 96.2734C121.581 96.2734 122.93 95.9527 124.151 95.3369C124.599 95.1349 124.986 94.8175 125.273 94.4171C125.559 94.0167 125.734 93.5476 125.779 93.0576V93.0576V90.4584Z" fill="black"/>
<path d="M116.276 92.7377C117.497 93.3535 118.846 93.6742 120.213 93.6742C121.581 93.6742 122.93 93.3535 124.151 92.7377C126.315 91.4794 126.315 89.4476 124.151 88.1893C122.933 87.5689 121.585 87.2455 120.219 87.2455C118.852 87.2455 117.504 87.5689 116.286 88.1893C114.101 89.4476 114.111 91.4794 116.276 92.7377Z" fill="#3B55CA"/>
<path d="M124.275 90.8401C124.275 90.8916 124.275 90.9535 124.202 91.0154C123.962 91.4332 123.603 91.7705 123.172 91.9849C122.254 92.3976 121.26 92.611 120.255 92.611C119.249 92.611 118.255 92.3976 117.338 91.9849C116.904 91.7737 116.544 91.4356 116.307 91.0154C116.307 90.9535 116.255 90.8916 116.235 90.8401C116.008 90.1697 116.389 89.458 117.379 88.9423C118.295 88.5244 119.289 88.3081 120.296 88.3081C121.302 88.3081 122.297 88.5244 123.213 88.9423C124.12 89.458 124.501 90.1697 124.275 90.8401Z" fill="#37474F"/>
<path d="M124.202 91.0153C123.962 91.4331 123.603 91.7705 123.172 91.9848C122.255 92.3976 121.26 92.6109 120.255 92.6109C119.249 92.6109 118.255 92.3976 117.338 91.9848C116.904 91.7736 116.544 91.4355 116.307 91.0153C116.542 90.5931 116.902 90.2543 117.338 90.0458C118.253 89.6279 119.248 89.4116 120.255 89.4116C121.261 89.4116 122.256 89.6279 123.172 90.0458C123.606 90.257 123.965 90.5951 124.202 91.0153V91.0153Z" fill="#455A64"/>
<path opacity="0.1" d="M124.202 91.0154C123.962 91.4332 123.603 91.7705 123.172 91.9849C122.255 92.3976 121.26 92.611 120.255 92.611C119.249 92.611 118.255 92.3976 117.338 91.9849C116.904 91.7737 116.544 91.4356 116.307 91.0154C116.307 89.8087 118.09 88.8495 120.286 88.8495C122.481 88.8495 124.202 89.8087 124.202 91.0154Z" fill="white"/>
<path opacity="0.3" d="M117.698 91.5517C118.012 91.7798 118.36 91.9573 118.729 92.0777C119.139 92.2288 119.571 92.309 120.007 92.3149C120.24 92.318 120.472 92.2903 120.698 92.2324C120.915 92.1883 121.107 92.0628 121.234 91.8817C121.276 91.7854 121.286 91.678 121.262 91.5757C121.237 91.4733 121.181 91.3817 121.1 91.3144C120.946 91.1917 120.75 91.1327 120.554 91.1494C120.358 91.1494 120.172 91.1494 119.976 91.1494C119.36 91.1771 118.747 91.0494 118.193 90.7781C117.912 90.6525 117.642 90.5006 117.389 90.3243C117.039 90.0871 117.039 90.5615 117.111 90.7987C117.231 91.1004 117.435 91.3615 117.698 91.5517Z" fill="white"/>
<path opacity="0.3" d="M121.79 91.1804C121.69 91.2522 121.62 91.3588 121.595 91.4795C121.592 91.5622 121.612 91.644 121.654 91.7153C121.696 91.7866 121.758 91.8443 121.832 91.8817C121.989 91.9337 122.159 91.9337 122.316 91.8817C122.427 91.8585 122.532 91.8129 122.625 91.7476C122.67 91.7147 122.708 91.6731 122.736 91.6253C122.765 91.5774 122.783 91.5243 122.79 91.4692C122.791 91.3678 122.758 91.2691 122.697 91.1888C122.635 91.1084 122.548 91.051 122.45 91.0256C122.336 91.0011 122.217 91.0023 122.103 91.029C121.989 91.0558 121.882 91.1074 121.79 91.1804V91.1804Z" fill="white"/>
<path d="M117.987 83.4758C117.961 83.2164 117.868 82.9682 117.716 82.7564C117.564 82.5445 117.359 82.3765 117.121 82.2691L108.69 77.4009C108.05 77.0805 107.344 76.9137 106.628 76.9137C105.912 76.9137 105.207 77.0805 104.567 77.4009L93.1252 84.0019C92.8912 84.1072 92.689 84.2722 92.5388 84.4804C92.3887 84.6886 92.2959 84.9326 92.2697 85.188C92.2697 85.6315 92.2697 87.6324 92.2697 88.0656C92.2954 88.3251 92.389 88.5732 92.541 88.785C92.693 88.9969 92.898 89.1649 93.1355 89.2723L101.567 94.1508C102.207 94.4712 102.913 94.638 103.629 94.638C104.344 94.638 105.05 94.4712 105.69 94.1508L117.131 87.5396C117.372 87.4331 117.579 87.2639 117.731 87.0498C117.883 86.8357 117.975 86.5844 117.997 86.3225C117.977 85.8893 117.987 83.909 117.987 83.4758Z" fill="#37474F"/>
<path d="M101.526 91.2835L93.0943 86.405C92.8432 86.3199 92.6252 86.1583 92.4707 85.9427C92.3162 85.7272 92.2332 85.4687 92.2332 85.2034C92.2332 84.9382 92.3162 84.6797 92.4707 84.4641C92.6252 84.2486 92.8432 84.0869 93.0943 84.0019L104.536 77.4009C105.176 77.0805 105.882 76.9137 106.597 76.9137C107.313 76.9137 108.019 77.0805 108.659 77.4009L117.09 82.2691C117.341 82.3542 117.559 82.5159 117.714 82.7314C117.868 82.9469 117.951 83.2055 117.951 83.4707C117.951 83.7359 117.868 83.9945 117.714 84.21C117.559 84.4255 117.341 84.5872 117.09 84.6723L105.649 91.2938C105.009 91.615 104.302 91.7814 103.586 91.7796C102.87 91.7778 102.164 91.6079 101.526 91.2835Z" fill="#455A64"/>
<path d="M103.608 91.789V94.6459C102.889 94.6575 102.179 94.4835 101.547 94.1406L93.0943 89.293C92.8569 89.1856 92.6518 89.0176 92.4998 88.8057C92.3478 88.5939 92.2542 88.3458 92.2285 88.0863V85.1674C92.2235 85.116 92.2235 85.0641 92.2285 85.0127C92.2105 85.2994 92.2823 85.5845 92.4337 85.8285C92.5852 86.0725 92.8089 86.2632 93.0737 86.3741L101.505 91.2526C102.147 91.6133 102.872 91.7983 103.608 91.789V91.789Z" fill="#263238"/>
<path d="M112.06 84.0637V81.5368H110.514C110.32 81.3932 110.117 81.2623 109.906 81.1449C108.3 80.3262 106.523 79.8994 104.721 79.8994C102.919 79.8994 101.142 80.3262 99.5365 81.1449C99.3304 81.2647 99.1308 81.3955 98.9387 81.5368H97.3926V84.0637C97.432 84.7266 97.6528 85.3659 98.0309 85.9116C98.4091 86.4574 98.9299 86.8885 99.5365 87.1579C101.144 87.9718 102.92 88.3958 104.721 88.3958C106.523 88.3958 108.299 87.9718 109.906 87.1579C110.514 86.89 111.037 86.4595 111.417 85.9136C111.798 85.3678 112.02 84.7277 112.06 84.0637V84.0637Z" fill="#3B55CA"/>
<path opacity="0.3" d="M112.06 84.0637V81.5368H110.514C110.32 81.3932 110.117 81.2623 109.906 81.1449C108.3 80.3262 106.523 79.8994 104.721 79.8994C102.919 79.8994 101.142 80.3262 99.5365 81.1449C99.3304 81.2647 99.1308 81.3955 98.9387 81.5368H97.3926V84.0637C97.432 84.7266 97.6528 85.3659 98.0309 85.9116C98.4091 86.4574 98.9299 86.8885 99.5365 87.1579C101.144 87.9718 102.92 88.3958 104.721 88.3958C106.523 88.3958 108.299 87.9718 109.906 87.1579C110.514 86.89 111.037 86.4595 111.417 85.9136C111.798 85.3678 112.02 84.7277 112.06 84.0637V84.0637Z" fill="black"/>
<path d="M99.5468 84.5382C101.154 85.352 102.93 85.7761 104.732 85.7761C106.533 85.7761 108.309 85.352 109.916 84.5382C112.782 82.8776 112.782 80.196 109.916 78.5457C108.31 77.7271 106.534 77.3003 104.732 77.3003C102.929 77.3003 101.153 77.7271 99.5468 78.5457C96.6813 80.196 96.6813 82.8776 99.5468 84.5382Z" fill="#3B55CA"/>
<path d="M110.576 81.9081C110.566 81.9699 110.545 82.0293 110.514 82.0834C110.204 82.8143 109.624 83.3978 108.896 83.7131C107.587 84.3042 106.167 84.6099 104.732 84.6099C103.296 84.6099 101.876 84.3042 100.567 83.7131C99.833 83.3975 99.2494 82.8098 98.9387 82.0731C98.9328 82.0148 98.9328 81.9561 98.9387 81.8978C98.7119 80.9902 99.2788 80.0516 100.609 79.3606C101.918 78.764 103.339 78.4553 104.778 78.4553C106.216 78.4553 107.638 78.764 108.947 79.3606C110.225 80.0619 110.782 81.0417 110.576 81.9081Z" fill="#37474F"/>
<path d="M110.576 81.9081C110.566 81.9699 110.545 82.0293 110.514 82.0834C110.204 82.8143 109.624 83.3978 108.896 83.7131C107.587 84.3042 106.167 84.6099 104.732 84.6099C103.296 84.6099 101.876 84.3042 100.567 83.7131C99.833 83.3975 99.2494 82.8098 98.9387 82.0731C98.9328 82.0148 98.9328 81.9561 98.9387 81.8978C98.7119 80.9902 99.2788 80.0516 100.609 79.3606C101.918 78.764 103.339 78.4553 104.778 78.4553C106.216 78.4553 107.638 78.764 108.947 79.3606C110.225 80.0619 110.782 81.0417 110.576 81.9081Z" fill="#37474F"/>
<path d="M110.514 82.0731C110.204 82.804 109.624 83.3874 108.896 83.7027C107.587 84.2938 106.167 84.5995 104.732 84.5995C103.296 84.5995 101.876 84.2938 100.567 83.7027C99.835 83.3896 99.2516 82.8059 98.9387 82.0731C99.2513 81.3461 99.8305 80.7666 100.557 80.4538C101.866 79.8573 103.288 79.5486 104.726 79.5486C106.165 79.5486 107.587 79.8573 108.896 80.4538C109.622 80.7666 110.201 81.3461 110.514 82.0731V82.0731Z" fill="#455A64"/>
<path opacity="0.1" d="M110.514 82.0732C110.204 82.8041 109.624 83.3875 108.896 83.7028C107.587 84.2939 106.167 84.5996 104.732 84.5996C103.296 84.5996 101.876 84.2939 100.567 83.7028C99.835 83.3897 99.2516 82.806 98.9387 82.0732C98.9387 80.3404 101.536 78.979 104.721 78.979C107.906 78.979 110.514 80.3508 110.514 82.0732Z" fill="white"/>
<path opacity="0.3" d="M101.083 82.8673C101.523 83.2014 102.013 83.4626 102.536 83.6409C103.13 83.8486 103.752 83.96 104.381 83.9709C104.729 83.9781 105.076 83.9364 105.412 83.8471C105.568 83.8179 105.716 83.7581 105.849 83.6714C105.981 83.5847 106.096 83.4727 106.185 83.3418C106.243 83.2019 106.256 83.0475 106.223 82.8997C106.19 82.7519 106.112 82.6181 105.999 82.5166C105.771 82.3475 105.489 82.2669 105.206 82.2898C104.928 82.2743 104.649 82.2743 104.371 82.2898C103.473 82.3223 102.582 82.1346 101.773 81.7431C101.382 81.5305 101.01 81.2856 100.66 81.0108C100.165 80.6602 100.165 81.3512 100.268 81.6915C100.418 82.1554 100.701 82.5646 101.083 82.8673V82.8673Z" fill="white"/>
<path opacity="0.3" d="M107.02 82.3311C106.872 82.433 106.768 82.5881 106.731 82.7642C106.725 82.8846 106.755 83.0042 106.817 83.1073C106.88 83.2103 106.972 83.2921 107.082 83.3418C107.301 83.4441 107.549 83.466 107.783 83.4037C107.941 83.3725 108.092 83.3093 108.226 83.2181C108.29 83.1699 108.344 83.1096 108.384 83.0406C108.425 82.9716 108.452 82.8952 108.463 82.8158C108.468 82.6686 108.422 82.5241 108.334 82.406C108.246 82.288 108.121 82.2034 107.978 82.166C107.816 82.1206 107.646 82.1119 107.481 82.1404C107.315 82.169 107.157 82.2341 107.02 82.3311Z" fill="white"/>
<path d="M130.707 65.3645L108.03 52.2864C106.097 51.3052 103.961 50.7938 101.794 50.7938C99.6268 50.7938 97.4903 51.3052 95.5578 52.2864L92.4656 54.0913C90.7545 55.1227 89.899 56.3707 89.8887 57.6703C89.8887 58.0622 89.8887 59.5578 89.8887 59.9291C89.8887 61.2492 90.7339 62.5591 92.4656 63.5596L115.142 76.6274C117.075 77.6086 119.211 78.1199 121.378 78.1199C123.545 78.1199 125.682 77.6086 127.614 76.6274L130.707 74.8224C132.428 73.791 133.283 72.5224 133.283 71.2125V68.9435C133.273 67.6336 132.418 66.3547 130.707 65.3645ZM109.916 62.3941C108.31 63.2128 106.534 63.6395 104.732 63.6395C102.929 63.6395 101.153 63.2128 99.5468 62.3941C98.7469 61.9764 98.0927 61.3254 97.6709 60.5273C98.0884 59.7295 98.7393 59.0782 99.5365 58.6604C101.144 57.8466 102.92 57.4225 104.721 57.4225C106.523 57.4225 108.299 57.8466 109.906 58.6604C110.71 59.0754 111.369 59.7269 111.792 60.5273C111.373 61.3273 110.718 61.9791 109.916 62.3941ZM116.276 68.304C117.494 67.6836 118.841 67.3602 120.208 67.3602C121.575 67.3602 122.923 67.6836 124.141 68.304C124.648 68.5802 125.082 68.9725 125.408 69.4488C125.089 69.9277 124.657 70.3208 124.151 70.5937C122.931 71.2142 121.582 71.5376 120.213 71.5376C118.845 71.5376 117.496 71.2142 116.276 70.5937C115.772 70.3178 115.34 69.9253 115.018 69.4488C115.343 68.975 115.774 68.5831 116.276 68.304V68.304Z" fill="#3B55CA"/>
<path opacity="0.3" d="M130.707 72.574L127.614 74.3789C125.682 75.3601 123.545 75.8715 121.378 75.8715C119.211 75.8715 117.075 75.3601 115.142 74.3789L92.4656 61.3008C91.7951 60.9924 91.2099 60.525 90.7609 59.9391C90.3118 59.3531 90.0124 58.6664 89.8887 57.9385V59.9394C89.8887 61.2389 90.7339 62.5488 92.4656 63.5493L115.142 76.6274C117.075 77.6086 119.211 78.1199 121.378 78.1199C123.545 78.1199 125.682 77.6086 127.614 76.6274L130.707 74.8224C132.428 73.791 133.283 72.5224 133.283 71.2228V68.9744C133.283 70.2636 132.428 71.5735 130.707 72.574Z" fill="black"/>
<path opacity="0.3" d="M116.276 68.3039C117.494 67.6835 118.841 67.3601 120.208 67.3601C121.575 67.3601 122.922 67.6835 124.141 68.3039C124.647 68.5802 125.082 68.9725 125.408 69.4488C126.151 68.3039 125.738 66.9735 124.141 66.0452C122.921 65.4296 121.574 65.1089 120.208 65.1089C118.842 65.1089 117.495 65.4296 116.276 66.0452C114.689 66.9735 114.276 68.304 115.018 69.4385C115.344 68.9679 115.775 68.5795 116.276 68.3039V68.3039Z" fill="black"/>
<path opacity="0.3" d="M99.5469 58.6604C101.152 57.8467 102.927 57.4226 104.726 57.4226C106.526 57.4226 108.3 57.8467 109.906 58.6604C110.712 59.0786 111.37 59.7337 111.792 60.5376C112.483 59.1142 111.844 57.5259 109.906 56.412C108.302 55.5934 106.527 55.1666 104.726 55.1666C102.926 55.1666 101.151 55.5934 99.5469 56.412C97.6194 57.5259 96.9906 59.1142 97.6606 60.5376C98.0824 59.7333 98.7408 59.0781 99.5469 58.6604V58.6604Z" fill="black"/>
<path d="M130.707 65.3645L108.03 52.2864C106.097 51.3052 103.961 50.7938 101.794 50.7938C99.6268 50.7938 97.4903 51.3052 95.5578 52.2864L92.4656 54.0913C89.0229 56.0819 89.0229 59.3102 92.4656 61.3111L115.142 74.3892C117.075 75.3705 119.211 75.8818 121.378 75.8818C123.545 75.8818 125.682 75.3705 127.614 74.3892L130.707 72.5843C134.149 70.5834 134.149 67.3551 130.707 65.3645ZM109.916 62.3941C108.31 63.2128 106.534 63.6395 104.732 63.6395C102.929 63.6395 101.153 63.2128 99.5469 62.3941C96.6814 60.7439 96.6814 58.0622 99.5469 56.4017C101.154 55.5878 102.93 55.1638 104.732 55.1638C106.533 55.1638 108.309 55.5878 109.916 56.4017C112.782 58.0622 112.782 60.7439 109.916 62.3941V62.3941ZM124.151 70.6453C122.931 71.2658 121.582 71.5892 120.213 71.5892C118.845 71.5892 117.496 71.2658 116.276 70.6453C114.111 69.3973 114.101 67.3551 116.276 66.1071C117.494 65.4867 118.842 65.1633 120.208 65.1633C121.575 65.1633 122.923 65.4867 124.141 66.1071C126.316 67.3035 126.316 69.3457 124.151 70.5937V70.6453Z" fill="#3B55CA"/>
<path d="M130.707 65.3645L108.03 52.2864C106.097 51.3052 103.961 50.7938 101.794 50.7938C99.6268 50.7938 97.4903 51.3052 95.5578 52.2864L92.4656 54.0913C89.0229 56.0819 89.0229 59.3102 92.4656 61.3111L115.142 74.3892C117.075 75.3705 119.211 75.8818 121.378 75.8818C123.545 75.8818 125.682 75.3705 127.614 74.3892L130.707 72.5843C134.149 70.5834 134.149 67.3551 130.707 65.3645ZM109.916 62.3941C108.31 63.2128 106.534 63.6395 104.732 63.6395C102.929 63.6395 101.153 63.2128 99.5469 62.3941C96.6814 60.7439 96.6814 58.0622 99.5469 56.4017C101.154 55.5878 102.93 55.1638 104.732 55.1638C106.533 55.1638 108.309 55.5878 109.916 56.4017C112.782 58.0622 112.782 60.7439 109.916 62.3941V62.3941ZM124.151 70.6453C122.931 71.2658 121.582 71.5892 120.213 71.5892C118.845 71.5892 117.496 71.2658 116.276 70.6453C114.111 69.3973 114.101 67.3551 116.276 66.1071C117.494 65.4867 118.842 65.1633 120.208 65.1633C121.575 65.1633 122.923 65.4867 124.141 66.1071C126.316 67.3035 126.316 69.3457 124.151 70.5937V70.6453Z" fill="#3B55CA"/>
<path d="M60.038 20.5195L26.0231 0.84042C25.7884 0.732048 25.529 0.688301 25.2717 0.713683C25.0144 0.739065 24.7686 0.832657 24.5595 0.984815L2.17151 13.867C1.56899 14.2622 1.06824 14.7943 0.710011 15.4197C0.351787 16.0452 0.146209 16.7465 0.110002 17.4665V19.4262C0.0818426 19.6837 0.123441 19.9441 0.23044 20.18C0.337438 20.4159 0.505896 20.6186 0.718147 20.767L34.9289 40.5904C35.1654 40.6986 35.4264 40.7423 35.6853 40.7169C35.9442 40.6916 36.1917 40.5981 36.4028 40.446L58.8011 27.5226C59.4036 27.1274 59.9044 26.5953 60.2626 25.9698C60.6208 25.3444 60.8264 24.6431 60.8626 23.9231V21.9634C60.9142 21.1589 60.5637 20.6432 60.038 20.5195Z" fill="#3B55CA"/>
<path opacity="0.5" d="M60.038 20.5195L26.0231 0.84042C25.7884 0.732048 25.529 0.688301 25.2717 0.713683C25.0144 0.739065 24.7686 0.832657 24.5595 0.984815L2.17151 13.867C1.56899 14.2622 1.06824 14.7943 0.710011 15.4197C0.351787 16.0452 0.146209 16.7465 0.110002 17.4665V19.4262C0.0818426 19.6837 0.123441 19.9441 0.23044 20.18C0.337438 20.4159 0.505896 20.6186 0.718147 20.767L34.9289 40.5904C35.1654 40.6986 35.4264 40.7423 35.6853 40.7169C35.9442 40.6916 36.1917 40.5981 36.4028 40.446L58.8011 27.5226C59.4036 27.1274 59.9044 26.5953 60.2626 25.9698C60.6208 25.3444 60.8264 24.6431 60.8626 23.9231V21.9634C60.9142 21.1589 60.5637 20.6432 60.038 20.5195Z" fill="black"/>
<path d="M34.197 30.2868L45.0714 24.0056C45.2007 23.9395 45.3438 23.905 45.4889 23.905C45.6341 23.905 45.7771 23.9395 45.9064 24.0056L46.4321 24.315C46.6691 24.4491 46.6691 24.6657 46.4321 24.7998L35.5679 31.081C35.4387 31.147 35.2956 31.1815 35.1504 31.1815C35.0053 31.1815 34.8622 31.147 34.733 31.081L34.197 30.7715C34.1473 30.7535 34.1043 30.7205 34.0739 30.6772C34.0435 30.6338 34.0272 30.5821 34.0272 30.5292C34.0272 30.4762 34.0435 30.4245 34.0739 30.3812C34.1043 30.3378 34.1473 30.3048 34.197 30.2868Z" fill="#FAFAFA"/>
<path d="M31.5996 28.6366L39.4127 24.1087C39.5419 24.0426 39.685 24.0082 39.8301 24.0082C39.9753 24.0082 40.1183 24.0426 40.2476 24.1087L40.7836 24.4181C40.8333 24.4362 40.8763 24.4692 40.9067 24.5125C40.9371 24.5559 40.9533 24.6076 40.9533 24.6605C40.9533 24.7135 40.9371 24.7651 40.9067 24.8085C40.8763 24.8519 40.8333 24.8848 40.7836 24.9029L32.9602 29.472C32.8327 29.538 32.6913 29.5725 32.5479 29.5725C32.4044 29.5725 32.263 29.538 32.1356 29.472L31.5996 29.1626C31.3625 28.9872 31.3625 28.7706 31.5996 28.6366Z" fill="#FAFAFA"/>
<path opacity="0.15" d="M35.001 40.6111L0.697548 20.7773C0.48761 20.6244 0.321116 20.4194 0.214477 20.1824C0.107837 19.9455 0.064731 19.6849 0.0894032 19.4262V17.4666C0.113692 16.7969 0.297453 16.1427 0.625396 15.5585L34.9289 35.3819C34.5979 35.9649 34.4139 36.6198 34.3929 37.29V39.2496C34.3561 39.5108 34.3936 39.7771 34.5012 40.0179C34.6087 40.2587 34.782 40.4643 35.001 40.6111V40.6111Z" fill="black"/>
<path opacity="0.25" d="M34.3517 39.2495V37.2899C34.3895 36.5688 34.5957 35.8667 34.9537 35.2398C35.3118 34.6129 35.8116 34.0787 36.4132 33.68L58.8218 20.7669C59.9762 20.0965 60.8833 20.6328 60.8833 21.9633V23.923C60.8471 24.643 60.6415 25.3443 60.2833 25.9698C59.925 26.5952 59.4243 27.1273 58.8218 27.5225L36.4338 40.4459C35.2794 41.106 34.3517 40.5697 34.3517 39.2495Z" fill="black"/>
<path d="M57.4818 47.0573C56.8918 46.7116 56.4025 46.2175 56.0626 45.624C55.7226 45.0305 55.5438 44.3583 55.544 43.6743V43.4577C55.5428 42.7688 55.3601 42.0925 55.0145 41.4968C54.6689 40.901 54.1724 40.407 53.5752 40.0644L42.1442 33.5975V34.6289L53.0908 40.8792C53.5413 41.1371 53.9158 41.5094 54.1765 41.9585C54.4371 42.4077 54.5746 42.9177 54.5751 43.437V43.6536C54.5754 44.5071 54.8004 45.3453 55.2275 46.0841C55.6545 46.8228 56.2685 47.4359 57.0076 47.8617L65.6557 52.9053V51.7914L57.4818 47.0573Z" fill="#3B55CA"/>
<path opacity="0.3" d="M57.4818 47.0573C56.8918 46.7116 56.4025 46.2175 56.0626 45.624C55.7226 45.0305 55.5438 44.3583 55.544 43.6743V43.4577C55.5428 42.7688 55.3601 42.0925 55.0145 41.4968C54.6689 40.901 54.1724 40.407 53.5752 40.0644L42.1442 33.5975V34.6289L53.0908 40.8792C53.5413 41.1371 53.9158 41.5094 54.1765 41.9585C54.4371 42.4077 54.5746 42.9177 54.5751 43.437V43.6536C54.5754 44.5071 54.8004 45.3453 55.2275 46.0841C55.6545 46.8228 56.2685 47.4359 57.0076 47.8617L65.6557 52.9053V51.7914L57.4818 47.0573Z" fill="black"/>
<path d="M65.6557 51.812L57.4818 47.0572C56.8918 46.7116 56.4025 46.2175 56.0626 45.624C55.7226 45.0305 55.5438 44.3583 55.544 43.6743V43.4577C55.5428 42.7688 55.3601 42.0925 55.0145 41.4967C54.6689 40.901 54.1724 40.407 53.5752 40.0644L42.1442 33.5975L53.8535 26.8315L65.2846 33.5872C65.8797 33.9261 66.3744 34.4168 66.7184 35.0092C67.0624 35.6016 67.2434 36.2747 67.243 36.9599V36.9599C67.2408 37.6455 67.4198 38.3196 67.762 38.9138C68.1041 39.5079 68.5972 40.0009 69.1911 40.3428L77.3547 45.0976L65.6557 51.812Z" fill="#3B55CA"/>
<path d="M67.4595 41.2917C66.8655 40.9498 66.3724 40.4567 66.0303 39.8626C65.6882 39.2685 65.5091 38.5944 65.5113 37.9087V37.7231C65.5123 37.0326 65.3295 36.3543 64.9816 35.7579C64.6338 35.1615 64.1336 34.6686 63.5323 34.3298L52.1219 27.801L51.3179 28.2652L62.7592 34.763C63.3565 35.1056 63.8529 35.5996 64.1985 36.1953C64.5442 36.7911 64.7268 37.4674 64.728 38.1562V38.3728C64.7289 39.0579 64.9093 39.7308 65.2511 40.3243C65.5929 40.9179 66.0842 41.4115 66.6761 41.7558L74.85 46.5106L75.6437 46.0464L67.4595 41.2917Z" fill="#FAFAFA"/>
<path d="M63.79 43.4371C63.1934 43.0973 62.6977 42.605 62.3536 42.0106C62.0095 41.4162 61.8294 40.741 61.8316 40.0541V39.8478C61.8315 39.1588 61.6493 38.482 61.3035 37.8861C60.9578 37.2902 60.4608 36.7963 59.8629 36.4545L48.4421 29.9258L47.6484 30.3899L59.0692 36.9186C59.667 37.2579 60.1642 37.7498 60.5101 38.3441C60.8559 38.9384 61.0381 39.6139 61.0379 40.3016V40.5182C61.0328 41.201 61.2061 41.8733 61.5406 42.4685C61.875 43.0637 62.3591 43.5611 62.9448 43.9115L71.1187 48.6662L71.9124 48.2124L63.79 43.4371Z" fill="#FAFAFA"/>
<path d="M60.0278 45.5823C59.4353 45.2413 58.9432 44.7499 58.6012 44.1577C58.2591 43.5656 58.0793 42.8936 58.0797 42.2097V41.9931C58.0795 41.304 57.8973 40.6273 57.5516 40.0313C57.2059 39.4354 56.7088 38.9416 56.1109 38.5998L44.6902 32.071L43.8965 32.5352L55.3069 39.0639C55.9047 39.4068 56.402 39.9006 56.7493 40.4961C57.0966 41.0916 57.2816 41.7678 57.286 42.4572V42.6635C57.2869 43.3485 57.4673 44.0214 57.8091 44.615C58.1509 45.2086 58.6422 45.7021 59.2341 46.0465L67.3977 50.8012L68.2017 50.3474L60.0278 45.5823Z" fill="#FAFAFA"/>
<path d="M77.3547 46.1599L65.6556 52.9156V51.812L77.3547 45.046V46.1599Z" fill="#3B55CA"/>
<path opacity="0.15" d="M77.3547 46.1599L65.6556 52.9156V51.812L77.3547 45.046V46.1599Z" fill="black"/>
<path d="M64.5837 52.1626L77.9834 44.3859C78.4773 44.1366 79.0228 44.0067 79.576 44.0067C80.1291 44.0067 80.6746 44.1366 81.1685 44.3859L85.508 46.8922C85.6922 46.9629 85.8523 47.085 85.9693 47.2441C86.0862 47.4032 86.1551 47.5925 86.1676 47.7895V48.5734C86.1481 48.7684 86.0766 48.9546 85.9606 49.1124C85.8445 49.2703 85.6882 49.394 85.508 49.4707L72.0566 57.2474C71.5627 57.4967 71.0173 57.6266 70.4641 57.6266C69.9109 57.6266 69.3655 57.4967 68.8716 57.2474L64.5321 54.7411C64.3551 54.6627 64.2014 54.5398 64.0858 54.3844C63.9702 54.229 63.8967 54.0463 63.8724 53.8541V53.0393C63.8989 52.8419 63.9793 52.6556 64.1048 52.5009C64.2303 52.3462 64.396 52.2292 64.5837 52.1626Z" fill="#263238"/>
<path d="M85.5595 48.7075L72.1081 56.4842C71.6142 56.7335 71.0688 56.8634 70.5156 56.8634C69.9624 56.8634 69.417 56.7335 68.9231 56.4842L64.5836 53.9779C64.392 53.9127 64.2256 53.7892 64.1077 53.6245C63.9899 53.4599 63.9265 53.2625 63.9265 53.06C63.9265 52.8575 63.9899 52.66 64.1077 52.4954C64.2256 52.3308 64.392 52.2072 64.5836 52.142L77.9834 44.3653C78.4773 44.116 79.0228 43.9861 79.5759 43.9861C80.1291 43.9861 80.6746 44.116 81.1685 44.3653L85.5079 46.8716C85.7016 46.9312 85.8716 47.05 85.9943 47.2113C86.1169 47.3727 86.1859 47.5684 86.1916 47.771C86.1973 47.9737 86.1394 48.173 86.026 48.341C85.9126 48.5089 85.7494 48.6371 85.5595 48.7075V48.7075Z" fill="#37474F"/>
<path d="M84.034 47.3151L80.4573 45.2523C80.2595 45.1509 80.0405 45.098 79.8182 45.098C79.596 45.098 79.3769 45.1509 79.1792 45.2523L78.7462 45.4998C78.3958 45.7061 78.3958 46.0361 78.7462 46.2321L82.3333 48.2949C82.5292 48.3962 82.7466 48.449 82.9672 48.449C83.1877 48.449 83.4051 48.3962 83.6011 48.2949L84.034 48.0473C84.4051 47.8514 84.4051 47.5213 84.034 47.3151Z" fill="#3B55CA"/>
<path d="M80.8799 49.1407L77.2929 47.0779C77.0969 46.9766 76.8795 46.9237 76.659 46.9237C76.4384 46.9237 76.221 46.9766 76.025 47.0779L75.5818 47.3254C75.2314 47.5317 75.2314 47.8617 75.5818 48.0577L79.1688 50.1205C79.3666 50.2218 79.5857 50.2747 79.8079 50.2747C80.0301 50.2747 80.2492 50.2218 80.447 50.1205L80.8799 49.8729C80.954 49.8446 81.0178 49.7944 81.0628 49.7291C81.1078 49.6637 81.1319 49.5862 81.1319 49.5068C81.1319 49.4274 81.1078 49.3499 81.0628 49.2845C81.0178 49.2191 80.954 49.169 80.8799 49.1407V49.1407Z" fill="#3B55CA"/>
<path d="M77.7154 50.9766L74.1387 48.9138C73.9409 48.8124 73.7219 48.7595 73.4997 48.7595C73.2774 48.7595 73.0584 48.8124 72.8606 48.9138L72.4277 49.1613C72.0669 49.3676 72.0669 49.6976 72.4277 49.8936L76.0147 51.9564C76.2107 52.0577 76.428 52.1105 76.6486 52.1105C76.8692 52.1105 77.0866 52.0577 77.2825 51.9564L77.7154 51.7088C78.0659 51.5026 78.0659 51.1313 77.7154 50.9766Z" fill="#3B55CA"/>
<path d="M74.5613 52.8021L70.9743 50.7393C70.7765 50.6379 70.5574 50.5851 70.3352 50.5851C70.113 50.5851 69.8939 50.6379 69.6962 50.7393L69.2632 50.9869C69.1856 51.0131 69.1182 51.063 69.0704 51.1296C69.0226 51.1963 68.9969 51.2762 68.9969 51.3582C68.9969 51.4401 69.0226 51.5201 69.0704 51.5867C69.1182 51.6533 69.1856 51.7032 69.2632 51.7295L72.8503 53.7923C73.048 53.8936 73.2671 53.9465 73.4893 53.9465C73.7116 53.9465 73.9306 53.8936 74.1284 53.7923L74.5613 53.5447C74.9118 53.3281 74.9118 52.9981 74.5613 52.8021Z" fill="#3B55CA"/>
<path d="M71.3969 54.6277L67.8099 52.5649C67.6139 52.4636 67.3965 52.4108 67.1759 52.4108C66.9554 52.4108 66.738 52.4636 66.542 52.5649L66.0988 52.8125C66.0212 52.8387 65.9537 52.8886 65.906 52.9553C65.8582 53.0219 65.8325 53.1018 65.8325 53.1838C65.8325 53.2658 65.8582 53.3457 65.906 53.4123C65.9537 53.4789 66.0212 53.5288 66.0988 53.5551L69.6858 55.6179C69.8836 55.7193 70.1027 55.7721 70.3249 55.7721C70.5471 55.7721 70.7662 55.7193 70.964 55.6179L71.3969 55.3703C71.7473 55.1537 71.7473 54.8237 71.3969 54.6277Z" fill="#3B55CA"/>
</svg>
